<?xml version="1.0" encoding="iso-8859-1"?>
<!-- Generator: Adobe Illustrator 12.0.1, SVG Export Plug-In . SVG Version: 6.00 Build 51448)  -->
<!DOCTYPE svg PUBLIC "-//W3C//DTD SVG 1.0//EN" "http://www.w3.org/TR/2001/REC-SVG-20010904/DTD/svg10.dtd" [
	<!ENTITY ns_svg "http://www.w3.org/2000/svg">
	<!ENTITY ns_xlink "http://www.w3.org/1999/xlink">
]>
<svg  version="1.0" id="Add" xmlns="&ns_svg;" xmlns:xlink="&ns_xlink;" width="276.5" height="276.5" viewBox="0 0 276.5 276.5"
	 overflow="visible" enable-background="new 0 0 276.5 276.5" xml:space="preserve">
<g>
	<path fill="#95C393" enable-background="new    " d="M261.5,87.75h-72.75V15c0-6.0751953-4.9248047-11-11-11h-79
		c-6.0751953,0-11,4.9248047-11,11v72.75H15c-6.0751953,0-11,4.9248047-11,11v79c0,6.0751953,4.9248047,11,11,11h72.75v72.75
		c0,6.0751953,4.9248047,11,11,11h79c6.0751953,0,11-4.9248047,11-11v-72.75h72.75c6.0751953,0,11-4.9248047,11-11v-79
		C272.5,92.6748047,267.5751953,87.75,261.5,87.75z"/>
	<path fill="#487A47" d="M98.75,0c-8.2709961,0-15,6.7290039-15,15c0,0,0,61.6054688,0,68.75c-7.1445312,0-68.75,0-68.75,0
		c-8.2709961,0-15,6.7290039-15,15v79c0,8.2714844,6.7290039,15,15,15c0,0,61.6054688,0,68.75,0c0,7.1445312,0,68.75,0,68.75
		c0,8.2714844,6.7290039,15,15,15h79c8.2714844,0,15-6.7285156,15-15c0,0,0-61.6054688,0-68.75c7.1445312,0,68.75,0,68.75,0
		c8.2714844,0,15-6.7285156,15-15v-79c0-8.2709961-6.7285156-15-15-15c0,0-61.6054688,0-68.75,0c0-7.1445312,0-68.75,0-68.75
		c0-8.2709961-6.7285156-15-15-15H98.75z M8,177.75v-79c0-3.8598633,3.1401367-7,7-7h76.75V15c0-3.8598633,3.1401367-7,7-7h79
		c3.859375,0,7,3.1401367,7,7v76.75h76.75c3.859375,0,7,3.1401367,7,7v79c0,3.859375-3.140625,7-7,7h-76.75v76.75
		c0,3.859375-3.140625,7-7,7h-79c-3.8598633,0-7-3.140625-7-7v-76.75H15C11.1401367,184.75,8,181.609375,8,177.75z"/>
	<radialGradient id="XMLID_2_" cx="114.875" cy="118.5712891" r="190.9187775" gradientUnits="userSpaceOnUse">
		<stop  offset="0" style="stop-color:#95C393"/>
		<stop  offset="1" style="stop-color:#6AA467"/>
	</radialGradient>
	<path fill="url(#XMLID_2_)" d="M254.453125,101.0009766H175.5V22.046875c0-2.7612305-2.2382812-5-5-5H106
		c-2.7617188,0-5,2.2387695-5,5v78.9541016H22.046875c-2.7617188,0-5,2.2382812-5,5v64.5c0,2.7617188,2.2382812,5,5,5H101
		v78.9521484c0,2.7617188,2.2382812,5,5,5h64.5c2.7617188,0,5-2.2382812,5-5v-78.9521484h78.953125c2.7617188,0,5-2.2382812,5-5
		v-64.5C259.453125,103.2392578,257.2148438,101.0009766,254.453125,101.0009766z"/>
	<path opacity="0.7" fill="#95C393" d="M124.2861328,124.6152344V17.046875H106c-2.7617188,0-5,2.2387695-5,5v78.9541016H22.046875
		c-2.7617188,0-5,2.2382812-5,5v18.6142578H124.2861328z"/>
	<path fill="#6AA467" d="M254.453125,101.0009766h-2.3974609v64.5380859c0,1.1044922-0.8955078,2-2,2h-82.1660156v82.1679688
		c0,1.1044922-0.8955078,2-2,2H101v2.7460938c0,2.7617188,2.2382812,5,5,5h64.5c2.7617188,0,5-2.2382812,5-5v-78.9521484h78.953125
		c2.7617188,0,5-2.2382812,5-5v-64.5C259.453125,103.2392578,257.2148438,101.0009766,254.453125,101.0009766z"/>
</g>
</svg>
