<?xml version="1.0" encoding="iso-8859-1"?>
<!-- Generator: Adobe Illustrator 12.0.1, SVG Export Plug-In . SVG Version: 6.00 Build 51448)  -->
<!DOCTYPE svg PUBLIC "-//W3C//DTD SVG 1.0//EN" "http://www.w3.org/TR/2001/REC-SVG-20010904/DTD/svg10.dtd" [
	<!ENTITY ns_svg "http://www.w3.org/2000/svg">
	<!ENTITY ns_xlink "http://www.w3.org/1999/xlink">
]>
<svg  version="1.0" id="Admin" xmlns="&ns_svg;" xmlns:xlink="&ns_xlink;" width="294.1884766" height="294.0981445"
	 viewBox="0 0 294.1884766 294.0981445" overflow="visible" enable-background="new 0 0 294.1884766 294.0981445"
	 xml:space="preserve">
<g>
	<path fill="#EFDEA5" d="M148.7177734,26.3457031C117.28125-5.0913086,64.4121094-3.1914062,30.6318359,30.5878906
		C-3.1484375,64.3681641-5.0478516,117.237793,26.3896484,148.6743164
		c21.0449219,21.0458984,51.6914062,27.1289062,79.7900391,18.7304688l6.6103516,6.625l15.0175781-0.3046875l7.7998047,7.7998047
		l-0.1269531,16.8046875l22.8046875,22.8046875l15.8046875-0.390625l-7.7207031,23.5244141l14.8417969,14.9414062
		l24.1796875-7.9013672l6.4082031,6.4072266l-0.1269531,16.8046875l15.5566406,15.5566406l30.7597656-0.3974609
		l27.5234375-27.546875c6.2480469-6.2480469,6.2480469-16.3789062,0-22.6269531L173.7519531,127.7446289l0.2910156-14.9682617
		l-6.609375-6.5908203C175.8535156,78.0737305,169.7773438,47.4038086,148.7177734,26.3457031z M92.8564453,53.2158203
		L53.2597656,92.8134766l-6.3642578-6.3637695c-8.9824219-8.9824219-8.9824219-23.5449219,0-32.5273438l7.0703125-7.0703125
		c8.9824219-8.9824219,23.5449219-8.9824219,32.5273438,0L92.8564453,53.2158203z"/>
	<path fill="#D48F44" d="M27.8032227,27.7592773C10.1337891,45.4291992-0.0004883,69.3999023,0,93.5253906
		c0,22.1938477,8.3676758,42.7841797,23.5610352,57.9770508c20.7119141,20.7128906,51.7041016,28.3671875,81.4042969,20.3486328
		c1.8452148,1.8486328,6.1992188,6.2128906,6.1992188,6.2128906s12.3413086-0.2509766,15.0200195-0.3046875
		c1.4135742,1.4130859,4.0170898,4.0166016,5.4101562,5.4101562c-0.0205078,2.7148438-0.1269531,16.8046875-0.1269531,16.8046875
		l25.2021484,25.2011719c0,0,7.1884766-0.1777344,11.8515625-0.2929688
		c-2.1015625,6.4042969-6.7167969,20.4667969-6.7167969,20.4667969l18.3056641,18.4277344
		c0,0,20.3779297-6.6582031,24.1884766-7.9042969c1.3779297,1.3779297,2.4365234,2.4365234,3.4873047,3.4873047
		c-0.0205078,2.7148438-0.1269531,16.8046875-0.1269531,16.8046875l17.9335938,17.9335938l34.0751953-0.4404297
		l28.6738281-28.6982422c3.8974609-3.8984375,5.8466797-9.0185547,5.8466797-14.140625
		c0-5.1210938-1.9492188-10.2431641-5.8486328-14.1416016c0,0-108.1992188-108.2006836-110.5556641-110.5571289
		c0.0517578-2.6743164,0.2910156-14.9716797,0.2910156-14.9716797s-4.3476562-4.3349609-6.1943359-6.1772461
		c2.1005859-7.7631836,3.1835938-15.6108398,3.1835938-23.3447266c0-21.8706055-8.2060547-42.7978516-23.5185547-58.109375
		C118.6005859-9.4287109,63.0898438-7.5258789,27.8032227,27.7592773z M29.2182617,145.8461914
		C15.5356445,132.1635742,8,113.5825195,8,93.5249023c-0.0004883-22.019043,9.2797852-43.9277344,25.4604492-60.1083984
		C65.6274414,1.25,116.0629883-0.652832,145.8891602,29.1743164h0.0004883
		c13.7890625,13.7880859,21.1738281,32.6743164,21.1738281,52.4526367c0,7.7509766-1.1337891,15.6391602-3.4619141,23.4111328
		l-0.6865234,2.2910156c0,0,5.4824219,5.4663086,7.0957031,7.0751953
		c-0.0517578,2.6782227-0.2910156,14.9648438-0.2910156,14.9648438l112.9638672,112.9643555
		c2.3388672,2.3398438,3.5087891,5.4121094,3.5087891,8.4853516s-1.1699219,6.1455078-3.5087891,8.4853516
		c0,0-24.2617188,24.2822266-26.375,26.3964844c-2.75,0.0351562-24.5996094,0.3173828-27.4443359,0.3544922
		c-1.8671875-1.8662109-11.3261719-11.3261719-13.1796875-13.1796875
		c0.0205078-2.7148438,0.1269531-16.8046875,0.1269531-16.8046875l-9.3291016-9.3271484
		c0,0-20.3486328,6.6494141-24.1708984,7.8984375c-2.3515625-2.3681641-9.0380859-9.0996094-11.3779297-11.4550781
		c1.2412109-3.7792969,8.7246094-26.5820312,8.7246094-26.5820312s-17.0322266,0.4208984-19.7578125,0.4882812
		c-2.0546875-2.0556641-18.3979492-18.3984375-20.4072266-20.4082031
		c0.0205078-2.7148438,0.1269531-16.8046875,0.1269531-16.8046875l-10.1894531-10.1894531
		c0,0-12.3330078,0.2509766-15.0151367,0.3046875c-1.6118164-1.6152344-7.0917969-7.1074219-7.0917969-7.1074219
		l-2.2895508,0.6845703C77.4477539,171.8178711,48.3964844,165.0258789,29.2182617,145.8461914z M151.5458984,23.5170898
		L151.5458984,23.5170898L151.5458984,23.5170898z"/>
	<path fill="#D48F44" d="M51.137207,44.0234375L44.0668945,51.09375
		c-5.0996094,5.1000977-7.9082031,11.8803711-7.9082031,19.0922852s2.8085938,13.9921875,7.9082031,19.0922852l9.1928711,9.1918945
		l45.253418-45.2543945l-9.1914062-9.1918945C78.7939453,33.4960938,61.6650391,33.4960938,51.137207,44.0234375z
		 M49.7236328,83.6210938c-3.5883789-3.5883789-5.5649414-8.3598633-5.5649414-13.4350586s1.9765625-9.8466797,5.5654297-13.4350586
		l7.0703125-7.0703125c3.5883789-3.5888672,8.3598633-5.5654297,13.4350586-5.5654297s9.8466797,1.9765625,13.4350586,5.5654297
		c0,0,1.7895508,1.7890625,3.5351562,3.5351562c-4.5019531,4.5019531-29.4379883,29.4384766-33.9399414,33.940918
		C51.5136719,85.4106445,49.7236328,83.6210938,49.7236328,83.6210938z"/>
	<linearGradient id="XMLID_3_" gradientUnits="userSpaceOnUse" x1="65.1557617" y1="27.6489258" x2="150.1559143" y2="186.6489868">
		<stop  offset="0.162921" style="stop-color:#EFDEA5"/>
		<stop  offset="0.359551" style="stop-color:#E1BF7F"/>
		<stop  offset="0.460674" style="stop-color:#EFDEA5"/>
		<stop  offset="0.674157" style="stop-color:#EFDEA5"/>
		<stop  offset="0.898876" style="stop-color:#E1BF7F"/>
	</linearGradient>
	<path fill="url(#XMLID_3_)" d="M141.9658203,36.2875977C114.3339844,8.6557617,68.234375,9.956543,39,39.190918
		C9.7646484,68.4262695,8.4638672,114.5258789,36.0957031,142.1577148
		c18.4970703,18.4970703,49.0263672,20.25,73.4775391,13.1142578l7.4707031,7.4833984l15.2099609-0.1171875l14.1259766,13.9306641
		l-0.0458984,16.4931641l16.3574219,16.3574219l26.234375-0.0712891l-9.8066406,31.5703125l4.8203125,4.9052734
		l23.8144531-8.3369141l15.3554688,15.3554688l-0.1621094,16.2490234l8.7617188,8.6796875l22.3105469-0.1152344
		l20.1601562-20.1787109c4.5527344-4.5537109,4.1328125-8.3808594-0.1542969-12.6660156L161.4667969,132.2509766
		l1.0957031-15.4111328l-7.2714844-7.2553711C162.4453125,85.1235352,160.4746094,54.7958984,141.9658203,36.2875977z
		 M108.078125,53.1669922l-54.75,54.75l-17.5898438-17.590332c-7.8955078-7.8950195-10.8242188-30.4936523-0.9267578-40.390625
		l15.2851562-15.2851562c10.5263672-10.5263672,32.4960938-6.9692383,40.3916016,0.9257812L108.078125,53.1669922z"/>
	
		<linearGradient id="XMLID_4_" gradientUnits="userSpaceOnUse" x1="200.1914062" y1="210.0922852" x2="215.1435242" y2="195.1401672">
		<stop  offset="0" style="stop-color:#EEDBA1"/>
		<stop  offset="1" style="stop-color:#E1BF7F"/>
	</linearGradient>
	<path fill="url(#XMLID_4_)" d="M271.3134766,260.3442383L154.1767578,143.2075195
		c-2.34375-2.3427734-6.1425781-2.3427734-8.4853516,0l-2.5341797,2.5341797c-2.3427734,2.3427734-2.34375,6.1425781,0,8.4853516
		l117.1416016,117.1416016L271.3134766,260.3442383z"/>
	<path opacity="0.3" fill="#D48F44" d="M142.9902344,147.762207l2.5341797-2.5341797
		c2.3427734-2.3427734,6.1416016-2.3427734,8.4853516,0l116.2109375,116.2099609l1.0927734-1.09375L154.1767578,143.2075195
		c-2.34375-2.3427734-6.1425781-2.3427734-8.4853516,0l-2.5341797,2.5341797
		c-1.3032227,1.3032227-1.8544922,3.0546875-1.7080078,4.7578125
		C141.7084961,149.4985352,142.2060547,148.5463867,142.9902344,147.762207z"/>
</g>
</svg>
