<?xml version="1.0" encoding="iso-8859-1"?>
<!-- Generator: Adobe Illustrator 12.0.1, SVG Export Plug-In . SVG Version: 6.00 Build 51448)  -->
<!DOCTYPE svg PUBLIC "-//W3C//DTD SVG 1.0//EN" "http://www.w3.org/TR/2001/REC-SVG-20010904/DTD/svg10.dtd" [
	<!ENTITY ns_svg "http://www.w3.org/2000/svg">
	<!ENTITY ns_xlink "http://www.w3.org/1999/xlink">
]>
<svg  version="1.0" id="Alert" xmlns="&ns_svg;" xmlns:xlink="&ns_xlink;" width="285.6625977" height="286.2319336"
	 viewBox="0 0 285.6625977 286.2319336" overflow="visible" enable-background="new 0 0 285.6625977 286.2319336"
	 xml:space="preserve">
<g>
	<radialGradient id="XMLID_6_" cx="178.4038086" cy="236.1176758" r="51.5061646" gradientUnits="userSpaceOnUse">
		<stop  offset="0" style="stop-color:#F3E0B6"/>
		<stop  offset="1" style="stop-color:#E3B681"/>
	</radialGradient>
	<path fill="url(#XMLID_6_)" enable-background="new    " d="M198.0512695,168.2338867
		c15.3359375-0.0009766,27.7373047,12.4277344,27.7441406,27.7431641c-0.0126953,15.3232422-12.4140625,27.75-27.7509766,27.7509766
		c-15.3144531-0.0078125-27.7353516-12.4287109-27.7431641-27.7441406
		C170.3081055,180.6547852,182.7231445,168.2397461,198.0512695,168.2338867z"/>
	<path fill="#D48F44" d="M198.0512695,164.2338867h-0.0019531c-17.4980469,0.0068359-31.7402344,14.2490234-31.7480469,31.7480469
		c0.0087891,17.4980469,14.2480469,31.7373047,31.7412109,31.7460938
		c17.4951172-0.0009766,31.7382812-14.2431641,31.7529297-31.7480469
		C229.7875977,178.472168,215.5473633,164.2329102,198.0512695,164.2338867z M221.7954102,195.9790039
		c-0.0107422,13.0917969-10.6660156,23.7480469-23.7509766,23.7490234
		c-13.0839844-0.0068359-23.7363281-10.6591797-23.7431641-23.7460938
		c0.0058594-13.0878906,10.6611328-23.7431641,23.7519531-23.7480469
		C211.1391602,172.2338867,221.7895508,182.8852539,221.7954102,195.9790039z"/>
	
		<radialGradient id="XMLID_7_" cx="32.1464844" cy="214.1694336" r="221.5022888" gradientTransform="matrix(0.7071 -0.7071 0.7071 0.7071 -132.1250458 -92.1669922)" gradientUnits="userSpaceOnUse">
		<stop  offset="0" style="stop-color:#F3E0B6"/>
		<stop  offset="1" style="stop-color:#E3B681"/>
	</radialGradient>
	<path fill="url(#XMLID_7_)" enable-background="new    " d="M217.3911133,59.8735352l-13.6074219,13.6166992
		c-24.1474609-18.5849609-49.6054688-31.690918-75.9853516-52.8378906
		C99.1381836-2.3227539,78.2836914,0.1601562,60.7260742,17.7265625L17.3696289,61.0732422
		C-0.1870117,78.6484375-1.8305664,98.7753906,20.550293,127.8842773
		c18.5322266,24.1025391,33.9189453,51.9228516,52.6015625,76.2392578l-13.3222656,13.3115234
		c-8.2412109,8.2431641-6.1777344,23.6728516,0.7558594,30.6083984l27.5058594,27.5019531
		c9.5419922,9.5537109,21.6152344,8.2519531,29.8583984,0.0087891l157.5449219-157.5605469
		c8.2421875-8.2431641,8.2431641-21.6079102,0.0009766-29.8598633l-26.1982422-26.1948242
		C241.0639648,53.7055664,225.6352539,51.6318359,217.3911133,59.8735352z"/>
	<path fill="#D48F44" d="M17.3793945,130.3222656c9.1650391,11.9189453,17.7460938,25.0532227,26.0449219,37.7553711
		c7.7792969,11.9072266,15.8310547,24.1552734,24.4609375,35.6542969
		c-3.2558594,3.2529297-10.8828125,10.8730469-10.8828125,10.8730469
		c-9.8330078,9.8359375-7.6279297,27.8818359,0.7539062,36.265625l27.5058594,27.5039062
		c5.1337891,5.1386719,11.2441406,7.8564453,17.6699219,7.8574219c6.4433594,0.0019531,12.7822266-2.7861328,17.8457031-7.8496094
		l157.5449219-157.5600586c9.7861328-9.7875977,9.7861328-25.7197266,0.0019531-35.5161133l-26.1992188-26.1958008
		c-9.3525391-9.3525391-27.4033203-12.2231445-37.5625-2.065918c0,0-7.8818359,7.8881836-11.1679688,11.1772461
		c-10.2890625-7.71875-20.6259766-14.4794922-31.5195312-21.5517578
		c-13.5078125-8.7680664-27.4755859-17.8359375-41.5751953-29.1386719
		c-28.03125-22.4707031-51.7148438-23.3320312-72.4033203-2.6323242L14.5415039,58.2446289
		C-5.7299805,78.5371094-4.8276367,101.4399414,17.3793945,130.3222656z M76.3237305,201.6879883
		c-9.2558594-12.0488281-17.8710938-25.234375-26.2021484-37.9863281
		c-8.3818359-12.828125-17.0488281-26.0932617-26.4003906-38.2558594
		C3.9047852,99.671875,2.8520508,81.2666016,20.199707,63.9008789l43.3554688-43.3452148
		c17.7587891-17.769043,36.7998047-16.7758789,61.7412109,3.2177734
		c14.4121094,11.5527344,28.5507812,20.7314453,42.2226562,29.6069336
		c11.7529297,7.6293945,22.8544922,14.8359375,33.8251953,23.2797852l2.7851562,2.1435547
		c0,0,16.0878906-16.0991211,16.0898438-16.1015625c6.8105469-6.8095703,19.703125-4.4814453,26.25,2.0649414l26.1972656,26.1948242
		c6.6669922,6.6748047,6.6679688,17.5336914,0,24.2041016L115.121582,272.7250977
		c-3.5527344,3.5527344-7.8808594,5.5087891-12.1875,5.5078125c-4.2578125-0.0019531-8.4111328-1.9082031-12.0136719-5.5136719
		L63.4135742,245.215332c-5.6640625-5.6660156-7.1552734-18.5507812-0.7548828-24.9521484l15.8037109-15.7910156
		L76.3237305,201.6879883z"/>
	<linearGradient id="XMLID_8_" gradientUnits="userSpaceOnUse" x1="92.4106445" y1="242.9741211" x2="250.5962524" y2="84.7879868">
		<stop  offset="0.275281" style="stop-color:#F1DDB1"/>
		<stop  offset="0.365169" style="stop-color:#F1CE9F"/>
		<stop  offset="0.488764" style="stop-color:#F1CE9F"/>
		<stop  offset="0.5561801" style="stop-color:#F5E5BB"/>
		<stop  offset="0.6217599" style="stop-color:#F3E0B5"/>
		<stop  offset="0.7080712" style="stop-color:#EED3A5"/>
		<stop  offset="0.8055617" style="stop-color:#E6BD89"/>
		<stop  offset="0.831461" style="stop-color:#E3B681"/>
	</linearGradient>
	<path fill="url(#XMLID_8_)" d="M78.4624023,204.472168l-15.8037109,15.7910156
		c-6.4003906,6.4013672-4.9091797,19.2861328,0.7548828,24.9521484l27.5068359,27.5039062
		c3.6025391,3.6054688,7.7558594,5.5117188,12.0136719,5.5136719c4.3066406,0.0009766,8.6347656-1.9550781,12.1875-5.5078125
		l157.5449219-157.559082c6.6679688-6.6704102,6.6669922-17.5292969,0-24.2041016l-26.1972656-26.1948242
		c-6.546875-6.5463867-19.4394531-8.8745117-26.25-2.0649414c-0.0019531,0.0024414-16.0898438,16.1015625-16.0898438,16.1015625
		L78.4624023,204.472168z"/>
	<path opacity="0.5" fill="#F9EED9" d="M78.4624023,204.472168l-15.8037109,15.7910156
		c-6.4003906,6.4013672-4.9091797,19.2861328,0.7548828,24.9521484l27.5068359,27.5039062
		c3.6025391,3.6054688,7.7558594,5.5117188,12.0136719,5.5136719c1.4433594,0,2.8862305-0.2382812,4.3041992-0.6630859
		l-37.4985352-37.4990234c-4.2949219-4.2958984-4.2949219-11.2607422,0.0009766-15.5566406L235.2495117,59.0053711
		c-5.4609375-1.0688477-11.2050781-0.1279297-15.0302734,3.6967773
		c-0.0019531,0.0024414-16.0898438,16.1015625-16.0898438,16.1015625L78.4624023,204.472168z"/>
	<path opacity="0.5" fill="#D48F44" d="M59.1289062,25.0556641c2.5644531,3.7114258,4.0737305,8.2060547,4.0795898,13.046875
		c-0.0039062,6.1552734-2.4057617,11.9414062-6.7631836,16.2924805c-4.3500977,4.3447266-10.1264648,6.7348633-16.262207,6.7304688
		c-4.7294922,0.0004883-9.2333984-1.4267578-13.0429688-4.0561523c3.6582031,4.7299805,9.5585938,7.5595703,16.3925781,7.1635742
		c11.8779297-0.6811523,22.0888672-10.8911133,22.7861328-22.7861328
		C66.7060547,34.6152344,63.8662109,28.7138672,59.1289062,25.0556641z"/>
	<linearGradient id="XMLID_9_" gradientUnits="userSpaceOnUse" x1="49.715332" y1="49.6899414" x2="128.9101105" y2="128.8852692">
		<stop  offset="0.0730337" style="stop-color:#F9EED9"/>
		<stop  offset="0.174157" style="stop-color:#F3E0B6"/>
		<stop  offset="1" style="stop-color:#E3B681"/>
	</linearGradient>
	<path opacity="0.5" fill="url(#XMLID_9_)" enable-background="new    " d="M99.7661133,20.1254883
		C90.090332,14.6430664,77.3325195,18.75,68.394043,27.6928711l-3.9516602,3.9511719
		c1.3852539,2.8852539,2.0800781,6.2133789,1.8764648,9.8027344C65.621582,53.3417969,55.4106445,63.5517578,43.5327148,64.2329102
		c-3.5961914,0.2084961-6.9291992-0.4833984-9.8173828-1.8686523l-6.3466797,6.3452148
		c-8.9667969,8.9755859-12.6533203,20.0625-7.1855469,31.1772461c1.7636719,3.5854492,27.3125-12.5825195,47.8310547-33.1948242
		C88.1040039,46.5097656,103.6489258,20.8427734,99.7661133,20.1254883z"/>
	<radialGradient id="XMLID_10_" cx="30.7626953" cy="28.7705078" r="18.1258335" gradientUnits="userSpaceOnUse">
		<stop  offset="0" style="stop-color:#F3E0B6"/>
		<stop  offset="1" style="stop-color:#E3B681"/>
	</radialGradient>
	<path fill="url(#XMLID_10_)" enable-background="new    " d="M40.1821289,19.0737305
		c10.4951172,0.0068359,19.0136719,8.5253906,19.0263672,19.0263672
		c-0.0068359,10.5073242-8.5322266,19.0327148-19.0253906,19.0253906
		c-10.5136719,0.0004883-19.0322266-8.5180664-19.0263672-19.0263672
		C21.1430664,27.5991211,29.668457,19.0737305,40.1821289,19.0737305z"/>
	<path fill="#D48F44" d="M40.1821289,15.0737305c-6.1591797,0-11.9477539,2.3999023-16.2993164,6.7573242
		c-4.3452148,4.3510742-6.7338867,10.1303711-6.7260742,16.2734375c-0.003418,6.1416016,2.3886719,11.9238281,6.7358398,16.2729492
		c4.3496094,4.3515625,10.1352539,6.7485352,16.2905273,6.7480469c6.1357422,0.0043945,11.9121094-2.3857422,16.262207-6.7304688
		c4.3574219-4.3510742,6.7592773-10.137207,6.7631836-16.2924805c-0.0151367-12.6928711-10.34375-23.0205078-23.0239258-23.0288086
		H40.1821289z M29.5507812,48.722168c-2.8339844-2.8354492-4.394043-6.6040039-4.394043-10.6123047
		c0-0.0029297,0-0.0219727,0-0.0283203c0-4.0043945,1.5571289-7.7646484,4.3862305-10.597168
		c2.840332-2.84375,6.6181641-4.4101562,10.6376953-4.4106445c8.2763672,0.0063477,15.0175781,6.7490234,15.027832,15.03125
		c-0.0024414,4.0107422-1.5708008,7.7885742-4.4160156,10.6293945c-2.8354492,2.8320312-6.5981445,4.3911133-10.5957031,4.3911133
		c-0.0039062,0-0.0073242,0-0.0107422,0C36.1650391,53.1254883,32.3891602,51.5620117,29.5507812,48.722168z"/>
</g>
</svg>
