<?xml version="1.0" encoding="iso-8859-1"?>
<!-- Generator: Adobe Illustrator 12.0.1, SVG Export Plug-In . SVG Version: 6.00 Build 51448)  -->
<!DOCTYPE svg PUBLIC "-//W3C//DTD SVG 1.0//EN" "http://www.w3.org/TR/2001/REC-SVG-20010904/DTD/svg10.dtd" [
	<!ENTITY ns_svg "http://www.w3.org/2000/svg">
	<!ENTITY ns_xlink "http://www.w3.org/1999/xlink">
]>
<svg  version="1.0" id="Arrow__x28_Left_x29_" xmlns="&ns_svg;" xmlns:xlink="&ns_xlink;" width="280.8256836" height="227.6020508"
	 viewBox="0 0 280.8256836 227.6020508" overflow="visible" enable-background="new 0 0 280.8256836 227.6020508"
	 xml:space="preserve">
<g>
	<radialGradient id="XMLID_2_" cx="40.487793" cy="30.7817383" r="297.3560791" gradientUnits="userSpaceOnUse">
		<stop  offset="0" style="stop-color:#7FA3D1"/>
		<stop  offset="1" style="stop-color:#567CB0"/>
	</radialGradient>
	<path fill="url(#XMLID_2_)" enable-background="new    " d="M143.612793,221.1987305
		c-4.9794922-3.8125-137.1391602-107.5395508-137.1391602-107.5395508S138.7612305,9.5683594,143.5161133,6.5522461
		c4.7539062-3.015625,8.4082031-2.5258789,8.4082031-2.5258789c4.5253906,0,10.7041016,5.8217773,10.7041016,10.7036133v39.234375
		h103.3691406c5.9804688,0,10.828125,4.8476562,10.828125,10.8276367v97.9389648
		c0,5.9794922-4.8476562,10.8271484-10.828125,10.8271484H162.628418v39.265625
		c0,4.8818359-6.1787109,10.7021484-10.7041016,10.7021484C151.9243164,223.5258789,147.5952148,224.2475586,143.612793,221.1987305
		z"/>
	<path fill="#204780" d="M141.3735352,3.1743164C136.5854492,6.2114258,17.5566406,99.8486328,4,110.515625l-4,3.1474609
		l4.0039062,3.1430664c5.3969727,4.2353516,132.2353516,103.7851562,137.1772461,107.5683594l0,0
		c5.2099609,3.9882812,10.7822266,3.2001953,11.4013672,3.0966797l-0.6582031,0.0546875
		c6.8710938,0,14.7041016-7.8320312,14.7041016-14.7021484c0,0,0-28.8125,0-35.265625c7.3925781,0,99.3691406,0,99.3691406,0
		c8.1757812,0,14.828125-6.6513672,14.828125-14.8271484V64.7919922c0-8.1757812-6.6523438-14.8276367-14.828125-14.8276367
		c0,0-91.9765625,0-99.3691406,0c0-6.4521484,0-35.234375,0-35.234375c0-6.8706055-7.8330078-14.7036133-14.7041016-14.7036133
		l0.53125,0.0356445C151.934082-0.0083008,147.1889648-0.5146484,141.3735352,3.1743164z M145.6655273,9.9257812
		c3.3134766-2.1020508,5.7226562-1.9316406,5.8242188-1.9233398l0.1630859,0.0131836l0.2714844,0.0107422
		c2.3085938,0,6.7041016,4.0073242,6.7041016,6.7036133v43.234375h107.3691406c3.7646484,0,6.828125,3.0629883,6.828125,6.8276367
		v97.9389648c0,3.7646484-3.0634766,6.8271484-6.828125,6.8271484H158.628418v43.265625
		c0,2.6953125-4.3955078,6.7021484-6.7041016,6.7021484h-0.2675781l-0.3310547,0.0449219
		c-0.1132812,0.015625-2.8007812,0.3496094-5.28125-1.5478516l0,0
		c-4.4174805-3.3828125-111.0327148-87.0517578-133.0966797-104.3676758
		C65.7739258,72.0981445,141.9799805,12.324707,145.6655273,9.9257812z"/>
	<path opacity="0.6" fill="#7FA3D1" d="M26.5571289,113.6591797c0,0,113.2485352-89.0473633,117.7431641-92.4394531
		c3.8261719-2.8876953,4.9472656-3.7080078,6.1298828-2.9829102s1.0058594,1.6010742,1.0058594,6.4829102v40.7441406h110.0078125
		c2.1269531,0,3.828125,1.8598633,3.828125,3.8276367v44.2910156L26.5571289,113.6591797z"/>
	<path fill="#A9C7EB" d="M26.5571289,113.6591797c0,0,60.0185547-47.1923828,94.4023438-74.1738281l16.3027344-12.7807617
		c3.9121094-3.0625,6.4414062-5.0341797,7.0380859-5.4848633c3.8261719-2.8876953,4.9472656-3.7080078,6.1298828-2.9829102
		s1.0058594,1.6010742,1.0058594,6.4829102v1.0375977L39.3178711,113.6552734L26.5571289,113.6591797z"/>
	<path fill="#567CB0" d="M142.6333008,163.612793c0-5.5136719,4.4863281-10,10-10h109.1523438c2.2089844,0,4,1.7910156,4,4
		s-1.7910156,4-4,4H152.6333008c-1.1025391,0-2,0.8974609-2,2v40.2421875c0,2.2089844-1.7910156,4-4,4s-4-1.7910156-4-4V163.612793z
		"/>
</g>
</svg>
