<?xml version="1.0" encoding="iso-8859-1"?>
<!-- Generator: Adobe Illustrator 12.0.1, SVG Export Plug-In . SVG Version: 6.00 Build 51448)  -->
<!DOCTYPE svg PUBLIC "-//W3C//DTD SVG 1.0//EN" "http://www.w3.org/TR/2001/REC-SVG-20010904/DTD/svg10.dtd" [
	<!ENTITY ns_svg "http://www.w3.org/2000/svg">
	<!ENTITY ns_xlink "http://www.w3.org/1999/xlink">
]>
<svg  version="1.0" id="Arrow__x28_Refresh_x29_" xmlns="&ns_svg;" xmlns:xlink="&ns_xlink;"
	 width="260.7568359" height="267.8969727" viewBox="0 0 260.7568359 267.8969727"
	 overflow="visible" enable-background="new 0 0 260.7568359 267.8969727" xml:space="preserve">
<g>
	<linearGradient id="XMLID_5_" gradientUnits="userSpaceOnUse" x1="244.0117188" y1="85.7119141" x2="23.9118919" y2="27.5532341">
		<stop  offset="0" style="stop-color:#95C393"/>
		<stop  offset="1" style="stop-color:#6AA467"/>
	</linearGradient>
	<path fill="url(#XMLID_5_)" d="M251.8955078,49.2895508c-6.9443359,4.9477539-21.9794922,15.659668-21.9794922,15.659668
		l-2.1435547-4.0136719C209.0136719,25.8100586,178.0556641,8,135.7578125,8
		c-23.9335938,0-47.315918,9.9423828-64.1508789,27.2773438C58.2446289,49.0371094,49.9243164,66.3076172,47.2373047,84.9902344
		C61.8291016,62.875,92.0263672,50.9931641,115.4941406,50.9931641c38.9677734,0,55.7861328,27.4052734,64.8222656,42.128418
		l3.1103516,5.0537109c0,0-15.2314453,11.1225586-22.59375,16.4990234
		c12.6318359,3.7055664,83.2177734,24.4121094,91.8339844,26.9394531C252.5917969,132.65625,252,61.7670898,251.8955078,49.2895508z
		"/>
	<path fill="#B6D9B4" d="M229.9160156,64.9492188l-2.1435547-4.0136719C209.0136719,25.8100586,178.0556641,8,135.7578125,8
		c-23.9335938,0-47.315918,9.9423828-64.1508789,27.2773438C60.7158203,46.4921875,53.1767578,60.0405273,49.3051758,74.7836914
		c12.3764648-36.5224609,46.7041016-63.3261719,85.0112305-63.3261719c51.5820312,0,79.2304688,30.4863281,94.6123047,59.2910156
		l23.0097656-16.2885742c-0.0185547-2.1972656-0.0332031-3.9609375-0.0429688-5.1704102
		C244.9511719,54.2373047,229.9160156,64.9492188,229.9160156,64.9492188z"/>
	<radialGradient id="XMLID_6_" cx="110.8041992" cy="193.090332" r="86.6411209" gradientUnits="userSpaceOnUse">
		<stop  offset="0" style="stop-color:#95C393"/>
		<stop  offset="1" style="stop-color:#6AA467"/>
	</radialGradient>
	<path fill="url(#XMLID_6_)" d="M145.2626953,216.9047852c-38.9677734,0-55.7861328-27.40625-64.8222656-42.1289062
		l-3.1103516-5.0527344c0,0,15.2314453-11.1230469,22.59375-16.5
		c-12.6318359-3.7050781-83.2177734-24.4121094-91.8339844-26.9394531
		c0.0751953,8.9570312,0.6669922,79.8476562,0.7714844,92.3242188c6.9443359-4.9472656,21.9794922-15.6601562,21.9794922-15.6601562
		l2.1435547,4.0136719c18.7587891,35.1269531,49.7167969,52.9355469,92.0146484,52.9355469
		c23.9335938,0,47.3144531-9.9414062,64.1503906-27.2773438c13.3613281-13.7597656,21.6816406-31.0292969,24.3691406-49.7128906
		C198.9267578,205.0219727,168.7294922,216.9047852,145.2626953,216.9047852z"/>
	
		<linearGradient id="XMLID_7_" gradientUnits="userSpaceOnUse" x1="70.0493164" y1="150.0913086" x2="216.4565582" y2="250.2180176">
		<stop  offset="0" style="stop-color:#95C393"/>
		<stop  offset="1" style="stop-color:#6AA467"/>
	</linearGradient>
	<path fill="url(#XMLID_7_)" d="M212.4394531,184.4672852c-14.9580078,21.109375-44.2695312,32.4375-67.1767578,32.4375
		c-38.9677734,0-55.7861328-27.40625-64.8222656-42.1289062l-3.1103516-5.0527344c0,0,15.2314453-11.1230469,22.59375-16.5
		c-12.5361328-3.6767578-82.140625-24.0961914-91.6162109-26.8754883
		c29.2055664,39.3120117,59.8974609,79.9418945,70.3789062,91.434082
		c22.9414062,25.1523438,85.390625,20.7480469,114.7050781-8.5664062
		C200.8603516,201.7446289,207.2177734,193.3959961,212.4394531,184.4672852z"/>
	<path fill="#6AA467" d="M211.4482422,193.1235352c-12.3798828,36.5175781-46.7050781,63.3164062-85.0078125,63.3164062
		c-51.5820312,0-79.2304688-30.4863281-94.6123047-59.2910156L8.8183594,213.4370117
		c0.0180664,2.1982422,0.0327148,3.9619141,0.0429688,5.1708984c6.9443359-4.9472656,21.9794922-15.6601562,21.9794922-15.6601562
		l2.1435547,4.0136719c18.7587891,35.1269531,49.7167969,52.9355469,92.0146484,52.9355469
		c23.9335938,0,47.3144531-9.9414062,64.1503906-27.2773438
		C200.0371094,221.4067383,207.5751953,207.8637695,211.4482422,193.1235352z"/>
	<path fill="#B6D9B4" d="M99.9238281,153.2231445c-11.0825195-3.2509766-66.769043-19.5869141-86.0830078-25.2524414
		l79.8828125,29.7807617C96.0244141,156.0708008,98.1928711,154.487793,99.9238281,153.2231445z"/>
	<radialGradient id="XMLID_8_" cx="150.3876953" cy="87.6176758" r="81.625" gradientUnits="userSpaceOnUse">
		<stop  offset="0" style="stop-color:#95C393"/>
		<stop  offset="1" style="stop-color:#6AA467"/>
	</radialGradient>
	<path fill="url(#XMLID_8_)" d="M182.0703125,50.1152344c-22.9414062-25.1518555-85.390625-20.746582-114.7055664,8.5678711
		c-7.465332,7.4658203-13.8183594,15.8085938-19.0385742,24.7324219
		c14.9614258-21.1005859,44.2651367-32.4223633,67.1679688-32.4223633c38.9677734,0,55.7861328,27.4052734,64.8222656,42.128418
		l3.1103516,5.0537109c0,0-15.2314453,11.1225586-22.59375,16.4990234
		c12.5361328,3.6777344,82.140625,24.0957031,91.6162109,26.8759766
		C223.2441406,102.2373047,192.5517578,61.6074219,182.0703125,50.1152344z"/>
	<path fill="#6AA467" d="M167.0322266,110.1469727c-2.3007812,1.6801758-4.4677734,3.2631836-6.1992188,4.5273438
		c11.0800781,3.2504883,66.7451172,19.5800781,86.0703125,25.2490234L167.0322266,110.1469727z"/>
	<g>
		<path fill="#487A47" d="M65.8681641,29.7041016c-18.6005859,19.1533203-28.4111328,44.5009766-27.6240234,71.3735352
			c0.105957,3.9042969,0.5083008,6.6455078,0.675293,8.6064453c2.0688477-5.0419922,7.9487305-13.7373047,10.1157227-16.5507812
			c15.7412109-20.4360352,42.7363281-34.1401367,66.4589844-34.1401367c33.5400391,0,48.3642578,22.6538086,57.2441406,37.0810547
			c-4.6855469,3.4223633-29.7275391,21.7084961-29.7275391,21.7084961l117.7460938,34.5419922l-0.9902344-118.4658203
			c0,0-21.9052734,15.6069336-27.1660156,19.3549805C217.953125,28.0488281,189.5751953,0,135.7578125,0
			C109.6743164,0,84.2006836,10.8266602,65.8681641,29.7041016z M71.6069336,35.2773438
			C88.4418945,17.9423828,111.8242188,8,135.7578125,8c42.2978516,0,73.2558594,17.8100586,92.0146484,52.9355469
			l2.1435547,4.0136719c0,0,15.0351562-10.7119141,21.9794922-15.659668
			C252,61.7670898,252.5917969,132.65625,252.6669922,141.6137695
			c-8.6162109-2.5273438-79.2021484-23.2338867-91.8339844-26.9394531c7.3623047-5.3764648,22.59375-16.4990234,22.59375-16.4990234
			l-3.1103516-5.0537109c-9.0361328-14.7231445-25.8544922-42.128418-64.8222656-42.128418
			c-23.4677734,0-53.6650391,11.8818359-68.2568359,33.9970703C49.9243164,66.3076172,58.2446289,49.0371094,71.6069336,35.2773438z
			"/>
	</g>
	<g>
		<path fill="#487A47" d="M194.8876953,238.1938477c18.6015625-19.1542969,28.4121094-44.5019531,27.625-71.3730469
			c-0.1074219-3.9042969-0.5097656-6.6464844-0.6757812-8.6074219c-2.0683594,5.0429688-7.9492188,13.7382812-10.1152344,16.5507812
			c-15.7421875,20.4355469-42.7363281,34.140625-66.4589844,34.140625c-33.5400391,0-48.3642578-22.6542969-57.2441406-37.0820312
			c4.6855469-3.421875,29.7275391-21.7070312,29.7275391-21.7070312L0,115.5727539l0.9902344,118.4667969
			c0,0,21.9052734-15.6074219,27.1660156-19.3554688c14.6474609,25.1640625,43.0253906,53.2128906,96.8427734,53.2128906
			C151.0830078,267.8969727,176.5556641,257.0708008,194.8876953,238.1938477z M189.1494141,232.6196289
			c-16.8359375,17.3359375-40.2167969,27.2773438-64.1503906,27.2773438c-42.2978516,0-73.2558594-17.8085938-92.0146484-52.9355469
			l-2.1435547-4.0136719c0,0-15.0351562,10.7128906-21.9794922,15.6601562
			c-0.1044922-12.4765625-0.6962891-83.3671875-0.7714844-92.3242188
			c8.6162109,2.5273438,79.2021484,23.234375,91.8339844,26.9394531c-7.3623047,5.3769531-22.59375,16.5-22.59375,16.5
			l3.1103516,5.0527344c9.0361328,14.7226562,25.8544922,42.1289062,64.8222656,42.1289062
			c23.4667969,0,53.6640625-11.8828125,68.2558594-33.9980469
			C210.8310547,201.590332,202.5107422,218.8598633,189.1494141,232.6196289z"/>
	</g>
</g>
</svg>
