<?xml version="1.0" encoding="iso-8859-1"?>
<!-- Generator: Adobe Illustrator 12.0.1, SVG Export Plug-In . SVG Version: 6.00 Build 51448)  -->
<!DOCTYPE svg PUBLIC "-//W3C//DTD SVG 1.0//EN" "http://www.w3.org/TR/2001/REC-SVG-20010904/DTD/svg10.dtd" [
	<!ENTITY ns_svg "http://www.w3.org/2000/svg">
	<!ENTITY ns_xlink "http://www.w3.org/1999/xlink">
]>
<svg  version="1.0" id="Arrow__x28_Right_x29_" xmlns="&ns_svg;" xmlns:xlink="&ns_xlink;"
	 width="280.8251953" height="227.6025391" viewBox="0 0 280.8251953 227.6025391"
	 overflow="visible" enable-background="new 0 0 280.8251953 227.6025391" xml:space="preserve">
<g>
	<radialGradient id="XMLID_2_" cx="25.0136719" cy="6.7822266" r="288.7379761" gradientUnits="userSpaceOnUse">
		<stop  offset="0" style="stop-color:#7FA3D1"/>
		<stop  offset="1" style="stop-color:#567CB0"/>
	</radialGradient>
	<path fill="url(#XMLID_2_)" enable-background="new    " d="M137.2128906,221.1992188
		c4.9794922-3.8125,137.1386719-107.5395508,137.1386719-107.5395508S142.0644531,9.5688477,137.3095703,6.5527344
		c-4.7539062-3.015625-8.4082031-2.5258789-8.4082031-2.5258789c-4.5253906,0-10.7041016,5.8217773-10.7041016,10.7036133v39.234375
		H14.828125C8.8476562,53.9648438,4,58.8125,4,64.7924805v97.9389648c0,5.9794922,4.8476562,10.8271484,10.828125,10.8271484
		h103.3691406v39.265625c0,4.8818359,6.1787109,10.7021484,10.7041016,10.7021484
		C128.9013672,223.5263672,133.2304688,224.2480469,137.2128906,221.1992188z"/>
	<path fill="#204780" d="M128.3701172,0.0625l0.53125-0.0356445c-6.8710938,0-14.7041016,7.8330078-14.7041016,14.7036133
		c0,0,0,28.7822266,0,35.234375c-7.3930664,0-99.3691406,0-99.3691406,0C6.6518555,49.9648438,0,56.6166992,0,64.7924805v97.9389648
		c0,8.1757812,6.6518555,14.8271484,14.828125,14.8271484c0,0,91.9760742,0,99.3691406,0c0,6.453125,0,35.265625,0,35.265625
		c0,6.8701172,7.8330078,14.7021484,14.7041016,14.7021484l-0.6577148-0.0546875
		c0.6181641,0.1035156,6.190918,0.8925781,11.4008789-3.0966797l0,0
		c4.9414062-3.7832031,131.7792969-103.3330078,137.1767578-107.5683594l4.0039062-3.1430664l-4-3.1474609
		C263.2685547,99.8491211,144.2402344,6.2119141,139.4521484,3.1748047
		C133.6362305-0.5146484,128.8920898-0.0078125,128.3701172,0.0625z M8,162.7314453V64.7924805
		c0-3.7646484,3.0629883-6.8276367,6.828125-6.8276367h107.3691406v-43.234375c0-2.6962891,4.3955078-6.7036133,6.7041016-6.7036133
		h0.1635742l0.2714844-0.0239258c0.1005859-0.0083008,2.5102539-0.1787109,5.8305664,1.9277344
		c3.6791992,2.3945312,79.8847656,62.1679688,132.7109375,103.7250977
		C245.8134766,130.9716797,139.1987305,214.640625,134.78125,218.0234375l0,0
		c-2.4804688,1.8984375-5.1674805,1.5634766-5.2807617,1.5478516l-0.2651367-0.0351562l-0.3339844-0.0097656
		c-2.3085938,0-6.7041016-4.0068359-6.7041016-6.7021484v-43.265625H14.828125C11.0629883,169.5585938,8,166.4960938,8,162.7314453z
		"/>
	<path opacity="0.6" fill="#7FA3D1" d="M254.2685547,113.659668c0,0-113.2490234-89.0473633-117.7431641-92.4394531
		c-3.8261719-2.8876953-4.9472656-3.7080078-6.1298828-2.9829102s-1.0058594,1.6010742-1.0058594,6.4829102v40.7441406H19.3818359
		c-2.1269531,0-3.828125,1.8598633-3.828125,3.8276367v44.2910156L254.2685547,113.659668z"/>
	<path fill="#A9C7EB" d="M254.2685547,113.659668c0,0-60.0185547-47.1923828-94.4023438-74.1738281l-16.3027344-12.7807617
		c-3.9121094-3.0625-6.4414062-5.0341797-7.0380859-5.4848633c-3.8261719-2.8876953-4.9472656-3.7080078-6.1298828-2.9829102
		s-1.0058594,1.6010742-1.0058594,6.4829102v1.0375977l112.1181641,87.8979492L254.2685547,113.659668z"/>
	<path fill="#567CB0" d="M138.1923828,163.6132812c0-5.5136719-4.4863281-10-10-10H19.0400391c-2.2089844,0-4,1.7910156-4,4
		s1.7910156,4,4,4h109.1523438c1.1025391,0,2,0.8974609,2,2v40.2421875c0,2.2089844,1.7910156,4,4,4s4-1.7910156,4-4V163.6132812z"
		/>
</g>
</svg>
