<?xml version="1.0" encoding="iso-8859-1"?>
<!-- Generator: Adobe Illustrator 12.0.1, SVG Export Plug-In . SVG Version: 6.00 Build 51448)  -->
<!DOCTYPE svg PUBLIC "-//W3C//DTD SVG 1.0//EN" "http://www.w3.org/TR/2001/REC-SVG-20010904/DTD/svg10.dtd" [
	<!ENTITY ns_svg "http://www.w3.org/2000/svg">
	<!ENTITY ns_xlink "http://www.w3.org/1999/xlink">
]>
<svg  version="1.0" id="Arrow__x28_Undo_x29_" xmlns="&ns_svg;" xmlns:xlink="&ns_xlink;" width="273.2666016" height="186.1235352"
	 viewBox="0 0 273.2666016 186.1235352" overflow="visible" enable-background="new 0 0 273.2666016 186.1235352"
	 xml:space="preserve">
<g>
	<linearGradient id="XMLID_3_" gradientUnits="userSpaceOnUse" x1="5.5849609" y1="49.9765625" x2="247.9176636" y2="165.3100739">
		<stop  offset="0" style="stop-color:#CC464F"/>
		<stop  offset="1" style="stop-color:#AB262D"/>
	</linearGradient>
	<path fill="url(#XMLID_3_)" d="M240.3945312,82.7114258c10.6132812,7.3725586,18.7783203,16.1386719,24.2490234,25.7929688
		c-2.5800781-25.0322266-13.3193359-48.2265625-31.0566406-66.4912109C212.5957031,20.3974609,183.4384766,8,153.5917969,8
		c-28.5898438,0-53.3720703,6.7368164-73.6572266,20.0234375C63.1796875,38.9970703,49.4042969,54.4492188,38.9902344,73.9492188
		l-2.1435547,4.0136719c0,0-19.8955078-14.1743164-27.7783203-19.7910156
		C8.9599609,71.1801758,8.1669922,166.1176758,8.0898438,175.4125977
		c8.9355469-2.6210938,103.4335938-30.34375,116.6044922-34.2080078
		c-8.3330078-6.0849609-28.7773438-21.0146484-28.7773438-21.0146484l3.3886719-5.5058594
		c11.0751953-18.0458984,31.6904297-51.6362305,79.3408203-51.6362305
		C199.5839844,63.0478516,222.6669922,70.3989258,240.3945312,82.7114258z"/>
	
		<radialGradient id="XMLID_4_" cx="136.7573242" cy="108.0151367" r="102.3456039" gradientTransform="matrix(-1 0 0 1 273.2675781 0)" gradientUnits="userSpaceOnUse">
		<stop  offset="0" style="stop-color:#CC464F"/>
		<stop  offset="1" style="stop-color:#AB262D"/>
	</radialGradient>
	<path fill="url(#XMLID_4_)" d="M240.3945312,82.7114258c-17.7275391-12.3125-40.8105469-19.6635742-61.7480469-19.6635742
		c-47.6503906,0-68.265625,33.590332-79.3408203,51.6362305l-3.3886719,5.5058594c0,0,20.4443359,14.9296875,28.7773438,21.0146484
		c-13.0478516,3.828125-105.9013672,31.0683594-116.3173828,34.1240234
		c36.3876953-48.9951172,74.8818359-99.9804688,87.9541016-114.3120117
		c28.3642578-31.0981445,105.5771484-25.6513672,141.8222656,10.59375
		c10.5986328,10.5991211,19.3886719,22.6274414,26.3212891,35.5336914c0.0527344,0.4550781,0.1220703,0.9052734,0.1689453,1.3603516
		C259.1728516,98.8500977,251.0078125,90.0839844,240.3945312,82.7114258z"/>
	<path fill="#E66169" d="M264.2861328,105.6245117c-3.0830078-23.9267578-13.6455078-46.050293-30.6992188-63.6113281
		C212.5957031,20.3974609,183.4384766,8,153.5917969,8c-28.5898438,0-53.3720703,6.7368164-73.6572266,20.0234375
		C63.1796875,38.9970703,49.4042969,54.4492188,38.9902344,73.9492188l-2.1435547,4.0136719
		c0,0-19.8955078-14.1743164-27.7783203-19.7910156c-0.0126953,1.5043945-0.0341797,4.1152344-0.0629883,7.5512695
		L38.3945312,86.527832c19.0195312-35.6142578,53.203125-73.3081055,116.9794922-73.3081055
		C207.5478516,13.2197266,253.7597656,53.4311523,264.2861328,105.6245117z"/>
	<path fill="#AB262D" d="M8.0898438,175.4125977c8.9355469-2.6210938,103.4335938-30.34375,116.6044922-34.2080078
		c-2.2387695-1.6347656-5.3540039-3.9101562-8.7099609-6.3603516L8.0927734,175.065918
		C8.0917969,175.1870117,8.0908203,175.3120117,8.0898438,175.4125977z"/>
	<path fill="#8A010B" d="M142.5166016,144.3139648c0,0-30.9921875-22.6328125-35.9121094-26.2255859
		c11.03125-17.9589844,29.4716797-47.0405273,72.0419922-47.0405273c19.3681641,0,40.8203125,6.7099609,57.1835938,18.234375
		c27.0546875,19.0532227,36.8105469,48.7963867,36.8105469,48.7963867
		c0.3574219-4.5126953,0.4335938-7.9921875,0.5078125-11.3554688c0,0,0.0644531-2.7216797,0.0644531-2.7236328
		c0.9658203-32.9677734-11.0683594-64.0639648-33.8867188-87.5600586C216.8359375,13.2817383,185.5878906,0,153.5917969,0
		C86.8701172,0,51.9707031,35.0961914,34.1396484,66.2119141c-5.640625-4.019043-32.9423828-23.4707031-32.9423828-23.4707031
		L0,186.1235352L142.5166016,144.3139648z M95.9169922,120.1899414c0,0,20.4443359,14.9296875,28.7773438,21.0146484
		c-13.1708984,3.8642578-107.6689453,31.5869141-116.6044922,34.2080078
		C8.1669922,166.1176758,8.9599609,71.1801758,9.0683594,58.171875
		c7.8828125,5.6166992,27.7783203,19.7910156,27.7783203,19.7910156l2.1435547-4.0136719
		c10.4140625-19.5,24.1894531-34.9521484,40.9443359-45.9257812C100.2197266,14.7368164,125.0019531,8,153.5917969,8
		c29.8466797,0,59.0039062,12.3974609,79.9951172,34.0131836c17.7373047,18.2646484,28.4765625,41.4589844,31.0566406,66.4912109
		c-5.4707031-9.6542969-13.6357422-18.4204102-24.2490234-25.7929688
		c-17.7275391-12.3125-40.8105469-19.6635742-61.7480469-19.6635742c-47.6503906,0-68.265625,33.590332-79.3408203,51.6362305
		L95.9169922,120.1899414z"/>
</g>
</svg>
