<?xml version="1.0" encoding="iso-8859-1"?>
<!-- Generator: Adobe Illustrator 12.0.1, SVG Export Plug-In . SVG Version: 6.00 Build 51448)  -->
<!DOCTYPE svg PUBLIC "-//W3C//DTD SVG 1.0//EN" "http://www.w3.org/TR/2001/REC-SVG-20010904/DTD/svg10.dtd" [
	<!ENTITY ns_svg "http://www.w3.org/2000/svg">
	<!ENTITY ns_xlink "http://www.w3.org/1999/xlink">
]>
<svg  version="1.0" id="Arrow__x28_Down_x29_" xmlns="&ns_svg;" xmlns:xlink="&ns_xlink;" width="227.6020508" height="280.8251953"
	 viewBox="0 0 227.6020508 280.8251953" overflow="visible" enable-background="new 0 0 227.6020508 280.8251953"
	 xml:space="preserve">
<g>
	<radialGradient id="XMLID_2_" cx="77.6420898" cy="23.1591797" r="254.4679108" gradientUnits="userSpaceOnUse">
		<stop  offset="0" style="stop-color:#7FA3D1"/>
		<stop  offset="1" style="stop-color:#567CB0"/>
	</radialGradient>
	<path fill="url(#XMLID_2_)" enable-background="new    " d="M6.4038086,137.2128906
		c3.8125,4.9794922,107.5395508,137.1386719,107.5395508,137.1386719S218.034668,142.0644531,221.050293,137.3095703
		c3.015625-4.7539062,2.5253906-8.4082031,2.5253906-8.4082031c0-4.5253906-5.8212891-10.7041016-10.703125-10.7041016h-39.234375
		V14.828125C173.6381836,8.8476562,168.7905273,4,162.8100586,4H64.871582c-5.9794922,0-10.8271484,4.8476562-10.8271484,10.828125
		v103.3691406h-39.265625c-4.8818359,0-10.7021484,6.1787109-10.7021484,10.7041016
		C4.0766602,128.9013672,3.3549805,133.2304688,6.4038086,137.2128906z"/>
	<path fill="#204780" d="M64.871582,0c-8.1757812,0-14.8271484,6.6518555-14.8271484,14.828125c0,0,0,91.9760742,0,99.3691406
		c-6.453125,0-35.265625,0-35.265625,0c-6.8701172,0-14.7021484,7.8330078-14.7021484,14.7041016l0.0546875-0.6577148
		c-0.1035156,0.6181641-0.8920898,6.190918,3.0961914,11.4008789h0.0004883
		c3.7832031,4.9414062,103.3330078,131.7792969,107.5688477,137.1767578l3.1425781,4.0039062l3.1469727-4
		c10.6679688-13.5566406,104.3046875-132.5849609,107.3417969-137.3730469
		c3.6894531-5.8164062,3.1816406-10.5605469,3.1123047-11.0825195l0.0351562,0.5317383
		c0-6.8710938-7.8320312-14.7041016-14.703125-14.7041016c0,0-28.7822266,0-35.234375,0c0-7.3930664,0-99.3691406,0-99.3691406
		C177.6381836,6.6518555,170.9858398,0,162.8100586,0H64.871582z M8.03125,129.5004883l0.0356445-0.2651367l0.0097656-0.3339844
		c0-2.3085938,4.0063477-6.7041016,6.7021484-6.7041016h43.265625V14.828125c0-3.7651367,3.0625-6.828125,6.8271484-6.828125
		h97.9384766c3.7646484,0,6.828125,3.0629883,6.828125,6.828125v107.3691406h43.234375
		c2.6962891,0,6.703125,4.3955078,6.703125,6.7041016v0.1640625l0.0244141,0.2714844
		c0.0009766,0.015625,0.0058594,0.0864258,0.0058594,0.2075195c0,0.6616211-0.1533203,2.8168945-1.9335938,5.6225586
		c-2.3955078,3.6801758-62.1679688,79.8847656-103.7250977,132.7109375
		C96.6308594,245.8134766,12.9624023,139.1992188,9.5795898,134.78125h0.0004883
		C7.6806641,132.3007812,8.0161133,129.6137695,8.03125,129.5004883z"/>
	<path opacity="0.6" fill="#7FA3D1" d="M114.2163086,255.1103516c0,0-89.0478516-113.25-92.4394531-117.7436523
		c-2.8886719-3.8261719-3.7089844-4.9472656-2.9833984-6.1298828s1.6005859-1.0058594,6.4833984-1.0058594h40.7441406V20.2231445
		c0-2.1269531,1.859375-3.828125,3.8271484-3.828125h44.2910156L114.2163086,255.1103516z"/>
	<path fill="#567CB0" d="M113.9433594,254.2685547c0,0,47.1928711-60.0185547,74.1733398-94.4023438l12.78125-16.3027344
		c3.0625-3.9121094,5.0341797-6.4414062,5.484375-7.0380859c2.8886719-3.8261719,3.7089844-4.9472656,2.9833984-6.1298828
		s-1.6005859-1.0058594-6.4833984-1.0058594h-1.0371094l-87.8979492,112.1181641L113.9433594,254.2685547z"/>
	<path fill="#A9C7EB" d="M73.9897461,128.1923828V16.3950195h-4.1416016c-1.9677734,0-3.8271484,1.7011719-3.8271484,3.828125
		V130.230957H25.2768555c-4.8828125,0-5.7578125-0.1767578-6.4833984,1.0058594s0.0947266,2.3037109,2.9833984,6.1298828
		c0.1142578,0.1513672,0.3334961,0.4360352,0.6352539,0.8256836h41.5776367
		C69.503418,138.1923828,73.9897461,133.7060547,73.9897461,128.1923828z"/>
</g>
</svg>
