<?xml version="1.0" encoding="iso-8859-1"?>
<!-- Generator: Adobe Illustrator 12.0.1, SVG Export Plug-In . SVG Version: 6.00 Build 51448)  -->
<!DOCTYPE svg PUBLIC "-//W3C//DTD SVG 1.0//EN" "http://www.w3.org/TR/2001/REC-SVG-20010904/DTD/svg10.dtd" [
	<!ENTITY ns_svg "http://www.w3.org/2000/svg">
	<!ENTITY ns_xlink "http://www.w3.org/1999/xlink">
]>
<svg  version="1.0" id="Arrow__x28_Up_x29_" xmlns="&ns_svg;" xmlns:xlink="&ns_xlink;" width="227.6030273" height="280.8256836"
	 viewBox="0 0 227.6030273 280.8256836" overflow="visible" enable-background="new 0 0 227.6030273 280.8256836"
	 xml:space="preserve">
<g>
	<radialGradient id="XMLID_2_" cx="17.6362305" cy="22.6333008" r="326.9898071" gradientUnits="userSpaceOnUse">
		<stop  offset="0" style="stop-color:#7FA3D1"/>
		<stop  offset="1" style="stop-color:#567CB0"/>
	</radialGradient>
	<path fill="url(#XMLID_2_)" enable-background="new    " d="M221.1987305,143.612793
		c-3.8125-4.9794922-107.5395508-137.1391602-107.5395508-137.1391602S9.5683594,138.7612305,6.5522461,143.5161133
		c-3.015625,4.7539062-2.5258789,8.4082031-2.5258789,8.4082031c0,4.5253906,5.8217773,10.7041016,10.7036133,10.7041016h39.234375
		v103.3691406c0,5.9804688,4.8476562,10.828125,10.8276367,10.828125h97.9389648
		c5.9794922,0,10.8271484-4.8476562,10.8271484-10.828125V162.628418h39.265625
		c4.8818359,0,10.7021484-6.1787109,10.7021484-10.7041016C223.5258789,151.9243164,224.2475586,147.5952148,221.1987305,143.612793
		z"/>
	<path fill="#204780" d="M110.515625,4C99.8486328,17.5566406,6.2114258,136.5854492,3.1743164,141.3735352
		c-3.6894531,5.8164062-3.1826172,10.5605469-3.1123047,11.0820312l-0.0356445-0.53125
		c0,6.8710938,7.8325195,14.7041016,14.7036133,14.7041016c0,0,28.7822266,0,35.234375,0c0,7.3925781,0,99.3691406,0,99.3691406
		c0,8.1767578,6.6518555,14.828125,14.8276367,14.828125h97.9389648c8.1757812,0,14.8271484-6.6513672,14.8271484-14.828125
		c0,0,0-91.9765625,0-99.3691406c6.453125,0,35.265625,0,35.265625,0c6.8701172,0,14.7021484-7.8330078,14.7021484-14.7041016
		l-0.0546875,0.6582031c0.1035156-0.6191406,0.8925781-6.1914062-3.0966797-11.4013672l0,0
		C220.5913086,136.2392578,121.0415039,9.4008789,116.8061523,4.0039062L113.6630859,0L110.515625,4z M8.0263672,151.9243164
		v-0.1640625l-0.0239258-0.2705078c-0.0014648-0.015625-0.0068359-0.0869141-0.0068359-0.2080078
		c0-0.6611328,0.1542969-2.8164062,1.9345703-5.6230469c2.3945312-3.6787109,62.1679688-79.8847656,103.7250977-132.7109375
		c17.315918,22.0639648,100.9848633,128.6791992,104.3676758,133.0966797l0,0
		c1.8984375,2.4804688,1.5634766,5.1679688,1.5478516,5.28125l-0.0351562,0.2646484l-0.0097656,0.3339844
		c0,2.3085938-4.0068359,6.7041016-6.7021484,6.7041016h-43.265625v107.3691406c0,3.7646484-3.0625,6.828125-6.8271484,6.828125
		H64.7919922c-3.7646484,0-6.8276367-3.0634766-6.8276367-6.828125V158.628418h-43.234375
		C12.0336914,158.628418,8.0263672,154.2329102,8.0263672,151.9243164z"/>
	<path opacity="0.6" fill="#7FA3D1" d="M113.6591797,26.5571289c0,0-89.0473633,113.2485352-92.4394531,117.7431641
		c-2.8876953,3.8261719-3.7080078,4.9472656-2.9829102,6.1298828s1.6010742,1.0058594,6.4829102,1.0058594h40.7441406v110.0078125
		c0,2.1269531,1.8598633,3.828125,3.8276367,3.828125h44.2910156L113.6591797,26.5571289z"/>
	<path fill="#A9C7EB" d="M113.6591797,26.5571289c0,0-47.1923828,60.0185547-74.1738281,94.4023438L26.7045898,137.262207
		c-3.0625,3.9121094-5.0341797,6.4414062-5.4848633,7.0380859c-2.8876953,3.8261719-3.7080078,4.9472656-2.9829102,6.1298828
		s1.6010742,1.0058594,6.4829102,1.0058594h1.0375977l87.8979492-112.1181641L113.6591797,26.5571289z"/>
	<path fill="#567CB0" d="M163.612793,142.6333008c-5.5136719,0-10,4.4863281-10,10v109.1523438c0,2.2089844,1.7910156,4,4,4
		s4-1.7910156,4-4V152.6333008c0-1.1025391,0.8974609-2,2-2h40.2421875c2.2089844,0,4-1.7910156,4-4s-1.7910156-4-4-4H163.612793z"
		/>
</g>
</svg>
