<?xml version="1.0" encoding="iso-8859-1"?>
<!-- Generator: Adobe Illustrator 12.0.1, SVG Export Plug-In . SVG Version: 6.00 Build 51448)  -->
<!DOCTYPE svg PUBLIC "-//W3C//DTD SVG 1.0//EN" "http://www.w3.org/TR/2001/REC-SVG-20010904/DTD/svg10.dtd" [
	<!ENTITY ns_svg "http://www.w3.org/2000/svg">
	<!ENTITY ns_xlink "http://www.w3.org/1999/xlink">
]>
<svg  version="1.0" id="Arrow__x28_Redo_x29_" xmlns="&ns_svg;" xmlns:xlink="&ns_xlink;" width="273.2670898" height="186.1235352"
	 viewBox="0 0 273.2670898 186.1235352" overflow="visible" enable-background="new 0 0 273.2670898 186.1235352"
	 xml:space="preserve">
<g>
	<linearGradient id="XMLID_3_" gradientUnits="userSpaceOnUse" x1="246.1459961" y1="102.8325195" x2="35.1459503" y2="56.8324814">
		<stop  offset="0" style="stop-color:#E1A655"/>
		<stop  offset="1" style="stop-color:#D48049"/>
	</linearGradient>
	<path fill="url(#XMLID_3_)" enable-background="new    " d="M9.7329102,114.9897461
		C23.597168,84.8452148,62.9511719,67.0478516,94.6210938,67.0478516c47.4194336,0,66.277832,34.144043,77.3852539,52.0913086
		l-32.3447266,23.6201172l129.5605469,38.0087891L268.1342773,50.456543l-30.3291016,21.6083984
		C218.7856445,36.4506836,183.4516602,4,119.6748047,4C55.8984375,4,2.0898438,56.8803711,4.0527344,123.8823242
		C4.1733398,128.3491211,6.5332031,121.9458008,9.7329102,114.9897461z"/>
	<radialGradient id="XMLID_4_" cx="136.7568359" cy="108.0151367" r="102.3456039" gradientUnits="userSpaceOnUse">
		<stop  offset="0" style="stop-color:#E1A655"/>
		<stop  offset="1" style="stop-color:#D48049"/>
	</radialGradient>
	<path fill="url(#XMLID_4_)" d="M32.8725586,82.7114258c17.7275391-12.3125,40.8110352-19.6635742,61.7485352-19.6635742
		c47.6499023,0,68.2651367,33.590332,79.340332,51.6362305l3.3886719,5.5058594c0,0-20.4443359,14.9296875-28.7773438,21.0146484
		c13.0478516,3.828125,105.9013672,31.0683594,116.3173828,34.1240234
		c-36.3876953-48.9951172-74.8818359-99.9804688-87.9541016-114.3120117
		C148.5717773,29.918457,71.3588867,35.3652344,35.1137695,71.6103516
		C24.5146484,82.2094727,15.7250977,94.237793,8.7919922,107.144043c-0.0522461,0.4550781-0.121582,0.9052734-0.168457,1.3603516
		C14.0942383,98.8500977,22.2587891,90.0839844,32.8725586,82.7114258z"/>
	<path fill="#D48049" d="M265.1743164,175.065918l-107.8916016-40.2216797
		c-3.3554688,2.4501953-6.4716797,4.7255859-8.7099609,6.3603516
		c13.1708984,3.8642578,107.6689453,31.5869141,116.6044922,34.2080078
		C265.1762695,175.3120117,265.175293,175.1870117,265.1743164,175.065918z"/>
	<path fill="#EDBB77" d="M236.4204102,77.9628906l-2.1435547-4.0136719
		c-10.4140625-19.5-24.1894531-34.9521484-40.9443359-45.9257812C173.0473633,14.7368164,148.2651367,8,119.6748047,8
		C89.8286133,8,60.671875,20.3974609,39.6801758,42.0131836C22.6279297,59.5727539,12.065918,81.6938477,8.9814453,105.6186523
		c10.5297852-52.190918,56.7397461-92.3989258,108.9116211-92.3989258c63.7763672,0,97.9599609,37.6938477,116.9794922,73.3081055
		l29.3886719-20.8046875c-0.0283203-3.4360352-0.0498047-6.046875-0.0625-7.5512695
		C256.315918,63.7885742,236.4204102,77.9628906,236.4204102,77.9628906z"/>
	<path fill="#B35129" d="M273.2670898,186.1235352l-1.1972656-143.3823242c0,0-27.3017578,19.4516602-32.9423828,23.4707031
		C221.2963867,35.0961914,186.3969727,0,119.6748047,0C87.6791992,0,56.4306641,13.2817383,33.940918,36.4394531
		C11.1230469,59.9355469-0.9116211,91.0317383,0.0541992,123.9995117c0,0.0019531,0.0644531,2.7236328,0.0644531,2.7236328
		c0.0742188,3.3632812,0.1503906,6.8427734,0.5078125,11.3554688c0,0,9.7553711-29.7431641,36.8100586-48.7963867
		c16.3642578-11.5244141,37.815918-18.234375,57.1845703-18.234375c42.5698242,0,61.0102539,29.081543,72.0415039,47.0405273
		c-4.9199219,3.5927734-35.9121094,26.2255859-35.9121094,26.2255859L273.2670898,186.1235352z M173.9614258,114.684082
		c-11.0751953-18.0458984-31.6904297-51.6362305-79.340332-51.6362305c-20.9375,0-44.0209961,7.3510742-61.7485352,19.6635742
		c-10.6137695,7.3725586-18.7783203,16.1386719-24.2490234,25.7929688
		C11.2036133,83.472168,21.9428711,60.277832,39.6801758,42.0131836C60.671875,20.3974609,89.8286133,8,119.6748047,8
		c28.590332,0,53.3725586,6.7368164,73.6577148,20.0234375c16.7548828,10.9736328,30.5302734,26.4257812,40.9443359,45.9257812
		l2.1435547,4.0136719c0,0,19.8955078-14.1743164,27.7783203-19.7910156
		c0.1083984,13.0083008,0.9013672,107.9458008,0.9785156,117.2407227
		c-8.9355469-2.6210938-103.4335938-30.34375-116.6044922-34.2080078
		c8.3330078-6.0849609,28.7773438-21.0146484,28.7773438-21.0146484L173.9614258,114.684082z"/>
</g>
</svg>
