<?xml version="1.0" encoding="iso-8859-1"?>
<!-- Generator: Adobe Illustrator 12.0.1, SVG Export Plug-In . SVG Version: 6.00 Build 51448)  -->
<!DOCTYPE svg PUBLIC "-//W3C//DTD SVG 1.0//EN" "http://www.w3.org/TR/2001/REC-SVG-20010904/DTD/svg10.dtd" [
	<!ENTITY ns_svg "http://www.w3.org/2000/svg">
	<!ENTITY ns_xlink "http://www.w3.org/1999/xlink">
]>
<svg  version="1.0" id="Calculator" xmlns="&ns_svg;" xmlns:xlink="&ns_xlink;" width="202" height="274.5" viewBox="0 0 202 274.5"
	 overflow="visible" enable-background="new 0 0 202 274.5" xml:space="preserve">
<g>
	<radialGradient id="XMLID_16_" cx="31.3520508" cy="20.7275391" r="307.0626831" gradientUnits="userSpaceOnUse">
		<stop  offset="0" style="stop-color:#C5DFFF"/>
		<stop  offset="1" style="stop-color:#8EB1DE"/>
	</radialGradient>
	<path fill="url(#XMLID_16_)" enable-background="new    " d="M198,258.5c0,6.6269531-5.3730469,12-12,12H16
		c-6.6279297,0-12-5.3730469-12-12V16C4,9.3725586,9.3720703,4,16,4h170c6.6269531,0,12,5.3725586,12,12V258.5z"/>
	<path fill="#5F83B3" d="M16,0C7.1777344,0,0,7.1777344,0,16v242.5c0,8.8222656,7.1777344,16,16,16h170
		c8.8222656,0,16-7.1777344,16-16V16c0-8.8222656-7.1777344-16-16-16H16z M8,258.5V16c0-4.4111328,3.5888672-8,8-8h170
		c4.4111328,0,8,3.5888672,8,8v242.5c0,4.4111328-3.5888672,8-8,8H16C11.5888672,266.5,8,262.9111328,8,258.5z"/>
	<radialGradient id="XMLID_17_" cx="39.9682617" cy="30.8564453" r="276.9405518" gradientUnits="userSpaceOnUse">
		<stop  offset="0" style="stop-color:#A9C7EB"/>
		<stop  offset="1" style="stop-color:#7FA3D1"/>
	</radialGradient>
	<path fill="url(#XMLID_17_)" d="M186,254.9169922c0,2.2089844-1.7910156,4-4,4H20c-2.2089844,0-4-1.7910156-4-4V19.5830078
		c0-2.2089844,1.7910156-4,4-4h162c2.2089844,0,4,1.7910156,4,4V254.9169922z"/>
	<path fill="#C5DFFF" d="M171.6005859,64.7592773c0,2.2089844-1.7910156,4-4,4H34.3994141c-2.2089844,0-4-1.7910156-4-4V34.6323242
		c0-2.2089844,1.7910156-4,4-4h133.2011719c2.2089844,0,4,1.7910156,4,4V64.7592773z"/>
	<linearGradient id="XMLID_18_" gradientUnits="userSpaceOnUse" x1="161.8320312" y1="59.4663086" x2="39.8775177" y2="40.2696991">
		<stop  offset="0" style="stop-color:#B3D6A0"/>
		<stop  offset="1" style="stop-color:#91AC84"/>
	</linearGradient>
	<path fill="url(#XMLID_18_)" d="M167.2373047,63.0419922c0,1.1044922-0.8964844,2-2,2H36.5708008c-1.1044922,0-2-0.8955078-2-2
		V36.7084961c0-1.1044922,0.8955078-2,2-2h128.6665039c1.1035156,0,2,0.8955078,2,2V63.0419922z"/>
	<path fill="#94AF83" d="M165.2373047,34.7084961H36.5708008c-1.1044922,0-2,0.8955078-2,2v26.3334961c0,1.1044922,0.8955078,2,2,2
		h3.6660156V39.7084961h127.0004883v-3C167.2373047,35.6040039,166.3408203,34.7084961,165.2373047,34.7084961z"/>
	<path opacity="0.3" fill="#7F9A67" d="M114.1474609,61.8217773v-3.0952148h4.7519531V46.7407227l-4.1425781,2.2851562
		l-1.1464844-2.8515625l5.9335938-3.1196289h2.9160156v15.671875h4.0917969v3.0952148H114.1474609z"/>
	<path opacity="0.3" fill="#7F9A67" d="M140.0908203,58.0205078v3.8012695h-3.4042969v-3.8012695h-8.6855469v-2.9863281
		l7.2851562-11.8579102h4.8046875v11.7729492h2.8027344v3.0712891H140.0908203z M136.7255859,46.5415039l-5.3144531,8.4077148
		h5.3144531V46.5415039z"/>
	<path opacity="0.3" fill="#7F9A67" d="M158.6064453,56.1269531c0,0.9243164-0.171875,1.7553711-0.5136719,2.4941406
		c-0.34375,0.737793-0.8691406,1.3662109-1.578125,1.8862305c-0.7089844,0.519043-1.5996094,0.9160156-2.6757812,1.1933594
		c-1.0761719,0.2763672-2.3417969,0.4140625-3.7988281,0.4140625c-0.3222656,0-0.6640625-0.0078125-1.0214844-0.0214844
		c-0.3554688-0.0151367-0.7109375-0.034668-1.0625-0.0581055c-0.3496094-0.0249023-0.6933594-0.0546875-1.0273438-0.0888672
		c-0.3320312-0.0341797-0.6328125-0.0756836-0.8984375-0.1245117v-3.0219727
		c0.5976562,0.1157227,1.2734375,0.2094727,2.0195312,0.2817383c0.7480469,0.0722656,1.5273438,0.1079102,2.3359375,0.1079102
		c0.7890625,0,1.4707031-0.0654297,2.0390625-0.199707c0.5761719-0.1342773,1.0449219-0.3276367,1.4140625-0.5805664
		c0.3730469-0.253418,0.6464844-0.5654297,0.8222656-0.9370117c0.1777344-0.3725586,0.265625-0.7919922,0.265625-1.2592773
		c0-0.4101562-0.0898438-0.7822266-0.2714844-1.1152344c-0.1816406-0.3339844-0.4550781-0.6176758-0.828125-0.8500977
		c-0.3671875-0.234375-0.84375-0.4145508-1.4160156-0.5444336c-0.5761719-0.1274414-1.2597656-0.1928711-2.046875-0.1928711
		h-2.0683594v-2.65625h1.8925781c0.7382812,0,1.3535156-0.0742188,1.8417969-0.2207031
		c0.4863281-0.1469727,0.8789062-0.34375,1.1679688-0.5898438c0.2871094-0.2475586,0.4921875-0.5400391,0.6191406-0.8764648
		c0.1210938-0.3374023,0.1816406-0.6918945,0.1816406-1.0620117c0-0.7583008-0.2460938-1.3359375-0.7402344-1.7294922
		c-0.4921875-0.3935547-1.2558594-0.5908203-2.2890625-0.5908203c-0.7421875,0-1.4726562,0.0703125-2.1933594,0.2119141
		c-0.7226562,0.1416016-1.4667969,0.331543-2.234375,0.5683594v-2.9257812
		c0.4277344-0.1416016,0.8359375-0.2587891,1.2246094-0.3540039c0.390625-0.0942383,0.78125-0.175293,1.171875-0.2412109
		c0.3886719-0.0664062,0.78125-0.1132812,1.1816406-0.1420898c0.4003906-0.027832,0.8125-0.0424805,1.2421875-0.0424805
		c1.0253906,0,1.9277344,0.1088867,2.7011719,0.3286133c0.7753906,0.2177734,1.4277344,0.5297852,1.9511719,0.9335938
		c0.53125,0.4033203,0.9277344,0.8950195,1.1933594,1.4741211c0.2675781,0.5800781,0.3984375,1.2270508,0.3984375,1.9394531
		c0,1.1303711-0.2597656,2.0444336-0.7773438,2.7441406c-0.515625,0.6972656-1.2421875,1.2319336-2.171875,1.6030273
		c0.5976562,0.0952148,1.1386719,0.2597656,1.625,0.4926758c0.484375,0.2338867,0.9003906,0.5336914,1.2480469,0.9003906
		c0.3457031,0.3671875,0.6113281,0.7890625,0.796875,1.265625
		C158.5146484,55.0166016,158.6064453,55.5449219,158.6064453,56.1269531z"/>
	<path fill="#7F9A67" d="M112.6259766,60.2988281v-3.0952148h4.7519531V45.2177734l-4.1445312,2.2851562l-1.1445312-2.8515625
		l5.9335938-3.1196289h2.9160156v15.671875h4.0917969v3.0952148H112.6259766z"/>
	<path fill="#7F9A67" d="M138.5673828,56.4975586v3.8012695h-3.4042969v-3.8012695h-8.6835938v-2.9863281l7.2851562-11.8579102
		h4.8027344v11.7729492h2.8046875v3.0712891H138.5673828z M135.2041016,45.0185547l-5.3144531,8.4077148h5.3144531V45.0185547z"/>
	<path fill="#7F9A67" d="M157.0849609,54.6040039c0,0.9243164-0.171875,1.7553711-0.5136719,2.4941406
		c-0.34375,0.737793-0.8691406,1.3662109-1.578125,1.8862305c-0.7109375,0.519043-1.6015625,0.9160156-2.6777344,1.1933594
		c-1.0742188,0.2763672-2.3398438,0.4140625-3.796875,0.4140625c-0.3222656,0-0.6640625-0.0078125-1.0214844-0.0214844
		c-0.3554688-0.0151367-0.7109375-0.034668-1.0625-0.0581055c-0.3496094-0.0249023-0.6933594-0.0546875-1.0273438-0.0888672
		c-0.3320312-0.0341797-0.6328125-0.0756836-0.8984375-0.1245117v-3.0219727
		c0.5976562,0.1157227,1.2714844,0.2094727,2.0195312,0.2817383c0.7460938,0.0722656,1.5253906,0.1079102,2.3359375,0.1079102
		c0.7890625,0,1.4707031-0.0654297,2.0390625-0.199707c0.5742188-0.1342773,1.0449219-0.3276367,1.4140625-0.5805664
		c0.3710938-0.253418,0.6464844-0.5654297,0.8222656-0.9370117c0.1757812-0.3725586,0.2636719-0.7919922,0.2636719-1.2592773
		c0-0.4101562-0.0898438-0.7822266-0.2714844-1.1152344c-0.1796875-0.3339844-0.4550781-0.6176758-0.8261719-0.8500977
		c-0.3691406-0.234375-0.84375-0.4145508-1.4179688-0.5444336c-0.5742188-0.1274414-1.2578125-0.1928711-2.0449219-0.1928711
		h-2.0683594v-2.65625h1.890625c0.7402344,0,1.3535156-0.0742188,1.84375-0.2207031
		c0.4863281-0.1469727,0.8769531-0.34375,1.1679688-0.5898438c0.2851562-0.2475586,0.4921875-0.5400391,0.6171875-0.8764648
		c0.1230469-0.3374023,0.1835938-0.6918945,0.1835938-1.0620117c0-0.7583008-0.2460938-1.3359375-0.7402344-1.7294922
		s-1.2558594-0.5908203-2.2910156-0.5908203c-0.7402344,0-1.4726562,0.0703125-2.1914062,0.2119141
		c-0.7226562,0.1416016-1.4667969,0.331543-2.234375,0.5683594v-2.9257812
		c0.4257812-0.1416016,0.8339844-0.2587891,1.2246094-0.3540039c0.390625-0.0942383,0.78125-0.175293,1.1699219-0.2412109
		c0.390625-0.0664062,0.7832031-0.1132812,1.1835938-0.1420898c0.3984375-0.027832,0.8125-0.0424805,1.2402344-0.0424805
		c1.0273438,0,1.9277344,0.1088867,2.703125,0.3286133c0.7734375,0.2177734,1.4277344,0.5297852,1.9511719,0.9335938
		c0.5292969,0.4033203,0.9257812,0.8950195,1.1914062,1.4741211c0.2695312,0.5800781,0.4003906,1.2270508,0.4003906,1.9394531
		c0,1.1303711-0.2597656,2.0444336-0.7773438,2.7441406c-0.5175781,0.6972656-1.2421875,1.2319336-2.1738281,1.6030273
		c0.5976562,0.0952148,1.140625,0.2597656,1.6269531,0.4926758c0.484375,0.2338867,0.9003906,0.5336914,1.2460938,0.9003906
		c0.3476562,0.3671875,0.6132812,0.7890625,0.7988281,1.265625
		C156.9912109,53.4936523,157.0849609,54.0219727,157.0849609,54.6040039z"/>
	<path fill="#5F83B3" d="M71.1376953,153.140625c0,2.2089844-1.7910156,4-4,4H41.9404297c-2.2089844,0-4-1.7910156-4-4v-13.3925781
		c0-2.2089844,1.7910156-4,4-4h25.1972656c2.2089844,0,4,1.7910156,4,4V153.140625z"/>
	<radialGradient id="XMLID_19_" cx="37.2275391" cy="135.3642578" r="58.011692" gradientUnits="userSpaceOnUse">
		<stop  offset="0" style="stop-color:#C5DFFF"/>
		<stop  offset="1" style="stop-color:#8EB1DE"/>
	</radialGradient>
	<path fill="url(#XMLID_19_)" d="M68.0585938,150.0625c0,2.2089844-1.7910156,4-4,4H38.8613281c-2.2089844,0-4-1.7910156-4-4
		v-13.3935547c0-2.2089844,1.7910156-4,4-4h25.1972656c2.2089844,0,4,1.7910156,4,4V150.0625z"/>
	<path opacity="0.9" fill="#C5DFFF" d="M53.3466797,138.4335938c0,1.1035156-0.8955078,2-2,2H41.6875c-1.1044922,0-2-0.8964844-2-2
		v-1.0039062c0-1.1044922,0.8955078-2,2-2h9.6591797c1.1044922,0,2,0.8955078,2,2V138.4335938z"/>
	<path fill="#5F83B3" d="M119.1376953,153.140625c0,2.2089844-1.7910156,4-4,4H89.9404297c-2.2089844,0-4-1.7910156-4-4v-13.3925781
		c0-2.2089844,1.7910156-4,4-4h25.1972656c2.2089844,0,4,1.7910156,4,4V153.140625z"/>
	<radialGradient id="XMLID_20_" cx="85.2275391" cy="135.3642578" r="58.011692" gradientUnits="userSpaceOnUse">
		<stop  offset="0" style="stop-color:#C5DFFF"/>
		<stop  offset="1" style="stop-color:#8EB1DE"/>
	</radialGradient>
	<path fill="url(#XMLID_20_)" d="M116.0585938,150.0625c0,2.2089844-1.7910156,4-4,4H86.8613281c-2.2089844,0-4-1.7910156-4-4
		v-13.3935547c0-2.2089844,1.7910156-4,4-4h25.1972656c2.2089844,0,4,1.7910156,4,4V150.0625z"/>
	<path opacity="0.9" fill="#C5DFFF" d="M101.3466797,138.4335938c0,1.1035156-0.8955078,2-2,2H89.6875c-1.1044922,0-2-0.8964844-2-2
		v-1.0039062c0-1.1044922,0.8955078-2,2-2h9.6591797c1.1044922,0,2,0.8955078,2,2V138.4335938z"/>
	<path fill="#5F83B3" d="M167.1376953,153.140625c0,2.2089844-1.7910156,4-4,4h-25.1972656c-2.2089844,0-4-1.7910156-4-4
		v-13.3925781c0-2.2089844,1.7910156-4,4-4h25.1972656c2.2089844,0,4,1.7910156,4,4V153.140625z"/>
	<radialGradient id="XMLID_21_" cx="133.2275391" cy="135.3642578" r="58.011692" gradientUnits="userSpaceOnUse">
		<stop  offset="0" style="stop-color:#C5DFFF"/>
		<stop  offset="1" style="stop-color:#8EB1DE"/>
	</radialGradient>
	<path fill="url(#XMLID_21_)" d="M164.0585938,150.0625c0,2.2089844-1.7910156,4-4,4h-25.1972656c-2.2089844,0-4-1.7910156-4-4
		v-13.3935547c0-2.2089844,1.7910156-4,4-4h25.1972656c2.2089844,0,4,1.7910156,4,4V150.0625z"/>
	<path opacity="0.9" fill="#C5DFFF" d="M149.3466797,138.4335938c0,1.1035156-0.8955078,2-2,2H137.6875
		c-1.1044922,0-2-0.8964844-2-2v-1.0039062c0-1.1044922,0.8955078-2,2-2h9.6591797c1.1044922,0,2,0.8955078,2,2V138.4335938z"/>
	<path fill="#964460" d="M167.1376953,109.140625c0,2.2089844-1.7910156,4-4,4h-25.1972656c-2.2089844,0-4-1.7910156-4-4V95.7475586
		c0-2.2089844,1.7910156-4,4-4h25.1972656c2.2089844,0,4,1.7910156,4,4V109.140625z"/>
	<radialGradient id="XMLID_22_" cx="129.4023438" cy="87.815918" r="38.4528656" gradientUnits="userSpaceOnUse">
		<stop  offset="0" style="stop-color:#D9A3B5"/>
		<stop  offset="1" style="stop-color:#BD7B93"/>
	</radialGradient>
	<path fill="url(#XMLID_22_)" d="M164.0585938,106.0620117c0,2.2094727-1.7910156,4.0004883-4,4.0004883h-25.1972656
		c-2.2089844,0-4-1.7910156-4-4.0004883V92.6689453c0-2.2089844,1.7910156-4,4-4h25.1972656c2.2089844,0,4,1.7910156,4,4
		V106.0620117z"/>
	<path fill="#D9A3B5" d="M149.3466797,94.4331055c0,1.1044922-0.8955078,2-2,2H137.6875c-1.1044922,0-2-0.8955078-2-2v-1.003418
		c0-1.1044922,0.8955078-2,2-2h9.6591797c1.1044922,0,2,0.8955078,2,2V94.4331055z"/>
	<path fill="#5F83B3" d="M71.1376953,109.140625c0,2.2089844-1.7910156,4-4,4H41.9404297c-2.2089844,0-4-1.7910156-4-4V95.7480469
		c0-2.2089844,1.7910156-4,4-4h25.1972656c2.2089844,0,4,1.7910156,4,4V109.140625z"/>
	<radialGradient id="XMLID_23_" cx="37.2275391" cy="91.3647461" r="58.0112877" gradientUnits="userSpaceOnUse">
		<stop  offset="0" style="stop-color:#C5DFFF"/>
		<stop  offset="1" style="stop-color:#8EB1DE"/>
	</radialGradient>
	<path fill="url(#XMLID_23_)" d="M68.0585938,106.0625c0,2.2089844-1.7910156,4-4,4H38.8613281c-2.2089844,0-4-1.7910156-4-4
		V92.6689453c0-2.2089844,1.7910156-4,4-4h25.1972656c2.2089844,0,4,1.7910156,4,4V106.0625z"/>
	<path opacity="0.9" fill="#C5DFFF" d="M53.3466797,94.4335938c0,1.1035156-0.8955078,2-2,2H41.6875c-1.1044922,0-2-0.8964844-2-2
		v-1.0039062c0-1.1044922,0.8955078-2,2-2h9.6591797c1.1044922,0,2,0.8955078,2,2V94.4335938z"/>
	<path fill="#5F83B3" d="M119.1376953,109.140625c0,2.2089844-1.7910156,4-4,4H89.9404297c-2.2089844,0-4-1.7910156-4-4V95.7480469
		c0-2.2089844,1.7910156-4,4-4h25.1972656c2.2089844,0,4,1.7910156,4,4V109.140625z"/>
	<radialGradient id="XMLID_24_" cx="85.2275391" cy="91.3647461" r="58.0112877" gradientUnits="userSpaceOnUse">
		<stop  offset="0" style="stop-color:#C5DFFF"/>
		<stop  offset="1" style="stop-color:#8EB1DE"/>
	</radialGradient>
	<path fill="url(#XMLID_24_)" d="M116.0585938,106.0625c0,2.2089844-1.7910156,4-4,4H86.8613281c-2.2089844,0-4-1.7910156-4-4
		V92.6689453c0-2.2089844,1.7910156-4,4-4h25.1972656c2.2089844,0,4,1.7910156,4,4V106.0625z"/>
	<path opacity="0.9" fill="#C5DFFF" d="M101.3466797,94.4335938c0,1.1035156-0.8955078,2-2,2H89.6875c-1.1044922,0-2-0.8964844-2-2
		v-1.0039062c0-1.1044922,0.8955078-2,2-2h9.6591797c1.1044922,0,2,0.8955078,2,2V94.4335938z"/>
	<path fill="#5F83B3" d="M71.1376953,197.140625c0,2.2089844-1.7910156,4-4,4H41.9404297c-2.2089844,0-4-1.7910156-4-4v-13.3925781
		c0-2.2089844,1.7910156-4,4-4h25.1972656c2.2089844,0,4,1.7910156,4,4V197.140625z"/>
	<radialGradient id="XMLID_25_" cx="37.2275391" cy="179.3642578" r="58.011692" gradientUnits="userSpaceOnUse">
		<stop  offset="0" style="stop-color:#C5DFFF"/>
		<stop  offset="1" style="stop-color:#8EB1DE"/>
	</radialGradient>
	<path fill="url(#XMLID_25_)" d="M68.0585938,194.0625c0,2.2089844-1.7910156,4-4,4H38.8613281c-2.2089844,0-4-1.7910156-4-4
		v-13.3935547c0-2.2089844,1.7910156-4,4-4h25.1972656c2.2089844,0,4,1.7910156,4,4V194.0625z"/>
	<path opacity="0.9" fill="#C5DFFF" d="M53.3466797,182.4335938c0,1.1035156-0.8955078,2-2,2H41.6875c-1.1044922,0-2-0.8964844-2-2
		v-1.0039062c0-1.1044922,0.8955078-2,2-2h9.6591797c1.1044922,0,2,0.8955078,2,2V182.4335938z"/>
	<path fill="#5F83B3" d="M119.1376953,197.140625c0,2.2089844-1.7910156,4-4,4H89.9404297c-2.2089844,0-4-1.7910156-4-4v-13.3925781
		c0-2.2089844,1.7910156-4,4-4h25.1972656c2.2089844,0,4,1.7910156,4,4V197.140625z"/>
	<radialGradient id="XMLID_26_" cx="85.2275391" cy="179.3642578" r="58.011692" gradientUnits="userSpaceOnUse">
		<stop  offset="0" style="stop-color:#C5DFFF"/>
		<stop  offset="1" style="stop-color:#8EB1DE"/>
	</radialGradient>
	<path fill="url(#XMLID_26_)" d="M116.0585938,194.0625c0,2.2089844-1.7910156,4-4,4H86.8613281c-2.2089844,0-4-1.7910156-4-4
		v-13.3935547c0-2.2089844,1.7910156-4,4-4h25.1972656c2.2089844,0,4,1.7910156,4,4V194.0625z"/>
	<path opacity="0.9" fill="#C5DFFF" d="M101.3466797,182.4335938c0,1.1035156-0.8955078,2-2,2H89.6875c-1.1044922,0-2-0.8964844-2-2
		v-1.0039062c0-1.1044922,0.8955078-2,2-2h9.6591797c1.1044922,0,2,0.8955078,2,2V182.4335938z"/>
	<path fill="#5F83B3" d="M167.1376953,197.140625c0,2.2089844-1.7910156,4-4,4h-25.1972656c-2.2089844,0-4-1.7910156-4-4
		v-13.3925781c0-2.2089844,1.7910156-4,4-4h25.1972656c2.2089844,0,4,1.7910156,4,4V197.140625z"/>
	<radialGradient id="XMLID_27_" cx="133.2275391" cy="179.3642578" r="58.011692" gradientUnits="userSpaceOnUse">
		<stop  offset="0" style="stop-color:#C5DFFF"/>
		<stop  offset="1" style="stop-color:#8EB1DE"/>
	</radialGradient>
	<path fill="url(#XMLID_27_)" d="M164.0585938,194.0625c0,2.2089844-1.7910156,4-4,4h-25.1972656c-2.2089844,0-4-1.7910156-4-4
		v-13.3935547c0-2.2089844,1.7910156-4,4-4h25.1972656c2.2089844,0,4,1.7910156,4,4V194.0625z"/>
	<path opacity="0.9" fill="#C5DFFF" d="M149.3466797,182.4335938c0,1.1035156-0.8955078,2-2,2H137.6875
		c-1.1044922,0-2-0.8964844-2-2v-1.0039062c0-1.1044922,0.8955078-2,2-2h9.6591797c1.1044922,0,2,0.8955078,2,2V182.4335938z"/>
	<path fill="#5F83B3" d="M71.1376953,241.140625c0,2.2089844-1.7910156,4-4,4H41.9404297c-2.2089844,0-4-1.7910156-4-4v-13.3925781
		c0-2.2089844,1.7910156-4,4-4h25.1972656c2.2089844,0,4,1.7910156,4,4V241.140625z"/>
	<radialGradient id="XMLID_28_" cx="37.2275391" cy="223.3642578" r="58.011692" gradientUnits="userSpaceOnUse">
		<stop  offset="0" style="stop-color:#C5DFFF"/>
		<stop  offset="1" style="stop-color:#8EB1DE"/>
	</radialGradient>
	<path fill="url(#XMLID_28_)" d="M68.0585938,238.0625c0,2.2089844-1.7910156,4-4,4H38.8613281c-2.2089844,0-4-1.7910156-4-4
		v-13.3935547c0-2.2089844,1.7910156-4,4-4h25.1972656c2.2089844,0,4,1.7910156,4,4V238.0625z"/>
	<path opacity="0.9" fill="#C5DFFF" d="M53.3466797,226.4335938c0,1.1035156-0.8955078,2-2,2H41.6875c-1.1044922,0-2-0.8964844-2-2
		v-1.0039062c0-1.1044922,0.8955078-2,2-2h9.6591797c1.1044922,0,2,0.8955078,2,2V226.4335938z"/>
	<path fill="#5F83B3" d="M119.1376953,241.140625c0,2.2089844-1.7910156,4-4,4H89.9404297c-2.2089844,0-4-1.7910156-4-4v-13.3925781
		c0-2.2089844,1.7910156-4,4-4h25.1972656c2.2089844,0,4,1.7910156,4,4V241.140625z"/>
	<radialGradient id="XMLID_29_" cx="85.2275391" cy="223.3642578" r="58.011692" gradientUnits="userSpaceOnUse">
		<stop  offset="0" style="stop-color:#C5DFFF"/>
		<stop  offset="1" style="stop-color:#8EB1DE"/>
	</radialGradient>
	<path fill="url(#XMLID_29_)" d="M116.0585938,238.0625c0,2.2089844-1.7910156,4-4,4H86.8613281c-2.2089844,0-4-1.7910156-4-4
		v-13.3935547c0-2.2089844,1.7910156-4,4-4h25.1972656c2.2089844,0,4,1.7910156,4,4V238.0625z"/>
	<path opacity="0.9" fill="#C5DFFF" d="M101.3466797,226.4335938c0,1.1035156-0.8955078,2-2,2H89.6875c-1.1044922,0-2-0.8964844-2-2
		v-1.0039062c0-1.1044922,0.8955078-2,2-2h9.6591797c1.1044922,0,2,0.8955078,2,2V226.4335938z"/>
	<path fill="#5F83B3" d="M167.1376953,241.140625c0,2.2089844-1.7910156,4-4,4h-25.1972656c-2.2089844,0-4-1.7910156-4-4
		v-13.3925781c0-2.2089844,1.7910156-4,4-4h25.1972656c2.2089844,0,4,1.7910156,4,4V241.140625z"/>
	<radialGradient id="XMLID_30_" cx="133.2275391" cy="223.3642578" r="58.011692" gradientUnits="userSpaceOnUse">
		<stop  offset="0" style="stop-color:#C5DFFF"/>
		<stop  offset="1" style="stop-color:#8EB1DE"/>
	</radialGradient>
	<path fill="url(#XMLID_30_)" d="M164.0585938,238.0625c0,2.2089844-1.7910156,4-4,4h-25.1972656c-2.2089844,0-4-1.7910156-4-4
		v-13.3935547c0-2.2089844,1.7910156-4,4-4h25.1972656c2.2089844,0,4,1.7910156,4,4V238.0625z"/>
	<path opacity="0.9" fill="#C5DFFF" d="M149.3466797,226.4335938c0,1.1035156-0.8955078,2-2,2H137.6875
		c-1.1044922,0-2-0.8964844-2-2v-1.0039062c0-1.1044922,0.8955078-2,2-2h9.6591797c1.1044922,0,2,0.8955078,2,2V226.4335938z"/>
</g>
</svg>
