<?xml version="1.0" encoding="iso-8859-1"?>
<!-- Generator: Adobe Illustrator 12.0.1, SVG Export Plug-In . SVG Version: 6.00 Build 51448)  -->
<!DOCTYPE svg PUBLIC "-//W3C//DTD SVG 1.0//EN" "http://www.w3.org/TR/2001/REC-SVG-20010904/DTD/svg10.dtd" [
	<!ENTITY ns_svg "http://www.w3.org/2000/svg">
	<!ENTITY ns_xlink "http://www.w3.org/1999/xlink">
]>
<svg  version="1.0" id="Calendar" xmlns="&ns_svg;" xmlns:xlink="&ns_xlink;" width="256.5" height="257" viewBox="0 0 256.5 257"
	 overflow="visible" enable-background="new 0 0 256.5 257" xml:space="preserve">
<g>
	<path fill="#FFFFFF" enable-background="new    " d="M252.5,246c0,3.8662109-3.1337891,7-7,7H11c-3.8662109,0-7-3.1337891-7-7V11
		c0-3.8662109,3.1337891-7,7-7h234.5c3.8662109,0,7,3.1337891,7,7V246z"/>
	<path fill="#8A8A8A" d="M11,0C4.9345703,0,0,4.9345703,0,11v235c0,6.0654297,4.9345703,11,11,11h234.5
		c6.0654297,0,11-4.9345703,11-11V11c0-6.0654297-4.9345703-11-11-11H11z M8,246V11c0-1.6542969,1.3457031-3,3-3h234.5
		c1.6542969,0,3,1.3457031,3,3v235c0,1.6542969-1.3457031,3-3,3H11C9.3457031,249,8,247.6542969,8,246z"/>
	<linearGradient id="XMLID_6_" gradientUnits="userSpaceOnUse" x1="40.6650391" y1="79.2973633" x2="353.53125" y2="255.0564575">
		<stop  offset="0" style="stop-color:#FFFFFF"/>
		<stop  offset="1" style="stop-color:#DBDBDB"/>
	</linearGradient>
	<path fill="url(#XMLID_6_)" d="M239.5,237.5625c0,1.1044922-0.8955078,2-2,2H19c-1.1044922,0-2-0.8955078-2-2V19.4375
		c0-1.1044922,0.8955078-2,2-2h218.5c1.1044922,0,2,0.8955078,2,2V237.5625z"/>
	<linearGradient id="XMLID_7_" gradientUnits="userSpaceOnUse" x1="128.2495117" y1="8.46875" x2="128.2495117" y2="32.9687653">
		<stop  offset="0" style="stop-color:#A877A6"/>
		<stop  offset="1" style="stop-color:#80467D"/>
	</linearGradient>
	<path fill="url(#XMLID_7_)" enable-background="new    " d="M252.5,38.96875V11c0-3.8662109-3.1337891-7-7-7H11
		c-3.8662109,0-7,3.1337891-7,7v27.96875H252.5z"/>
	<path fill="#692C65" d="M11,0C4.9345703,0,0,4.9345703,0,11v31.96875h256.5V11c0-6.0654297-4.9345703-11-11-11H11z M8,11
		c0-1.6542969,1.3457031-3,3-3h234.5c1.6542969,0,3,1.3457031,3,3c0,0,0,18.0932617,0,23.96875c-7.6181641,0-232.8823242,0-240.5,0
		C8,29.0932617,8,11,8,11z"/>
	<path fill="#73286F" d="M232.4785156,23.4580078c0,4.1767578-3.3896484,7.5595703-7.5673828,7.5595703
		c-4.1953125,0-7.5761719-3.3828125-7.5761719-7.5595703c0-4.1860352,3.3808594-7.5766602,7.5761719-7.5766602
		C229.0888672,15.8813477,232.4785156,19.2719727,232.4785156,23.4580078z"/>
	<radialGradient id="XMLID_8_" cx="219.8222656" cy="18.1108398" r="11.5361128" gradientUnits="userSpaceOnUse">
		<stop  offset="0" style="stop-color:#FFFFFF"/>
		<stop  offset="1" style="stop-color:#E6E6E6"/>
	</radialGradient>
	<path fill="url(#XMLID_8_)" d="M230.4785156,21.4580078c0,4.1767578-3.3896484,7.5595703-7.5673828,7.5595703
		c-4.1953125,0-7.5761719-3.3828125-7.5761719-7.5595703c0-4.1860352,3.3808594-7.5766602,7.5761719-7.5766602
		C227.0888672,13.8813477,230.4785156,17.2719727,230.4785156,21.4580078z"/>
	<path fill="#73286F" d="M43.0825195,23.4580078c0,4.1767578-3.3896484,7.5595703-7.5673828,7.5595703
		c-4.1953125,0-7.5761719-3.3828125-7.5761719-7.5595703c0-4.1860352,3.3808594-7.5766602,7.5761719-7.5766602
		C39.6928711,15.8813477,43.0825195,19.2719727,43.0825195,23.4580078z"/>
	<radialGradient id="XMLID_9_" cx="30.4267578" cy="18.1108398" r="11.5358562" gradientUnits="userSpaceOnUse">
		<stop  offset="0" style="stop-color:#FFFFFF"/>
		<stop  offset="1" style="stop-color:#E6E6E6"/>
	</radialGradient>
	<path fill="url(#XMLID_9_)" d="M41.0825195,21.4580078c0,4.1767578-3.3896484,7.5595703-7.5673828,7.5595703
		c-4.1953125,0-7.5761719-3.3828125-7.5761719-7.5595703c0-4.1860352,3.3808594-7.5766602,7.5761719-7.5766602
		C37.6928711,13.8813477,41.0825195,17.2719727,41.0825195,21.4580078z"/>
	<path fill="#C8C8C8" d="M77.6767578,67.012207v37.5307617H31.6005859v120.5498047h146.4287109v-37.4921875h46.5273438V67.012207
		H77.6767578z M170.0410156,142.0673828c-11.7744141,0-24.828125,0-38,0v-29.5244141c13.171875,0,26.2255859,0,38,0V142.0673828z
		 M178.0410156,112.5429688c20.9003906,0,36.3251953,0,38.515625,0c0,5.6235352,0,23.9013672,0,29.5244141
		c-2.1904297,0-17.6152344,0-38.515625,0V112.5429688z M124.0415039,112.5429688v29.5244141c-13.3149414,0-26.5053711,0-38.375,0
		v-29.5244141C97.5361328,112.5429688,110.7265625,112.5429688,124.0415039,112.5429688z M124.0415039,150.0751953v29.4921875
		h-38.375v-29.4921875C97.5361328,150.0751953,110.7265625,150.0751953,124.0415039,150.0751953z M124.0415039,187.6005859
		v29.4921875c-12.4541016,0-25.9169922,0-38.375,0v-29.4921875H124.0415039z M170.0410156,179.5673828h-38v-29.4921875
		c13.171875,0,26.2255859,0,38,0V179.5673828z M132.0410156,104.5366211V75.012207c12.3398438,0,25.6523438,0,38,0v29.5244141
		C157.6933594,104.5366211,144.3808594,104.5366211,132.0410156,104.5366211z M178.0410156,75.012207
		c19.9707031,0,35.9472656,0,38.515625,0c0,5.6235352,0,23.9008789,0,29.5244141c-2.5683594,0-18.5449219,0-38.515625,0V75.012207z
		 M85.6767578,75.012207c2.5620117,0,18.4648438,0,38.3647461,0v29.5244141c-19.8999023,0-35.8027344,0-38.3647461,0
		C85.6767578,98.9130859,85.6767578,80.6357422,85.6767578,75.012207z M39.6005859,112.5429688
		c2.1748047,0,17.3950195,0,38.065918,0v29.5244141c-20.6708984,0-35.8911133,0-38.065918,0
		C39.6005859,136.4443359,39.6005859,118.1665039,39.6005859,112.5429688z M39.6005859,150.0751953
		c2.1748047,0,17.3950195,0,38.065918,0v29.4921875h-38.065918
		C39.6005859,173.9072266,39.6005859,155.6884766,39.6005859,150.0751953z M39.6005859,187.6005859h38.065918v29.4921875
		c-19.7485352,0-35.512207,0-38.065918,0C39.6005859,211.4794922,39.6005859,193.2607422,39.6005859,187.6005859z
		 M170.0292969,217.0927734c-2.5507812,0-18.2763672,0-37.9882812,0v-29.4921875h37.9882812
		C170.0292969,193.2607422,170.0292969,211.4794922,170.0292969,217.0927734z M216.5566406,179.6005859
		c-2.1904297,0-17.6152344,0-38.515625,0v-29.5253906c20.9003906,0,36.3251953,0,38.515625,0
		C216.5566406,155.6992188,216.5566406,173.9765625,216.5566406,179.6005859z"/>
	<radialGradient id="XMLID_10_" cx="86.668457" cy="151.5078125" r="38.6599998" gradientUnits="userSpaceOnUse">
		<stop  offset="0" style="stop-color:#DF7391"/>
		<stop  offset="1" style="stop-color:#CC464F"/>
	</radialGradient>
	<rect x="81.25" y="145.9423828" fill="url(#XMLID_10_)" enable-background="new    " width="46.8452148" height="37.7548828"/>
	<path fill="#99010C" d="M77.25,141.9423828v45.7548828h54.8457031v-45.7548828H77.25z M124.0952148,149.9423828
		c0,5.6367188,0,24.1181641,0,29.7548828c-6.0673828,0-32.777832,0-38.8452148,0c0-5.6367188,0-24.1181641,0-29.7548828
		C91.3173828,149.9423828,118.027832,149.9423828,124.0952148,149.9423828z"/>
</g>
</svg>
