<?xml version="1.0" encoding="iso-8859-1"?>
<!-- Generator: Adobe Illustrator 12.0.1, SVG Export Plug-In . SVG Version: 6.00 Build 51448)  -->
<!DOCTYPE svg PUBLIC "-//W3C//DTD SVG 1.0//EN" "http://www.w3.org/TR/2001/REC-SVG-20010904/DTD/svg10.dtd" [
	<!ENTITY ns_svg "http://www.w3.org/2000/svg">
	<!ENTITY ns_xlink "http://www.w3.org/1999/xlink">
]>
<svg  version="1.0" id="Cancel" xmlns="&ns_svg;" xmlns:xlink="&ns_xlink;" width="252.1489258" height="252.1430664"
	 viewBox="0 0 252.1489258 252.1430664" overflow="visible" enable-background="new 0 0 252.1489258 252.1430664"
	 xml:space="preserve">
<g>
	<radialGradient id="XMLID_3_" cx="194.7006836" cy="218.5639648" r="227.3346558" gradientUnits="userSpaceOnUse">
		<stop  offset="0" style="stop-color:#CC464F"/>
		<stop  offset="1" style="stop-color:#AB262D"/>
	</radialGradient>
	<path fill="url(#XMLID_3_)" enable-background="new    " d="M248.1489258,126.0644531
		c0,67.4291992-54.6396484,122.0786133-122.0703125,122.0786133C58.640625,248.1430664,4,193.4936523,4,126.0644531
		C4,58.6542969,58.640625,4,126.0786133,4C193.5092773,4,248.1489258,58.6542969,248.1489258,126.0644531z"/>
	<path fill="#8A010B" d="M0,126.0644531c0,69.5200195,56.5585938,126.0786133,126.0786133,126.0786133
		c69.515625,0,126.0703125-56.5585938,126.0703125-126.0786133C252.1489258,56.5522461,195.5942383,0,126.0786133,0
		C56.5585938,0,0,56.5522461,0,126.0644531z M8,126.0644531C8,60.9633789,60.9697266,8,126.0786133,8
		c65.1044922,0,118.0703125,52.9633789,118.0703125,118.0644531c0,65.1088867-52.9658203,118.0786133-118.0703125,118.0786133
		C60.9697266,244.1430664,8,191.1733398,8,126.0644531z"/>
	<radialGradient id="XMLID_4_" cx="79.9609375" cy="62.6787109" r="161.4358521" gradientUnits="userSpaceOnUse">
		<stop  offset="0" style="stop-color:#CC464F"/>
		<stop  offset="1" style="stop-color:#AB262D"/>
	</radialGradient>
	<path fill="url(#XMLID_4_)" d="M233.5131836,126.0620117c0,59.3310547-48.0917969,107.4316406-107.4101562,107.4316406
		c-59.3681641,0-107.46875-48.1005859-107.46875-107.4316406c0-59.3076172,48.1005859-107.4125977,107.46875-107.4125977
		C185.4213867,18.6494141,233.5131836,66.7543945,233.5131836,126.0620117z"/>
	<g>
		<path fill="#D9555E" d="M16.5146484,126.0615234c0,60.4067383,49.1611328,109.5512695,109.5883789,109.5512695
			c60.3955078,0,109.53125-49.1445312,109.53125-109.5512695c0-60.3959961-49.1357422-109.5317383-109.53125-109.5317383
			C65.6757812,16.5297852,16.5146484,65.6655273,16.5146484,126.0615234z M24.5146484,126.0615234
			c0-55.9848633,45.5722656-101.5317383,101.5883789-101.5317383c55.984375,0,101.53125,45.546875,101.53125,101.5317383
			c0,55.9956055-45.546875,101.5512695-101.53125,101.5512695C70.0869141,227.612793,24.5146484,182.0571289,24.5146484,126.0615234
			z"/>
	</g>
	<path opacity="0.5" fill="#8A010B" d="M128.1362305,34.1157227c-51.8188477,0-93.9765625,42.1577148-93.9765625,93.9765625
		c0,51.8183594,42.1577148,93.9755859,93.9765625,93.9755859c51.8183594,0,93.9765625-42.1572266,93.9765625-93.9755859
		C222.112793,76.2734375,179.9545898,34.1157227,128.1362305,34.1157227z M127.8862305,196.3422852
		c-12.480957,0-30.1777344-4.7480469-40.2016602-10.7011719l98.4995117-98.5009766
		c5.9550781,10.0244141,9.7021484,28.2207031,9.7021484,40.7021484
		C195.8862305,164.8842773,164.9291992,196.3422852,127.8862305,196.3422852z M127.8862305,60.6625977
		c11.6611328,0,27.0644531,4.8134766,36.6328125,10.0620117l-94,94.0004883
		c-5.2490234-9.5683594-9.8120117-25.2216797-9.8120117-36.8828125
		C60.7070312,90.7993164,90.8432617,60.6625977,127.8862305,60.6625977z"/>
	<path fill="#FFFFFF" d="M125.8862305,32.8085938c-51.2993164,0-93.034668,41.7348633-93.034668,93.0336914
		s41.7353516,93.0332031,93.034668,93.0332031c51.2988281,0,93.0332031-41.734375,93.0332031-93.0332031
		S177.1850586,32.8085938,125.8862305,32.8085938z M56.8515625,125.8422852c0-38.0654297,30.96875-69.0336914,69.034668-69.0336914
		c14.3222656,0,27.6376953,4.3867188,38.6796875,11.8833008l-95.8300781,95.8310547
		C61.2382812,153.480957,56.8515625,140.1645508,56.8515625,125.8422852z M125.8862305,194.8754883
		c-15.0922852,0-29.0585938-4.8818359-40.4321289-13.1298828l96.3344727-96.3359375
		c8.2490234,11.3740234,13.1308594,25.3398438,13.1308594,40.4326172
		C194.9194336,163.9077148,163.9516602,194.8754883,125.8862305,194.8754883z"/>
</g>
</svg>
