<?xml version="1.0" encoding="iso-8859-1"?>
<!-- Generator: Adobe Illustrator 12.0.1, SVG Export Plug-In . SVG Version: 6.00 Build 51448)  -->
<!DOCTYPE svg PUBLIC "-//W3C//DTD SVG 1.0//EN" "http://www.w3.org/TR/2001/REC-SVG-20010904/DTD/svg10.dtd" [
	<!ENTITY ns_svg "http://www.w3.org/2000/svg">
	<!ENTITY ns_xlink "http://www.w3.org/1999/xlink">
]>
<svg  version="1.0" id="Clock" xmlns="&ns_svg;" xmlns:xlink="&ns_xlink;" width="280.3398438" height="298.6533203"
	 viewBox="0 0 280.3398438 298.6533203" overflow="visible" enable-background="new 0 0 280.3398438 298.6533203"
	 xml:space="preserve">
<g>
	<radialGradient id="XMLID_4_" cx="140.1699219" cy="149.3266602" r="140.8227386" gradientUnits="userSpaceOnUse">
		<stop  offset="0" style="stop-color:#A0C4C8"/>
		<stop  offset="1" style="stop-color:#90B4B9"/>
	</radialGradient>
	<path fill="url(#XMLID_4_)" enable-background="new    " d="M276.2734375,137.0283203
		C275.0136719,63.3393555,214.5605469,4,140.5742188,4C67.578125,4,6.8564453,61.7573242,4.0620117,134.0683594
		C4.0620117,136.3710938,4,275.1425781,4,275.1425781c0,10.7841797,8.730957,19.5107422,19.5107422,19.5107422h233.3183594
		c10.7753906,0,19.5107422-8.7265625,19.5107422-19.5107422
		C276.3398438,275.1425781,276.2734375,138.2832031,276.2734375,137.0283203z"/>
	<path fill="#7CA5A9" d="M43.2338867,39.0209961C16.7875977,64.2060547,1.456543,97.90625,0.0649414,133.9140625
		l-0.0029297,0.1542969L0,275.140625c0,12.9658203,10.546875,23.5126953,23.5107422,23.5126953h233.3183594
		c12.9638672,0,23.5107422-10.546875,23.5107422-23.5107422c0-0.0019531-0.0673828-138.1826172-0.0673828-138.1826172
		c-0.6269531-36.7050781-15.4638672-71.1308594-41.7753906-96.9350586C212.1787109,14.2143555,177.4023438,0,140.5742188,0
		C104.2270508,0,69.6572266,13.8579102,43.2338867,39.0209961z M48.7509766,44.8144531
		C73.6801758,21.0742188,106.2900391,8,140.5742188,8c34.7207031,0,67.5078125,13.4018555,92.3212891,37.7368164
		c24.7988281,24.3203125,38.7832031,56.7607422,39.3779297,91.3466797c0,0.1098633,0.0664062,138.0610352,0.0664062,138.0610352
		c0,8.5507812-6.9580078,15.5087891-15.5107422,15.5087891H23.5107422C14.9580078,290.6533203,8,283.6953125,8,275.1425781
		c0-0.0322266,0.0610352-138.6572266,0.0620117-140.9663086C9.3842773,100.2783203,23.8325195,68.5439453,48.7509766,44.8144531z"/>
	<radialGradient id="XMLID_5_" cx="91.706543" cy="78.4633789" r="195.5229492" gradientUnits="userSpaceOnUse">
		<stop  offset="0" style="stop-color:#E8F6F8"/>
		<stop  offset="1" style="stop-color:#C8D9DD"/>
	</radialGradient>
	<path fill="url(#XMLID_5_)" enable-background="new    " d="M268.3789062,139.3857422
		c0,70.4384766-57.3828125,127.5517578-128.1801758,127.5517578c-70.8417969,0-128.237793-57.1132812-128.237793-127.5517578
		c0-70.4282227,57.3959961-127.5234375,128.237793-127.5234375
		C210.9960938,11.8623047,268.3789062,68.9575195,268.3789062,139.3857422z"/>
	<path fill="#FFFFFF" d="M7.9609375,139.3857422c0,72.5380859,59.3217773,131.5517578,132.237793,131.5517578
		c72.8842773,0,132.1801758-59.0136719,132.1801758-131.5517578c0-72.5224609-59.2958984-131.5234375-132.1801758-131.5234375
		C67.2827148,7.8623047,7.9609375,66.8632812,7.9609375,139.3857422z M15.9609375,139.3857422
		c0-68.1108398,55.7329102-123.5234375,124.237793-123.5234375c68.4731445,0,124.1801758,55.4125977,124.1801758,123.5234375
		c0,68.1269531-55.7070312,123.5517578-124.1801758,123.5517578C71.6938477,262.9375,15.9609375,207.5126953,15.9609375,139.3857422
		z"/>
	<path fill="#B5CFD3" d="M143.3671875,34.1083984l-9.0048828,121.7011719l69.5869141,56.6494141l8.0742188-8.8769531
		c0,0-46.7529297-43.2646484-50.4492188-46.6269531c0-5.0634766-6.015625-122.8466797-6.015625-122.8466797H143.3671875z"/>
	<radialGradient id="XMLID_6_" cx="137.0742188" cy="54.1083984" r="121.9123001" gradientUnits="userSpaceOnUse">
		<stop  offset="0" style="stop-color:#4F898F"/>
		<stop  offset="1" style="stop-color:#3F6469"/>
	</radialGradient>
	<path fill="url(#XMLID_6_)" d="M133.5742188,22.6083984l-4,119.6533203l72.375,60.1972656l8.0742188-8.8769531
		c0,0-56.7529297-53.2641602-60.4492188-56.6269531c0-5.0639648-4-114.3466797-4-114.3466797H133.5742188z"/>
</g>
</svg>
