<?xml version="1.0" encoding="iso-8859-1"?>
<!-- Generator: Adobe Illustrator 12.0.1, SVG Export Plug-In . SVG Version: 6.00 Build 51448)  -->
<!DOCTYPE svg PUBLIC "-//W3C//DTD SVG 1.0//EN" "http://www.w3.org/TR/2001/REC-SVG-20010904/DTD/svg10.dtd" [
	<!ENTITY ns_svg "http://www.w3.org/2000/svg">
	<!ENTITY ns_xlink "http://www.w3.org/1999/xlink">
]>
<svg  version="1.0" id="Close" xmlns="&ns_svg;" xmlns:xlink="&ns_xlink;" width="252.1489258" height="252.1430664"
	 viewBox="0 0 252.1489258 252.1430664" overflow="visible" enable-background="new 0 0 252.1489258 252.1430664"
	 xml:space="preserve">
<g>
	<radialGradient id="XMLID_3_" cx="194.7006836" cy="218.5639648" r="227.3346558" gradientUnits="userSpaceOnUse">
		<stop  offset="0" style="stop-color:#CC464F"/>
		<stop  offset="1" style="stop-color:#AB262D"/>
	</radialGradient>
	<path fill="url(#XMLID_3_)" enable-background="new    " d="M248.1489258,126.0644531
		c0,67.4291992-54.6396484,122.0786133-122.0703125,122.0786133C58.640625,248.1430664,4,193.4936523,4,126.0644531
		C4,58.6542969,58.640625,4,126.0786133,4C193.5092773,4,248.1489258,58.6542969,248.1489258,126.0644531z"/>
	<path fill="#8A010B" d="M0,126.0644531c0,69.5200195,56.5585938,126.0786133,126.0786133,126.0786133
		c69.515625,0,126.0703125-56.5585938,126.0703125-126.0786133C252.1489258,56.5522461,195.5942383,0,126.0786133,0
		C56.5585938,0,0,56.5522461,0,126.0644531z M8,126.0644531C8,60.9633789,60.9697266,8,126.0786133,8
		c65.1044922,0,118.0703125,52.9633789,118.0703125,118.0644531c0,65.1088867-52.9658203,118.0786133-118.0703125,118.0786133
		C60.9697266,244.1430664,8,191.1733398,8,126.0644531z"/>
	<radialGradient id="XMLID_4_" cx="79.9609375" cy="62.6787109" r="161.4358521" gradientUnits="userSpaceOnUse">
		<stop  offset="0" style="stop-color:#CC464F"/>
		<stop  offset="1" style="stop-color:#AB262D"/>
	</radialGradient>
	<path fill="url(#XMLID_4_)" d="M233.5131836,126.0620117c0,59.3310547-48.0917969,107.4316406-107.4101562,107.4316406
		c-59.3681641,0-107.46875-48.1005859-107.46875-107.4316406c0-59.3076172,48.1005859-107.4125977,107.46875-107.4125977
		C185.4213867,18.6494141,233.5131836,66.7543945,233.5131836,126.0620117z"/>
	<path fill="#D9555E" d="M16.5146484,126.0615234c0,60.4067383,49.1611328,109.5512695,109.5883789,109.5512695
		c60.3955078,0,109.53125-49.1445312,109.53125-109.5512695c0-60.3959961-49.1357422-109.5317383-109.53125-109.5317383
		C65.6757812,16.5297852,16.5146484,65.6655273,16.5146484,126.0615234z M24.5146484,126.0615234
		c0-55.9848633,45.5722656-101.5317383,101.5883789-101.5317383c55.984375,0,101.53125,45.546875,101.53125,101.5317383
		c0,55.9956055-45.546875,101.5512695-101.53125,101.5512695C70.0869141,227.612793,24.5146484,182.0571289,24.5146484,126.0615234z
		"/>
	<path fill="#8A010B" d="M198.8422852,167.9956055l-37.6533203-37.6542969l37.6533203-37.6533203
		c4.2958984-4.2958984,4.2958984-11.2607422,0-15.5556641l-14.4960938-14.4960938
		c-4.2949219-4.2958984-11.2597656-4.2958984-15.5556641,0l-37.6542969,37.6533203l-37.652832-37.6533203
		c-4.2958984-4.2958984-11.2607422-4.2958984-15.5566406,0L63.4311523,77.1323242
		c-4.2958984,4.2958984-4.2958984,11.2607422,0,15.5556641l37.6533203,37.6542969l-37.6533203,37.6533203
		c-4.2958984,4.2958984-4.2958984,11.2607422,0,15.5556641l14.4956055,14.4960938
		c4.2958984,4.2958984,11.2607422,4.2958984,15.5566406,0l37.652832-37.6533203l37.6542969,37.6533203
		c4.2949219,4.2958984,11.2597656,4.2958984,15.5556641,0l14.4960938-14.4960938
		C203.1381836,179.2553711,203.1381836,172.2905273,198.8422852,167.9956055z"/>
	<path fill="#FFFFFF" d="M194.0922852,163.2456055l-37.6533203-37.6542969l37.6533203-37.6533203
		c4.2958984-4.2958984,4.2958984-11.2607422,0-15.5556641l-14.4960938-14.4960938
		c-4.2949219-4.2958984-11.2597656-4.2958984-15.5556641,0l-37.6542969,37.6533203l-37.652832-37.6533203
		c-4.2958984-4.2958984-11.2607422-4.2958984-15.5566406,0L58.6811523,72.3823242
		c-4.2958984,4.2958984-4.2958984,11.2607422,0,15.5556641l37.6533203,37.6542969l-37.6533203,37.6533203
		c-4.2958984,4.2958984-4.2958984,11.2607422,0,15.5556641l14.4956055,14.4960938
		c4.2958984,4.2958984,11.2607422,4.2958984,15.5566406,0l37.652832-37.6533203l37.6542969,37.6533203
		c4.2949219,4.2958984,11.2597656,4.2958984,15.5556641,0l14.4960938-14.4960938
		C198.3881836,174.5053711,198.3881836,167.5405273,194.0922852,163.2456055z"/>
</g>
</svg>
