<?xml version="1.0" encoding="iso-8859-1"?>
<!-- Generator: Adobe Illustrator 12.0.1, SVG Export Plug-In . SVG Version: 6.00 Build 51448)  -->
<!DOCTYPE svg PUBLIC "-//W3C//DTD SVG 1.0//EN" "http://www.w3.org/TR/2001/REC-SVG-20010904/DTD/svg10.dtd" [
	<!ENTITY ns_svg "http://www.w3.org/2000/svg">
	<!ENTITY ns_xlink "http://www.w3.org/1999/xlink">
]>
<svg  version="1.0" id="Comment" xmlns="&ns_svg;" xmlns:xlink="&ns_xlink;" width="285.4433594" height="223.4160156"
	 viewBox="0 0 285.4433594 223.4160156" overflow="visible" enable-background="new 0 0 285.4433594 223.4160156"
	 xml:space="preserve">
<g>
	<radialGradient id="XMLID_2_" cx="102.2236328" cy="53.0009766" r="145.7432861" gradientUnits="userSpaceOnUse">
		<stop  offset="0" style="stop-color:#E1A655"/>
		<stop  offset="1" style="stop-color:#D48049"/>
	</radialGradient>
	<path fill="url(#XMLID_2_)" enable-background="new    " d="M281.2568359,97.0087891
		c0-51.2641602-62.0244141-92.8212891-138.5351562-92.8212891C66.2114258,4.1875,4.1875,45.7446289,4.1875,97.0087891
		c0,51.2636719,62.0239258,92.8212891,138.5341797,92.8212891c12.3046875,0,24.2314453-1.0810547,35.5878906-3.0976562
		l-12.1054688,25.6210938l44.8603516-34.5908203C252.9804688,161.8027344,281.2568359,131.6201172,281.2568359,97.0087891z"/>
	<path fill="#BE5B33" d="M42.4326172,27.8955078C15.0693359,46.2294922,0,70.7744141,0,97.0087891
		s15.0693359,50.7792969,42.4326172,69.1132812c26.8476562,17.9882812,62.4643555,27.8955078,100.2890625,27.8955078
		c9.5742188,0,19.1005859-0.6669922,28.4335938-1.9453125c-3.5097656,7.4287109-13.6025391,31.34375-13.6025391,31.34375
		s54.7666016-41.3330078,55.6289062-41.9990234c44.5839844-17.1806641,72.2617188-49.4697266,72.2617188-84.4082031
		c0-26.2348633-15.0683594-50.7792969-42.4316406-69.1132812C216.1630859,9.9067383,180.546875,0,142.7216797,0
		C104.8969727,0,69.2802734,9.9067383,42.4326172,27.8955078z M8.375,97.0087891
		C8.375,48.1357422,68.6425781,8.375,142.7216797,8.375s134.3476562,39.7607422,134.3476562,88.6337891
		c0,31.5449219-25.8632812,60.9892578-67.4951172,76.8398438l-0.5761719,0.2197266c0,0-18.3496094,14.1494141-31.578125,24.3486328
		c2.2167969-4.6914062,8.1386719-17.2246094,8.1386719-17.2246094l-7.9804688,1.4169922
		c-11.3330078,2.0126953-23.0595703,3.0332031-34.8564453,3.0332031C68.6425781,185.6425781,8.375,145.8808594,8.375,97.0087891z"/>
	<path opacity="0.2" fill="#FFFFFF" d="M30.359375,118.8027344c0-45.8198242,62.1020508-82.9638672,138.7089844-82.9638672
		c6.6777344,0,9.296875-4.4179688,4.7089844-9.6796875c-4.7802734-5.4829102-15.8691406-9.6875-31.9277344-9.6875
		c-68.512207,0-124.0527344,35.6210938-124.0527344,79.5615234c0,13.6557617,5.3676758,26.5078125,14.8193359,37.7363281
		C31.1367188,128.9140625,30.359375,123.9121094,30.359375,118.8027344z"/>
</g>
</svg>
