<?xml version="1.0" encoding="iso-8859-1"?>
<!-- Generator: Adobe Illustrator 12.0.1, SVG Export Plug-In . SVG Version: 6.00 Build 51448)  -->
<!DOCTYPE svg PUBLIC "-//W3C//DTD SVG 1.0//EN" "http://www.w3.org/TR/2001/REC-SVG-20010904/DTD/svg10.dtd" [
	<!ENTITY ns_svg "http://www.w3.org/2000/svg">
	<!ENTITY ns_xlink "http://www.w3.org/1999/xlink">
]>
<svg  version="1.0" id="Computer__x28_Laptop_x29_" xmlns="&ns_svg;" xmlns:xlink="&ns_xlink;" width="295" height="228.5415039"
	 viewBox="0 0 295 228.5415039" overflow="visible" enable-background="new 0 0 295 228.5415039" xml:space="preserve">
<g>
	<linearGradient id="XMLID_11_" gradientUnits="userSpaceOnUse" x1="36.140625" y1="84.3266602" x2="258.859375" y2="84.3266602">
		<stop  offset="0" style="stop-color:#FFFFFF"/>
		<stop  offset="1" style="stop-color:#C6C6C6"/>
	</linearGradient>
	<path fill="url(#XMLID_11_)" enable-background="new    " d="M258.859375,155.7563477
		c0,4.9179688-3.9794922,8.8964844-8.8964844,8.8964844H45.0366211c-4.9082031,0-8.8959961-3.9785156-8.8959961-8.8964844
		V12.8964844C36.140625,7.9790039,40.128418,4,45.0366211,4h204.9262695c4.9169922,0,8.8964844,3.9790039,8.8964844,8.8964844
		V155.7563477z"/>
	<path fill="#8B8B8B" d="M45.0366211,0C37.9257812,0,32.140625,5.7851562,32.140625,12.8964844v142.8598633
		c0,7.1113281,5.7851562,12.8964844,12.8959961,12.8964844h204.9262695c7.1113281,0,12.8964844-5.7851562,12.8964844-12.8964844
		V12.8964844C262.859375,5.7851562,257.0742188,0,249.9628906,0H45.0366211z M40.140625,155.7563477V12.8964844
		C40.140625,10.1967773,42.3369141,8,45.0366211,8h204.9262695c2.7001953,0,4.8964844,2.1967773,4.8964844,4.8964844v142.8598633
		c0,2.7001953-2.1962891,4.8964844-4.8964844,4.8964844H45.0366211
		C42.3369141,160.652832,40.140625,158.456543,40.140625,155.7563477z"/>
	<linearGradient id="XMLID_12_" gradientUnits="userSpaceOnUse" x1="4" y1="194.1274414" x2="291" y2="194.1274414">
		<stop  offset="0" style="stop-color:#FFFFFF"/>
		<stop  offset="1" style="stop-color:#C6C6C6"/>
	</linearGradient>
	<path fill="url(#XMLID_12_)" enable-background="new    " d="M290.8330078,201.0415039
		c0,0-31.4091797-37.328125-36.5097656-37.328125H41.7426758c-5.0917969,0-37.5761719,37.828125-37.5761719,37.828125l-0.1665039,17
		c0,3.3134766,2.6865234,6,6,6h275c3.3134766,0,6-2.6865234,6-6L290.8330078,201.0415039z"/>
	<path fill="#8B8B8B" d="M41.7426758,159.7133789c-1.8950195,0-6.9291992,0-40.6108398,39.2226562
		c-0.6142578,0.7148438-0.9560547,1.6240234-0.965332,2.5664062l-0.1665039,17c0,5.5527344,4.4858398,10.0390625,10,10.0390625h275
		c5.5136719,0,10-4.4863281,10-10l-0.1669922-17.5380859c-0.0087891-0.9296875-0.3408203-1.8261719-0.9394531-2.5371094
		c-32.6074219-38.7529297-37.6660156-38.7529297-39.5703125-38.7529297H41.7426758z M253.7666016,167.7133789
		c3.9306641,1.9482422,19.8710938,19.1894531,33.0800781,34.8115234C286.8701172,204.956543,287,218.5795898,287,218.5795898
		c0,1.0644531-0.8974609,1.9619141-2,1.9619141H10c-1.1030273,0-2-0.8974609-2-2c0,0,0.1279297-13.0458984,0.1518555-15.4941406
		c13.6953125-15.8730469,30.1713867-33.3847656,34.1469727-35.3339844
		C43.4023438,167.7133789,252.6621094,167.7133789,253.7666016,167.7133789z"/>
	<rect x="4.824707" y="198.5678711" fill="#8B8B8B" width="285.3500977" height="8"/>
	<radialGradient id="XMLID_13_" cx="220.8115234" cy="133.559082" r="186.3246002" gradientUnits="userSpaceOnUse">
		<stop  offset="0" style="stop-color:#A9C7EB"/>
		<stop  offset="1" style="stop-color:#7FA3D1"/>
	</radialGradient>
	<path fill="url(#XMLID_13_)" enable-background="new    " d="M244.2861328,146.0629883c0,1.1054688-0.8955078,2-2,2H52.7138672
		c-1.1044922,0-2-0.8945312-2-2V22.5898438c0-1.1044922,0.8955078-2,2-2h189.5722656c1.1044922,0,2,0.8955078,2,2V146.0629883z"/>
	<radialGradient id="XMLID_14_" cx="166.7324219" cy="28.034668" r="80.8413315" gradientUnits="userSpaceOnUse">
		<stop  offset="0" style="stop-color:#A9C7EB"/>
		<stop  offset="1" style="stop-color:#7FA3D1"/>
	</radialGradient>
	<path fill="url(#XMLID_14_)" d="M62.7504883,148.0629883c35.9555664-43.0996094,70.1274414-77.0043945,87.0239258-127.4731445
		H52.7646484c-0.7041016,0.3637695-1.3505859,0.8178711-1.9321289,1.3452148
		c-0.0717773,0.2060547-0.1186523,0.4243164-0.1186523,0.6547852v123.4731445c0,0.1396484,0.0146484,0.2763672,0.0419922,0.4082031
		c0.699707,0.6484375,1.4995117,1.1875,2.3769531,1.5917969H62.7504883z"/>
	<radialGradient id="XMLID_15_" cx="131.5649414" cy="74.1904297" r="100.127533" gradientUnits="userSpaceOnUse">
		<stop  offset="0" style="stop-color:#A9C7EB"/>
		<stop  offset="1" style="stop-color:#7FA3D1"/>
	</radialGradient>
	<path fill="url(#XMLID_15_)" d="M50.8325195,21.9350586c-0.0717773,0.2060547-0.1186523,0.4243164-0.1186523,0.6547852v123.4731445
		c0,0.1396484,0.0146484,0.2763672,0.0419922,0.4082031c0.699707,0.6484375,1.4995117,1.1875,2.3769531,1.5917969h93.1337891
		c-4.2958984-36.0478516-21.6713867-87.5058594-70.4018555-127.4731445H52.7646484
		C52.0605469,20.9536133,51.4140625,21.4077148,50.8325195,21.9350586z"/>
	<radialGradient id="XMLID_16_" cx="166.4267578" cy="96.8393555" r="65.9012299" gradientUnits="userSpaceOnUse">
		<stop  offset="0" style="stop-color:#A9C7EB"/>
		<stop  offset="1" style="stop-color:#7FA3D1"/>
	</radialGradient>
	<path fill="url(#XMLID_16_)" d="M88.5668945,148.0629883h153.6411133c0.6787109-0.3125,1.3144531-0.703125,1.890625-1.1660156
		c0.1181641-0.2548828,0.1875-0.5351562,0.1875-0.8339844V45.6157227
		C135.2670898,73.6821289,119.5703125,118.7163086,88.5668945,148.0629883z"/>
	<radialGradient id="XMLID_17_" cx="191.0527344" cy="109.7724609" r="78.1539154" gradientUnits="userSpaceOnUse">
		<stop  offset="0" style="stop-color:#A9C7EB"/>
		<stop  offset="1" style="stop-color:#7FA3D1"/>
	</radialGradient>
	<path fill="url(#XMLID_17_)" d="M118.5107422,148.0629883H232.203125c3.1210938-1.4375,5.2900391-4.5839844,5.2900391-8.2490234
		v-11.0019531C200.0253906,64.7900391,153.5585938,120.0581055,118.5107422,148.0629883z"/>
	<radialGradient id="XMLID_18_" cx="176.9541016" cy="62.5512695" r="72.7614365" gradientUnits="userSpaceOnUse">
		<stop  offset="0" style="stop-color:#A9C7EB"/>
		<stop  offset="1" style="stop-color:#7FA3D1"/>
	</radialGradient>
	<path fill="url(#XMLID_18_)" d="M242.2861328,20.5898438h-40.5058594
		c-23.2470703,27.2924805-51.5673828,83.4160156-34.4697266,127.4731445h74.8974609
		c0.6787109-0.3125,1.3144531-0.703125,1.890625-1.1660156c0.1181641-0.2548828,0.1875-0.5351562,0.1875-0.8339844V22.5898438
		c0-0.4243164-0.1337891-0.8164062-0.3603516-1.1401367c-0.4003906-0.3071289-0.8232422-0.5854492-1.2734375-0.8227539
		C242.5332031,20.6044922,242.4121094,20.5898438,242.2861328,20.5898438z"/>
	<path fill="#737373" d="M52.7138672,18.5898438c-2.2055664,0-4,1.7944336-4,4v123.4731445c0,2.2060547,1.7944336,4,4,4h189.5722656
		c2.2060547,0,4-1.7939453,4-4V22.5898438c0-2.2055664-1.7939453-4-4-4H52.7138672z M52.7138672,146.0629883V22.5898438h189.5722656
		V146.065918L52.7138672,146.0629883z"/>
	<path opacity="0.5" fill="#C5DFFF" d="M64.0078125,136.2749023c0,1.1044922-0.8955078,2-2,2h-1.3720703
		c-1.1044922,0-2-0.8955078-2-2V31.4042969c0-1.1044922,0.8955078-2,2-2h1.3720703c1.1044922,0,2,0.8955078,2,2V136.2749023z"/>
	
		<radialGradient id="XMLID_19_" cx="52.8154297" cy="47.5600586" r="200.9338684" gradientTransform="matrix(1 0 0 0.4999 0 148.7656708)" gradientUnits="userSpaceOnUse">
		<stop  offset="0" style="stop-color:#CFCFCF"/>
		<stop  offset="1" style="stop-color:#A1A1A1"/>
	</radialGradient>
	<path fill="url(#XMLID_19_)" d="M248.1464844,183.5385742c0,0.5517578-0.8945312,1-2,1H45.4819336c-1.1044922,0-2-0.4482422-2-1
		c0,0,9.6108398-11.5009766,10-11.9970703s0.8955078-1,2-1h180.6645508c1.1054688,0,1.4316406,0.3222656,2,1
		S248.1464844,183.5385742,248.1464844,183.5385742z"/>
	<polygon opacity="0.2" fill="#737373" points="80.6088867,174.878418 77.7084961,180.027832 86.7070312,180.027832 
		89.2338867,174.878418 	"/>
	<polygon opacity="0.2" fill="#737373" points="115.4033203,174.878418 114.0107422,180.027832 123.0102539,180.027832 
		124.0288086,174.878418 	"/>
	<polygon opacity="0.2" fill="#737373" points="97.9897461,174.878418 95.8427734,180.027832 104.8413086,180.027832 
		106.6147461,174.878418 	"/>
	<polygon opacity="0.2" fill="#737373" points="63.1953125,174.878418 59.5400391,180.027832 68.5390625,180.027832 
		71.8203125,174.878418 	"/>
	<polygon opacity="0.2" fill="#737373" points="202.421875,174.878418 204.8027344,180.027832 213.8007812,180.027832 
		211.046875,174.878418 	"/>
	<polygon opacity="0.2" fill="#737373" points="132.8007812,174.878418 132.1630859,180.027832 141.1621094,180.027832 
		141.4267578,174.878418 	"/>
	<polygon opacity="0.2" fill="#737373" points="219.8349609,174.878418 222.9707031,180.027832 231.9697266,180.027832 
		228.4609375,174.878418 	"/>
	<polygon opacity="0.2" fill="#737373" points="150.2148438,174.878418 150.3310547,180.027832 159.3310547,180.027832 
		158.8408203,174.878418 	"/>
	<polygon opacity="0.2" fill="#737373" points="185.0410156,174.878418 186.6679688,180.027832 195.6660156,180.027832 
		193.6669922,174.878418 	"/>
	<polygon opacity="0.2" fill="#737373" points="167.6279297,174.878418 168.5,180.027832 177.4990234,180.027832 
		176.2539062,174.878418 	"/>
	<polygon opacity="0.2" fill="#737373" points="93.9086914,184.5385742 95.7758789,180.0649414 86.7739258,180.0649414 
		84.5820312,184.5385742 	"/>
	<polygon opacity="0.2" fill="#737373" points="75.0786133,184.5385742 77.6025391,180.0649414 68.6000977,180.0649414 
		65.7519531,184.5385742 	"/>
	<polygon opacity="0.2" fill="#737373" points="46.9404297,184.5385742 56.2666016,184.5385742 59.4453125,180.0649414 
		50.4433594,180.0649414 	"/>
	<polygon opacity="0.2" fill="#737373" points="112.7021484,184.5385742 113.9155273,180.0649414 104.9145508,180.0649414 
		103.3764648,184.5385742 	"/>
	<polygon opacity="0.2" fill="#737373" points="57.9018555,170.5415039 54.5341797,174.8422852 63.15625,174.8422852 
		66.2119141,170.5415039 	"/>
	<polygon opacity="0.2" fill="#737373" points="177.5927734,180.0649414 178.6787109,184.5385742 188.0048828,184.5385742 
		186.5947266,180.0649414 	"/>
	<polygon opacity="0.2" fill="#737373" points="159.4199219,180.0649414 159.8486328,184.5385742 169.1738281,184.5385742 
		168.4208984,180.0649414 	"/>
	<polygon opacity="0.2" fill="#737373" points="195.7324219,180.0649414 197.4726562,184.5385742 206.7988281,184.5385742 
		204.7353516,180.0649414 	"/>
	<polygon opacity="0.2" fill="#737373" points="241.0644531,180.0649414 232.0634766,180.0649414 235.1142578,184.5385742 
		244.4394531,184.5385742 	"/>
	<polygon opacity="0.2" fill="#737373" points="213.90625,180.0649414 216.3017578,184.5385742 225.6279297,184.5385742 
		222.9072266,180.0649414 	"/>
	<polygon opacity="0.2" fill="#737373" points="122.206543,184.5385742 131.5322266,184.5385742 132.0893555,180.0649414 
		123.0878906,180.0649414 	"/>
	<polygon opacity="0.2" fill="#737373" points="141.2451172,180.0649414 141.0185547,184.5385742 150.3427734,184.5385742 
		150.2460938,180.0649414 	"/>
	<polygon opacity="0.2" fill="#737373" points="175.2822266,170.5415039 176.3261719,174.8422852 184.9482422,174.8422852 
		183.5917969,170.5415039 	"/>
	<polygon opacity="0.2" fill="#737373" points="71.925293,174.8422852 80.5478516,174.8422852 82.9736328,170.5415039 
		74.6635742,170.5415039 	"/>
	<polygon opacity="0.2" fill="#737373" points="208.8056641,170.5415039 211.109375,174.8422852 219.7314453,174.8422852 
		217.1162109,170.5415039 	"/>
	<polygon opacity="0.2" fill="#737373" points="158.5048828,170.5415039 158.9179688,174.8422852 167.5400391,174.8422852 
		166.8144531,170.5415039 	"/>
	<polygon opacity="0.2" fill="#737373" points="192.0292969,170.5415039 193.7011719,174.8422852 202.3242188,174.8422852 
		200.3398438,170.5415039 	"/>
	<polygon opacity="0.2" fill="#737373" points="141.7280273,170.5415039 141.5097656,174.8422852 150.1318359,174.8422852 
		150.0380859,170.5415039 	"/>
	<polygon opacity="0.2" fill="#737373" points="124.1176758,174.8422852 132.7397461,174.8422852 133.2758789,170.5415039 
		124.965332,170.5415039 	"/>
	<polygon opacity="0.2" fill="#737373" points="233.8779297,170.5415039 225.5673828,170.5415039 228.5009766,174.8422852 
		237.1230469,174.8422852 	"/>
	<polygon opacity="0.2" fill="#737373" points="89.3334961,174.8422852 97.956543,174.8422852 99.7519531,170.5415039 
		91.4414062,170.5415039 	"/>
	<polygon opacity="0.2" fill="#737373" points="106.7094727,174.8422852 115.3320312,174.8422852 116.4980469,170.5415039 
		108.1875,170.5415039 	"/>
	
		<radialGradient id="XMLID_20_" cx="121.5927734" cy="77.4091797" r="54.7094879" gradientTransform="matrix(1 0 0 0.4999 0 148.7656708)" gradientUnits="userSpaceOnUse">
		<stop  offset="0" style="stop-color:#CFCFCF"/>
		<stop  offset="1" style="stop-color:#A1A1A1"/>
	</radialGradient>
	<path fill="url(#XMLID_20_)" d="M172.4667969,195.2446289c0,0.3466797-0.5625,0.6289062-1.2597656,0.6289062h-50.7861328
		c-0.6953125,0-1.2592773-0.2822266-1.2592773-0.6289062c0,0,4.0512695-8.2421875,4.2958984-8.5546875
		c0.2451172-0.3115234,0.5639648-0.6289062,1.2592773-0.6289062h42.1953125c0.6953125,0,0.9003906,0.203125,1.2587891,0.6289062
		C168.5292969,187.1176758,172.4667969,195.2446289,172.4667969,195.2446289z"/>
</g>
</svg>
