<?xml version="1.0" encoding="iso-8859-1"?>
<!-- Generator: Adobe Illustrator 12.0.1, SVG Export Plug-In . SVG Version: 6.00 Build 51448)  -->
<!DOCTYPE svg PUBLIC "-//W3C//DTD SVG 1.0//EN" "http://www.w3.org/TR/2001/REC-SVG-20010904/DTD/svg10.dtd" [
	<!ENTITY ns_svg "http://www.w3.org/2000/svg">
	<!ENTITY ns_xlink "http://www.w3.org/1999/xlink">
]>
<svg  version="1.0" id="Computer__x28_Desktop_x29_" xmlns="&ns_svg;" xmlns:xlink="&ns_xlink;"
	 width="297.9799805" height="298.8144531" viewBox="0 0 297.9799805 298.8144531"
	 overflow="visible" enable-background="new 0 0 297.9799805 298.8144531" xml:space="preserve">
<g>
	<path fill="#FFFFFF" enable-background="new    " d="M293.9799805,285.8457031c0,4.953125-4.015625,8.96875-8.96875,8.96875
		H12.9682617c-4.953125,0-8.9682617-4.015625-8.9682617-8.96875v-76.7294922c0-4.953125,4.0151367-8.96875,8.9682617-8.96875
		h272.0429688c4.953125,0,8.96875,4.015625,8.96875,8.96875V285.8457031z"/>
	<path fill="#8B8B8B" d="M12.9682617,196.1474609C5.8173828,196.1474609,0,201.9648438,0,209.1162109v76.7294922
		c0,7.1513672,5.8173828,12.96875,12.9682617,12.96875h272.0429688c7.1513672,0,12.96875-5.8173828,12.96875-12.96875v-76.7294922
		c0-7.1513672-5.8173828-12.96875-12.96875-12.96875H12.9682617z M8,285.8457031v-76.7294922
		c0-2.7402344,2.2285156-4.96875,4.9682617-4.96875h272.0429688c2.7402344,0,4.96875,2.2285156,4.96875,4.96875v76.7294922
		c0,2.7402344-2.2285156,4.96875-4.96875,4.96875H12.9682617C10.2285156,290.8144531,8,288.5859375,8,285.8457031z"/>
	<path fill="#FFFFFF" enable-background="new    " d="M265.7211914,190.6894531
		c0,5.1445312-4.1621094,9.3066406-9.3076172,9.3066406H42.0268555c-5.140625,0-9.3076172-4.1621094-9.3076172-9.3066406V13.3115234
		C32.7192383,8.1669922,36.8862305,4,42.0268555,4h214.3867188c5.1455078,0,9.3076172,4.1669922,9.3076172,9.3115234V190.6894531z"
		/>
	<path fill="#8B8B8B" d="M42.0268555,0c-7.3378906,0-13.3076172,5.9716797-13.3076172,13.3115234v177.3779297
		c0,7.3369141,5.9697266,13.3066406,13.3076172,13.3066406h214.3867188c7.3378906,0,13.3076172-5.9697266,13.3076172-13.3066406
		V13.3115234C269.7211914,5.9716797,263.7514648,0,256.4135742,0H42.0268555z M36.7192383,190.6894531V13.3115234
		C36.7192383,10.3828125,39.1000977,8,42.0268555,8h214.3867188c2.9267578,0,5.3076172,2.3828125,5.3076172,5.3115234v177.3779297
		c0,2.9257812-2.3808594,5.3066406-5.3076172,5.3066406H42.0268555
		C39.1000977,195.9960938,36.7192383,193.6152344,36.7192383,190.6894531z"/>
	
		<linearGradient id="XMLID_7_" gradientUnits="userSpaceOnUse" x1="45.8862305" y1="101.9980469" x2="252.5532227" y2="101.9980469">
		<stop  offset="0" style="stop-color:#FFFFFF"/>
		<stop  offset="1" style="stop-color:#C6C6C6"/>
	</linearGradient>
	<path fill="url(#XMLID_7_)" d="M252.5532227,184.6650391c0,1.6572266-1.3427734,3-3,3H48.8862305c-1.6572266,0-3-1.3427734-3-3
		V19.3310547c0-1.65625,1.3427734-3,3-3h200.6669922c1.6572266,0,3,1.34375,3,3V184.6650391z"/>
	<radialGradient id="XMLID_8_" cx="103.0234375" cy="60.8286133" r="151.042923" gradientUnits="userSpaceOnUse">
		<stop  offset="0" style="stop-color:#AFAFAF"/>
		<stop  offset="1" style="stop-color:#737373"/>
	</radialGradient>
	<polygon fill="url(#XMLID_8_)" enable-background="new    " points="60.8867188,173.6650391 60.8867188,173.6650391 
		237.5532227,173.6650391 237.5532227,173.6650391 237.5532227,30.3310547 237.5532227,30.3310547 60.8867188,30.3310547 
		60.8867188,30.3310547 	"/>
	<path fill="#737373" d="M56.8867188,26.3310547v151.3339844h184.6665039V26.3310547H56.8867188z M233.5532227,34.3310547
		c0,7.3427734,0,127.9912109,0,135.3339844c-7.4648438,0-161.2016602,0-168.6665039,0c0-7.3427734,0-127.9912109,0-135.3339844
		C72.3515625,34.3310547,226.0883789,34.3310547,233.5532227,34.3310547z"/>
	<path opacity="0.2" fill="#FFFFFF" d="M80.2299805,158.6230469c0,1.6572266-1.3432617,3-3,3h-1.5c-1.6567383,0-3-1.3427734-3-3
		v-113.25c0-1.65625,1.3432617-3,3-3h1.5c1.6567383,0,3,1.34375,3,3V158.6230469z"/>
	
		<linearGradient id="XMLID_9_" gradientUnits="userSpaceOnUse" x1="16.9799805" y1="247.4804688" x2="279.9799805" y2="247.4804688">
		<stop  offset="0" style="stop-color:#FFFFFF"/>
		<stop  offset="1" style="stop-color:#C6C6C6"/>
	</linearGradient>
	<path fill="url(#XMLID_9_)" d="M279.9799805,277.4804688c0,1.6572266-1.3427734,3-3,3h-257c-1.6567383,0-3-1.3427734-3-3v-60
		c0-1.6572266,1.3432617-3,3-3h257c1.6572266,0,3,1.3427734,3,3V277.4804688z"/>
	<path fill="#8B8B8B" d="M268.7700195,250.1259766c0,3.3134766-2.6865234,6-6,6h-87.6865234c-3.3134766,0-6-2.6865234-6-6V244.34375
		c0-3.3134766,2.6865234-6,6-6h87.6865234c3.3134766,0,6,2.6865234,6,6V250.1259766z"/>
	<path opacity="0.2" fill="#FFFFFF" d="M270.4360352,252.1552734c0,3.3134766-2.6865234,6-6,6h-87.6865234
		c-3.3134766,0-6-2.6865234-6-6v-5.7822266c0-3.3134766,2.6865234-6,6-6h87.6865234c3.3134766,0,6,2.6865234,6,6V252.1552734z"/>
	
		<linearGradient id="XMLID_10_" gradientUnits="userSpaceOnUse" x1="219.7299805" y1="236.4345703" x2="219.7299805" y2="251.3623047">
		<stop  offset="0" style="stop-color:#A6A6A6"/>
		<stop  offset="1" style="stop-color:#8C8C8C"/>
	</linearGradient>
	<path fill="url(#XMLID_10_)" d="M269.4799805,251.2480469c0,3.3134766-2.6865234,6-6,6h-87.5c-3.3134766,0-6-2.6865234-6-6v-6
		c0-3.3134766,2.6865234-6,6-6h87.5c3.3134766,0,6,2.6865234,6,6V251.2480469z"/>
	<path opacity="0.3" fill="#737373" d="M37.6616211,228.1669922c0,3.0195312-2.4404297,5.4609375-5.4609375,5.4609375l0,0
		c-3.0126953,0-5.453125-2.4414062-5.453125-5.4609375l0,0c0-3.0136719,2.4404297-5.4550781,5.453125-5.4550781l0,0
		C35.2211914,222.7119141,37.6616211,225.1533203,37.6616211,228.1669922L37.6616211,228.1669922z"/>
	<path opacity="0.1" fill="#FFFFFF" d="M39.659668,230.3232422c0,3.0195312-2.4404297,5.4609375-5.4609375,5.4609375l0,0
		c-3.0126953,0-5.453125-2.4414062-5.453125-5.4609375l0,0c0-3.0117188,2.4404297-5.453125,5.453125-5.453125l0,0
		C37.2192383,224.8701172,39.659668,227.3115234,39.659668,230.3232422L39.659668,230.3232422z"/>
	<radialGradient id="XMLID_11_" cx="31.4790039" cy="227.3242188" r="3.8048437" gradientUnits="userSpaceOnUse">
		<stop  offset="0" style="stop-color:#EEDBA1"/>
		<stop  offset="1" style="stop-color:#E1BF7F"/>
	</radialGradient>
	<path fill="url(#XMLID_11_)" d="M38.6303711,229.2607422c0,2.9550781-2.3876953,5.3515625-5.3515625,5.3515625l0,0
		c-2.9560547,0-5.3535156-2.3964844-5.3535156-5.3515625l0,0c0-2.9648438,2.3974609-5.3632812,5.3535156-5.3632812l0,0
		C36.2426758,223.8974609,38.6303711,226.2958984,38.6303711,229.2607422L38.6303711,229.2607422z"/>
	<path opacity="0.3" fill="#737373" d="M57.6616211,228.1669922c0,3.0195312-2.4404297,5.4609375-5.4609375,5.4609375l0,0
		c-3.0126953,0-5.453125-2.4414062-5.453125-5.4609375l0,0c0-3.0136719,2.4404297-5.4550781,5.453125-5.4550781l0,0
		C55.2211914,222.7119141,57.6616211,225.1533203,57.6616211,228.1669922L57.6616211,228.1669922z"/>
	<path opacity="0.1" fill="#FFFFFF" d="M59.659668,230.3232422c0,3.0195312-2.4404297,5.4609375-5.4609375,5.4609375l0,0
		c-3.0126953,0-5.453125-2.4414062-5.453125-5.4609375l0,0c0-3.0117188,2.4404297-5.453125,5.453125-5.453125l0,0
		C57.2192383,224.8701172,59.659668,227.3115234,59.659668,230.3232422L59.659668,230.3232422z"/>
	<radialGradient id="XMLID_12_" cx="51.4790039" cy="227.3242188" r="3.8048437" gradientUnits="userSpaceOnUse">
		<stop  offset="0" style="stop-color:#95C393"/>
		<stop  offset="1" style="stop-color:#6AA467"/>
	</radialGradient>
	<path fill="url(#XMLID_12_)" d="M58.6303711,229.2607422c0,2.9550781-2.3876953,5.3515625-5.3515625,5.3515625l0,0
		c-2.9560547,0-5.3535156-2.3964844-5.3535156-5.3515625l0,0c0-2.9648438,2.3974609-5.3632812,5.3535156-5.3632812l0,0
		C56.2426758,223.8974609,58.6303711,226.2958984,58.6303711,229.2607422L58.6303711,229.2607422z"/>
</g>
</svg>
