<?xml version="1.0" encoding="iso-8859-1"?>
<!-- Generator: Adobe Illustrator 12.0.1, SVG Export Plug-In . SVG Version: 6.00 Build 51448)  -->
<!DOCTYPE svg PUBLIC "-//W3C//DTD SVG 1.0//EN" "http://www.w3.org/TR/2001/REC-SVG-20010904/DTD/svg10.dtd" [
	<!ENTITY ns_svg "http://www.w3.org/2000/svg">
	<!ENTITY ns_xlink "http://www.w3.org/1999/xlink">
]>
<svg  version="1.0" id="Confirm" xmlns="&ns_svg;" xmlns:xlink="&ns_xlink;" width="252.1489258" height="252.1430664"
	 viewBox="0 0 252.1489258 252.1430664" overflow="visible" enable-background="new 0 0 252.1489258 252.1430664"
	 xml:space="preserve">
<g>
	<radialGradient id="XMLID_3_" cx="194.7006836" cy="218.5639648" r="227.3346558" gradientUnits="userSpaceOnUse">
		<stop  offset="0" style="stop-color:#95C393"/>
		<stop  offset="1" style="stop-color:#6AA467"/>
	</radialGradient>
	<path fill="url(#XMLID_3_)" enable-background="new    " d="M248.1489258,126.0644531
		c0,67.4291992-54.6396484,122.0786133-122.0703125,122.0786133C58.640625,248.1430664,4,193.4936523,4,126.0644531
		C4,58.6542969,58.640625,4,126.0786133,4C193.5092773,4,248.1489258,58.6542969,248.1489258,126.0644531z"/>
	<path fill="#487A47" d="M0,126.0644531c0,69.5200195,56.5585938,126.0786133,126.0786133,126.0786133
		c69.515625,0,126.0703125-56.5585938,126.0703125-126.0786133C252.1489258,56.5522461,195.5942383,0,126.0786133,0
		C56.5585938,0,0,56.5522461,0,126.0644531z M8,126.0644531C8,60.9633789,60.9697266,8,126.0786133,8
		c65.1044922,0,118.0703125,52.9633789,118.0703125,118.0644531c0,65.1088867-52.9658203,118.0786133-118.0703125,118.0786133
		C60.9697266,244.1430664,8,191.1733398,8,126.0644531z"/>
	<radialGradient id="XMLID_4_" cx="79.2143555" cy="61.652832" r="164.0487366" gradientUnits="userSpaceOnUse">
		<stop  offset="0" style="stop-color:#95C393"/>
		<stop  offset="1" style="stop-color:#6AA467"/>
	</radialGradient>
	<path fill="url(#XMLID_4_)" enable-background="new    " d="M235.2524414,126.0620117
		c0,60.2910156-48.8701172,109.1699219-109.1494141,109.1699219c-60.328125,0-109.2070312-48.8789062-109.2070312-109.1699219
		c0-60.2675781,48.8789062-109.1508789,109.2070312-109.1508789
		C186.3823242,16.9111328,235.2524414,65.7944336,235.2524414,126.0620117z"/>
	<path fill="#95C393" d="M16.5146484,126.0615234c0,60.4067383,49.1611328,109.5512695,109.5883789,109.5512695
		c60.3955078,0,109.53125-49.1445312,109.53125-109.5512695c0-60.3959961-49.1357422-109.5317383-109.53125-109.5317383
		C65.6757812,16.5297852,16.5146484,65.6655273,16.5146484,126.0615234z M24.5146484,126.0615234
		c0-55.9848633,45.5722656-101.5317383,101.5883789-101.5317383c55.984375,0,101.53125,45.546875,101.53125,101.5317383
		c0,55.9956055-45.546875,101.5512695-101.53125,101.5512695C70.0869141,227.612793,24.5146484,182.0571289,24.5146484,126.0615234z
		"/>
	<path fill="#FFFFFF" d="M59.1655273,119.1557617c-5.2080078,12.8671875-11.3125,24.0634766-19.3662109,35.2304688
		c28.1210938,10.6962891,40.6210938,21.3652344,54.6962891,45.0029297
		c19.2304688-44.1767578,47.8945312-84.2480469,111.7548828-79.6074219
		c-9.7236328-21.4814453-15.9003906-45.3144531-16.1152344-63.3603516
		c-78.984375,20.0507812-94.4453125,83.96875-97.8154297,99.0507812
		C87.3188477,139.3618164,75.5454102,124.7250977,59.1655273,119.1557617z"/>
	<path fill="#5F8C5E" d="M73.1860352,126.8696289c9.0942383,7.2119141,15.7060547,17.5595703,19.1337891,28.6025391
		c0.3857422-1.7265625,0.9331055-4.1005859,1.7133789-6.96875
		C89.1645508,139.5639648,82.0576172,131.8237305,73.1860352,126.8696289z"/>
	<path fill="#5F8C5E" d="M195.8618164,60.4946289c-2.0849609-0.5205078-5.4726562-3.7661133-5.7246094-4.0097656
		c0.2285156,18.0385742,6.4013672,41.840332,16.1132812,63.296875
		c-63.8447266-4.6396484-92.5107422,35.4111328-111.7412109,79.5761719c0.168457,0.0878906,4.0664062,2.1396484,6.4853516,4.3642578
		c19.2304688-44.1777344,49.4960938-82.8037109,113.3554688-78.1640625
		C204.6274414,104.0766602,196.0766602,78.5405273,195.8618164,60.4946289z"/>
</g>
</svg>
