<?xml version="1.0" encoding="iso-8859-1"?>
<!-- Generator: Adobe Illustrator 12.0.1, SVG Export Plug-In . SVG Version: 6.00 Build 51448)  -->
<!DOCTYPE svg PUBLIC "-//W3C//DTD SVG 1.0//EN" "http://www.w3.org/TR/2001/REC-SVG-20010904/DTD/svg10.dtd" [
	<!ENTITY ns_svg "http://www.w3.org/2000/svg">
	<!ENTITY ns_xlink "http://www.w3.org/1999/xlink">
]>
<svg  version="1.0" id="Contact" xmlns="&ns_svg;" xmlns:xlink="&ns_xlink;" width="263.5" height="190.5"
	 viewBox="0 0 263.5 190.5" overflow="visible" enable-background="new 0 0 263.5 190.5" xml:space="preserve">
<g>
	<path fill="#FFFFFF" enable-background="new    " d="M253.5,32c0,0-127.984375,0-130.0004883,0S97.8256836,4,95.75,4S10,4,10,4
		c-3.3134766,0-6,2.6865234-6,6v170.5c0,3.3134766,2.6865234,6,6,6h28.6665039V174c0-3.3134766,2.6865234-6,6-6h10
		c3.3134766,0,6,2.6865234,6,6v12.5H203V174c0-3.3134766,2.6865234-6,6-6h10c3.3134766,0,6,2.6865234,6,6v12.5h28.5
		c3.3134766,0,6-2.6865234,6-6V38C259.5,34.6865234,256.8134766,32,253.5,32z"/>
	<path fill="#8C8C8C" d="M10,0C4.4858398,0,0,4.4858398,0,10v170.5c0,5.5136719,4.4858398,10,10,10h32.6665039V174
		c0-1.1025391,0.8969727-2,2-2h10c1.1030273,0,2,0.8974609,2,2v16.5H207V174c0-1.1025391,0.8974609-2,2-2h10
		c1.1025391,0,2,0.8974609,2,2v16.5h32.5c5.5136719,0,10-4.4863281,10-10V38c0-5.5141602-4.4863281-10-10-10
		c0,0-126.4794922,0-128.8125,0c-2.0927734-1.815918-7.715332-7.9355469-11.9536133-12.5522461
		C99.3427734,0.8598633,98.2368164,0,95.75,0H10z M8,180.5V10c0-1.1030273,0.8969727-2,2-2c0,0,82.2983398,0,84.578125,0
		c2.125,1.8208008,7.9077148,8.1137695,12.2626953,12.8579102C120.2260742,35.4394531,121.0532227,36,123.4995117,36H253.5
		c1.1025391,0,2,0.8969727,2,2v142.5c0,1.1025391-0.8974609,2-2,2c0,0-18.5878906,0-24.5,0c0-3.6992188,0-8.5,0-8.5
		c0-5.5136719-4.4863281-10-10-10h-10c-5.5136719,0-10,4.4863281-10,10c0,0,0,4.8007812,0,8.5
		c-7.3378906,0-126.9951172,0-134.3334961,0c0-3.6992188,0-8.5,0-8.5c0-5.5136719-4.4858398-10-10-10h-10
		c-5.5141602,0-10,4.4863281-10,10c0,0,0,4.8007812,0,8.5C28.7431641,182.5,10,182.5,10,182.5
		C8.8969727,182.5,8,181.6025391,8,180.5z"/>
	<linearGradient id="XMLID_3_" gradientUnits="userSpaceOnUse" x1="23.640625" y1="39.8886719" x2="235.1412354" y2="175.8892212">
		<stop  offset="0" style="stop-color:#FFFFFF"/>
		<stop  offset="1" style="stop-color:#CCCCCC"/>
	</linearGradient>
	<path fill="url(#XMLID_3_)" d="M239.6367188,46.2021484c0,0-117.7880859,0-121.5239258,0
		S93.9970703,19.5224609,90.4311523,19.5224609s-66.5673828,0-66.5673828,0c-2.9360352,0-5.3168945,2.3798828-5.3168945,5.3173828
		v142.453125c0,2.9355469,2.3808594,5.3164062,5.3168945,5.3164062h0.9697266v-1.6074219c0-8.8369141,7.1635742-16,16-16h18
		c8.8364258,0,16,7.1630859,16,16v1.6074219h114.5004883v-1.6074219c0-8.8369141,7.1630859-16,15.9990234-16h18
		c8.8369141,0,16,7.1630859,16,16v1.6074219h0.3037109c2.9355469,0,5.3164062-2.3808594,5.3164062-5.3164062V51.5195312
		C244.953125,48.5830078,242.5722656,46.2021484,239.6367188,46.2021484z"/>
	<g>
		<rect x="118.4438477" y="68.2910156" fill="#8A8A8A" width="107.5639648" height="4"/>
	</g>
	<g>
		<rect x="118.4438477" y="95.5390625" fill="#B0B0B0" width="107.5639648" height="4"/>
	</g>
	<g>
		<rect x="119.4863281" y="122.7509766" fill="#B0B0B0" width="106.9736328" height="4"/>
	</g>
	<radialGradient id="XMLID_4_" cx="59.6166992" cy="71.4208984" r="54.8807068" gradientUnits="userSpaceOnUse">
		<stop  offset="0" style="stop-color:#95C393"/>
		<stop  offset="1" style="stop-color:#6AA467"/>
	</radialGradient>
	<path fill="url(#XMLID_4_)" enable-background="new    " d="M82.0615234,104.6279297c0,0-3.3735352-3.4648438-3.3735352-6.0166016
		c0-2.5498047,7.4287109-5.7915039,7.4287109-18.2368164v-3.3945312c0-10.9755859-8.8964844-21.034668-19.8710938-21.034668
		s-19.8710938,10.059082-19.8710938,21.034668v3.3945312c0,12.4453125,7.4287109,15.6870117,7.4287109,18.2368164
		c0,2.5517578-3.3735352,6.0166016-3.3735352,6.0166016c-10.875,0.5722656-23.3779297,10.1025391-23.3779297,20.8867188v2.3769531
		c7.5458984,5.6542969,22.2685547,9.8798828,39.1938477,9.8798828c16.9262695,0,31.6479492-4.2255859,39.1938477-9.8798828
		v-2.3769531C105.4394531,114.7304688,92.9365234,105.2001953,82.0615234,104.6279297z"/>
	<path fill="#487A47" d="M44.3745117,76.9799805v3.3945312c0,9.2939453,3.8691406,13.9160156,6.1806641,16.6782227
		c0.4946289,0.5908203,1.0888672,1.3056641,1.2294922,1.6289062c-0.0473633,1.0439453-1.2797852,2.8271484-2.3408203,4.0390625
		c-11.4790039,1.0566406-24.3920898,10.9580078-24.3920898,22.7939453v3.3779297l0.8007812,0.5996094
		c8.4614258,6.3408203,23.9394531,10.2792969,40.3930664,10.2792969s31.9316406-3.9384766,40.3930664-10.2792969
		l0.8007812-0.5996094v-3.3779297c0-11.8359375-12.9130859-21.7373047-24.3920898-22.7939453
		c-1.0610352-1.2119141-2.293457-2.9951172-2.3408203-4.0390625c0.140625-0.3232422,0.7348633-1.0380859,1.2294922-1.6289062
		c2.3115234-2.762207,6.1806641-7.3842773,6.1806641-16.6782227v-3.3945312c0-12.4858398-10.015625-23.034668-21.8710938-23.034668
		S44.3745117,64.4941406,44.3745117,76.9799805z M29.0517578,125.5146484c0-9.8369141,11.7524414-18.3769531,21.4829102-18.8896484
		l0.7817383-0.0410156l0.5463867-0.5605469c0.6577148-0.6757812,3.9404297-4.2099609,3.9404297-7.4121094
		c0-1.5214844-0.9624023-2.6708984-2.1806641-4.1264648c-2.0898438-2.496582-5.2480469-6.2695312-5.2480469-14.1103516v-3.3945312
		c0-10.1401367,8.3510742-19.034668,17.8710938-19.034668s17.8710938,8.8945312,17.8710938,19.034668v3.3945312
		c0,7.8408203-3.1582031,11.6137695-5.2480469,14.1103516c-1.2182617,1.4555664-2.1806641,2.6049805-2.1806641,4.1264648
		c0,3.2021484,3.2827148,6.7363281,3.9404297,7.4121094l0.5463867,0.5605469L81.956543,106.625
		c9.7304688,0.5126953,21.4829102,9.0527344,21.4829102,18.8896484c0,0,0,0.6503906,0,1.2910156
		c-7.8764648,5.4541016-22.2792969,8.9658203-37.1938477,8.9658203s-29.3173828-3.5117188-37.1938477-8.9658203
		C29.0517578,126.1650391,29.0517578,125.5146484,29.0517578,125.5146484z"/>
</g>
</svg>
