<?xml version="1.0" encoding="iso-8859-1"?>
<!-- Generator: Adobe Illustrator 12.0.1, SVG Export Plug-In . SVG Version: 6.00 Build 51448)  -->
<!DOCTYPE svg PUBLIC "-//W3C//DTD SVG 1.0//EN" "http://www.w3.org/TR/2001/REC-SVG-20010904/DTD/svg10.dtd" [
	<!ENTITY ns_svg "http://www.w3.org/2000/svg">
	<!ENTITY ns_xlink "http://www.w3.org/1999/xlink">
]>
<svg  version="1.0" id="Control__x28_Stop_x29_" xmlns="&ns_svg;" xmlns:xlink="&ns_xlink;" width="204" height="212"
	 viewBox="0 0 204 212" overflow="visible" enable-background="new 0 0 204 212" xml:space="preserve">
<g>
	<path fill="#CC464F" enable-background="new    " d="M200,202c0,3.3134766-2.6865234,6-6,6H10c-3.3134766,0-6-2.6865234-6-6V10
		c0-3.3134766,2.6865234-6,6-6h184c3.3134766,0,6,2.6865234,6,6V202z"/>
	<path fill="#8A010B" d="M10,0C4.4853516,0,0,4.4858398,0,10v192c0,5.5136719,4.4853516,10,10,10h184
		c5.5136719,0,10-4.4863281,10-10V10c0-5.5141602-4.4863281-10-10-10H10z M8,202V10c0-1.1030273,0.8964844-2,2-2h184
		c1.1025391,0,2,0.8969727,2,2v192c0,1.1025391-0.8974609,2-2,2H10C8.8964844,204,8,203.1025391,8,202z"/>
	<radialGradient id="XMLID_2_" cx="18.4291992" cy="20.753418" r="236.4281006" gradientUnits="userSpaceOnUse">
		<stop  offset="0" style="stop-color:#CC464F"/>
		<stop  offset="1" style="stop-color:#AB262D"/>
	</radialGradient>
	<path fill="url(#XMLID_2_)" d="M188.8330078,194.5c0,1.1044922-0.8964844,2-2,2H17.1669922c-1.1044922,0-2-0.8955078-2-2
		V17.5004883c0-1.1044922,0.8955078-2,2-2h169.6660156c1.1035156,0,2,0.8955078,2,2V194.5z"/>
	<path fill="#D9555E" d="M188.8330078,17.5004883c0-1.1044922-0.8964844-2-2-2H17.1669922c-1.1044922,0-2,0.8955078-2,2V194.5
		c0,1.1044922,0.8955078,2,2,2h5.7397461V22.847168h165.9262695V17.5004883z"/>
</g>
</svg>
