<?xml version="1.0" encoding="iso-8859-1"?>
<!-- Generator: Adobe Illustrator 12.0.1, SVG Export Plug-In . SVG Version: 6.00 Build 51448)  -->
<!DOCTYPE svg PUBLIC "-//W3C//DTD SVG 1.0//EN" "http://www.w3.org/TR/2001/REC-SVG-20010904/DTD/svg10.dtd" [
	<!ENTITY ns_svg "http://www.w3.org/2000/svg">
	<!ENTITY ns_xlink "http://www.w3.org/1999/xlink">
]>
<svg  version="1.0" id="Control__x28_Skip_Forward_x29_" xmlns="&ns_svg;" xmlns:xlink="&ns_xlink;"
	 width="227" height="232.5097656" viewBox="0 0 227 232.5097656" overflow="visible" enable-background="new 0 0 227 232.5097656"
	 xml:space="preserve">
<g>
	<radialGradient id="XMLID_2_" cx="9" cy="20.4980469" r="279.3982239" gradientUnits="userSpaceOnUse">
		<stop  offset="0" style="stop-color:#7FA3D1"/>
		<stop  offset="1" style="stop-color:#567CB0"/>
	</radialGradient>
	<path fill="url(#XMLID_2_)" enable-background="new    " d="M214,4h-41.5c-4.9707031,0-9,4.0292969-9,9v62.0439453
		c0,0-57.1669922-54.6464844-65.2905273-62.831543S83,5,83,5c-4.9707031,0-12,6.0292969-12,11v34.5043945
		c0,0-33.5776367-32.5253906-40.9150391-39.3745117S16,5,16,5C11.0292969,5,4,11.0292969,4,16v201.5c0,4.9707031,7.0292969,11,12,11
		c0,0,7.5415039,0.6445312,15.0302734-6.7783203S71,181.4697266,71,181.4697266V217.5c0,4.9707031,7.0292969,11,12,11
		c0,0,7.3125,0.6875,16.2548828-8.0117188C108.5385742,211.4570312,163.5,155.7890625,163.5,155.7890625V219.5
		c0,4.9707031,4.0292969,9,9,9H214c4.9707031,0,9-4.0292969,9-9V13C223,8.0292969,218.9707031,4,214,4z"/>
	<path fill="#204780" d="M172.5,0c-7.1679688,0-13,5.8320312-13,13c0,0,0,39.1831055,0,52.6826172
		c-15.3701172-14.7080078-52.1269531-49.9155273-58.4516602-56.2880859C91.7866211,0.0625,83.3837891,0.909668,82.4560547,1.0371094
		L83,1c-6.8383789,0-16,7.4160156-16,15c0,0,0,15.1054688,0,25.0668945
		C56.7744141,31.1772461,38.0507812,13.09375,32.8144531,8.2060547c-8.4301758-7.8691406-16.3618164-7.2768555-17.2382812-7.1835938
		L16,1C9.1616211,1,0,8.4160156,0,16v201.5c0,7.5839844,9.1616211,15,16,15l-0.3408203-0.0146484
		c0.3833008,0.0332031,9.484375,0.703125,18.1870117-7.9228516C39.1328125,219.3222656,57.0327148,201.2617188,67,191.1962891
		C67,201.5634766,67,217.5,67,217.5c0,7.5732422,9.1342773,14.9746094,15.9697266,14.9960938
		c1.7045898,0.0927734,9.6870117-0.0087891,19.0742188-9.140625c7.2299805-7.0332031,42.4140625-42.6044922,57.4560547-57.8261719
		c0,13.9804688,0,53.9707031,0,53.9707031c0,7.1679688,5.8320312,13,13,13H214c7.1679688,0,13-5.8320312,13-13V13
		c0-7.1679688-5.8320312-13-13-13H172.5z M167.5,13c0-2.7568359,2.2431641-5,5-5H214c2.7568359,0,5,2.2431641,5,5v206.5
		c0,2.7568359-2.2431641,5-5,5h-41.5c-2.7568359,0-5-2.2431641-5-5v-73.4560547l-6.8466797,6.9345703
		c-0.5488281,0.5566406-55.0385742,55.7421875-64.1875,64.6425781c-7.3037109,7.1054688-12.9365234,6.9023438-13.1728516,6.8896484
		L83,224.5c-2.9160156,0-8-4.4482422-8-7v-45.7607422l-6.8432617,6.9169922
		c-0.324707,0.328125-32.5532227,32.9003906-39.9423828,40.2246094c-5.9541016,5.9013672-11.6860352,5.6435547-11.9267578,5.6298828
		l-0.1152344-0.0068359L16,224.5c-2.9160156,0-8-4.4482422-8-7V16c0-2.5512695,5.0839844-7,8-7h0.1430664l0.2143555-0.0161133
		C16.5688477,8.96875,21.59375,8.6757812,27.3554688,14.0537109c7.2265625,6.7460938,40.5258789,38.9990234,40.8613281,39.3237305
		L75,59.9477539V16c0-2.5512695,5.0839844-7,8-7h0.1845703l0.2753906-0.0268555
		c0.2207031-0.0205078,5.4775391-0.4248047,11.9106445,6.0571289c8.0678711,8.1289062,63.0297852,60.6723633,65.3657227,62.9052734
		L167.5,84.4013672V13z M83,232.5c-0.0097656,0-0.0205078-0.0039062-0.0302734-0.0039062
		c-0.1074219-0.0058594-0.2885742-0.0087891-0.3442383-0.0136719L83,232.5z"/>
	<path opacity="0.6" fill="#7FA3D1" d="M211.7832031,117c0.0273438-0.1640625,0.0507812-0.328125,0.0507812-0.5V18
		c0-1.6567383-1.34375-3-3-3H177.5c-1.65625,0-3,1.3432617-3,3v85.1259766L85.9716797,16.6665039h-0.3330078
		c-1.6567383,0-3,1.3432617-3,3v59.3139648L18.8334961,16.6665039h-0.3330078c-1.6567383,0-3,1.3432617-3,3V117H211.7832031z"/>
	<path opacity="0.5" fill="#A9C7EB" d="M208.8339844,15H177.5c-1.65625,0-3,1.3432617-3,3v85.1259766L85.9716797,16.6665039
		h-0.3330078c-1.6567383,0-3,1.3432617-3,3v59.3139648L18.8334961,16.6665039h-0.3330078c-1.6567383,0-3,1.3432617-3,3V117
		h7.4990234V33.5c0-0.5522461,0.4477539-1,1-1l87.2119141,84.5h10.3354492L89.9995117,86.1894531V33.5c0-0.5522461,0.4477539-1,1-1
		L174.5,113.5966797V217.015625c0,0.5527344,0.4472656,1,1,1h5.15625c0.5527344,0,1-0.4472656,1-1l0.0097656-194.1821289
		c0-0.5522461,0.4472656-1,1-1h29.1679688V18C211.8339844,16.3432617,210.4902344,15,208.8339844,15z"/>
	<path fill="#567CB0" d="M111.203125,117l-94.1386719,92.6416016c-0.3945312,0.3867188-0.4013672,1.0195312-0.0141602,1.4140625
		l3.4658203,3.5458984c0.3862305,0.3945312,1.0195312,0.4013672,1.4145508,0.015625L121.5292969,117H111.203125z"/>
	<path fill="#567CB0" d="M83.0634766,211.0556641l3.4658203,3.5458984c0.3862305,0.3945312,1.0195312,0.4013672,1.4145508,0.015625
		L174.5,129.7822266v-10.109375l-91.4223633,89.96875C82.6831055,210.0283203,82.6762695,210.6611328,83.0634766,211.0556641z"/>
</g>
</svg>
