<?xml version="1.0" encoding="iso-8859-1"?>
<!-- Generator: Adobe Illustrator 12.0.1, SVG Export Plug-In . SVG Version: 6.00 Build 51448)  -->
<!DOCTYPE svg PUBLIC "-//W3C//DTD SVG 1.0//EN" "http://www.w3.org/TR/2001/REC-SVG-20010904/DTD/svg10.dtd" [
	<!ENTITY ns_svg "http://www.w3.org/2000/svg">
	<!ENTITY ns_xlink "http://www.w3.org/1999/xlink">
]>
<svg  version="1.0" id="Control__x28_Rewind_x29_" xmlns="&ns_svg;" xmlns:xlink="&ns_xlink;"
	 width="231.3735352" height="243.5654297" viewBox="0 0 231.3735352 243.5654297"
	 overflow="visible" enable-background="new 0 0 231.3735352 243.5654297" xml:space="preserve">
<g>
	<radialGradient id="XMLID_2_" cx="149.8735352" cy="4.0058594" r="241.0003815" gradientUnits="userSpaceOnUse">
		<stop  offset="0" style="stop-color:#7FA3D1"/>
		<stop  offset="1" style="stop-color:#567CB0"/>
	</radialGradient>
	<path fill="url(#XMLID_2_)" enable-background="new    " d="M124.3930664,232.1103516
		C115.0078125,223.5292969,5.8735352,122.0107422,5.8735352,122.0107422S118.8071289,17.0058594,126.2192383,10.2895508
		s15.4316406-6.2836914,15.4316406-6.2836914c5.4111328,0,12.7958984,6.2456055,12.7958984,11.4833984V51.953125
		c0,0,33.8242188-31.4257812,43.2275391-40.2714844c8.8242188-8.3007812,16.9033203-7.6757812,16.9033203-7.6757812
		c5.4101562,0,12.7958984,6.2456055,12.7958984,11.4833984v212.53125c0,5.2373047-7.3857422,11.4824219-12.7958984,11.4824219
		c0,0-7.6943359,1.1640625-17.4580078-7.9521484s-42.6728516-41.6015625-42.6728516-41.6015625v38.0712891
		c0,5.2373047-7.3847656,11.4824219-12.7958984,11.4824219C141.6508789,239.5029297,133.777832,240.6914062,124.3930664,232.1103516
		z"/>
	<path fill="#204780" d="M194.934082,8.7680664c0,0-24.3447266,22.6796875-36.4873047,33.9916992
		c0-10.2841797,0-27.2705078,0-27.2705078c0-7.8242188-9.6064453-15.4736328-16.7832031-15.4819336
		c-1.1962891-0.0371094-10.0019531-0.046875-18.1298828,7.3178711C116.1870117,13.9819336,4.2792969,118.03125,3.1499023,119.081543
		L0,122.0102539l3.1489258,2.9291992c1.0917969,1.015625,109.2543945,101.6289062,118.5449219,110.1230469l0,0
		c10.4902344,9.5917969,19.5546875,8.546875,20.5537109,8.3955078l-0.5966797,0.0449219
		c7.1787109,0,16.7958984-7.6542969,16.7958984-15.4824219c0,0,0-17.7929688,0-28.515625
		c10.2021484,10.0390625,28.9931641,28.4814453,35.9433594,34.9697266
		c10.8642578,10.1435547,19.8027344,9.1318359,20.7861328,8.9833984l-0.5986328,0.0449219
		c7.1787109,0,16.7958984-7.6542969,16.7958984-15.4824219v-212.53125c0-7.8183594-9.5917969-15.4599609-16.7675781-15.4799805
		C213.2348633-0.0507812,204.3364258-0.0766602,194.934082,8.7680664z M200.4145508,14.5952148
		c7.2753906-6.8432617,13.640625-6.6108398,13.9082031-6.5976562l0.0986328,0.0048828l0.15625,0.003418
		c3.625,0,8.7958984,4.840332,8.7958984,7.4833984v212.53125c0,2.6425781-5.1708984,7.4824219-8.7958984,7.4824219h-0.2138672
		l-0.3017578,0.0332031c-0.2490234,0.0273438-6.2041016,0.5683594-14.2128906-6.9091797
		c-9.6113281-8.9736328-42.2636719-41.2001953-42.5927734-41.5244141l-6.8095703-6.7226562v47.640625
		c0,2.6425781-5.1708984,7.4824219-8.7958984,7.4824219h-0.2275391l-0.3007812,0.0351562
		c-0.2558594,0.0292969-6.3574219,0.6357422-14.0302734-6.3798828l0,0
		c-8.3701172-7.6533203-97.4086914-90.4638672-115.3447266-107.1469727
		C30.0625,104.9838867,122.2915039,19.246582,128.9047852,13.2539062c5.9873047-5.425293,12.2988281-5.2617188,12.5654297-5.2519531
		l0.1806641,0.0039062c3.625,0,8.7958984,4.840332,8.7958984,7.4833984v45.6572266L200.4145508,14.5952148z M214.605957,0.0092773
		c0.0869141,0.0039062,0.2558594,0.0068359,0.2802734,0.0083008l-0.3085938-0.0117188
		C214.5864258,0.0058594,214.597168,0.0092773,214.605957,0.0092773z M141.8666992,0.0117188l-0.2158203-0.0058594
		C141.6547852,0.0058594,141.847168,0.0107422,141.8666992,0.0117188z"/>
	<path opacity="0.6" fill="#7FA3D1" d="M24.0688477,122.0175781L138.1508789,16.2978516h0.3632812
		c1.8027344,0,3.2646484,1.4165039,3.2646484,3.1611328v62.4985352l69.4482422-65.659668h0.3642578
		c1.8027344,0,3.2646484,1.4165039,3.2646484,3.1611328v102.5585938H24.0688477z"/>
	<path opacity="0.5" fill="#A9C7EB" d="M214.855957,19.4589844c0-1.4248047-0.9814453-2.6166992-2.3222656-3.0107422
		c-0.1904297-0.0463867-0.3642578-0.0830078-0.5214844-0.1088867c-0.1396484-0.0166016-0.2763672-0.0415039-0.4208984-0.0415039
		h-0.3642578L99.4291992,122.0175781h11.2504883L214.855957,24.3920898V19.4589844z"/>
	<path opacity="0.5" fill="#A9C7EB" d="M141.7602539,19.4589844c0-1.4248047-0.9824219-2.6166992-2.3232422-3.0107422
		c-0.1894531-0.0463867-0.3642578-0.0830078-0.5214844-0.1088867c-0.1396484-0.0166016-0.2763672-0.0415039-0.4208984-0.0415039
		h-0.3632812L24.0673828,122.0175781h11.25l106.4428711-97.6254883V19.4589844z"/>
	<path fill="#567CB0" d="M110.6879883,122.0175781l102.4658203,97.6152344
		c0.4287109,0.4082031,0.4365234,1.0742188,0.0146484,1.4902344l-3.7714844,3.7363281
		c-0.4208984,0.4160156-1.109375,0.4228516-1.5400391,0.0166016L99.4487305,122.0175781H110.6879883z"/>
	<path fill="#567CB0" d="M35.3012695,122.0175781l104.7314453,97.6152344
		c0.4296875,0.4082031,0.4355469,1.0742188,0.0146484,1.4902344l-3.7714844,3.7363281
		c-0.4208984,0.4160156-1.109375,0.4228516-1.5410156,0.0166016L24.0615234,122.0175781H35.3012695z"/>
</g>
</svg>
