<?xml version="1.0" encoding="iso-8859-1"?>
<!-- Generator: Adobe Illustrator 12.0.1, SVG Export Plug-In . SVG Version: 6.00 Build 51448)  -->
<!DOCTYPE svg PUBLIC "-//W3C//DTD SVG 1.0//EN" "http://www.w3.org/TR/2001/REC-SVG-20010904/DTD/svg10.dtd" [
	<!ENTITY ns_svg "http://www.w3.org/2000/svg">
	<!ENTITY ns_xlink "http://www.w3.org/1999/xlink">
]>
<svg  version="1.0" id="Control__x28_Fast_Forward_x29_" xmlns="&ns_svg;" xmlns:xlink="&ns_xlink;"
	 width="231.3740234" height="243.5644531" viewBox="0 0 231.3740234 243.5644531"
	 overflow="visible" enable-background="new 0 0 231.3740234 243.5644531" xml:space="preserve">
<g>
	<radialGradient id="XMLID_2_" cx="17.9770508" cy="20.4863281" r="268.8086243" gradientUnits="userSpaceOnUse">
		<stop  offset="0" style="stop-color:#7FA3D1"/>
		<stop  offset="1" style="stop-color:#567CB0"/>
	</radialGradient>
	<path fill="url(#XMLID_2_)" enable-background="new    " d="M106.9804688,232.1103516
		C116.3652344,223.5292969,225.5,122.0107422,225.5,122.0107422S112.5664062,17.0058594,105.1542969,10.2895508
		S89.7226562,4.0058594,89.7226562,4.0058594c-5.4111328,0-12.7958984,6.2456055-12.7958984,11.4833984V51.953125
		c0,0-33.8242188-31.4257812-43.2275391-40.2714844C24.875,3.3808594,16.7958984,4.0058594,16.7958984,4.0058594
		C11.3857422,4.0058594,4,10.2514648,4,15.4892578v212.53125c0,5.2373047,7.3857422,11.4824219,12.7958984,11.4824219
		c0,0,7.6943359,1.1640625,17.4580078-7.9521484s42.6728516-41.6015625,42.6728516-41.6015625v38.0712891
		c0,5.2373047,7.3847656,11.4824219,12.7958984,11.4824219C89.7226562,239.5029297,97.5957031,240.6914062,106.9804688,232.1103516z
		"/>
	<path fill="#204780" d="M16.7670898,0.0092773C9.5917969,0.0292969,0,7.6708984,0,15.4892578v212.53125
		c0,7.828125,9.6171875,15.4824219,16.7958984,15.4824219l-0.5981445-0.0449219
		c0.9833984,0.1484375,9.9174805,1.1611328,20.7861328-8.9833984c6.9492188-6.4882812,25.7412109-24.9306641,35.9428711-34.9697266
		c0,10.7226562,0,28.515625,0,28.515625c0,7.828125,9.6171875,15.4824219,16.7958984,15.4824219l-0.597168-0.0449219
		c0.9990234,0.1513672,10.0654297,1.1953125,20.5541992-8.3955078
		c9.2900391-8.4941406,117.453125-109.1074219,118.5449219-110.1230469l3.1494141-2.9291992l-3.1503906-2.9287109
		C227.09375,118.03125,115.1865234,13.9819336,107.840332,7.3251953c-8.128418-7.3647461-16.9335938-7.3549805-18.1298828-7.3178711
		C82.5332031,0.015625,72.9267578,7.6650391,72.9267578,15.4892578c0,0,0,16.9863281,0,27.2705078
		C63.3398438,33.8286133,36.4399414,8.7680664,36.4399414,8.7680664
		C27.0371094-0.0766602,18.1391602-0.0507812,16.7670898,0.0092773z M17.3110352,235.5361328l-0.2119141-0.0224609
		l-0.3032227-0.0107422C13.1713867,235.5029297,8,230.6630859,8,228.0205078v-212.53125
		c0-2.6430664,5.1713867-7.4833984,8.7958984-7.4833984h0.0991211l0.1557617-0.0083008
		c0.2675781-0.0131836,6.6328125-0.2456055,13.9077148,6.5976562l49.972168,46.5551758l-0.0039062-9.1972656V15.4892578
		c0-2.6430664,5.1713867-7.4833984,8.7958984-7.4833984h0.0722656l0.1088867-0.0039062
		c0.265625-0.0097656,6.5776367-0.1733398,12.5644531,5.2519531c6.6137695,5.9926758,98.8432617,91.7299805,117.1577148,108.7573242
		c-17.9365234,16.6831055-106.9750977,99.4946289-115.3447266,107.1469727
		c-7.6723633,7.015625-13.7744141,6.4091797-14.0302734,6.3798828l-0.2265625-0.0253906l-0.3017578-0.0097656
		c-3.6245117,0-8.7958984-4.8398438-8.7958984-7.4824219v-47.640625l-6.8100586,6.7226562
		c-0.3286133,0.3242188-32.980957,32.5507812-42.5927734,41.5244141
		C23.515625,236.1044922,17.5610352,235.5634766,17.3110352,235.5361328z M89.5073242,0.0117188
		c0.0195312-0.0009766,0.2114258-0.0058594,0.215332-0.0058594L89.5073242,0.0117188z M16.4873047,0.0175781
		c0.0239258-0.0014648,0.1933594-0.0043945,0.2797852-0.0083008c0.0092773,0,0.0195312-0.003418,0.0288086-0.003418
		L16.4873047,0.0175781z"/>
	<path opacity="0.6" fill="#7FA3D1" d="M207.3046875,122.0175781L93.2226562,16.2978516H92.859375
		c-1.8027344,0-3.2646484,1.4165039-3.2646484,3.1611328v62.4985352l-69.4482422-65.659668h-0.3642578
		c-1.8027344,0-3.2646484,1.4165039-3.2646484,3.1611328v102.5585938H207.3046875z"/>
	<path fill="#567CB0" d="M120.6855469,122.0175781L18.2197266,219.6328125
		c-0.4287109,0.4082031-0.4365234,1.0742188-0.0146484,1.4902344l3.7714844,3.7363281
		c0.4208984,0.4160156,1.109375,0.4228516,1.5400391,0.0166016l108.4082031-102.8583984H120.6855469z"/>
	<path fill="#567CB0" d="M196.0722656,122.0175781L91.3408203,219.6328125
		c-0.4296875,0.4082031-0.4355469,1.0742188-0.0146484,1.4902344l3.7714844,3.7363281
		c0.4208984,0.4160156,1.109375,0.4228516,1.5410156,0.0166016L207.3125,122.0175781H196.0722656z"/>
	<path opacity="0.5" fill="#A9C7EB" d="M196.0566406,122.0175781h11.25L93.2421875,16.2978516h-0.3632812
		c-0.1445312,0-0.28125,0.0249023-0.4208984,0.0415039c-0.1572266,0.0258789-0.3320312,0.0625-0.5214844,0.1088867
		c-1.3408203,0.394043-2.3232422,1.5859375-2.3232422,3.0107422l-0.0170898,62.5126953l-69.449707-65.6738281h-0.3642578
		c-0.1445312,0-0.28125,0.0249023-0.4208984,0.0415039c-0.1572266,0.0258789-0.3310547,0.0625-0.5214844,0.1088867
		c-1.3408203,0.394043-2.3222656,1.5859375-2.3222656,3.0107422v102.5585938h7.6899414V31.5986328l96.4858398,90.4189453h11.2509766
		L97.2973633,89.2543945V31.4394531L196.0566406,122.0175781z"/>
</g>
</svg>
