<?xml version="1.0" encoding="iso-8859-1"?>
<!-- Generator: Adobe Illustrator 12.0.1, SVG Export Plug-In . SVG Version: 6.00 Build 51448)  -->
<!DOCTYPE svg PUBLIC "-//W3C//DTD SVG 1.0//EN" "http://www.w3.org/TR/2001/REC-SVG-20010904/DTD/svg10.dtd" [
	<!ENTITY ns_svg "http://www.w3.org/2000/svg">
	<!ENTITY ns_xlink "http://www.w3.org/1999/xlink">
]>
<svg  version="1.0" id="Control__x28_Play_x29_" xmlns="&ns_svg;" xmlns:xlink="&ns_xlink;"
	 width="197.4130859" height="243.5297852" viewBox="0 0 197.4130859 243.5297852"
	 overflow="visible" enable-background="new 0 0 197.4130859 243.5297852" xml:space="preserve">
<g>
	<linearGradient id="XMLID_2_" gradientUnits="userSpaceOnUse" x1="97.2495117" y1="50.1987305" x2="97.2495041" y2="244.1987915">
		<stop  offset="0" style="stop-color:#95C393"/>
		<stop  offset="1" style="stop-color:#6AA467"/>
	</linearGradient>
	<path fill="url(#XMLID_2_)" enable-background="new    " d="M190.5,122.0366211c0,0-157.96875-112.059082-163.652832-115.2949219
		S16.7958984,4.0317383,16.7958984,4.0317383C11.3857422,4.0317383,4,10.2773438,4,15.5151367v212.53125
		c0,5.2373047,7.3857422,11.4824219,12.7958984,11.4824219c0,0,4.6606445,0.0654297,9.934082-2.4970703
		S190.5,122.0366211,190.5,122.0366211z"/>
	<path fill="#487A47" d="M16.3178711,0.0605469l0.4780273-0.0288086C9.6171875,0.0317383,0,7.6870117,0,15.5151367v212.53125
		c0,7.828125,9.6171875,15.4824219,16.7958984,15.4824219c0.5180664,0.0078125,5.7265625-0.0048828,11.6821289-2.8994141
		c5.3017578-2.5761719,137.824707-96.5234375,164.3364258-115.3300781l4.5986328-3.2626953l-4.5986328-3.2626953
		C176.6289062,107.2924805,34.519043,6.5063477,28.8261719,3.265625
		C22.1870117-0.5141602,16.8989258-0.0097656,16.3178711,0.0605469z M8,228.0463867v-212.53125
		c0-2.6430664,5.1713867-7.4833984,8.7958984-7.4833984H16.96875l0.2416992-0.0214844
		c0.1337891-0.0117188,3.3295898-0.2563477,7.6577148,2.2075195
		c4.6337891,2.6748047,112.0117188,78.6962891,158.7177734,111.8188477
		C120.7089844,166.6254883,29.7192383,230.8666992,24.9257812,233.4624023
		c-4.2124023,2.0458984-8.0473633,2.0664062-8.0976562,2.0664062l0,0C13.1713867,235.5288086,8,230.6889648,8,228.0463867z"/>
	<path opacity="0.8" fill="#95C393" d="M171.9951172,122.043457L20.1464844,16.3237305h-0.3642578
		c-1.8027344,0-3.2646484,1.4165039-3.2646484,3.1611328V122.043457H171.9951172z"/>
	<path fill="#6AA467" d="M160.6855469,122.043457L18.9975586,219.1723633
		c-0.4287109,0.4082031-0.4365234,1.0742188-0.0146484,1.4902344l2.9936523,4.2226562
		c0.4208984,0.4160156,1.109375,0.4228516,1.5400391,0.0166016L171.9248047,122.043457H160.6855469z"/>
	<path fill="#B6D9B4" d="M20.1464844,16.3237305h-0.3642578c-0.1445312,0-0.28125,0.0249023-0.4208984,0.0415039
		c-0.1572266,0.0258789-0.3310547,0.0625-0.5214844,0.1088867c-1.3408203,0.394043-2.3222656,1.5859375-2.3222656,3.0107422
		V122.043457h7.6899414V28.9780273l136.4858398,93.0654297h11.2509766L20.1464844,16.3237305z"/>
</g>
</svg>
