<?xml version="1.0" encoding="iso-8859-1"?>
<!-- Generator: Adobe Illustrator 12.0.1, SVG Export Plug-In . SVG Version: 6.00 Build 51448)  -->
<!DOCTYPE svg PUBLIC "-//W3C//DTD SVG 1.0//EN" "http://www.w3.org/TR/2001/REC-SVG-20010904/DTD/svg10.dtd" [
	<!ENTITY ns_svg "http://www.w3.org/2000/svg">
	<!ENTITY ns_xlink "http://www.w3.org/1999/xlink">
]>
<svg  version="1.0" id="Control__x28_Skip_Back_x29_" xmlns="&ns_svg;" xmlns:xlink="&ns_xlink;" width="227" height="232.5634766"
	 viewBox="0 0 227 232.5634766" overflow="visible" enable-background="new 0 0 227 232.5634766" xml:space="preserve">
<g>
	<radialGradient id="XMLID_2_" cx="135" cy="16.5" r="210.667511" gradientUnits="userSpaceOnUse">
		<stop  offset="0" style="stop-color:#7FA3D1"/>
		<stop  offset="1" style="stop-color:#567CB0"/>
	</radialGradient>
	<path fill="url(#XMLID_2_)" enable-background="new    " d="M13,4h41.5c4.9707031,0,9,4.0292969,9,9v62.0439453
		c0,0,60.5449219-58.5649414,67.1171875-64.5898438S144,5,144,5c4.9707031,0,12,6.0292969,12,11v34.5043945
		c0,0,32.6162109-31.6933594,40.40625-38.8842773S211,5,211,5c4.9707031,0,12,6.0292969,12,11v201.5c0,4.9707031-7.0292969,11-12,11
		c0,0-6.8691406,1.25-15.6845703-7.4375S156,181.4697266,156,181.4697266V217.5c0,4.9707031-7.0292969,11-12,11
		c0,0-7.125,1.125-15.5576172-7.3095703C119.5644531,212.3105469,63.5,155.7890625,63.5,155.7890625V219.5
		c0,4.9707031-4.0292969,9-9,9H13c-4.9707031,0-9-4.0292969-9-9V13C4,8.0292969,8.0292969,4,13,4z"/>
	<path fill="#204780" d="M13,0C5.831543,0,0,5.8320312,0,13v206.5c0,7.1679688,5.831543,13,13,13h41.5
		c7.1679688,0,13-5.8320312,13-13c0,0,0-40.0585938,0-54.0058594
		c10.9501953,11.0283203,58.1132812,58.5244141,58.1132812,58.5244141
		c9.5966797,9.5976562,18.0751953,8.5800781,19.0107422,8.4326172L144,232.5c6.8378906,0,16-7.4160156,16-15
		c0,0,0-15.9179688,0-26.2890625c9.5429688,9.6533203,26.3623047,26.6445312,32.5078125,32.7001953
		c10.0058594,9.8613281,18.2958984,8.6904297,19.2080078,8.5244141L211,232.5c6.8378906,0,16-7.4160156,16-15V16
		c0-7.5756836-9.140625-14.980957-15.9765625-14.9970703c-1.5742188-0.078125-9.0107422-0.0014648-17.3300781,7.6782227
		C188.0712891,13.8701172,170,31.3535156,160,41.0488281C160,31.0825195,160,16,160,16c0-7.5839844-9.1621094-15-16-15
		l0.3339844,0.0141602c-0.3496094-0.0292969-8.6455078-0.6352539-16.4199219,6.4912109
		C122.6269531,12.3530273,83.5522461,50.0957031,67.5,65.6123047C67.5,52.0483398,67.5,13,67.5,13c0-7.1679688-5.8320312-13-13-13
		H13z M8,219.5V13c0-2.7568359,2.2431641-5,5-5h41.5c2.7568359,0,5,2.2431641,5,5v71.4785156l6.78125-6.5595703
		c0.6049805-0.5854492,60.5810547-58.5961914,67.0390625-64.5161133C138.4101562,8.7363281,143.5,8.9770508,143.7138672,8.9897461
		l0.1171875,0.0068359L144,9c2.9160156,0,8,4.4487305,8,7v43.96875l6.7871094-6.5957031
		c0.3261719-0.3164062,32.6689453-31.7397461,40.3320312-38.8139648c6.2363281-5.7558594,11.3984375-5.5786133,11.6152344-5.5678711
		L211,9c2.9160156,0,8,4.4487305,8,7v201.5c0,2.5517578-5.0839844,7-8,7h-0.3232422c0,0-0.171875,0.0283203-0.2851562,0.046875
		c-0.21875,0.0263672-5.28125,0.5527344-12.2685547-6.3330078c-8.6953125-8.5693359-38.9716797-39.2451172-39.2763672-39.5537109
		L152,171.7216797V217.5c0,2.5517578-5.0839844,7-8,7h-0.21875l-0.3154297,0.0361328
		c-0.2216797,0.0244141-5.5048828,0.5175781-12.1943359-6.1738281l-71.7700195-72.2763672L59.5,219.5c0,2.7568359-2.2431641,5-5,5
		H13C10.2431641,224.5,8,222.2568359,8,219.5z M211.0234375,1.0029297c0.0957031,0.0048828,0.2607422,0.0068359,0.3105469,0.0112305
		L211,1C211.0078125,1,211.015625,1.0029297,211.0234375,1.0029297z"/>
	<path opacity="0.6" fill="#7FA3D1" d="M15.2167969,117c-0.0273438-0.1640625-0.0507812-0.328125-0.0507812-0.5V18
		c0-1.6567383,1.34375-3,3-3H49.5c1.65625,0,3,1.3432617,3,3v85.1259766l88.5283203-86.4594727h0.3330078c1.65625,0,3,1.3432617,3,3
		v59.3139648l63.8046875-62.3139648H208.5c1.65625,0,3,1.3432617,3,3V117H15.2167969z"/>
	<path opacity="0.5" fill="#A9C7EB" d="M211.5,19.6665039c0-1.3530273-0.9023438-2.4838867-2.1337891-2.8579102
		c-0.1748047-0.0439453-0.3349609-0.0791016-0.4794922-0.1030273c-0.1279297-0.0166016-0.2539062-0.0390625-0.3867188-0.0390625
		h-0.3339844L105.453125,117h10.3359375L211.5,24.3481445V19.6665039z"/>
	<path opacity="0.5" fill="#A9C7EB" d="M144.34375,19.6665039c0-1.3530273-0.9023438-2.4838867-2.1337891-2.8579102
		c-0.1748047-0.0439453-0.3349609-0.0791016-0.4794922-0.1030273c-0.1279297-0.0166016-0.2539062-0.0390625-0.3867188-0.0390625
		h-0.3339844L38.296875,117h10.3359375L144.34375,24.3481445V19.6665039z"/>
	<path fill="#567CB0" d="M115.796875,117l94.1386719,92.6416016c0.3945312,0.3867188,0.4013672,1.0195312,0.0136719,1.4140625
		l-3.4648438,3.5458984c-0.3867188,0.3945312-1.0195312,0.4013672-1.4150391,0.015625L105.4707031,117H115.796875z"/>
	<path fill="#567CB0" d="M48.6176758,117l94.1391602,92.6416016c0.3945312,0.3867188,0.4003906,1.0195312,0.0136719,1.4140625
		l-3.4648438,3.5458984c-0.3867188,0.3945312-1.0195312,0.4013672-1.4160156,0.015625L38.2915039,117H48.6176758z"/>
	<path opacity="0.5" fill="#A9C7EB" d="M49.5,15H18.1660156c-1.65625,0-3,1.3432617-3,3v139.0029297h0.0004883v59.7705078
		c0,0.5283203,0.4277344,0.9560547,0.956543,0.9560547h4.9311523c0.5283203,0,0.9560547-0.4277344,0.9560547-0.9560547
		L22,22.8330078c0-0.5522461,0.4477539-1,1-1h29.5V18C52.5,16.3432617,51.15625,15,49.5,15z"/>
</g>
</svg>
