<?xml version="1.0" encoding="iso-8859-1"?>
<!-- Generator: Adobe Illustrator 12.0.1, SVG Export Plug-In . SVG Version: 6.00 Build 51448)  -->
<!DOCTYPE svg PUBLIC "-//W3C//DTD SVG 1.0//EN" "http://www.w3.org/TR/2001/REC-SVG-20010904/DTD/svg10.dtd" [
	<!ENTITY ns_svg "http://www.w3.org/2000/svg">
	<!ENTITY ns_xlink "http://www.w3.org/1999/xlink">
]>
<svg  version="1.0" id="Control__x28_Pause_x29_" xmlns="&ns_svg;" xmlns:xlink="&ns_xlink;"
	 width="200.6669922" height="210.3334961" viewBox="0 0 200.6669922 210.3334961"
	 overflow="visible" enable-background="new 0 0 200.6669922 210.3334961" xml:space="preserve">
<g>
	<radialGradient id="XMLID_3_" cx="-58.1494141" cy="-42.1162109" r="428.1274719" gradientUnits="userSpaceOnUse">
		<stop  offset="0" style="stop-color:#7FA3D1"/>
		<stop  offset="1" style="stop-color:#567CB0"/>
	</radialGradient>
	<path fill="url(#XMLID_3_)" enable-background="new    " d="M196.6669922,202.3334961c0,2.2089844-1.7910156,4-4,4H123
		c-2.2089844,0-4-1.7910156-4-4V8c0-2.2089844,1.7910156-4,4-4h69.6669922c2.2089844,0,4,1.7910156,4,4V202.3334961z"/>
	<path fill="#204780" d="M123,0c-4.4111328,0-8,3.5888672-8,8v194.3334961c0,4.4111328,3.5888672,8,8,8h69.6669922
		c4.4111328,0,8-3.5888672,8-8V8c0-4.4111328-3.5888672-8-8-8H123z M123,202.3334961V8h69.6669922v194.3383789L123,202.3334961z"/>
	<path fill="#7FA3D1" d="M184.0009766,104.5834961v-87c0-0.5522461-0.4472656-1-1-1h-50.25c-0.5527344,0-1,0.4477539-1,1v87
		H184.0009766z"/>
	<path opacity="0.5" fill="#A9C7EB" d="M141.0009766,24.8334961h43v-7.25c0-0.5522461-0.4472656-1-1-1h-50.25
		c-0.5527344,0-1,0.4477539-1,1v176.75h9.25V24.8334961z"/>
	<radialGradient id="XMLID_4_" cx="-173.1489258" cy="-42.1162109" r="428.1270447" gradientUnits="userSpaceOnUse">
		<stop  offset="0" style="stop-color:#7FA3D1"/>
		<stop  offset="1" style="stop-color:#567CB0"/>
	</radialGradient>
	<path fill="url(#XMLID_4_)" enable-background="new    " d="M81.6669922,202.3334961c0,2.2089844-1.7910156,4-4,4H8
		c-2.2089844,0-4-1.7910156-4-4V8c0-2.2089844,1.7910156-4,4-4h69.6669922c2.2089844,0,4,1.7910156,4,4V202.3334961z"/>
	<path fill="#204780" d="M8,0C3.5888672,0,0,3.5888672,0,8v194.3334961c0,4.4111328,3.5888672,8,8,8h69.6669922
		c4.4111328,0,8-3.5888672,8-8V8c0-4.4111328-3.5888672-8-8-8H8z M8,202.3334961V8h69.6669922v194.3383789L8,202.3334961z"/>
	<path fill="#7FA3D1" d="M69.0009766,104.5834961v-87c0-0.5522461-0.4472656-1-1-1h-50.25c-0.5527344,0-1,0.4477539-1,1v87
		H69.0009766z"/>
	<path opacity="0.5" fill="#A9C7EB" d="M26.0009766,24.8334961h43v-7.25c0-0.5522461-0.4472656-1-1-1h-50.25
		c-0.5527344,0-1,0.4477539-1,1v176.75h9.25V24.8334961z"/>
</g>
</svg>
