<?xml version="1.0" encoding="iso-8859-1"?>
<!-- Generator: Adobe Illustrator 12.0.1, SVG Export Plug-In . SVG Version: 6.00 Build 51448)  -->
<!DOCTYPE svg PUBLIC "-//W3C//DTD SVG 1.0//EN" "http://www.w3.org/TR/2001/REC-SVG-20010904/DTD/svg10.dtd" [
	<!ENTITY ns_svg "http://www.w3.org/2000/svg">
	<!ENTITY ns_xlink "http://www.w3.org/1999/xlink">
]>
<svg  version="1.0" id="Copy" xmlns="&ns_svg;" xmlns:xlink="&ns_xlink;" width="228.8808594" height="267.6972656"
	 viewBox="0 0 228.8808594 267.6972656" overflow="visible" enable-background="new 0 0 228.8808594 267.6972656"
	 xml:space="preserve">
<g>
	<polygon fill="#FFFFFF" enable-background="new    " points="164.8808594,36.2128906 164.8808594,203.6972656 4,203.6972656 
		4,4.0571289 132.6894531,4.0004883 	"/>
	<path fill="#8A8A8A" d="M0,0.059082v207.6381836h168.8808594V34.5566406L134.3466797,0L0,0.059082z M131.0322266,8.0009766
		c2.0957031,2.0966797,27.7568359,27.7749023,29.8486328,29.8681641c0,3.168457,0,154.2832031,0,161.828125
		c-7.4130859,0-145.4677734,0-152.8808594,0C8,192.171875,8,15.5776367,8,8.0551758
		C15.4072266,8.0522461,127.9023438,8.0024414,131.0322266,8.0009766z"/>
	<linearGradient id="XMLID_10_" gradientUnits="userSpaceOnUse" x1="3.9775391" y1="35.2836914" x2="246.3391876" y2="277.6453247">
		<stop  offset="0" style="stop-color:#FFFFFF"/>
		<stop  offset="1" style="stop-color:#DBDBDB"/>
	</linearGradient>
	<polygon fill="url(#XMLID_10_)" points="156.1035156,37.5117188 156.1035156,194.7080078 12.8154297,194.7080078 
		12.8154297,12.4677734 131.7490234,12.4677734 131.7490234,37.5117188 	"/>
	<g opacity="0.65">
		<rect x="133.0302734" y="41.7041016" fill="#D9D9D9" width="27.8710938" height="5.4609375"/>
	</g>
	<polygon fill="#D6D6D6" points="159.4169922,36.409668 132.515625,9.4892578 131.6279297,9.4897461 131.6279297,37.3178711 
		159.4169922,37.4091797 	"/>
	<g>
		<path fill="#8A8A8A" d="M127.6279297,3.1791992v38.5683594h37.1396484v-8c0,0-22.9541016,0-29.1396484,0
			c0-6.2558594,0-30.5683594,0-30.5683594H127.6279297z"/>
	</g>
	<g>
		<rect x="24.5458984" y="47.5341797" fill="#B0B0B0" width="119.75" height="4"/>
	</g>
	<path fill="#B0B0B0" d="M24.5458984,71.5341797H60v-4H24.5458984V71.5341797z"/>
	<path fill="#B0B0B0" d="M24.5458984,151.5341797H60v-4H24.5458984V151.5341797z"/>
	<path fill="#B0B0B0" d="M24.5458984,171.5341797H60v-4H24.5458984V171.5341797z"/>
	<polygon opacity="0.3" fill="#8A8A8A" points="54.1972656,203.6972656 164.8808594,203.6972656 164.8808594,55.2543945 
		54.1972656,55.3027344 	"/>
	<polygon fill="#FFFFFF" enable-background="new    " points="224.8808594,96.2128906 224.8808594,263.6972656 64,263.6972656 
		64,64.0571289 192.6894531,64.0004883 	"/>
	<path fill="#8A8A8A" d="M60,60.059082v207.6381836h168.8808594V94.5566406L194.3466797,60L60,60.059082z M191.0322266,68.0009766
		c2.0957031,2.0966797,27.7568359,27.7749023,29.8486328,29.8681641c0,3.168457,0,154.2832031,0,161.828125
		c-7.4130859,0-145.4677734,0-152.8808594,0c0-7.5253906,0-184.1196289,0-191.6420898
		C75.4072266,68.0522461,187.9023438,68.0024414,191.0322266,68.0009766z"/>
	<radialGradient id="XMLID_11_" cx="32.2592773" cy="101.9414062" r="31.4275665" gradientUnits="userSpaceOnUse">
		<stop  offset="0" style="stop-color:#C8DFF1"/>
		<stop  offset="1" style="stop-color:#9BC3D5"/>
	</radialGradient>
	<path fill="url(#XMLID_11_)" enable-background="new    " d="M25.8144531,128.8046875H60V89.2368164H25.8144531V128.8046875z"/>
	<radialGradient id="XMLID_12_" cx="32.8374023" cy="106.5688477" r="17.6794453" gradientUnits="userSpaceOnUse">
		<stop  offset="0" style="stop-color:#99C596"/>
		<stop  offset="1" style="stop-color:#6EA66B"/>
	</radialGradient>
	<path fill="url(#XMLID_12_)" d="M26.8901367,108.5375977v19.3383789H60v-14.1635742
		c-8.1289062-6.8886719-16.4853516-11.9936523-20.1494141-11.9936523
		C36.4448242,101.71875,29.730957,105.3261719,26.8901367,108.5375977z"/>
	<radialGradient id="XMLID_13_" cx="52.6601562" cy="119.3867188" r="11.0823412" gradientUnits="userSpaceOnUse">
		<stop  offset="0" style="stop-color:#99C596"/>
		<stop  offset="1" style="stop-color:#6EA66B"/>
	</radialGradient>
	<path fill="url(#XMLID_13_)" d="M47.8398438,128.0654297H60v-11.3681641
		C55.4160156,120.2583008,51.1899414,124.6772461,47.8398438,128.0654297z"/>
	<path fill="#8CB0D0" d="M23.8144531,130.8046875H60v-4H27.8144531V91.2368164H60v-4H23.8144531V130.8046875z"/>
	
		<linearGradient id="XMLID_14_" gradientUnits="userSpaceOnUse" x1="63.9775391" y1="95.2832031" x2="306.3391724" y2="337.6448364">
		<stop  offset="0" style="stop-color:#FFFFFF"/>
		<stop  offset="1" style="stop-color:#DBDBDB"/>
	</linearGradient>
	<polygon fill="url(#XMLID_14_)" points="216.1035156,97.5117188 216.1035156,254.7080078 72.8154297,254.7080078 
		72.8154297,72.4677734 191.7490234,72.4677734 191.7490234,97.5117188 	"/>
	<g opacity="0.65">
		<rect x="193.0302734" y="101.7041016" fill="#D9D9D9" width="27.8710938" height="5.4609375"/>
	</g>
	<radialGradient id="XMLID_15_" cx="89.5205078" cy="156.359375" r="39.9349594" gradientUnits="userSpaceOnUse">
		<stop  offset="0" style="stop-color:#C8DFF1"/>
		<stop  offset="1" style="stop-color:#9BC3D5"/>
	</radialGradient>
	
		<rect x="85.8144531" y="149.2373047" fill="url(#XMLID_15_)" enable-background="new    " width="50.6025391" height="39.5673828"/>
	
		<radialGradient id="XMLID_16_" cx="95.1083984" cy="164.828125" r="21.9243259" gradientTransform="matrix(1 0 0 1.0350001 0 -4.0278931)" gradientUnits="userSpaceOnUse">
		<stop  offset="0" style="stop-color:#99C596"/>
		<stop  offset="1" style="stop-color:#6EA66B"/>
	</radialGradient>
	<path fill="url(#XMLID_16_)" d="M132.6455078,187.8759766v-1.4111328
		c-9.8652344-12.2744141-27.0664062-24.7460938-32.7949219-24.7460938c-3.40625,0-10.1191406,3.6074219-12.9609375,6.8193359
		v19.3378906H132.6455078z"/>
	<path fill="#FFFFFF" d="M130.6630859,157.8505859c0.0175781-0.1132812,0.0302734-0.2265625,0.0302734-0.3427734
		c0-1.1591797-0.9082031-2.0927734-2.0292969-2.0927734h-1.4072266c0.0136719-0.09375,0.0214844-0.1914062,0.0214844-0.2851562
		c0-1.1582031-0.9121094-2.5175781-2.0351562-2.5175781h-3.4140625c-0.8964844,0-1.6523438,1.3720703-1.9248047,2.2011719
		h-3.6142578c-1.1337891,0-2.0605469,1.0859375-2.1972656,2.2109375h-1.8632812
		c-1.2753906,0-2.3105469,0.8457031-2.3105469,2.1542969c0,1.3173828,1.0351562,2.0410156,2.3105469,2.0410156h4.2988281
		c0.3886719,0.46875,0.9648438,1.3242188,1.6074219,1.3242188h6.8320312c0.6289062,0,1.1943359-0.8457031,1.5839844-1.2949219
		c0.2226562,0.1025391,0.4677734,0.1621094,0.7265625,0.1621094h2.9511719c0.9716797,0,1.7539062-0.8085938,1.7539062-1.8066406
		C131.9833984,158.7568359,131.4208984,158.0498047,130.6630859,157.8505859z"/>
	
		<radialGradient id="XMLID_17_" cx="112.390625" cy="179.3896484" r="19.8310299" gradientTransform="matrix(1.1028 0 0 0.9721 -5.2895317 0.2539978)" gradientUnits="userSpaceOnUse">
		<stop  offset="0" style="stop-color:#99C596"/>
		<stop  offset="1" style="stop-color:#6EA66B"/>
	</radialGradient>
	<path fill="url(#XMLID_17_)" d="M135.1201172,188.0654297v-17.5869141h-0.9316406
		c-9.53125,0-19.6757812,10.8388672-26.3486328,17.5869141H135.1201172z"/>
	
		<linearGradient id="XMLID_18_" gradientUnits="userSpaceOnUse" x1="127.9863281" y1="161.5996094" x2="120.1315689" y2="155.1915131">
		<stop  offset="0" style="stop-color:#FFFFFF"/>
		<stop  offset="1" style="stop-color:#CFCFCF"/>
	</linearGradient>
	<path fill="url(#XMLID_18_)" d="M132.5205078,160.0263672h-0.4257812c0.0253906-0.1103516,0.0351562-0.2265625,0.0351562-0.34375
		v-0.3417969c0-0.8515625-0.6835938-1.5429688-1.5371094-1.5429688h-4.5390625
		c-0.8535156,0-1.5429688,0.6914062-1.5429688,1.5429688v0.3417969c0,0.3183594,0.0976562,0.6152344,0.2626953,0.8554688h-1.4599609
		c-0.8515625,0-1.5400391,0.6914062-1.5400391,1.5429688v0.1699219c0,0.8515625,0.6884766,1.4042969,1.5400391,1.4042969h5.2255859
		c0.6347656,0,1.1835938-0.25,1.4189453-0.8027344h2.5625c0.7792969,0,1.4121094-0.6386719,1.4121094-1.4121094
		C133.9326172,160.6591797,133.2998047,160.0263672,132.5205078,160.0263672z"/>
	<polygon fill="#D6D6D6" points="219.4169922,96.409668 192.515625,69.4892578 191.6279297,69.4897461 191.6279297,97.3178711 
		219.4169922,97.4091797 	"/>
	<g>
		<path fill="#8A8A8A" d="M187.6279297,63.1791992v38.5683594h37.1396484v-8c0,0-22.9541016,0-29.1396484,0
			c0-6.2558594,0-30.5683594,0-30.5683594H187.6279297z"/>
	</g>
	<g>
		<rect x="84.5458984" y="107.5341797" fill="#B0B0B0" width="119.75" height="4"/>
	</g>
	<g>
		<rect x="84.5458984" y="127.5341797" fill="#B0B0B0" width="119.75" height="4"/>
	</g>
	<g>
		<rect x="150.5458984" y="147.5341797" fill="#B0B0B0" width="53.75" height="4"/>
	</g>
	<g>
		<rect x="150.5458984" y="167.5341797" fill="#B0B0B0" width="53.75" height="4"/>
	</g>
	<g>
		<rect x="150.5458984" y="187.5341797" fill="#B0B0B0" width="53.75" height="4"/>
	</g>
	<g>
		<rect x="84.5458984" y="207.5341797" fill="#B0B0B0" width="119.75" height="4"/>
	</g>
	<g>
		<rect x="84.5458984" y="227.5341797" fill="#B0B0B0" width="96.75" height="4"/>
	</g>
	<path fill="#8CB0D0" d="M83.8144531,147.2373047v43.5673828h54.6025391v-43.5673828H83.8144531z M134.4169922,151.2373047
		c0,3.4140625,0,32.1533203,0,35.5673828c-3.5380859,0-43.0644531,0-46.6025391,0c0-3.4140625,0-32.1533203,0-35.5673828
		C91.3525391,151.2373047,130.8789062,151.2373047,134.4169922,151.2373047z"/>
	<path fill="#FFFFFF" d="M56.2905273,94.8134766c-1.1342773,0-2.0605469,1.0859375-2.1977539,2.2114258h-1.8637695
		c-1.2753906,0-2.3100586,0.8457031-2.3100586,2.1538086c0,1.3173828,1.034668,2.0415039,2.3100586,2.0415039h4.2993164
		c0.3886719,0.4682617,0.9648438,1.3232422,1.6074219,1.3232422H60v-7.9863281
		c-0.0351562,0.0883789-0.0693359,0.1762695-0.0957031,0.2563477H56.2905273z"/>
</g>
</svg>
