<?xml version="1.0" encoding="iso-8859-1"?>
<!-- Generator: Adobe Illustrator 12.0.1, SVG Export Plug-In . SVG Version: 6.00 Build 51448)  -->
<!DOCTYPE svg PUBLIC "-//W3C//DTD SVG 1.0//EN" "http://www.w3.org/TR/2001/REC-SVG-20010904/DTD/svg10.dtd" [
	<!ENTITY ns_svg "http://www.w3.org/2000/svg">
	<!ENTITY ns_xlink "http://www.w3.org/1999/xlink">
]>
<svg  version="1.0" id="Cut" xmlns="&ns_svg;" xmlns:xlink="&ns_xlink;" width="257.0014648" height="245.0712891"
	 viewBox="0 0 257.0014648 245.0712891" overflow="visible" enable-background="new 0 0 257.0014648 245.0712891"
	 xml:space="preserve">
<g>
	<linearGradient id="XMLID_5_" gradientUnits="userSpaceOnUse" x1="236.1186523" y1="1.1166992" x2="76.7848358" y2="158.4508057">
		<stop  offset="0" style="stop-color:#BCBCBC"/>
		<stop  offset="0.1838001" style="stop-color:#B8B8B8"/>
		<stop  offset="0.3810508" style="stop-color:#ABABAB"/>
		<stop  offset="0.511236" style="stop-color:#9E9E9E"/>
		<stop  offset="0.5804303" style="stop-color:#A9A9A9"/>
		<stop  offset="0.7086548" style="stop-color:#B8B8B8"/>
		<stop  offset="0.814607" style="stop-color:#BDBDBD"/>
		<stop  offset="1" style="stop-color:#B9B9B9"/>
	</linearGradient>
	<path fill="url(#XMLID_5_)" enable-background="new    " d="M251.2993164,17.4833984
		c-7.6103516-7.4296875-24.1201172-1.4824219-33.5,4c-9.5039062,5.5488281-108.2597656,72.3554688-119.2314453,83.3261719
		s-27.7314453,45.7226562-19.2451172,54.7285156l14.4902344,14.2294922L251.2993164,17.4833984z"/>
	<path fill="#7A7A7A" d="M215.7807617,18.0302734c-8.3925781,4.8994141-108.1577148,72.0683594-120.0410156,83.9506836
		c-11.0517578,11.0507812-30.3920898,48.559082-19.328125,60.300293l0.1083984,0.1103516l17.3076172,16.9970703
		L257.0014648,17.4599609l-2.9082031-2.8388672C245.1157227,5.8564453,227.8432617,10.9794922,215.7807617,18.0302734z
		 M81.0004883,151.9824219c0-3.9023438,1.2431641-9.8349609,4.3588867-17.5791016
		c4.253418-10.5703125,10.8481445-21.5771484,16.0366211-26.7651367
		c10.4794922-10.4785156,107.5859375-76.375,118.4199219-82.7006836c8.1669922-4.7729492,18.4951172-8.0170898,24.8564453-6.5131836
		c-7.1220703,7.0678711-145.5996094,144.487793-150.8740234,149.722168
		c-3.6254883-3.5595703-11.4145508-11.2080078-11.5727539-11.3642578
		C81.4560547,155.9560547,81.0004883,154.3417969,81.0004883,151.9824219z"/>
	<radialGradient id="XMLID_6_" cx="28.7158203" cy="149.8828125" r="85.6374054" gradientUnits="userSpaceOnUse">
		<stop  offset="0" style="stop-color:#E1A655"/>
		<stop  offset="1" style="stop-color:#D48049"/>
	</radialGradient>
	<path fill="url(#XMLID_6_)" d="M98.7260742,168.4248047l-22.3828125-22.3339844
		c-7.3554688-7.5488281-18.8994141-8.1015625-26.3623047-0.6347656l-40.6132812,39.203125
		c-5.9648438,5.9755859-7.9414062,21.4394531-0.5820312,29.0039062l22.1142578,22.5947266
		c7.3476562,7.5488281,21.3486328,5.6611328,28.8007812-1.7978516l39.3349609-39.3457031
		C106.4985352,187.6630859,106.0883789,175.9814453,98.7260742,168.4248047z M49.3481445,209.4726562
		c-3.5058594,3.4804688-8.9697266,3.3193359-12.40625-0.1865234l-2.0322266-2.0136719
		c-3.4052734-3.5058594-3.3867188-9.1621094,0.0693359-12.6171875l23.6660156-23.6669922
		c3.4619141-3.4433594,9.0498047-3.4189453,12.4863281,0.0869141l2.0136719,2.0380859
		c3.40625,3.5058594,3.5732422,9,0.0996094,12.4677734L49.3481445,209.4726562z"/>
	<path fill="#BE5B33" d="M47.1518555,142.6279297L6.5898438,181.78125
		c-7.7094727,7.7226562-9.5356445,25.5595703-0.6713867,34.6708984l22.1225586,22.6035156
		c3.734375,3.8369141,9.1044922,5.9755859,15.1137695,6.0146484c7.2163086,0.046875,14.4594727-2.8623047,19.3754883-7.7832031
		l39.3339844-39.3447266c8.8686523-8.8544922,8.75-23.0478516-0.2729492-32.3085938L79.168457,143.2597656
		c-4.4243164-4.5419922-10.2587891-7.0869141-16.3881836-7.1259766
		C56.9248047,136.0966797,51.3745117,138.4033203,47.1518555,142.6279297z M43.2070312,237.0703125
		c-3.8510742-0.0253906-7.2041016-1.3046875-9.440918-3.6025391l-22.121582-22.6025391
		c-5.7949219-5.9560547-3.8847656-18.9335938,0.5541992-23.3798828l40.5600586-39.1513672
		c2.7495117-2.75,6.2719727-4.2236328,9.9707031-4.2001953c3.9726562,0.0253906,7.7900391,1.7119141,10.7490234,4.7480469
		c0,0,22.3105469,22.2626953,22.3847656,22.3369141c3.0273438,3.109375,4.5488281,7.0429688,4.5488281,10.9111328
		c0,3.7060547-1.3964844,7.3525391-4.2026367,10.1533203l-39.3374023,39.3486328
		C53.4873047,235.0195312,48.2514648,237.1035156,43.2070312,237.0703125z"/>
	<path fill="#BE5B33" d="M55.8242188,168.1523438l-23.6738281,23.6748047
		c-4.9848633,4.9833984-5.0341797,13.1621094-0.1098633,18.2324219l2.0859375,2.0683594
		c2.4101562,2.4589844,5.6474609,3.8496094,9.0737305,3.8730469c3.3623047,0.0224609,6.5463867-1.2880859,8.9663086-3.6894531
		l23.90625-23.9013672c4.9833984-4.9755859,4.9589844-12.9199219-0.059082-18.0839844l-2.0371094-2.0625
		c-2.4003906-2.4492188-5.6191406-3.8164062-9.0517578-3.8378906
		C61.4941406,164.4042969,58.262207,165.7275391,55.8242188,168.1523438z M43.2543945,208.0009766
		c-1.2797852-0.0087891-2.5068359-0.546875-3.4560547-1.5146484l-2.0732422-2.0556641
		c-1.8408203-1.8955078-1.828125-5.0371094,0.0820312-6.9462891l23.6665039-23.6679688
		c0.9072266-0.9023438,2.1176758-1.3984375,3.4003906-1.390625c1.284668,0.0078125,2.4926758,0.5224609,3.4008789,1.4492188
		l2.0249023,2.0498047c0.9780273,1.0068359,1.4716797,2.2871094,1.4716797,3.5449219
		c0,1.1992188-0.4482422,2.3779297-1.3530273,3.2802734c0,0-23.8686523,23.8642578-23.8886719,23.8837891
		C45.3813477,207.7744141,44.1147461,208.0068359,43.2543945,208.0009766z"/>
	<linearGradient id="XMLID_7_" gradientUnits="userSpaceOnUse" x1="76.6489258" y1="86.8945312" x2="236.539093" y2="241.4546051">
		<stop  offset="0" style="stop-color:#BCBCBC"/>
		<stop  offset="0.1838001" style="stop-color:#B8B8B8"/>
		<stop  offset="0.3810508" style="stop-color:#ABABAB"/>
		<stop  offset="0.511236" style="stop-color:#9E9E9E"/>
		<stop  offset="0.5804303" style="stop-color:#A9A9A9"/>
		<stop  offset="0.7086548" style="stop-color:#B8B8B8"/>
		<stop  offset="0.814607" style="stop-color:#BDBDBD"/>
		<stop  offset="1" style="stop-color:#B9B9B9"/>
	</linearGradient>
	<path fill="url(#XMLID_7_)" enable-background="new    " d="M251.2993164,227.5878906
		c-7.6103516,7.4287109-24.1201172,1.4824219-33.5-4c-9.5039062-5.5498047-108.2602539-72.3554688-119.2314453-83.3261719
		S70.8359375,94.5385742,79.3222656,85.5322266L93.8125,71.3032227L251.2993164,227.5878906z"/>
	<path fill="#7A7A7A" d="M76.4643555,82.7324219l-0.0532227,0.0566406
		c-11.0634766,11.7412109,8.2768555,49.2509766,19.3286133,60.3007812
		c11.8745117,11.8740234,111.6464844,79.0488281,120.0429688,83.9521484
		c12.0605469,7.0498047,29.3320312,12.1728516,38.3105469,3.4082031l2.9082031-2.8388672L93.8271484,65.6826172
		L76.4643555,82.7324219z M93.7978516,76.9238281c5.2744141,5.234375,143.7514648,142.6552734,150.8745117,149.7226562
		c-6.3613281,1.5039062-16.6904297-1.7402344-24.8544922-6.5117188
		c-10.8388672-6.3291016-107.9501953-72.2304688-118.421875-82.7011719
		c-5.1884766-5.1884766-11.7832031-16.1953125-16.0366211-26.7666016C82.2431641,102.9228516,81,96.9897461,81,93.0874023
		c0-2.3588867,0.4555664-3.9731445,1.2246094-4.7993164C82.3833008,88.1323242,90.1723633,80.4838867,93.7978516,76.9238281z"/>
	<radialGradient id="XMLID_8_" cx="30.7158203" cy="17.2158203" r="89.1267776" gradientUnits="userSpaceOnUse">
		<stop  offset="0" style="stop-color:#E1A655"/>
		<stop  offset="1" style="stop-color:#D48049"/>
	</radialGradient>
	<path fill="url(#XMLID_8_)" d="M99.0351562,49.9560547L59.7006836,10.6108398
		c-7.4516602-7.4594727-21.453125-9.3466797-28.8007812-1.7978516L8.7856445,31.4082031
		c-7.3588867,7.5634766-5.3823242,23.027832,0.581543,29.0029297L49.980957,99.6147461
		c7.4633789,7.4667969,19.0068359,6.9145508,26.3623047-0.6342773l22.3828125-22.3339844
		C106.0883789,69.0898438,106.4985352,57.4082031,99.0351562,49.9560547z M73.2446289,59.4897461
		c3.4736328,3.4677734,3.3066406,8.9619141-0.0996094,12.4677734l-2.0136719,2.0380859
		c-3.4365234,3.5058594-9.0244141,3.5302734-12.4863281,0.0869141L34.9790039,50.4155273
		c-3.4560547-3.4550781-3.4746094-9.1113281-0.0693359-12.6171875l2.0322266-2.0136719
		c3.4365234-3.5058594,8.9003906-3.6669922,12.40625-0.1865234L73.2446289,59.4897461z"/>
	<path fill="#BE5B33" d="M43.15625,0.0004883c-6.0097656,0.0390625-11.3803711,2.1777344-15.1225586,6.0224609L5.9267578,28.6103516
		c-8.8720703,9.1191406-7.046875,26.956543,0.609375,34.6264648l40.6669922,39.2558594
		c4.171875,4.175293,9.7226562,6.4814453,15.578125,6.4443359c6.1289062-0.0390625,11.9628906-2.5839844,16.4267578-7.1650391
		l22.3432617-22.2939453c9.0629883-9.3012695,9.1816406-23.4946289,0.3100586-32.3525391l0.0024414,0.0024414L62.5292969,7.7827148
		C57.6152344,2.8632812,50.3725586-0.0463867,43.15625,0.0004883z M52.8100586,96.7871094L12.1450195,57.5332031
		c-4.3852539-4.3945312-6.2954102-17.371582-0.4926758-23.3354492l22.1064453-22.5869141
		C36.003418,9.3046875,39.3564453,8.0253906,43.2080078,8c5.0444336-0.0327148,10.2797852,2.0507812,13.6625977,5.4379883
		l39.3383789,39.3486328c5.7353516,5.7270508,5.5825195,14.9814453-0.3481445,21.0683594L73.5180664,96.1489258
		c-2.9985352,3.0766602-6.8154297,4.7626953-10.7875977,4.7880859
		C59.0317383,100.9604492,55.5083008,99.4868164,52.8100586,96.7871094z"/>
	<path fill="#BE5B33" d="M43.2001953,29.0703125c-3.4262695,0.0234375-6.6635742,1.4135742-9.1147461,3.9145508l-1.9912109,1.972168
		c-4.9780273,5.1240234-4.9287109,13.3032227,0.0566406,18.2871094l23.6655273,23.6669922
		c2.4458008,2.4321289,5.6777344,3.7553711,9.1083984,3.7338867c3.4326172-0.0219727,6.6513672-1.3886719,9.0629883-3.8491211
		l2.0024414-2.0268555c2.5336914-2.6079102,3.800293-5.9121094,3.800293-9.1855469
		c0-3.2392578-1.2402344-6.4487305-3.7197266-8.9243164c-0.0039062-0.0043945-23.8945312-23.8896484-23.8945312-23.8896484
		C49.746582,30.3574219,46.5625,29.0473633,43.2001953,29.0703125z M61.4658203,71.246582L37.8076172,47.5874023
		c-1.9106445-1.9106445-1.9233398-5.0512695-0.0288086-7.0019531l1.9785156-1.9594727
		c0.9902344-1.0092773,2.2172852-1.5473633,3.4970703-1.5561523c0.8603516-0.0058594,2.1269531,0.2265625,3.2753906,1.3671875
		L70.418457,62.3208008c1.8540039,1.8505859,1.7915039,4.8588867-0.1425781,6.8491211l-1.9897461,2.0141602
		c-0.9194336,0.9379883-2.1274414,1.4526367-3.4121094,1.4609375C63.5913086,72.6533203,62.3808594,72.1567383,61.4658203,71.246582
		z M76.0727539,56.6611328l-0.0019531-0.0019531L76.0727539,56.6611328z"/>
	<path fill="#CCCCCC" enable-background="new    " d="M115.8676758,125.2060547
		c-2.5761719,2.5664062-6.7446289,2.5664062-9.3193359,0c-2.5883789-2.5839844-2.5761719-6.7490234,0-9.340332
		c2.574707-2.559082,6.7431641-2.5751953,9.3193359,0C118.4433594,118.4570312,118.4433594,122.6220703,115.8676758,125.2060547z"/>
	<path fill="#8F8F8F" d="M105.1381836,114.4472656c-3.3540039,3.3735352-3.3515625,8.8310547-0.0029297,12.1738281
		c3.3481445,3.3378906,8.7954102,3.3378906,12.144043,0.0019531l0.0048828-0.0048828
		c3.3383789-3.3486328,3.3393555-8.8051758,0.0019531-12.1625977
		C113.9423828,111.1132812,108.4946289,111.1113281,105.1381836,114.4472656z M107.9604492,123.7900391
		c-1.7900391-1.7871094-1.7875977-4.7099609,0.0063477-6.5141602c1.7885742-1.777832,4.7021484-1.7797852,6.4868164,0.0043945
		c0.8925781,0.8974609,1.3388672,2.0771484,1.3388672,3.2568359c0,1.1787109-0.4467773,2.3569336-1.3393555,3.2539062
		C112.6616211,125.5732422,109.7495117,125.5732422,107.9604492,123.7900391z"/>
</g>
</svg>
