<?xml version="1.0" encoding="iso-8859-1"?>
<!-- Generator: Adobe Illustrator 12.0.1, SVG Export Plug-In . SVG Version: 6.00 Build 51448)  -->
<!DOCTYPE svg PUBLIC "-//W3C//DTD SVG 1.0//EN" "http://www.w3.org/TR/2001/REC-SVG-20010904/DTD/svg10.dtd" [
	<!ENTITY ns_svg "http://www.w3.org/2000/svg">
	<!ENTITY ns_xlink "http://www.w3.org/1999/xlink">
]>
<svg  version="1.0" id="Delete" xmlns="&ns_svg;" xmlns:xlink="&ns_xlink;" width="260.1484375" height="260.1630859"
	 viewBox="0 0 260.1484375 260.1630859" overflow="visible" enable-background="new 0 0 260.1484375 260.1630859"
	 xml:space="preserve">
<g>
	<path fill="#CC464F" enable-background="new    " d="M252.9335938,181.5234375l-51.4414062-51.4414062l51.4423828-51.4423828
		c4.2949219-4.2958984,4.2949219-11.2607422-0.0009766-15.5566406L197.0722656,7.2216797
		c-4.2958984-4.2958984-11.2607422-4.2958984-15.5556641,0l-51.4423828,51.4423828L78.6318359,7.2216797
		c-4.2958984-4.2958984-11.2607422-4.2958984-15.5556641,0L7.2138672,63.0830078
		C2.9189453,67.3789062,2.9189453,74.34375,7.2148438,78.6396484l51.4423828,51.4414062L7.2138672,181.5234375
		c-4.2949219,4.2958984-4.2949219,11.2607422,0,15.5566406l55.8623047,55.8613281
		c4.2958984,4.2958984,11.2607422,4.2958984,15.5556641,0l51.4423828-51.4423828l51.4423828,51.4423828
		c4.2958984,4.2958984,11.2607422,4.2958984,15.5556641,0l55.8623047-55.8613281
		C257.2294922,192.7841797,257.2294922,185.8193359,252.9335938,181.5234375z"/>
	<path fill="#8A010B" d="M189.2929688,0c-4.0058594,0-7.7724609,1.5605469-10.6054688,4.3935547
		c0,0-43.5615234,43.5615234-48.6132812,48.6137695c-5.0517578-5.0522461-48.6137695-48.6142578-48.6137695-48.6142578
		C78.6269531,1.5600586,74.8598633-0.0004883,70.8525391,0c-4.0063477,0-7.7724609,1.5605469-10.6049805,4.3935547
		L4.3852539,60.2543945C1.4619141,63.1787109,0,67.0200195,0,70.8608398c0,3.8413086,1.4619141,7.6831055,4.3862305,10.6074219
		c0,0,43.5620117,43.5610352,48.6142578,48.612793c-5.0522461,5.0517578-48.6152344,48.6142578-48.6152344,48.6142578
		C1.4619141,181.6191406,0,185.4609375,0,189.3017578s1.4614258,7.6826172,4.3852539,10.6064453l55.8623047,55.8613281
		c2.8334961,2.8339844,6.6005859,4.3935547,10.6079102,4.3935547c4.0063477,0,7.7724609-1.5605469,10.6049805-4.3935547
		c0,0,43.5620117-43.5615234,48.6137695-48.6132812c5.0517578,5.0517578,48.6142578,48.6132812,48.6142578,48.6132812
		c2.8330078,2.8339844,6.6005859,4.3935547,10.6074219,4.3935547c4.0058594,0,7.7724609-1.5605469,10.6054688-4.3935547
		l55.8613281-55.8613281c2.9238281-2.9238281,4.3857422-6.7646484,4.3857422-10.6064453
		c0-3.8408203-1.4619141-7.6826172-4.3867188-10.6064453c0,0-43.5605469-43.5615234-48.6123047-48.6132812
		c5.0517578-5.0517578,48.6132812-48.6137695,48.6132812-48.6137695c2.9238281-2.9243164,4.3857422-6.765625,4.3857422-10.6064453
		c0-3.8413086-1.4619141-7.6831055-4.3867188-10.6074219L199.9003906,4.3930664
		C197.0673828,1.5600586,193.2998047-0.0004883,189.2929688,0z M184.3447266,10.050293
		C185.6669922,8.7280273,187.4238281,8,189.2939453,8c1.8691406-0.0004883,3.6279297,0.7280273,4.9501953,2.050293
		l55.8613281,55.8613281c2.7294922,2.7290039,2.7294922,7.1704102,0,9.8999023l-54.2705078,54.2705078l54.2705078,54.2695312
		c2.7294922,2.7294922,2.7294922,7.1708984,0,9.9003906l-55.8613281,55.8613281
		c-1.3222656,1.3222656-3.0791016,2.0498047-4.9492188,2.0498047c-1.8691406,0-3.6279297-0.7275391-4.9501953-2.0498047
		l-54.2705078-54.2714844l-54.2709961,54.2714844c-1.3217773,1.3222656-3.0791016,2.0498047-4.9482422,2.0498047
		c-1.8701172,0-3.6279297-0.7275391-4.9501953-2.0498047l-55.8623047-55.8613281
		c-2.7290039-2.7294922-2.7290039-7.1708984,0-9.9003906l54.2714844-54.2705078L10.043457,75.8110352
		c-2.7294922-2.7290039-2.7299805-7.1704102-0.0009766-9.8999023L65.9047852,10.050293
		C67.2265625,8.7280273,68.9838867,8,70.8530273,8c1.8701172-0.0004883,3.6279297,0.7280273,4.9501953,2.050293
		l54.2709961,54.2705078L184.3447266,10.050293z"/>
	
		<radialGradient id="XMLID_2_" cx="12.9770508" cy="182.9638672" r="236.8927307" gradientTransform="matrix(0.7071 0.7071 -0.7071 0.7071 165.0913239 -92.5143433)" gradientUnits="userSpaceOnUse">
		<stop  offset="0" style="stop-color:#CC464F"/>
		<stop  offset="1" style="stop-color:#AB262D"/>
	</radialGradient>
	<path fill="url(#XMLID_2_)" d="M238.5810547,185.9101562l-55.828125-55.828125l55.8291016-55.8291016
		c1.9521484-1.9521484,1.9521484-5.1181641,0-7.0703125l-45.6083984-45.6083984
		c-1.953125-1.953125-5.1191406-1.953125-7.0712891-0.0009766l-55.8291016,55.8291016l-55.828125-55.828125
		c-1.9521484-1.9521484-5.1181641-1.953125-7.0712891,0L21.5654297,67.1826172c-1.9521484,1.953125-1.953125,5.1191406,0,7.0712891
		l55.828125,55.828125l-55.8271484,55.828125c-1.9521484,1.9521484-1.9521484,5.1181641,0.0009766,7.0703125l45.6074219,45.6083984
		c1.953125,1.953125,5.1181641,1.953125,7.0712891,0.0009766l55.8271484-55.828125l55.828125,55.828125
		c1.953125,1.953125,5.1191406,1.953125,7.0712891,0l45.6083984-45.6083984
		C240.5341797,191.0283203,240.5341797,187.8632812,238.5810547,185.9101562z"/>
	<path fill="#AB262D" d="M238.5810547,185.9101562l-1.6953125-1.6953125l-45.6347656,45.6357422
		c-0.78125,0.78125-2.0478516,0.78125-2.8291016,0l-58.0996094-58.0996094l-58.1015625,58.1005859
		c-0.78125,0.78125-2.0478516,0.78125-2.828125,0.0009766l-45.8837891-45.8847656l-1.9423828,1.9423828
		c-1.9521484,1.9521484-1.9521484,5.1181641,0.0009766,7.0703125l45.6074219,45.6083984
		c1.953125,1.953125,5.1181641,1.953125,7.0712891,0.0009766l55.8271484-55.828125l55.828125,55.828125
		c1.953125,1.953125,5.1191406,1.953125,7.0712891,0l45.6083984-45.6083984
		C240.5341797,191.0283203,240.5341797,187.8632812,238.5810547,185.9101562z"/>
	<path fill="#D9555E" d="M21.5673828,74.2519531l1.6953125,1.6953125l45.6347656-45.6357422
		c0.78125-0.78125,2.0478516-0.78125,2.8291016,0l58.0996094,58.0996094l58.1015625-58.1005859
		c0.78125-0.78125,2.0478516-0.78125,2.828125-0.0009766l45.8837891,45.8847656l1.9423828-1.9423828
		c1.2197266-1.2202148,1.6777344-2.9140625,1.3720703-4.4897461c-0.0146484-0.078125-0.0488281-0.1518555-0.0673828-0.2290039
		c-0.0576172-0.2353516-0.1152344-0.4711914-0.2070312-0.6972656c-0.0429688-0.1069336-0.1113281-0.2045898-0.1621094-0.309082
		c-0.0927734-0.1889648-0.1777344-0.3818359-0.2958984-0.5605469c-0.0751953-0.1147461-0.1787109-0.215332-0.2646484-0.324707
		c-0.1220703-0.1552734-0.2324219-0.3168945-0.3759766-0.4599609l-45.6074219-45.6074219
		c-1.953125-1.953125-5.1191406-1.953125-7.0712891-0.0009766l-55.8291016,55.8291016l-55.828125-55.828125
		c-1.9521484-1.9521484-5.1181641-1.953125-7.0712891,0L21.5673828,67.1806641
		C19.6142578,69.1337891,19.6142578,72.2988281,21.5673828,74.2519531z"/>
</g>
</svg>
