<?xml version="1.0" encoding="iso-8859-1"?>
<!-- Generator: Adobe Illustrator 12.0.1, SVG Export Plug-In . SVG Version: 6.00 Build 51448)  -->
<!DOCTYPE svg PUBLIC "-//W3C//DTD SVG 1.0//EN" "http://www.w3.org/TR/2001/REC-SVG-20010904/DTD/svg10.dtd" [
	<!ENTITY ns_svg "http://www.w3.org/2000/svg">
	<!ENTITY ns_xlink "http://www.w3.org/1999/xlink">
]>
<svg  version="1.0" id="Disc" xmlns="&ns_svg;" xmlns:xlink="&ns_xlink;" width="291.3574219" height="291.3574219"
	 viewBox="0 0 291.3574219 291.3574219" overflow="visible" enable-background="new 0 0 291.3574219 291.3574219"
	 xml:space="preserve">
<g>
	<path fill="#FFFFFF" d="M148.3076172,85.3232422c-33.4902344,0-60.6469727,27.152832-60.6469727,60.6469727
		c0,33.4858398,27.1567383,60.6469727,60.6469727,60.6469727c33.4990234,0,60.6513672-27.1611328,60.6513672-60.6469727
		C208.9589844,112.4760742,181.8066406,85.3232422,148.3076172,85.3232422z M145.2958984,161.7246094
		c-9.0795898,0-16.4418945-7.3535156-16.4418945-16.4375c0-9.0751953,7.3623047-16.4282227,16.4418945-16.4282227
		c9.0712891,0,16.4287109,7.3530273,16.4287109,16.4282227
		C161.7246094,154.3710938,154.3671875,161.7246094,145.2958984,161.7246094z"/>
	<path fill="#E6E6E6" d="M126.8540039,145.2871094c0,10.1660156,8.2729492,18.4375,18.4418945,18.4375
		c10.1611328,0,18.4287109-8.2714844,18.4287109-18.4375c0-10.1611328-8.2675781-18.4282227-18.4287109-18.4282227
		C135.1269531,126.8588867,126.8540039,135.1259766,126.8540039,145.2871094z M130.8540039,145.2871094
		c0-7.9555664,6.4785156-14.4282227,14.4418945-14.4282227c7.9560547,0,14.4287109,6.4726562,14.4287109,14.4282227
		c0,7.9609375-6.4726562,14.4375-14.4287109,14.4375C137.3325195,159.7246094,130.8540039,153.2480469,130.8540039,145.2871094z"/>
	<path fill="#FFFFFF" d="M145.6787109,4C67.4477539,4,4,67.4345703,4,145.6611328
		c0,78.2529297,63.4477539,141.6962891,141.6787109,141.6962891c78.2431641,0,141.6787109-63.4433594,141.6787109-141.6962891
		C287.3574219,67.4345703,223.921875,4,145.6787109,4z M146.2548828,205.4384766
		c-32.0634766,0-58.0527344-26.0058594-58.0527344-58.0527344c0-32.0546875,25.9892578-58.0615234,58.0527344-58.0615234
		c32.0585938,0,58.0478516,26.0068359,58.0478516,58.0615234
		C204.3027344,179.4326172,178.3134766,205.4384766,146.2548828,205.4384766z"/>
	<path fill="#8B8B8B" d="M0,145.6611328c0,80.3369141,65.3510742,145.6962891,145.6787109,145.6962891
		c80.3271484,0,145.6787109-65.359375,145.6787109-145.6962891C291.3574219,65.3432617,226.0058594,0,145.6787109,0
		C65.3510742,0,0,65.3432617,0,145.6611328z M8,145.6611328C8,69.7543945,69.762207,8,145.6787109,8
		c75.9160156,0,137.6787109,61.7543945,137.6787109,137.6611328c0,75.9257812-61.7626953,137.6962891-137.6787109,137.6962891
		C69.762207,283.3574219,8,221.5869141,8,145.6611328z"/>
	<path fill="#FFFFFF" d="M145.7880859,8.1206055c-76.0366211,0-137.6767578,61.6220703-137.6767578,137.6494141
		c0,76.0268555,61.6401367,137.6674805,137.6767578,137.6674805c76.0087891,0,137.6308594-61.640625,137.6308594-137.6674805
		C283.4189453,69.7426758,221.796875,8.1206055,145.7880859,8.1206055z M147.7246094,206.6171875
		c-32.2050781,0-58.3100586-26.1142578-58.3100586-58.3144531s26.1049805-58.3144531,58.3100586-58.3144531
		s58.3183594,26.1142578,58.3183594,58.3144531S179.9296875,206.6171875,147.7246094,206.6171875z"/>
	
		<linearGradient id="XMLID_10_" gradientUnits="userSpaceOnUse" x1="66.5292969" y1="48.1860352" x2="226.2487793" y2="245.1917267">
		<stop  offset="0" style="stop-color:#CFCFCF"/>
		<stop  offset="0.219101" style="stop-color:#D6D6D6"/>
		<stop  offset="0.5" style="stop-color:#FFFFFF"/>
		<stop  offset="0.5252295" style="stop-color:#F5F5F5"/>
		<stop  offset="0.5852035" style="stop-color:#E4E4E4"/>
		<stop  offset="0.629214" style="stop-color:#DEDEDE"/>
		<stop  offset="0.662921" style="stop-color:#E3E3E3"/>
		<stop  offset="0.9044939" style="stop-color:#CFCFCF"/>
		<stop  offset="1" style="stop-color:#CFCFCF"/>
	</linearGradient>
	<path fill="url(#XMLID_10_)" d="M145.2001953,16.2666016c-71.5170898,0-129.4575195,57.7128906-129.4575195,128.9199219
		c0,71.2167969,57.9404297,128.9384766,129.4575195,128.9384766c71.4765625,0,129.3984375-57.7216797,129.3984375-128.9384766
		C274.5986328,73.9794922,216.6767578,16.2666016,145.2001953,16.2666016z M145.0224609,189.1591797
		c-23.9814453,0-43.4208984-19.4345703-43.4208984-43.4072266c0-23.9731445,19.4394531-43.4262695,43.4208984-43.4262695
		c23.9638672,0,43.3984375,19.453125,43.3984375,43.4262695
		C188.4208984,169.7246094,168.9863281,189.1591797,145.0224609,189.1591797z"/>
	
		<linearGradient id="XMLID_11_" gradientUnits="userSpaceOnUse" x1="129.6108398" y1="61.3994141" x2="124.6978226" y2="62.4228363">
		<stop  offset="0" style="stop-color:#C9BBD9"/>
		<stop  offset="0.2399638" style="stop-color:#C5B6D8"/>
		<stop  offset="1" style="stop-color:#BCAAD4"/>
	</linearGradient>
	<path opacity="0.5" fill="url(#XMLID_11_)" d="M125.5297852,106.9521484
		c4.3203125-2.1762695,9.0522461-3.6489258,14.050293-4.2744141l-11.0664062-85.3486328
		c-14.9135742,1.9106445-29.0302734,6.3481445-41.9057617,12.8657227L125.5297852,106.9521484z"/>
	<g>
		<linearGradient id="XMLID_12_" gradientUnits="userSpaceOnUse" x1="88.0117188" y1="29.5449219" x2="87.906044" y2="29.519762">
			<stop  offset="0" style="stop-color:#E8BA76"/>
			<stop  offset="1" style="stop-color:#DB976B"/>
		</linearGradient>
		<path opacity="0.5" fill="url(#XMLID_12_)" d="M88.0449219,29.4863281l-0.0009766-0.0019531
			c-0.0620117,0.0302734-0.1225586,0.0629883-0.1845703,0.0932617
			C87.9213867,29.5473633,87.9829102,29.5166016,88.0449219,29.4863281z"/>
		
			<linearGradient id="XMLID_13_" gradientUnits="userSpaceOnUse" x1="96.5273438" y1="74.1953125" x2="103.1830978" y2="70.0996094">
			<stop  offset="0" style="stop-color:#E8BA76"/>
			<stop  offset="1" style="stop-color:#DB976B"/>
		</linearGradient>
		<path opacity="0.5" fill="url(#XMLID_13_)" d="M125.5297852,106.9521484L86.6142578,30.2075195
			c-6.9213867,3.5029297-13.487793,7.5991211-19.6220703,12.2363281l52.0610352,68.5048828
			c2.0317383-1.5195312,4.2075195-2.8549805,6.4926758-4.0043945
			C125.5405273,106.9472656,125.5351562,106.9492188,125.5297852,106.9521484z"/>
	</g>
	<g>
		<linearGradient id="XMLID_14_" gradientUnits="userSpaceOnUse" x1="67.6225586" y1="41.6933594" x2="67.4237976" y2="42.2582664">
			<stop  offset="0" style="stop-color:#D1D1D1"/>
			<stop  offset="0.601124" style="stop-color:#E8849F"/>
			<stop  offset="1" style="stop-color:#EBA2B6"/>
		</linearGradient>
		<path opacity="0.5" fill="url(#XMLID_14_)" d="M67.8730469,41.8085938l-0.015625-0.0209961
			c-0.2568359,0.190918-0.5078125,0.3896484-0.7631836,0.5825195
			C67.3496094,42.1777344,67.6162109,41.9990234,67.8730469,41.8085938z"/>
		
			<linearGradient id="XMLID_15_" gradientUnits="userSpaceOnUse" x1="71.9179688" y1="100.6591797" x2="85.2294998" y2="82.9955902">
			<stop  offset="0" style="stop-color:#D1D1D1"/>
			<stop  offset="0.601124" style="stop-color:#E8849F"/>
			<stop  offset="1" style="stop-color:#EBA2B6"/>
		</linearGradient>
		<path opacity="0.5" fill="url(#XMLID_15_)" d="M119.0532227,110.9487305l-52.059082-68.5019531
			c-14.137207,10.6884766-26.0004883,24.2001953-34.7397461,39.6987305l75.0532227,42.1020508
			c3.03125-5.3046875,7.1420898-9.909668,12.0429688-13.5102539v-0.0004883
			C119.2524414,110.809082,119.1503906,110.8759766,119.0532227,110.9487305z"/>
	</g>
	
		<linearGradient id="XMLID_16_" gradientUnits="userSpaceOnUse" x1="160.7558594" y1="229.5292969" x2="167.9970093" y2="227.9199371">
		<stop  offset="0" style="stop-color:#C9BBD9"/>
		<stop  offset="0.2399638" style="stop-color:#C5B6D8"/>
		<stop  offset="1" style="stop-color:#BCAAD4"/>
	</linearGradient>
	<path opacity="0.5" fill="url(#XMLID_16_)" d="M203.6503906,260.25l-38.5478516-76.0205078
		c-4.3681641,2.2851562-9.1699219,3.8457031-14.2529297,4.5292969l10.9326172,84.3164062
		C176.6806641,271.1767578,190.7832031,266.7519531,203.6503906,260.25z"/>
	
		<linearGradient id="XMLID_17_" gradientUnits="userSpaceOnUse" x1="195.0947266" y1="215.9179688" x2="186.4658203" y2="220.9765778">
		<stop  offset="0" style="stop-color:#E8BA76"/>
		<stop  offset="1" style="stop-color:#DB976B"/>
	</linearGradient>
	<path opacity="0.5" fill="url(#XMLID_17_)" d="M223.2587891,248.0283203l-51.6582031-67.9755859
		c-2.03125,1.5771484-4.203125,2.9765625-6.4980469,4.1767578L203.6513672,260.25
		C210.5683594,256.7539062,217.1269531,252.6572266,223.2587891,248.0283203z"/>
	<linearGradient id="XMLID_18_" gradientUnits="userSpaceOnUse" x1="214.8125" y1="195.8701172" x2="205.9374847" y2="206.4814606">
		<stop  offset="0" style="stop-color:#DEDEDE"/>
		<stop  offset="0.601124" style="stop-color:#E8849F"/>
		<stop  offset="1" style="stop-color:#EBA2B6"/>
	</linearGradient>
	<path opacity="0.5" fill="url(#XMLID_18_)" d="M258.0107422,208.3828125l-74.8144531-41.96875
		c-2.8828125,5.3173828-6.8505859,9.9550781-11.5957031,13.6386719l51.6591797,67.9746094
		C237.3955078,237.3583984,249.2597656,223.8623047,258.0107422,208.3828125z"/>
	<path opacity="0.5" fill="#E6E6E6" d="M107.565918,150.1552734c0-23.699707,19.2124023-42.9121094,42.9116211-42.9121094
		c10.5917969,0,20.2802734,3.8452148,27.7646484,10.2050781c-7.8710938-9.2646484-19.5996094-15.1503906-32.7094727-15.1503906
		c-23.6992188,0-42.9116211,19.2124023-42.9116211,42.9116211c0,13.1079102,5.8837891,24.8354492,15.1464844,32.706543
		C111.409668,170.4316406,107.565918,160.7451172,107.565918,150.1552734z"/>
	<g>
		<path fill="#AFAFAF" d="M100.5717773,145.0043945c0,24.7866211,20.1674805,44.9526367,44.956543,44.9526367
			c24.7939453,0,44.9658203-20.1660156,44.9658203-44.9526367c0-24.7919922-20.171875-44.9614258-44.9658203-44.9614258
			C120.7392578,100.0429688,100.5717773,120.2124023,100.5717773,145.0043945z M104.5717773,145.0043945
			c0-22.5864258,18.3730469-40.9614258,40.956543-40.9614258c22.5888672,0,40.9658203,18.375,40.9658203,40.9614258
			c0,22.581543-18.3769531,40.9526367-40.9658203,40.9526367
			C122.9448242,185.9570312,104.5717773,167.5859375,104.5717773,145.0043945z"/>
	</g>
</g>
</svg>
