<?xml version="1.0" encoding="iso-8859-1"?>
<!-- Generator: Adobe Illustrator 12.0.1, SVG Export Plug-In . SVG Version: 6.00 Build 51448)  -->
<!DOCTYPE svg PUBLIC "-//W3C//DTD SVG 1.0//EN" "http://www.w3.org/TR/2001/REC-SVG-20010904/DTD/svg10.dtd" [
	<!ENTITY ns_svg "http://www.w3.org/2000/svg">
	<!ENTITY ns_xlink "http://www.w3.org/1999/xlink">
]>
<svg  version="1.0" id="document" xmlns="&ns_svg;" xmlns:xlink="&ns_xlink;" width="242.8808594" height="299.5517578"
	 viewBox="0 0 242.8808594 299.5517578" overflow="visible" enable-background="new 0 0 242.8808594 299.5517578"
	 xml:space="preserve">
<g>
	<g>
		<polygon fill="#FFFFFF" enable-background="new    " points="238.8808594,51.0297852 238.8808594,295.5517578 4,295.5517578 
			4,4.0830078 191.8818359,4.0004883 		"/>
		<path fill="#8A8A8A" d="M0,0.0849609v299.4667969h242.8808594V49.3735352L193.5390625,0L0,0.0849609z M190.2246094,8.0009766
			c2.1728516,2.1738281,42.4873047,42.5141602,44.65625,44.6850586c0,3.2133789,0,231.1782227,0,238.8657227
			c-7.5957031,0-219.2851562,0-226.8808594,0c0-7.6738281,0-275.800293,0-283.4707031
			C15.5908203,8.078125,187.0361328,8.0024414,190.2246094,8.0009766z"/>
	</g>
	<linearGradient id="XMLID_6_" gradientUnits="userSpaceOnUse" x1="3.9667969" y1="49.671875" x2="357.8083801" y2="403.5134583">
		<stop  offset="0" style="stop-color:#FFFFFF"/>
		<stop  offset="1" style="stop-color:#DBDBDB"/>
	</linearGradient>
	<polygon fill="url(#XMLID_6_)" points="226.0664062,52.9257812 226.0664062,282.4277344 16.8696289,282.4277344 
		16.8696289,16.362793 190.5097656,16.362793 190.5097656,52.9257812 	"/>
	<polygon fill="#D9A3B5" points="209.2958984,53.1225586 209.2958984,74.8496094 33.9863281,74.8496094 33.9863281,24.9804688 
		190.0400391,24.9804688 190.0400391,53.0092773 	"/>
	<g opacity="0.3">
		<rect x="194.2128906" y="57.0019531" fill="#8A8A8A" width="40.6914062" height="7.9726562"/>
	</g>
	<g>
		<rect x="128.5917969" y="147.0029297" fill="#B0B0B0" width="80.6894531" height="4"/>
	</g>
	<g>
		<rect x="128.5917969" y="175.8369141" fill="#B0B0B0" width="80.6894531" height="4"/>
	</g>
	<g>
		<rect x="33.9648438" y="118.2670898" fill="#B0B0B0" width="175.3164062" height="4"/>
	</g>
	<g>
		<rect x="33.9648438" y="89.53125" fill="#B0B0B0" width="175.3164062" height="4"/>
	</g>
	<g>
		<rect x="128.5917969" y="204.6699219" fill="#B0B0B0" width="80.6894531" height="4"/>
	</g>
	<g>
		<rect x="33.9648438" y="233.6621094" fill="#B0B0B0" width="175.3164062" height="4"/>
	</g>
	<g>
		<rect x="33.9648438" y="262.4960938" fill="#B0B0B0" width="127.5800781" height="4"/>
	</g>
	<radialGradient id="XMLID_7_" cx="47.0600586" cy="159.0263672" r="58.3027954" gradientUnits="userSpaceOnUse">
		<stop  offset="0" style="stop-color:#C8DFF1"/>
		<stop  offset="1" style="stop-color:#9BC3D5"/>
	</radialGradient>
	<rect x="35.8491211" y="148.8823242" fill="url(#XMLID_7_)" enable-background="new    " width="73.8774414" height="57.7680664"/>
	
		<radialGradient id="XMLID_8_" cx="49.4174805" cy="172.6611328" r="32.0087166" gradientTransform="matrix(1 0 0 1.0350001 0 -4.5179138)" gradientUnits="userSpaceOnUse">
		<stop  offset="0" style="stop-color:#99C596"/>
		<stop  offset="1" style="stop-color:#6EA66B"/>
	</radialGradient>
	<path fill="url(#XMLID_8_)" d="M104.2192383,205.2949219v-2.0605469
		c-14.4023438-17.9208984-39.515625-36.1289062-47.878418-36.1289062c-4.9726562,0-14.7744141,5.2666016-18.9223633,9.9550781
		v28.234375H104.2192383z"/>
	<path fill="#FFFFFF" d="M101.3256836,161.4589844c0.0268555-0.1660156,0.0449219-0.3310547,0.0449219-0.5009766
		c0-1.6923828-1.3271484-3.0566406-2.9633789-3.0566406h-2.0537109c0.019043-0.1367188,0.0307617-0.2792969,0.0307617-0.4160156
		c0-1.6904297-1.331543-3.6757812-2.9702148-3.6757812h-4.9863281c-1.3076172,0-2.4106445,2.0039062-2.809082,3.2148438h-5.2758789
		c-1.6567383,0-3.0087891,1.5849609-3.2084961,3.2285156h-2.7211914c-1.8623047,0-3.3735352,1.234375-3.3735352,3.1445312
		c0,1.9228516,1.5112305,2.9804688,3.3735352,2.9804688h6.2763672c0.5678711,0.6835938,1.409668,1.9316406,2.3461914,1.9316406
		h9.9746094c0.9179688,0,1.7441406-1.234375,2.3125-1.8896484c0.3256836,0.1494141,0.6835938,0.2363281,1.0615234,0.2363281
		h4.3081055c1.4189453,0,2.5600586-1.1806641,2.5600586-2.6376953
		C103.2524414,162.7822266,102.4321289,161.7480469,101.3256836,161.4589844z"/>
	
		<radialGradient id="XMLID_9_" cx="81.2456055" cy="190.6435547" r="28.9527874" gradientTransform="matrix(1.1028 0 0 0.9721 -5.8035316 0.6446228)" gradientUnits="userSpaceOnUse">
		<stop  offset="0" style="stop-color:#99C596"/>
		<stop  offset="1" style="stop-color:#6EA66B"/>
	</radialGradient>
	<path fill="url(#XMLID_9_)" d="M107.8320312,205.5712891v-25.6767578h-1.359375
		c-13.9145508,0-28.7265625,15.8242188-38.4677734,25.6767578H107.8320312z"/>
	<linearGradient id="XMLID_10_" gradientUnits="userSpaceOnUse" x1="97.4169922" y1="166.9306641" x2="85.9498291" y2="157.57547">
		<stop  offset="0" style="stop-color:#FFFFFF"/>
		<stop  offset="1" style="stop-color:#CFCFCF"/>
	</linearGradient>
	<path fill="url(#XMLID_10_)" d="M104.0380859,164.6337891h-0.6210938c0.0375977-0.1601562,0.0512695-0.3291016,0.0512695-0.5009766
		v-0.5c0-1.2412109-0.9995117-2.2509766-2.2441406-2.2509766h-6.628418c-1.2446289,0-2.253418,1.0097656-2.253418,2.2509766v0.5
		c0,0.4648438,0.1435547,0.8974609,0.3847656,1.25h-2.1323242c-1.2416992,0-2.2470703,1.0078125-2.2470703,2.2519531v0.2480469
		c0,1.2421875,1.0053711,2.0507812,2.2470703,2.0507812h7.6298828c0.9267578,0,1.7285156-0.3662109,2.0722656-1.1728516h3.7412109
		c1.1367188,0,2.0600586-0.9316406,2.0600586-2.0625C106.0981445,165.5595703,105.1748047,164.6337891,104.0380859,164.6337891z"/>
	<rect x="43.2617188" y="33.4926758" opacity="0.4" fill="#964460" width="9.5830078" height="33.3359375"/>
	<rect x="62.828125" y="33.4926758" opacity="0.35" fill="#964460" width="9.5825195" height="33.3359375"/>
	<rect x="82.394043" y="33.4926758" opacity="0.3" fill="#964460" width="9.581543" height="33.3359375"/>
	<polygon fill="#D6D6D6" points="233.4121094,51.2265625 191.7070312,9.4946289 190.3320312,9.4951172 190.3320312,52.6352539 
		233.4121094,52.7758789 	"/>
	<rect x="101.9589844" y="33.4926758" opacity="0.25" fill="#964460" width="9.5825195" height="33.3359375"/>
	<rect x="121.5253906" y="33.4926758" opacity="0.2" fill="#964460" width="9.5820312" height="33.3359375"/>
	<rect x="141.0908203" y="33.4926758" opacity="0.15" fill="#964460" width="9.5820312" height="33.3359375"/>
	<rect x="160.65625" y="33.4926758" opacity="0.1" fill="#964460" width="9.5839844" height="33.3359375"/>
	<rect x="180.2226562" y="33.4926758" opacity="0.05" fill="#964460" width="9.5820312" height="33.3359375"/>
	<polygon fill="#8A8A8A" points="235.7929688,49.0078125 194.2207031,49.0078125 194.2207031,7.4355469 191.8818359,4.0004883 
		186.2207031,4.0029297 186.2207031,57.0078125 238.8808594,57.0078125 238.8808594,51.0297852 	"/>
	<path fill="#8CB0D0" d="M33.8491211,146.8823242v61.7680664h77.8774414v-61.7680664H33.8491211z M107.7265625,150.8818359
		c0,3.5947266,0,50.1748047,0,53.7685547c-3.6811523,0-66.1962891,0-69.8774414,0c0-3.59375,0-50.1738281,0-53.7685547
		C41.5302734,150.8818359,104.0454102,150.8818359,107.7265625,150.8818359z"/>
</g>
</svg>
