<?xml version="1.0" encoding="iso-8859-1"?>
<!-- Generator: Adobe Illustrator 12.0.1, SVG Export Plug-In . SVG Version: 6.00 Build 51448)  -->
<!DOCTYPE svg PUBLIC "-//W3C//DTD SVG 1.0//EN" "http://www.w3.org/TR/2001/REC-SVG-20010904/DTD/svg10.dtd" [
	<!ENTITY ns_svg "http://www.w3.org/2000/svg">
	<!ENTITY ns_xlink "http://www.w3.org/1999/xlink">
]>
<svg  version="1.0" id="Edit" xmlns="&ns_svg;" xmlns:xlink="&ns_xlink;" width="268.8530273" height="272.5380859"
	 viewBox="0 0 268.8530273 272.5380859" overflow="visible" enable-background="new 0 0 268.8530273 272.5380859"
	 xml:space="preserve">
<g>
	<radialGradient id="XMLID_7_" cx="210.7397461" cy="-2.871582" r="64.6766968" gradientUnits="userSpaceOnUse">
		<stop  offset="0" style="stop-color:#D9A3B5"/>
		<stop  offset="1" style="stop-color:#BD7B93"/>
	</radialGradient>
	<path fill="url(#XMLID_7_)" enable-background="new    " d="M262.7885742,31.2988281L237.5463867,6.0620117
		c-2.7558594-2.7519531-7.2021484-2.7519531-9.9580078,0l-14.7089844,14.7084961l35.1943359,35.1943359l14.7148438-14.7172852
		C265.5375977,38.5014648,265.5454102,34.0429688,262.7885742,31.2988281z"/>
	<path fill="#D9A3B5" d="M265.3657227,34.4750977L233.980957,3.0893555c-1.0527344-1.0517578-2.7568359-1.0517578-3.8085938,0
		l-17.4873047,17.4873047l6.1201172,6.1196289l11.9853516-11.9858398c1.0517578-1.0517578,2.7558594-1.0517578,3.8085938,0
		l27.1689453,27.1699219l3.5976562-3.5976562C266.4174805,37.2304688,266.4174805,35.5268555,265.3657227,34.4750977z"/>
	<polygon fill="#EFDEA5" enable-background="new    " points="59.2368164,245.1943359 59.1499023,224.703125 40.1450195,224.703125 
		40.1450195,214.5771484 20.6499023,214.5009766 190.3178711,42.6113281 226.0708008,78.3818359 	"/>
	<polygon opacity="0.5" fill="#755346" points="59.1499023,224.703125 40.1450195,224.703125 40.1450195,214.5771484 
		20.8969727,214.5019531 18.71875,216.578125 17.4643555,224.5273438 30.1450195,224.5771484 30.1450195,234.703125 
		49.1499023,234.703125 49.2128906,249.5976562 57.3222656,246.78125 59.2348633,244.7509766 	"/>
	
		<linearGradient id="XMLID_8_" gradientUnits="userSpaceOnUse" x1="139.9116211" y1="159.0439453" x2="127.1879425" y2="146.3202667">
		<stop  offset="0" style="stop-color:#D6A959"/>
		<stop  offset="1" style="stop-color:#D48F44"/>
	</linearGradient>
	<polygon fill="url(#XMLID_8_)" points="59.2368164,245.1943359 226.0708008,78.3818359 215.6411133,67.9472656 
		59.1503906,224.7890625 	"/>
	<polygon fill="#E1BF7F" points="216.5805664,68.887207 216.5805664,68.887207 204.300293,56.6005859 40.2646484,224.703125 
		59.1499023,224.703125 59.1557617,226.1337891 59.15625,226.1337891 59.1503906,224.7890625 215.6411133,67.9472656 	"/>
	<path fill="#D48F44" d="M11.1176758,218.4638672c0,0,19.9829102,0.078125,25.0273438,0.0976562
		c0,2.9316406,0,10.1416016,0,10.1416016s14.0449219,0,19.0219727,0c0.0219727,5.1699219,0.1103516,26.1064453,0.1103516,26.1064453
		l176.449707-176.4267578L190.300293,36.9355469L11.1176758,218.4638672z M190.3354492,48.2871094
		c4.4091797,4.4111328,25.6982422,25.7109375,30.0791016,30.09375
		c-5.2402344,5.2392578-144.9462891,144.9277344-157.2182617,157.1982422
		c-0.0234375-5.4248047-0.0634766-14.8759766-0.0634766-14.8759766s-14.0009766,0-18.987793,0
		c0-2.9277344,0-10.1103516,0-10.1103516s-8.9765625-0.0351562-13.9633789-0.0546875
		C42.3051758,198.2558594,185.0834961,53.6079102,190.3354492,48.2871094z"/>
	<radialGradient id="XMLID_9_" cx="20.027832" cy="228.921875" r="28.2487736" gradientUnits="userSpaceOnUse">
		<stop  offset="0" style="stop-color:#A87464"/>
		<stop  offset="1" style="stop-color:#7F5F55"/>
	</radialGradient>
	<path fill="url(#XMLID_9_)" enable-background="new    " d="M36.1450195,228.703125c0,0,0-7.2099609,0-10.1416016
		c-3.0366211-0.0117188-11.4829102-0.0449219-17.7285156-0.0693359l-6.9794922,44.2236328l43.8095703-15.2138672
		c-0.027832-6.5625-0.0664062-15.6337891-0.0795898-18.7988281C50.1899414,228.703125,36.1450195,228.703125,36.1450195,228.703125z
		"/>
	<path fill="#755346" d="M55.0830078,243.3242188c-1.5297852,0.53125-29.4931641,10.2421875-38.6547852,13.4238281
		c1.4770508-9.3574219,5.690918-36.0576172,6.0302734-38.2089844c0.0068359-0.0068359,0.0244141-0.0234375,0.0322266-0.03125
		c-3.0644531-0.0117188-6-0.0234375-8.1210938-0.03125l-7.9238281,50.2070312l48.8183594-16.953125
		c-0.0087891-2.1826172-0.0219727-5.2900391-0.0361328-8.5605469
		C55.1694336,243.2324219,55.1123047,243.2929688,55.0830078,243.3242188z"/>
	
		<linearGradient id="XMLID_10_" gradientUnits="userSpaceOnUse" x1="163.3647461" y1="62.9082031" x2="173.4121399" y2="52.860817" gradientTransform="matrix(1 0 0 1 45.9951172 -3.1474609)">
		<stop  offset="0" style="stop-color:#DEDEDE"/>
		<stop  offset="1" style="stop-color:#A1A1A1"/>
	</linearGradient>
	<path fill="url(#XMLID_10_)" d="M237.8588867,78.1240234c-1.7714844,1.7695312-4.6386719,1.7695312-6.4101562-0.0019531
		l-40.453125-40.4511719c-1.7705078-1.7700195-1.7695312-4.6401367,0-6.409668l0.0537109-0.0537109
		c1.7695312-1.7695312,4.6396484-1.7695312,6.4082031,0.0009766l40.4541016,40.4536133
		c1.7714844,1.7695312,1.7685547,4.6367188,0,6.4082031L237.8588867,78.1240234z"/>
	
		<linearGradient id="XMLID_11_" gradientUnits="userSpaceOnUse" x1="169.8334961" y1="56.4389648" x2="179.8803406" y2="46.3921165" gradientTransform="matrix(1 0 0 1 45.9951172 -3.1474609)">
		<stop  offset="0" style="stop-color:#DEDEDE"/>
		<stop  offset="1" style="stop-color:#A1A1A1"/>
	</linearGradient>
	<path fill="url(#XMLID_11_)" d="M244.3276367,71.6552734c-1.7714844,1.7695312-4.6386719,1.7695312-6.4101562-0.0019531
		l-40.453125-40.4511719c-1.7705078-1.7700195-1.7695312-4.6401367,0-6.409668l0.0537109-0.0537109
		c1.7695312-1.7695312,4.6396484-1.7695312,6.4082031,0.0009766l40.4541016,40.4536133
		c1.7714844,1.7695312,1.7685547,4.6367188,0,6.4082031L244.3276367,71.6552734z"/>
	
		<linearGradient id="XMLID_12_" gradientUnits="userSpaceOnUse" x1="176.2944336" y1="49.9785156" x2="186.3418274" y2="39.9311295" gradientTransform="matrix(1 0 0 1 45.9951172 -3.1474609)">
		<stop  offset="0" style="stop-color:#DEDEDE"/>
		<stop  offset="1" style="stop-color:#A1A1A1"/>
	</linearGradient>
	<path fill="url(#XMLID_12_)" d="M250.7885742,65.1943359c-1.7714844,1.7695312-4.6386719,1.7695312-6.4101562-0.0019531
		l-40.453125-40.4511719c-1.7705078-1.7700195-1.7695312-4.6401367,0-6.409668l0.0537109-0.0537109
		c1.7695312-1.7695312,4.6396484-1.7695312,6.4082031,0.0009766l40.4541016,40.4536133
		c1.7714844,1.7695312,1.7685547,4.6367188,0,6.4082031L250.7885742,65.1943359z"/>
	<path fill="#964460" d="M268.8530273,36.2504883c-0.0019531-2.9477539-1.1542969-5.7158203-3.2421875-7.7949219
		L240.3745117,3.2250977C236.0688477-1.074707,229.065918-1.074707,224.762207,3.2231445
		c-0.0009766,0.0004883-6.4482422,6.4482422-14.7451172,14.7446289c0.1240234,0.1005859,0.2548828,0.1875,0.3701172,0.3027344
		l5.3203125,5.3203125l14.7089844-14.7084961c1.1855469-1.1835938,3.1162109-1.1835938,4.3037109,0.0019531l25.2402344,25.2348633
		c0.5771484,0.574707,0.8916016,1.3320312,0.8925781,2.1386719c0.0009766,0.8125-0.3154297,1.5766602-0.8916016,2.1513672
		l-14.7158203,14.71875l5.5957031,5.5961914c0.0205078,0.0209961,0.0341797,0.0458984,0.0546875,0.0673828
		c8.2861328-8.2871094,14.7216797-14.7241211,14.7216797-14.7241211l-0.0019531,0.0019531
		C267.7055664,41.980957,268.855957,39.2041016,268.8530273,36.2504883z"/>
	<path fill="#4D4D4D" d="M4.2919922,272.4130859c-1.5205078,0.2675781-2.7758789,0.1289062-3.5400391-0.6357422
		c-0.765625-0.765625-0.8964844-2.015625-0.6166992-3.5263672c1.1328125-6.0957031,8.9667969-16.4433594,8.9667969-16.4433594
		l8.1381836-0.0351562l3.6777344,3.4287109l-0.0180664,8.4082031
		C20.8999023,263.609375,10.4306641,271.3310547,4.2919922,272.4130859z"/>
</g>
</svg>
