<?xml version="1.0" encoding="iso-8859-1"?>
<!-- Generator: Adobe Illustrator 12.0.1, SVG Export Plug-In . SVG Version: 6.00 Build 51448)  -->
<!DOCTYPE svg PUBLIC "-//W3C//DTD SVG 1.0//EN" "http://www.w3.org/TR/2001/REC-SVG-20010904/DTD/svg10.dtd" [
	<!ENTITY ns_svg "http://www.w3.org/2000/svg">
	<!ENTITY ns_xlink "http://www.w3.org/1999/xlink">
]>
<svg  version="1.0" id="Favourite" xmlns="&ns_svg;" xmlns:xlink="&ns_xlink;" width="276.2026367" height="261.1147461"
	 viewBox="0 0 276.2026367 261.1147461" overflow="visible" enable-background="new 0 0 276.2026367 261.1147461"
	 xml:space="preserve">
<g>
	<polygon fill="#EFDEA5" enable-background="new    " points="138.1010742,4 170.7387695,100.449707 272.2026367,101.4296875 
		190.3032227,160.6645508 220.9799805,257.1147461 138.1010742,199.8393555 55.222168,257.1147461 85.8994141,160.6645508 
		4.0004883,101.4296875 105.4648438,100.449707 	"/>
	<path fill="#D48F44" d="M138.1010742,0c-1.7148438,0-3.2392578,1.0932617-3.7890625,2.7177734
		c0,0-30.0053711,88.6748047-31.7255859,93.7597656c-5.3666992,0.0517578-98.6245117,0.9521484-98.6245117,0.9521484
		c-1.7275391,0.0170898-3.2490234,1.140625-3.7729492,2.7866211C0.0615234,100.6162109,0,101.0249023,0,101.4291992
		c0,1.2597656,0.5966797,2.4750977,1.65625,3.2416992c0,0,75.1293945,54.3383789,79.5541992,57.5385742
		c-1.6552734,5.2050781-29.800293,93.6923828-29.800293,93.6923828c-0.1269531,0.4003906-0.1884766,0.8085938-0.1884766,1.2128906
		c0,1.2441406,0.5830078,2.4472656,1.6210938,3.2158203c1.3754883,1.0175781,3.2460938,1.0478516,4.6533203,0.0751953
		c0,0,76.3032227-52.7314453,80.6049805-55.7041016c4.3017578,2.9726562,80.6044922,55.7041016,80.6044922,55.7041016
		c1.4082031,0.9726562,3.2783203,0.9423828,4.6533203-0.0751953c1.0390625-0.7685547,1.6210938-1.9716797,1.6210938-3.2158203
		c0-0.4042969-0.0615234-0.8125-0.1884766-1.2119141c0,0-28.1445312-88.4882812-29.7998047-93.6933594
		c4.4248047-3.2001953,79.5546875-57.5385742,79.5546875-57.5385742c1.0595703-0.7666016,1.65625-1.9819336,1.65625-3.2416992
		c0-0.4042969-0.0615234-0.8129883-0.1884766-1.2128906c-0.5244141-1.6459961-2.0458984-2.7695312-3.7724609-2.7866211
		c0,0-93.2578125-0.9003906-98.6240234-0.9521484c-1.7207031-5.0844727-31.7275391-93.7597656-31.7275391-93.7597656
		C141.340332,1.0932617,139.815918,0,138.1010742,0z M105.503418,104.449707
		c1.7006836-0.0166016,3.2050781-1.1069336,3.7504883-2.7177734c0,0,22.9267578-67.7558594,28.847168-85.2524414
		c5.9208984,17.496582,28.8486328,85.2524414,28.8486328,85.2524414c0.5449219,1.6108398,2.0498047,2.7011719,3.75,2.7177734
		c0,0,70.4755859,0.6806641,89.3095703,0.8623047c-15.2451172,11.0263672-72.0498047,52.1113281-72.0498047,52.1113281
		c-1.0595703,0.7666016-1.65625,1.9824219-1.65625,3.2412109c0,0.4042969,0.0615234,0.8125,0.1884766,1.2119141
		c0,0,21.5742188,67.8320312,27.1259766,85.2880859c-15.0507812-10.4013672-73.2421875-50.6162109-73.2421875-50.6162109
		c-1.3686523-0.9453125-3.1801758-0.9453125-4.5483398,0c0,0-58.1914062,40.2148438-73.2426758,50.6162109
		c5.5522461-17.4560547,27.1269531-85.2871094,27.1269531-85.2871094c0.1269531-0.4003906,0.1884766-0.8085938,0.1884766-1.2119141
		c0-1.2597656-0.5966797-2.4755859-1.65625-3.2421875c0,0-56.8046875-41.0849609-72.0498047-52.1113281
		C35.027832,105.1303711,105.503418,104.449707,105.503418,104.449707z"/>
	<linearGradient id="XMLID_2_" gradientUnits="userSpaceOnUse" x1="84.1044922" y1="97.1005859" x2="203.3731995" y2="216.3647003">
		<stop  offset="0" style="stop-color:#E1BF7F"/>
		<stop  offset="0.0772037" style="stop-color:#E3C283"/>
		<stop  offset="0.1580759" style="stop-color:#E7CD90"/>
		<stop  offset="0.2403868" style="stop-color:#EFDEA5"/>
		<stop  offset="0.241573" style="stop-color:#EFDEA5"/>
		<stop  offset="0.4680953" style="stop-color:#E8CE92"/>
		<stop  offset="0.6516849" style="stop-color:#E1BF7F"/>
	</linearGradient>
	<polygon fill="url(#XMLID_2_)" points="138.1010742,42.7504883 160.8686523,112.8237305 234.5483398,112.8237305 
		174.9399414,156.1313477 197.7084961,226.2045898 138.1010742,182.8969727 78.4931641,226.2045898 101.2612305,156.1313477 
		41.6533203,112.8237305 115.3330078,112.8237305 	"/>
</g>
</svg>
