<?xml version="1.0" encoding="iso-8859-1"?>
<!-- Generator: Adobe Illustrator 12.0.1, SVG Export Plug-In . SVG Version: 6.00 Build 51448)  -->
<!DOCTYPE svg PUBLIC "-//W3C//DTD SVG 1.0//EN" "http://www.w3.org/TR/2001/REC-SVG-20010904/DTD/svg10.dtd" [
	<!ENTITY ns_svg "http://www.w3.org/2000/svg">
	<!ENTITY ns_xlink "http://www.w3.org/1999/xlink">
]>
<svg  version="1.0" id="Folder__x28_Closed_x29_" xmlns="&ns_svg;" xmlns:xlink="&ns_xlink;" width="274" height="230.1425781"
	 viewBox="0 0 274 230.1425781" overflow="visible" enable-background="new 0 0 274 230.1425781" xml:space="preserve">
<g>
	<linearGradient id="XMLID_4_" gradientUnits="userSpaceOnUse" x1="136.9995117" y1="10.0117188" x2="136.9995117" y2="32.9129791">
		<stop  offset="0" style="stop-color:#EEDBA1"/>
		<stop  offset="1" style="stop-color:#E1BF7F"/>
	</linearGradient>
	<path fill="url(#XMLID_4_)" enable-background="new    " d="M259.7861328,29.6474609H141.4443359
		C131.0302734,18.5507812,127.125,14.8579102,125.1010742,12.8339844
		c-9.3310547-9.3310547-17.7041016-8.8291016-23.3496094-8.8291016H14.2143555C8.5683594,4.0048828,4,8.578125,4,14.2192383
		v199.7094727c0,5.6455078,4.5683594,10.2138672,10.2143555,10.2138672h245.5717773
		c5.6357422,0,10.2138672-4.5683594,10.2138672-10.2138672V39.8618164C270,34.2211914,265.421875,29.6474609,259.7861328,29.6474609
		z"/>
	<path fill="#D48F44" d="M102.5581055,0.0024414l-0.8066406,0.0024414H14.2143555C6.3764648,0.0048828,0,6.3813477,0,14.2192383
		v199.7094727c0,7.8378906,6.3764648,14.2138672,14.2143555,14.2138672h245.5717773
		c7.8378906,0,14.2138672-6.3759766,14.2138672-14.2138672V39.8618164c0-7.8378906-6.3759766-14.2143555-14.2138672-14.2143555
		c0,0-113.2626953,0-116.6157227,0c-7.9868164-8.480957-11.9790039-12.4223633-14.1450195-14.5576172l-1.0957031-1.0844727
		C117.8632812-0.0605469,108.2822266-0.0209961,102.5581055,0.0024414z M8,213.9287109V14.2192383
		c0-3.4267578,2.7875977-6.2143555,6.2143555-6.2143555h87.5371094l0.8393555-0.0024414
		c5.3339844-0.0219727,11.9726562-0.0493164,19.6816406,7.6601562l1.137207,1.1254883
		c2.2368164,2.2041016,6.3999023,6.3076172,15.1181641,15.5966797l1.1850586,1.2626953h120.0732422
		c3.4267578,0,6.2138672,2.7875977,6.2138672,6.2143555v174.0668945c0,3.4267578-2.7871094,6.2138672-6.2138672,6.2138672
		H14.2143555C10.7875977,220.1425781,8,217.3554688,8,213.9287109z"/>
	<linearGradient id="XMLID_5_" gradientUnits="userSpaceOnUse" x1="64.7426758" y1="16.1757812" x2="64.7426758" y2="47.7864227">
		<stop  offset="0" style="stop-color:#FFFFFF"/>
		<stop  offset="1" style="stop-color:#EFDBB9"/>
	</linearGradient>
	<path fill="url(#XMLID_5_)" d="M114.0576172,52.0761719V20.2016602c0-2.7612305-2.2387695-5-5-5H20.4272461
		c-2.7612305,0-5,2.2387695-5,5v31.8745117H114.0576172z"/>
	<path opacity="0.5" fill="#D48F44" d="M270,204.2792969c0,5.6445312-4.578125,10.2128906-10.2138672,10.2128906H14.2143555
		C8.5683594,214.4921875,4,209.9238281,4,204.2792969V50.6396484c0-5.640625,4.5683594-10.2143555,10.2143555-10.2143555
		h245.5717773C265.421875,40.425293,270,44.9990234,270,50.6396484V204.2792969z"/>
	<path fill="#EFDEA5" enable-background="new    " d="M270,215.9287109c0,5.6455078-4.578125,10.2138672-10.2138672,10.2138672
		H14.2143555C8.5683594,226.1425781,4,221.5742188,4,215.9287109V62.2905273c0-5.640625,4.5683594-10.2143555,10.2143555-10.2143555
		h245.5717773C265.421875,52.0761719,270,56.6499023,270,62.2905273V215.9287109z"/>
	<path fill="#D48F44" d="M14.2143555,48.0761719C6.3764648,48.0761719,0,54.4526367,0,62.2905273v153.6381836
		c0,7.8378906,6.3764648,14.2138672,14.2143555,14.2138672h245.5717773c7.8378906,0,14.2138672-6.3759766,14.2138672-14.2138672
		V62.2905273c0-7.8378906-6.3759766-14.2143555-14.2138672-14.2143555H14.2143555z M8,215.9287109V62.2905273
		c0-3.4267578,2.7875977-6.2143555,6.2143555-6.2143555h245.5717773c3.4267578,0,6.2138672,2.7875977,6.2138672,6.2143555
		v153.6381836c0,3.4267578-2.7871094,6.2138672-6.2138672,6.2138672H14.2143555C10.7875977,222.1425781,8,219.3554688,8,215.9287109
		z"/>
	<radialGradient id="XMLID_6_" cx="28.6748047" cy="64.5761719" r="277.4611511" gradientUnits="userSpaceOnUse">
		<stop  offset="0" style="stop-color:#EEDBA1"/>
		<stop  offset="1" style="stop-color:#E1BF7F"/>
	</radialGradient>
	<path fill="url(#XMLID_6_)" d="M257.9355469,209.9736328c0,2.2089844-1.7910156,4-4,4H20.1020508c-2.2089844,0-4-1.7910156-4-4
		V68.1879883c0-2.2089844,1.7910156-4,4-4h233.8334961c2.2089844,0,4,1.7910156,4,4V209.9736328z"/>
</g>
</svg>
