<?xml version="1.0" encoding="iso-8859-1"?>
<!-- Generator: Adobe Illustrator 12.0.1, SVG Export Plug-In . SVG Version: 6.00 Build 51448)  -->
<!DOCTYPE svg PUBLIC "-//W3C//DTD SVG 1.0//EN" "http://www.w3.org/TR/2001/REC-SVG-20010904/DTD/svg10.dtd" [
	<!ENTITY ns_svg "http://www.w3.org/2000/svg">
	<!ENTITY ns_xlink "http://www.w3.org/1999/xlink">
]>
<svg  version="1.0" id="Folder__x28_Open_x29_" xmlns="&ns_svg;" xmlns:xlink="&ns_xlink;" width="296" height="270.5830078"
	 viewBox="0 0 296 270.5830078" overflow="visible" enable-background="new 0 0 296 270.5830078" xml:space="preserve">
<g>
	<linearGradient id="XMLID_5_" gradientUnits="userSpaceOnUse" x1="136.9995117" y1="50.4521484" x2="136.9995117" y2="73.3534088">
		<stop  offset="0" style="stop-color:#EEDBA1"/>
		<stop  offset="1" style="stop-color:#E1BF7F"/>
	</linearGradient>
	<path fill="url(#XMLID_5_)" enable-background="new    " d="M259.7861328,70.0878906H141.4443359
		C131.0302734,58.9912109,127.125,55.2983398,125.1010742,53.2744141
		c-9.3310547-9.3310547-17.7041016-8.8291016-23.3496094-8.8291016H14.2143555C8.5683594,44.4453125,4,49.0185547,4,54.659668
		v199.7094727c0,5.6455078,4.5683594,10.2138672,10.2143555,10.2138672h245.5717773
		c5.6357422,0,10.2138672-4.5683594,10.2138672-10.2138672V80.3022461C270,74.6616211,265.421875,70.0878906,259.7861328,70.0878906
		z"/>
	<path fill="#D48F44" d="M102.5581055,40.4428711l-0.8066406,0.0024414H14.2143555C6.3764648,40.4453125,0,46.8217773,0,54.659668
		v199.7094727c0,7.8378906,6.3764648,14.2138672,14.2143555,14.2138672h245.5717773
		c7.8378906,0,14.2138672-6.3759766,14.2138672-14.2138672V80.3022461c0-7.8378906-6.3759766-14.2143555-14.2138672-14.2143555
		c0,0-113.2626953,0-116.6157227,0c-7.9868164-8.480957-11.9790039-12.4223633-14.1450195-14.5576172l-1.0957031-1.0844727
		C117.8632812,40.3798828,108.2822266,40.4194336,102.5581055,40.4428711z M8,254.3691406V54.659668
		c0-3.4267578,2.7875977-6.2143555,6.2143555-6.2143555h87.5371094l0.8393555-0.0024414
		c5.3339844-0.0219727,11.9726562-0.0493164,19.6816406,7.6601562l1.137207,1.1254883
		c2.2368164,2.2041016,6.3999023,6.3076172,15.1181641,15.5966797l1.1850586,1.2626953h120.0732422
		c3.4267578,0,6.2138672,2.7875977,6.2138672,6.2143555v174.0668945c0,3.4267578-2.7871094,6.2138672-6.2138672,6.2138672
		H14.2143555C10.7875977,260.5830078,8,257.7958984,8,254.3691406z"/>
	<linearGradient id="XMLID_6_" gradientUnits="userSpaceOnUse" x1="37.7084961" y1="56.6162109" x2="37.7084961" y2="88.2268524">
		<stop  offset="0" style="stop-color:#FFFFFF"/>
		<stop  offset="1" style="stop-color:#EFDBB9"/>
	</linearGradient>
	<path fill="url(#XMLID_6_)" d="M15.4272461,60.6420898v31.8745117h44.5620117V55.6420898H20.4272461
		C17.6660156,55.6420898,15.4272461,57.8808594,15.4272461,60.6420898z"/>
	<path fill="#EFDEA5" enable-background="new    " d="M270,256.3691406c0,5.6455078-4.578125,10.2138672-10.2138672,10.2138672
		H14.2143555C8.5683594,266.5830078,4,262.0146484,4,256.3691406L26,102.730957
		c0-5.640625,4.5683594-10.2143555,10.2143555-10.2143555h245.5717773C287.421875,92.5166016,292,97.090332,292,102.730957
		L270,256.3691406z"/>
	<path fill="#D48F44" d="M36.2143555,88.5166016C28.3764648,88.5166016,22,94.8930664,22,102.730957l0.0405273-0.5668945
		L0,256.0839844v0.2851562c0,7.8378906,6.3764648,14.2138672,14.2143555,14.2138672h245.5717773
		c7.8378906,0,14.2138672-6.3759766,14.2138672-14.2138672l-0.0400391,0.5673828L296,103.0161133v-0.2851562
		c0-7.8378906-6.3759766-14.2143555-14.2138672-14.2143555H36.2143555z M30,103.0161133v-0.2851562
		c0-3.4267578,2.7875977-6.2143555,6.2143555-6.2143555h245.5717773c3.3691406,0,6.1064453,2.6992188,6.1972656,6.0473633
		C287.8691406,103.359375,266,256.0839844,266,256.0839844v0.2851562c0,3.4267578-2.7871094,6.2138672-6.2138672,6.2138672
		H14.2143555c-3.3696289,0-6.1064453-2.6992188-6.1972656-6.046875C8.1308594,255.7402344,30,103.0161133,30,103.0161133z"/>
	<path fill="#FFFFFF" enable-background="new    " d="M214.2460938,4.0009766L63.9892578,4.0698242v84.4467773h180.6123047
		V33.1835938L214.2460938,4.0009766z"/>
	<linearGradient id="XMLID_7_" gradientUnits="userSpaceOnUse" x1="97.9194336" y1="4.4697266" x2="267.9428406" y2="174.4931488">
		<stop  offset="0" style="stop-color:#FFFFFF"/>
		<stop  offset="1" style="stop-color:#CCCCCC"/>
	</linearGradient>
	<path fill="url(#XMLID_7_)" d="M214.4238281,33.1318359V16.46875H76.1137695v72.0478516h156.3198242V33.1318359H214.4238281z"/>
	<path fill="#AFAFAF" d="M215.8564453,0L59.9892578,0.0717773v88.4448242h8V8.0678711
		c6.7841797-0.0029297,117.3359375-0.0537109,140.4716797-0.0639648V38.5h32.140625v50.0166016h8V31.4804688L215.8564453,0z
		 M216.4609375,30.5V11.6791992C221.6035156,16.6225586,230.5517578,25.2255859,236.0380859,30.5H216.4609375z"/>
	<g>
		<path opacity="0.5" fill="#D48F44" d="M36.2143555,88.5166016h23.7749023v-5.8764648H28.4125977
			c-5.6459961,0-10.2470703,4.215332-11.3916016,10.2143555C16.3178711,96.5410156,11.5620117,130.03125,8,155.3066406v44.9101562
			l14.0224609-97.925293C22.2573242,94.6582031,28.5249023,88.5166016,36.2143555,88.5166016z"/>
		<rect x="248.6015625" y="82.6401367" opacity="0.5" fill="#D48F44" width="17.3984375" height="5.8764648"/>
	</g>
	<radialGradient id="XMLID_8_" cx="29.7666016" cy="105.0166016" r="294.5794678" gradientUnits="userSpaceOnUse">
		<stop  offset="0" style="stop-color:#EEDBA1"/>
		<stop  offset="1" style="stop-color:#E1BF7F"/>
	</radialGradient>
	<path fill="url(#XMLID_8_)" d="M257.9355469,250.4140625c0,2.2089844-1.7910156,4-4,4H20.1020508c-2.2089844,0-4-1.7910156-4-4
		l21-141.7856445c0-2.2089844,1.7910156-4,4-4h233.8334961c2.2089844,0,4,1.7910156,4,4L257.9355469,250.4140625z"/>
	<rect x="216.4941406" y="38.4711914" opacity="0.3" fill="#AFAFAF" width="24.1064453" height="8.0004883"/>
</g>
</svg>
