<?xml version="1.0" encoding="iso-8859-1"?>
<!-- Generator: Adobe Illustrator 12.0.1, SVG Export Plug-In . SVG Version: 6.00 Build 51448)  -->
<!DOCTYPE svg PUBLIC "-//W3C//DTD SVG 1.0//EN" "http://www.w3.org/TR/2001/REC-SVG-20010904/DTD/svg10.dtd" [
	<!ENTITY ns_svg "http://www.w3.org/2000/svg">
	<!ENTITY ns_xlink "http://www.w3.org/1999/xlink">
]>
<svg  version="1.0" id="Group" xmlns="&ns_svg;" xmlns:xlink="&ns_xlink;" width="284.3925781" height="274.269043"
	 viewBox="0 0 284.3925781 274.269043" overflow="visible" enable-background="new 0 0 284.3925781 274.269043"
	 xml:space="preserve">
<g>
	<radialGradient id="XMLID_7_" cx="179.1962891" cy="109.6342773" r="103.4393311" gradientUnits="userSpaceOnUse">
		<stop  offset="0" style="stop-color:#EEDBA1"/>
		<stop  offset="1" style="stop-color:#E1BF7F"/>
	</radialGradient>
	<path fill="url(#XMLID_7_)" enable-background="new    " d="M220.0322266,129.6948242
		c0,0-8.7109375-8.9482422-8.7109375-15.5332031s19.1826172-14.9550781,19.1826172-47.0869141v-8.7675781
		C230.5039062,29.9711914,207.5322266,4,179.1962891,4s-51.3076172,25.9711914-51.3076172,54.3071289v8.7675781
		c0,32.1318359,19.1816406,40.5019531,19.1816406,47.0869141s-8.7099609,15.5332031-8.7099609,15.5332031
		C110.28125,131.1704102,78,155.7807617,78,183.6235352v6.1376953
		c19.4833984,14.5976562,57.4951172,25.5078125,101.1962891,25.5078125c43.7021484,0,81.7128906-10.9101562,101.1962891-25.5078125
		v-6.1376953C280.3925781,155.7807617,248.1103516,131.1704102,220.0322266,129.6948242z"/>
	<path fill="#D49D3B" d="M139.9804688,17.8110352c-10.2265625,11.0527344-16.0917969,25.8129883-16.0917969,40.4960938v8.7675781
		c0,23.5717773,9.8198242,35.3037109,15.6870117,42.3129883c1.418457,1.6948242,3.3618164,4.0161133,3.4985352,4.8320312
		c-0.0039062,3.0205078-3.6152344,8.2719727-6.6347656,11.6542969C107.1728516,128.2973633,74,153.4868164,74,183.6235352v8.1386719
		l1.6015625,1.2001953c21.6572266,16.2265625,61.3525391,26.3066406,103.5947266,26.3066406
		s81.9375-10.0800781,103.5947266-26.3066406l1.6015625-1.2001953v-8.1386719
		c0-30.1367188-33.1728516-55.3261719-62.4394531-57.7495117c-3.0195312-3.3828125-6.6318359-8.6396484-6.6318359-11.7124023
		c0.1328125-0.7578125,2.0761719-3.0791016,3.4951172-4.7739258c5.8671875-7.0092773,15.6875-18.7412109,15.6875-42.3129883
		v-8.7675781c0-14.6831055-5.8652344-29.4433594-16.0917969-40.4960938C207.7851562,6.3251953,193.8574219,0,179.1962891,0
		S150.6074219,6.3251953,139.9804688,17.8110352z M82,183.6235352c0-26.0136719,30.9472656-48.5878906,56.5703125-49.934082
		l1.5639648-0.0825195l1.0922852-1.1220703c1.0078125-1.0351562,9.84375-10.3432617,9.84375-18.3232422
		c0-3.5053711-2.3652344-6.3310547-5.3603516-9.9086914c-5.503418-6.5756836-13.8212891-16.5126953-13.8212891-37.1782227
		v-8.7675781C131.8886719,31.5078125,153.9951172,8,179.1962891,8s47.3076172,23.5078125,47.3076172,50.3071289v8.7675781
		c0,20.6655273-8.3183594,30.6025391-13.8222656,37.1782227c-2.9951172,3.5776367-5.3603516,6.4033203-5.3603516,9.9086914
		c0,7.9799805,8.8369141,17.2880859,9.8447266,18.3232422l1.0927734,1.1220703l1.5634766,0.0825195
		c25.6230469,1.3461914,56.5703125,23.9204102,56.5703125,49.934082c0,0,0,2.2275391,0,4.0458984
		c-20.4394531,14.3681641-58.2207031,23.5996094-97.1962891,23.5996094S102.4394531,202.0375977,82,187.6694336
		C82,185.8510742,82,183.6235352,82,183.6235352z"/>
	
		<radialGradient id="XMLID_8_" cx="167.4130859" cy="31.0966797" r="68.0153809" gradientTransform="matrix(1 0 0 1.0293 0 -1.7547607)" gradientUnits="userSpaceOnUse">
		<stop  offset="0" style="stop-color:#F7EDD1"/>
		<stop  offset="1" style="stop-color:#EEDBA1"/>
	</radialGradient>
	<path opacity="0.7" fill="url(#XMLID_8_)" d="M218.7958984,69.8647461c0,21.4638672-17.9052734,38.8632812-38.7587891,38.8632812
		l0,0c-20.8544922,0-38.7597656-17.3994141-38.7597656-38.8632812V54.5483398
		c0-21.4638672,17.9052734-38.8637695,38.7597656-38.8637695l0,0c20.8535156,0,38.7587891,17.3999023,38.7587891,38.8637695
		V69.8647461z"/>
	<linearGradient id="XMLID_9_" gradientUnits="userSpaceOnUse" x1="179.75" y1="137.2651367" x2="179.75" y2="161.2651215">
		<stop  offset="0" style="stop-color:#EEDBA1"/>
		<stop  offset="1" style="stop-color:#F7EDD1"/>
	</linearGradient>
	<path opacity="0.3" fill="url(#XMLID_9_)" d="M242.2460938,149.3168945c0,5.9570312-26.328125,13.0947266-62.4980469,13.0947266
		c-36.1660156,0-62.4936523-7.1376953-62.4936523-13.0947266c0-5.9306641,26.3276367-12.7607422,62.4936523-12.7607422
		C215.9179688,136.5561523,242.2460938,143.3862305,242.2460938,149.3168945z"/>
	<radialGradient id="XMLID_10_" cx="105.1962891" cy="164.6342773" r="103.4393311" gradientUnits="userSpaceOnUse">
		<stop  offset="0" style="stop-color:#E1A655"/>
		<stop  offset="1" style="stop-color:#D48049"/>
	</radialGradient>
	<path fill="url(#XMLID_10_)" enable-background="new    " d="M146.0322266,184.6948242
		c0,0-8.7109375-8.9482422-8.7109375-15.5332031s19.1826172-14.9550781,19.1826172-47.0869141v-8.7675781
		C156.5039062,84.9711914,133.5322266,59,105.1962891,59s-51.3076172,25.9711914-51.3076172,54.3071289v8.7675781
		c0,32.1318359,19.1821289,40.5019531,19.1821289,47.0869141s-8.7104492,15.5332031-8.7104492,15.5332031
		C36.2817383,186.1704102,4,210.7807617,4,238.6235352v6.1376953
		c19.4833984,14.5976562,57.4951172,25.5078125,101.1962891,25.5078125c43.7021484,0,81.7128906-10.9101562,101.1962891-25.5078125
		v-6.1376953C206.3925781,210.7807617,174.1103516,186.1704102,146.0322266,184.6948242z"/>
	<path fill="#BE5B33" d="M65.9804688,72.8110352c-10.2265625,11.0522461-16.0917969,25.8129883-16.0917969,40.4960938v8.7675781
		c0,23.5722656,9.8203125,35.3037109,15.6875,42.3134766c1.418457,1.6943359,3.3613281,4.015625,3.4980469,4.8320312
		c-0.0029297,3.0195312-3.6152344,8.2714844-6.6347656,11.6542969C33.1728516,183.2973633,0,208.4868164,0,238.6235352v8.1386719
		l1.6015625,1.2001953c21.6572266,16.2265625,61.3525391,26.3066406,103.5947266,26.3066406
		s81.9375-10.0800781,103.5947266-26.3066406l1.6015625-1.2001953v-8.1386719
		c0-30.1367188-33.1728516-55.3261719-62.4394531-57.7490234c-3.0195312-3.3837891-6.6318359-8.6396484-6.6318359-11.7128906
		c0.1333008-0.7578125,2.0761719-3.0791016,3.4951172-4.7734375c5.8671875-7.0097656,15.6875-18.7412109,15.6875-42.3134766
		v-8.7675781c0-14.6831055-5.8652344-29.4438477-16.0917969-40.4960938C133.784668,61.3251953,119.8574219,55,105.1962891,55
		C90.534668,55,76.6079102,61.3251953,65.9804688,72.8110352z M8,238.6235352
		c0-26.0136719,30.9472656-48.5878906,56.5703125-49.9345703l1.5639648-0.0820312l1.0922852-1.1220703
		c1.0078125-1.0351562,9.8442383-10.34375,9.8442383-18.3232422c0-3.5048828-2.3652344-6.3310547-5.3603516-9.9091797
		c-5.5039062-6.5751953-13.8217773-16.5117188-13.8217773-37.1777344v-8.7675781
		C57.8886719,86.5078125,79.9951172,63,105.1962891,63s47.3076172,23.5078125,47.3076172,50.3071289v8.7675781
		c0,20.6660156-8.3183594,30.6025391-13.8222656,37.1777344c-2.9951172,3.578125-5.3603516,6.4042969-5.3603516,9.9091797
		c0,7.9804688,8.8369141,17.2880859,9.8447266,18.3232422l1.0927734,1.1220703l1.5634766,0.0820312
		c25.6230469,1.3466797,56.5703125,23.9208984,56.5703125,49.9345703c0,0,0,2.2275391,0,4.0458984
		c-20.4394531,14.3681641-58.2207031,23.5996094-97.1962891,23.5996094S28.4394531,257.0375977,8,242.6694336
		C8,240.8510742,8,238.6235352,8,238.6235352z"/>
	<path opacity="0.5" fill="#D49D3B" d="M156.8173828,176.9223633c0,0-6.4101562-2.1591797-6.4101562-8.2949219
		c0-6.1337891,17.0849609-16.8466797,17.0849609-46.7788086v-8.1679688c0-19.5400391-11.7353516-37.8525391-28.5356445-46.0541992
		c1.8959961,1.5927734,3.7231445,3.3125,5.4555664,5.1845703c10.2265625,11.0522461,16.0917969,25.8129883,16.0917969,40.4960938
		v8.7675781c0,23.5722656-9.8203125,35.3037109-15.6875,42.3134766c-1.4189453,1.6943359-3.3618164,4.015625-3.4951172,4.7734375
		c0,3.0732422,3.6123047,8.3291016,6.6318359,11.7128906c20.8085938,1.7226562,43.5791016,14.9589844,55.0097656,33.2949219
		c2.8896484-0.2685547,5.7431641-0.5800781,8.5488281-0.9404297
		C201.7324219,193.9467773,177.2294922,177.9946289,156.8173828,176.9223633z"/>
	
		<radialGradient id="XMLID_11_" cx="92.4121094" cy="85.5029297" r="68.01548" gradientTransform="matrix(1 0 0 1.0293 0 -1.7547607)" gradientUnits="userSpaceOnUse">
		<stop  offset="0" style="stop-color:#E9C685"/>
		<stop  offset="1" style="stop-color:#DBA059"/>
	</radialGradient>
	<path opacity="0.7" fill="url(#XMLID_11_)" d="M143.7958984,125.8647461c0,21.4638672-17.9052734,38.8632812-38.7592773,38.8632812
		l0,0c-20.8540039,0-38.7592773-17.3994141-38.7592773-38.8632812v-15.3164062
		c0-21.4638672,17.9052734-38.8637695,38.7592773-38.8637695l0,0c20.8540039,0,38.7592773,17.3999023,38.7592773,38.8637695
		V125.8647461z"/>
	
		<linearGradient id="XMLID_12_" gradientUnits="userSpaceOnUse" x1="104.7504883" y1="217.5649414" x2="104.7504883" y2="194.0678711">
		<stop  offset="0" style="stop-color:#E9C685"/>
		<stop  offset="1" style="stop-color:#DBA059"/>
	</linearGradient>
	<path opacity="0.3" fill="url(#XMLID_12_)" d="M167.2460938,205.3168945c0,5.9570312-26.328125,13.0947266-62.4975586,13.0947266
		c-36.1660156,0-62.4941406-7.1376953-62.4941406-13.0947266c0-5.9306641,26.328125-12.7607422,62.4941406-12.7607422
		C140.9179688,192.5561523,167.2460938,199.3862305,167.2460938,205.3168945z"/>
</g>
</svg>
