<?xml version="1.0" encoding="iso-8859-1"?>
<!-- Generator: Adobe Illustrator 12.0.1, SVG Export Plug-In . SVG Version: 6.00 Build 51448)  -->
<!DOCTYPE svg PUBLIC "-//W3C//DTD SVG 1.0//EN" "http://www.w3.org/TR/2001/REC-SVG-20010904/DTD/svg10.dtd" [
	<!ENTITY ns_svg "http://www.w3.org/2000/svg">
	<!ENTITY ns_xlink "http://www.w3.org/1999/xlink">
]>
<svg  version="1.0" id="Hard_Drive" xmlns="&ns_svg;" xmlns:xlink="&ns_xlink;" width="291.4790039" height="292.972168"
	 viewBox="0 0 291.4790039 292.972168" overflow="visible" enable-background="new 0 0 291.4790039 292.972168"
	 xml:space="preserve">
<g>
	<path fill="#FFFFFF" enable-background="new    " d="M287.4790039,204.1049805c0,0-29.9511719-168.9389648-31.6455078-179.0078125
		S242.6157227,4,232.7387695,4H58.7416992c-10.3911133,0-21.590332,13.1655273-23.0961914,21.097168S4,204.1049805,4,204.1049805
		c0,7.6181641,0,63.7773438,0,63.7773438c0,10.0517578,10.8793945,21.0898438,21.097168,21.0898438h241.2851562
		c10.2167969,0,21.0966797-11.2021484,21.0966797-21.0898438
		C287.4790039,267.8823242,287.4790039,211.7631836,287.4790039,204.1049805z"/>
	<path fill="#8B8B8B" d="M58.7416992,0C46.3754883,0,33.5415039,14.7348633,31.7158203,24.3510742
		C30.222168,32.2182617,1.2915039,196.4243164,0.0605469,203.4106445L0,203.7553711v64.1269531
		c0,12.4277344,12.6660156,25.0898438,25.097168,25.0898438h241.2851562c12.1962891,0,25.0966797-12.8964844,25.0966797-25.0898438
		V203.753418l-0.0615234-0.3466797c-0.2998047-1.6894531-29.9677734-169.0366211-31.6396484-178.9731445
		C257.7026367,12.1025391,244.3100586,0,232.7387695,0H58.7416992z M39.5751953,25.8432617
		C40.8193359,19.2900391,50.7597656,8,58.7416992,8h173.9970703c7.703125,0,17.7255859,9.2954102,19.1503906,17.7607422
		c1.6494141,9.8007812,30.3261719,171.565918,31.5898438,178.6958008c0,0.6962891,0,63.4257812,0,63.4257812
		c0,7.8261719-9.2675781,17.0898438-17.0966797,17.0898438H25.097168C17.1079102,284.972168,8,275.8686523,8,267.8823242
		c0,0,0-62.7363281,0-63.4277344C9.2548828,197.3325195,38.1162109,33.5273438,39.5751953,25.8432617z"/>
	<linearGradient id="XMLID_14_" gradientUnits="userSpaceOnUse" x1="18.1108398" y1="104.487793" x2="273.3676758" y2="104.487793">
		<stop  offset="0" style="stop-color:#FFFFFF"/>
		<stop  offset="1" style="stop-color:#CBCBCB"/>
	</linearGradient>
	<path fill="url(#XMLID_14_)" d="M273.3676758,193.3520508c-3.9785156-22.4921875-27.1699219-153.6352539-28.5712891-161.9594727
		c-1.5322266-9.1074219-7.8974609-15.769043-16.8320312-15.769043H64.2050781
		c-9.3984375,0-16.0356445,8.5942383-17.3974609,15.7685547c-1.2460938,6.5615234-24.6982422,139.3203125-28.6967773,161.9599609
		H273.3676758z"/>
	<linearGradient id="XMLID_15_" gradientUnits="userSpaceOnUse" x1="20.1538086" y1="247.862793" x2="272.6420898" y2="247.862793">
		<stop  offset="0" style="stop-color:#FFFFFF"/>
		<stop  offset="1" style="stop-color:#CBCBCB"/>
	</linearGradient>
	<path fill="url(#XMLID_15_)" d="M272.6420898,261.1166992c0,9.1015625-4.7412109,13.2246094-16.9628906,13.2246094H37.0991211
		c-11.5410156,0-16.9453125-3.7910156-16.9453125-13.2246094v-39.7324219h252.4882812V261.1166992z"/>
	<path opacity="0.3" fill="#737373" d="M261.4731445,236.0571289c0,3.0195312-2.4404297,5.4609375-5.4609375,5.4609375l0,0
		c-3.0126953,0-5.453125-2.4414062-5.453125-5.4609375l0,0c0-3.0126953,2.4404297-5.4541016,5.453125-5.4541016l0,0
		C259.0327148,230.6030273,261.4731445,233.0444336,261.4731445,236.0571289L261.4731445,236.0571289z"/>
	<path opacity="0.6" fill="#FFFFFF" d="M263.4711914,238.2143555c0,3.0195312-2.4404297,5.4609375-5.4609375,5.4609375l0,0
		c-3.0126953,0-5.453125-2.4414062-5.453125-5.4609375l0,0c0-3.0126953,2.4404297-5.4541016,5.453125-5.4541016l0,0
		C261.0307617,232.7602539,263.4711914,235.2016602,263.4711914,238.2143555L263.4711914,238.2143555z"/>
	<path opacity="0.5" fill="#737373" d="M253.1206055,174.4438477c0,2.5078125-2.4863281,4.546875-5.5634766,4.546875l0,0
		c-3.0673828,0-5.5546875-2.0390625-5.5546875-4.546875l0,0c0-2.5078125,2.4873047-4.5390625,5.5546875-4.5390625l0,0
		C250.6342773,169.9047852,253.1206055,171.9360352,253.1206055,174.4438477L253.1206055,174.4438477z"/>
	
		<radialGradient id="XMLID_16_" cx="244.6098633" cy="203.9331055" r="6.3467531" gradientTransform="matrix(1 0 0 0.8173 0 4.985199)" gradientUnits="userSpaceOnUse">
		<stop  offset="0.258427" style="stop-color:#FFFFFF"/>
		<stop  offset="0.926966" style="stop-color:#DBDBDB"/>
		<stop  offset="0.966292" style="stop-color:#E3E3E3"/>
	</radialGradient>
	<path fill="url(#XMLID_16_)" d="M251.1137695,172.2954102c0,2.5058594-2.4960938,4.5390625-5.5527344,4.5390625l0,0
		c-3.0673828,0-5.5537109-2.0332031-5.5537109-4.5390625l0,0c0-2.515625,2.4863281-4.546875,5.5537109-4.546875l0,0
		C248.6176758,167.7485352,251.1137695,169.7797852,251.1137695,172.2954102L251.1137695,172.2954102z"/>
	<path opacity="0.5" fill="#737373" d="M53.0703125,174.4438477c0,2.5078125-2.4873047,4.546875-5.5644531,4.546875l0,0
		c-3.0673828,0-5.5537109-2.0390625-5.5537109-4.546875l0,0c0-2.5078125,2.4863281-4.5390625,5.5537109-4.5390625l0,0
		C50.5830078,169.9047852,53.0703125,171.9360352,53.0703125,174.4438477L53.0703125,174.4438477z"/>
	
		<radialGradient id="XMLID_17_" cx="44.559082" cy="203.9331055" r="6.346508" gradientTransform="matrix(1 0 0 0.8173 0 4.985199)" gradientUnits="userSpaceOnUse">
		<stop  offset="0.258427" style="stop-color:#FFFFFF"/>
		<stop  offset="0.926966" style="stop-color:#DBDBDB"/>
		<stop  offset="0.966292" style="stop-color:#E3E3E3"/>
	</radialGradient>
	<path fill="url(#XMLID_17_)" d="M51.0625,172.2954102c0,2.5058594-2.4960938,4.5390625-5.5527344,4.5390625l0,0
		c-3.0673828,0-5.5537109-2.0332031-5.5537109-4.5390625l0,0c0-2.515625,2.4863281-4.546875,5.5537109-4.546875l0,0
		C48.5664062,167.7485352,51.0625,169.7797852,51.0625,172.2954102L51.0625,172.2954102z"/>
	<radialGradient id="XMLID_18_" cx="255.2905273" cy="235.215332" r="3.8048437" gradientUnits="userSpaceOnUse">
		<stop  offset="0" style="stop-color:#EEDBA1"/>
		<stop  offset="1" style="stop-color:#E1BF7F"/>
	</radialGradient>
	<path fill="url(#XMLID_18_)" d="M262.4418945,237.1508789c0,2.9560547-2.3876953,5.3525391-5.3515625,5.3525391l0,0
		c-2.9560547,0-5.3535156-2.3964844-5.3535156-5.3525391l0,0c0-2.9638672,2.3974609-5.3623047,5.3535156-5.3623047l0,0
		C260.0541992,231.7885742,262.4418945,234.1870117,262.4418945,237.1508789L262.4418945,237.1508789z"/>
	<rect x="96.1826172" y="221.3842773" fill="#FFFFFF" width="10.0683594" height="52.9570312"/>
	<rect x="74.9375" y="221.3842773" fill="#FFFFFF" width="10.043457" height="52.9570312"/>
	<rect x="53.8408203" y="221.3842773" fill="#FFFFFF" width="10.043457" height="52.9570312"/>
	<path fill="#FFFFFF" d="M32.7436523,274.1196289c1.3432617,0.1445312,2.7875977,0.2216797,4.3554688,0.2216797h5.6879883
		v-52.9570312h-10.043457V274.1196289z"/>
	<linearGradient id="XMLID_19_" gradientUnits="userSpaceOnUse" x1="98.7133789" y1="247.862793" x2="93.7763672" y2="247.862793">
		<stop  offset="0" style="stop-color:#A8A8A8"/>
		<stop  offset="1" style="stop-color:#959595"/>
	</linearGradient>
	<rect x="93.809082" y="221.3842773" fill="url(#XMLID_19_)" width="10.0683594" height="52.9570312"/>
	<linearGradient id="XMLID_20_" gradientUnits="userSpaceOnUse" x1="77.4335938" y1="247.862793" x2="72.496582" y2="247.862793">
		<stop  offset="0" style="stop-color:#A8A8A8"/>
		<stop  offset="1" style="stop-color:#959595"/>
	</linearGradient>
	<rect x="72.5639648" y="221.3842773" fill="url(#XMLID_20_)" width="10.043457" height="52.9570312"/>
	<linearGradient id="XMLID_21_" gradientUnits="userSpaceOnUse" x1="56.1538086" y1="247.862793" x2="51.3867226" y2="247.862793">
		<stop  offset="0" style="stop-color:#A8A8A8"/>
		<stop  offset="1" style="stop-color:#959595"/>
	</linearGradient>
	<rect x="51.4672852" y="221.3842773" fill="url(#XMLID_21_)" width="10.043457" height="52.9570312"/>
	<linearGradient id="XMLID_22_" gradientUnits="userSpaceOnUse" x1="35.0439453" y1="247.862793" x2="30.2773399" y2="247.862793">
		<stop  offset="0" style="stop-color:#A8A8A8"/>
		<stop  offset="1" style="stop-color:#959595"/>
	</linearGradient>
	<path fill="url(#XMLID_22_)" d="M30.3701172,273.7563477c1.9555664,0.3886719,4.1845703,0.5849609,6.7290039,0.5849609h3.3144531
		v-52.9570312h-10.043457V273.7563477z"/>
	<radialGradient id="XMLID_23_" cx="176.5756836" cy="139.5810547" r="270.0498657" gradientUnits="userSpaceOnUse">
		<stop  offset="0" style="stop-color:#FFFFFF"/>
		<stop  offset="0.1464363" style="stop-color:#EEEEEE"/>
		<stop  offset="0.3348377" style="stop-color:#E0E0E0"/>
		<stop  offset="0.5708046" style="stop-color:#D8D8D8"/>
		<stop  offset="1" style="stop-color:#D6D6D6"/>
	</radialGradient>
	<ellipse fill="url(#XMLID_23_)" cx="144.8876953" cy="107.9711914" rx="97.394043" ry="59.0986328"/>
	<path fill="#FFFFFF" d="M47.4936523,107.9711914c0-32.6386719,43.6049805-59.0981445,97.3945312-59.0981445
		c29.2607422,0,55.5048828,7.8320312,73.3583984,20.2275391c-17.6162109-15.2333984-46.7763672-25.1933594-79.7739258-25.1933594
		c-53.7900391,0-97.3950195,26.4594727-97.3950195,59.0981445c0,14.8823242,9.0688477,28.4785156,24.0322266,38.8686523
		C54.0117188,132.2758789,47.4936523,120.5864258,47.4936523,107.9711914z"/>
	<path fill="#B9B9B9" d="M226.8881836,76.0717773c9.7421875,9.2016602,15.3935547,20.1499023,15.3935547,31.8994141
		c0,32.6391602-43.6044922,59.0986328-97.3935547,59.0986328c-30.3989258,0-57.5419922-8.4521484-75.402832-21.6938477
		c17.3208008,16.3608398,47.574707,27.199707,82.0014648,27.199707c53.7890625,0,97.3925781-26.4599609,97.3925781-59.0991211
		C248.8793945,99.2832031,240.6303711,86.2602539,226.8881836,76.0717773z"/>
	<path fill="#D9D9D9" d="M64.9511719,53.784668c0,0,18.9277344-20.987793,79.8950195-21.1704102
		c60.9433594-0.1826172,81.4384766,21.1704102,81.4384766,21.1704102h22.4335938
		c-2.1259766-12.0722656-3.5996094-20.4794922-3.921875-22.3920898c-1.5253906-9.0678711-7.84375-15.7060547-16.7177734-15.7636719
		H64.1103516c-9.347168,0.0585938-15.9458008,8.6132812-17.3027344,15.7631836
		c-0.2924805,1.5390625-1.8061523,10.0195312-4.003418,22.3925781H64.9511719z"/>
	<radialGradient id="XMLID_24_" cx="133.5092773" cy="102.8920898" r="29.2216549" gradientUnits="userSpaceOnUse">
		<stop  offset="0" style="stop-color:#FFFFFF"/>
		<stop  offset="1" style="stop-color:#CFCFCF"/>
	</radialGradient>
	<path fill="url(#XMLID_24_)" d="M170.7299805,108.1630859c0,8.1767578-11.5234375,14.8037109-25.7597656,14.8037109
		c-14.2368164,0-25.7700195-6.6269531-25.7700195-14.8037109c0-8.1855469,11.5332031-14.8203125,25.7700195-14.8203125
		C159.206543,93.3427734,170.7299805,99.9775391,170.7299805,108.1630859z"/>
	<path fill="#BFBFBF" d="M170.5043945,106.2290039c0.1435547,0.6333008,0.2255859,1.2783203,0.2255859,1.934082
		c0,8.1767578-11.5234375,14.8037109-25.7597656,14.8037109c-10.7460938,0-19.9487305-3.7768555-23.8168945-9.1450195
		c1.6411133,7.2680664,12.4443359,12.8793945,25.5454102,12.8793945c14.2363281,0,25.7617188-6.6240234,25.7617188-14.8017578
		C172.4604492,109.8901367,171.7631836,107.9760742,170.5043945,106.2290039z"/>
	<rect x="5.2929688" y="200.7817383" fill="#8B8B8B" width="282.152832" height="8"/>
	<path opacity="0.5" fill="#737373" d="M231.3237305,27.3608398c0,2.1801758-2.1621094,3.9541016-4.8378906,3.9541016l0,0
		c-2.6679688,0-4.8300781-1.7739258-4.8300781-3.9541016l0,0c0-2.1811523,2.1621094-3.9467773,4.8300781-3.9467773l0,0
		C229.1616211,23.4140625,231.3237305,25.1796875,231.3237305,27.3608398L231.3237305,27.3608398z"/>
	
		<radialGradient id="XMLID_25_" cx="223.8081055" cy="24.2749023" r="5.5186419" gradientTransform="matrix(1 0 0 0.8173 0 4.985199)" gradientUnits="userSpaceOnUse">
		<stop  offset="0.258427" style="stop-color:#FFFFFF"/>
		<stop  offset="0.926966" style="stop-color:#DBDBDB"/>
		<stop  offset="0.966292" style="stop-color:#E3E3E3"/>
	</radialGradient>
	<path fill="url(#XMLID_25_)" d="M229.4633789,25.3774414c0,2.1796875-2.1708984,3.9472656-4.8291016,3.9472656l0,0
		c-2.6669922,0-4.8291016-1.7675781-4.8291016-3.9472656l0,0c0-2.1875,2.1621094-3.9536133,4.8291016-3.9536133l0,0
		C227.2924805,21.4238281,229.4633789,23.1899414,229.4633789,25.3774414L229.4633789,25.3774414z"/>
	<path opacity="0.5" fill="#737373" d="M73.2719727,27.3608398c0,2.1801758-2.1621094,3.9541016-4.8378906,3.9541016l0,0
		c-2.6679688,0-4.8300781-1.7739258-4.8300781-3.9541016l0,0c0-2.1811523,2.1621094-3.9467773,4.8300781-3.9467773l0,0
		C71.1098633,23.4140625,73.2719727,25.1796875,73.2719727,27.3608398L73.2719727,27.3608398z"/>
	
		<radialGradient id="XMLID_26_" cx="65.7563477" cy="24.2749023" r="5.5186419" gradientTransform="matrix(1 0 0 0.8173 0 4.985199)" gradientUnits="userSpaceOnUse">
		<stop  offset="0.258427" style="stop-color:#FFFFFF"/>
		<stop  offset="0.926966" style="stop-color:#DBDBDB"/>
		<stop  offset="0.966292" style="stop-color:#E3E3E3"/>
	</radialGradient>
	<path fill="url(#XMLID_26_)" d="M71.4116211,25.3774414c0,2.1796875-2.1708984,3.9472656-4.8291016,3.9472656l0,0
		c-2.6669922,0-4.8291016-1.7675781-4.8291016-3.9472656l0,0c0-2.1875,2.1621094-3.9536133,4.8291016-3.9536133l0,0
		C69.2407227,21.4238281,71.4116211,23.1899414,71.4116211,25.3774414L71.4116211,25.3774414z"/>
</g>
</svg>
