<?xml version="1.0" encoding="iso-8859-1"?>
<!-- Generator: Adobe Illustrator 12.0.1, SVG Export Plug-In . SVG Version: 6.00 Build 51448)  -->
<!DOCTYPE svg PUBLIC "-//W3C//DTD SVG 1.0//EN" "http://www.w3.org/TR/2001/REC-SVG-20010904/DTD/svg10.dtd" [
	<!ENTITY ns_svg "http://www.w3.org/2000/svg">
	<!ENTITY ns_xlink "http://www.w3.org/1999/xlink">
]>
<svg  version="1.0" id="Help" xmlns="&ns_svg;" xmlns:xlink="&ns_xlink;" width="252.1484375" height="252.1425781"
	 viewBox="0 0 252.1484375 252.1425781" overflow="visible" enable-background="new 0 0 252.1484375 252.1425781"
	 xml:space="preserve">
<g>
	<linearGradient id="XMLID_3_" gradientUnits="userSpaceOnUse" x1="210.9570312" y1="210.9541016" x2="40.0710449" y2="40.0681152">
		<stop  offset="0" style="stop-color:#7FA3D1"/>
		<stop  offset="1" style="stop-color:#567CB0"/>
	</linearGradient>
	<path fill="url(#XMLID_3_)" enable-background="new    " d="M248.1484375,126.0644531
		c0,67.4287109-54.6396484,122.078125-122.0703125,122.078125C58.640625,248.1425781,4,193.4931641,4,126.0644531
		C4,58.6542969,58.640625,4,126.078125,4C193.5087891,4,248.1484375,58.6542969,248.1484375,126.0644531z"/>
	<path fill="#204780" d="M0,126.0644531c0,69.5195312,56.5585938,126.078125,126.078125,126.078125
		c69.515625,0,126.0703125-56.5585938,126.0703125-126.078125C252.1484375,56.5522461,195.59375,0,126.078125,0
		C56.5585938,0,0,56.5522461,0,126.0644531z M8,126.0644531C8,60.9633789,60.9697266,8,126.078125,8
		c65.1044922,0,118.0703125,52.9633789,118.0703125,118.0644531c0,65.1083984-52.9658203,118.078125-118.0703125,118.078125
		C60.9697266,244.1425781,8,191.1728516,8,126.0644531z"/>
	<radialGradient id="XMLID_4_" cx="85.53125" cy="67.809082" r="160.050293" gradientUnits="userSpaceOnUse">
		<stop  offset="0" style="stop-color:#7FA3D1"/>
		<stop  offset="1" style="stop-color:#567CB0"/>
	</radialGradient>
	<path fill="url(#XMLID_4_)" enable-background="new    " d="M235.2382812,125.4726562
		c0,60.2910156-48.8701172,109.1699219-109.1494141,109.1699219c-60.3286133,0-109.2075195-48.8789062-109.2075195-109.1699219
		c0-60.2675781,48.8789062-109.1508789,109.2075195-109.1508789
		C186.3681641,16.3217773,235.2382812,65.2050781,235.2382812,125.4726562z"/>
	<g>
		<path fill="#7FA3D1" d="M16.5004883,125.4731445c0,60.4067383,49.1611328,109.5512695,109.5883789,109.5512695
			c60.3955078,0,109.53125-49.1445312,109.53125-109.5512695c0-60.3959961-49.1357422-109.5317383-109.53125-109.5317383
			C65.6616211,15.9414062,16.5004883,65.0771484,16.5004883,125.4731445z M24.5004883,125.4731445
			c0-55.9848633,45.5722656-101.5317383,101.5883789-101.5317383c55.984375,0,101.53125,45.546875,101.53125,101.5317383
			c0,55.9956055-45.546875,101.5512695-101.53125,101.5512695C70.0727539,227.0244141,24.5004883,181.46875,24.5004883,125.4731445z
			"/>
	</g>
	<path fill="#FFFFFF" d="M188.4228516,87.7099609c0,8.7270508-1.9589844,16.9711914-5.8710938,24.7348633
		c-3.9130859,7.7636719-9.2587891,14.019043-16.15625,18.6010742c-10.0253906,6.6601562-36.953125,12.2304688-36.953125,12.2304688
		v17.7255859h-18.1962891v-31.7548828c0,0,30.9785156-5.4663086,37.0048828-16.5087891
		c3.4589844-6.3398438,5.4697266-14.8500977,5.4697266-25.8540039c0-10.5400391-1.4023438-18.925293-4.1992188-25.1586914
		c-2.8007812-6.234375-6.2441406-10.5888672-10.3291016-13.0654297c-4.0859375-2.4726562-8.2851562-3.7124023-12.5996094-3.7124023
		c-6.4267578,0-11.0854492,1.6953125-13.9765625,5.0869141c-2.894043,3.3916016-5.0732422,7.3359375-6.5410156,11.8256836
		c-1.1948242,3.3012695-2.6899414,6.0952148-4.4790039,8.3881836c-1.7890625,2.293457-4.6142578,3.4365234-8.4682617,3.4365234
		c-3.487793,0-6.472168-1.3500977-8.9516602-4.0546875c-2.4799805-2.7006836-3.7158203-5.6118164-3.7158203-8.7270508
		c0-5.4946289,2.4550781-10.4643555,7.3657227-14.9091797c4.9116211-4.440918,11.2456055-7.9018555,19.0019531-10.3745117
		c7.7568359-2.4731445,15.9521484-3.7124023,24.5859375-3.7124023c9.3632812,0,17.6474609,1.6264648,24.8554688,4.8798828
		c7.2041016,3.2529297,13.1484375,7.5146484,17.8310547,12.7817383c4.6826172,5.2700195,8.2402344,11.203125,10.671875,17.7998047
		C187.2041016,73.9648438,188.4228516,80.7475586,188.4228516,87.7099609z"/>
	<path opacity="0.4" fill="#204780" d="M130.8349609,49.190918c4.3144531,0,8.5136719,1.2397461,12.5996094,3.7128906
		c0.5126953,0.3110352,1.015625,0.6518555,1.5078125,1.0219727c-1.75-2.2421875-3.6650391-4.0019531-5.75-5.265625
		c-4.0859375-2.4726562-8.2851562-3.7124023-12.5996094-3.7124023c-6.4267578,0-11.0854492,1.6953125-13.9765625,5.0869141
		c-2.894043,3.3916016-5.0732422,7.3359375-6.5410156,11.8256836c-1.1948242,3.3012695-2.6899414,6.0952148-4.4790039,8.3881836
		c-1.7890625,2.293457-4.6142578,3.4365234-8.4682617,3.4365234c-2.3193359,0-4.4111328-0.6108398-6.2851562-1.8066406
		c0.4541016,0.6772461,0.9770508,1.3427734,1.5761719,1.9956055c2.4794922,2.7036133,5.4633789,4.0541992,8.9516602,4.0541992
		c3.8544922,0,6.6796875-1.1430664,8.46875-3.4360352c1.7880859-2.293457,3.2841797-5.0874023,4.4785156-8.3891602
		c1.4682617-4.4897461,3.6474609-8.4335938,6.5415039-11.824707C119.75,50.8867188,124.4091797,49.190918,130.8349609,49.190918z"/>
	<path opacity="0.4" fill="#204780" d="M189.0146484,71.6118164c-2.4316406-6.5966797-5.9882812-12.5297852-10.671875-17.7998047
		c-1.2578125-1.4145508-2.6132812-2.7504883-4.0527344-4.0200195c4.5869141,5.215332,8.0849609,11.0717773,10.4824219,17.5766602
		c2.4316406,6.5961914,3.6503906,13.3789062,3.6503906,20.3413086c0,8.7270508-1.9589844,16.9711914-5.8710938,24.7348633
		c-3.9130859,7.7636719-9.2587891,14.019043-16.15625,18.6010742c-10.0253906,6.6601562-36.953125,12.2304688-36.953125,12.2304688
		v17.7255859h-13.953125v4.2431641h18.1972656v-17.7246094c0,0,26.9277344-5.5722656,36.9511719-12.2324219
		c6.8964844-4.5800781,12.2441406-10.8364258,16.15625-18.6000977s5.8710938-16.0073242,5.8710938-24.734375
		C192.6650391,84.9907227,191.4462891,78.2080078,189.0146484,71.6118164z"/>
	<path fill="#FFFFFF" d="M137.4082031,199.8291016c0,4.6914062-1.6357422,8.640625-4.9091797,11.8388672
		c-3.2724609,3.1943359-7.2529297,4.796875-11.9458008,4.796875c-4.5541992,0-8.4492188-1.6181641-11.6845703-4.8505859
		c-3.2353516-3.2333984-4.8530273-7.1601562-4.8530273-11.7851562c0-2.9150391,0.7446289-5.7050781,2.2397461-8.3720703
		c1.4946289-2.6640625,3.5205078-4.7431641,6.0810547-6.2382812c2.5600586-1.4921875,5.2988281-2.2402344,8.2167969-2.2402344
		c3.1289062,0,5.9711914,0.7666016,8.5317383,2.2939453c2.5605469,1.5292969,4.5859375,3.5898438,6.0820312,6.1845703
		C136.6601562,194.0527344,137.4082031,196.84375,137.4082031,199.8291016z"/>
	<path opacity="0.4" fill="#204780" d="M139.4111328,195.7001953c-1.2871094-2.2333984-2.9921875-4.0449219-5.0673828-5.4882812
		c0.2822266,0.4072266,0.5712891,0.8076172,0.8232422,1.2451172c1.4931641,2.5957031,2.2412109,5.3867188,2.2412109,8.3720703
		c0,4.6914062-1.6357422,8.640625-4.9091797,11.8388672c-3.2724609,3.1943359-7.2529297,4.796875-11.9458008,4.796875
		c-3.5205078,0-6.6425781-0.9785156-9.3754883-2.9111328c0.565918,0.8017578,1.203125,1.5732422,1.934082,2.3046875
		c3.2348633,3.2324219,7.1298828,4.8496094,11.684082,4.8496094c4.6933594,0,8.6738281-1.6015625,11.9453125-4.796875
		c3.2753906-3.1972656,4.9101562-7.1464844,4.9101562-11.8378906
		C141.6513672,201.0869141,140.9033203,198.2958984,139.4111328,195.7001953z"/>
</g>
</svg>
