<?xml version="1.0" encoding="iso-8859-1"?>
<!-- Generator: Adobe Illustrator 12.0.1, SVG Export Plug-In . SVG Version: 6.00 Build 51448)  -->
<!DOCTYPE svg PUBLIC "-//W3C//DTD SVG 1.0//EN" "http://www.w3.org/TR/2001/REC-SVG-20010904/DTD/svg10.dtd" [
	<!ENTITY ns_svg "http://www.w3.org/2000/svg">
	<!ENTITY ns_xlink "http://www.w3.org/1999/xlink">
]>
<svg  version="1.0" id="History" xmlns="&ns_svg;" xmlns:xlink="&ns_xlink;" width="296.2573242" height="252.5068359"
	 viewBox="0 0 296.2573242 252.5068359" overflow="visible" enable-background="new 0 0 296.2573242 252.5068359"
	 xml:space="preserve">
<g>
	<path fill="#702B6C" d="M294.5151367,132.0961914c-7.0273438-26.3999023-69.6582031-53.6464844-145.8881836-53.6464844
		c-80.9604492,0-146.5625,30.715332-146.5625,58.5205078c0,0.5527344,0.0664062,3.215332,0.0664062,3.5009766
		c0,48.3041992,0.0097656,48.5307617,0.0141602,48.6381836c0.6699219,15.3242188,16.7036133,31.9003906,43.9907227,43.96875
		c28.3295898,12.5283203,64.7280273,19.4287109,102.4912109,19.4287109c37.8852539,0,74.5258789-6.9130859,103.1733398-19.46875
		c27.6953125-12.1357422,43.8964844-28.7607422,44.4501953-44.0947266l0.0029297-0.1425781l0.0039062-48.3295898
		C296.2573242,137.5878906,295.5581055,134.652832,294.5151367,132.0961914z"/>
	
		<radialGradient id="XMLID_4_" cx="76.4726562" cy="101.0571289" r="166.7182617" gradientTransform="matrix(1 0 0 1.0194 0 -5.4764404)" gradientUnits="userSpaceOnUse">
		<stop  offset="0" style="stop-color:#A877A6"/>
		<stop  offset="1" style="stop-color:#80467D"/>
	</radialGradient>
	<path fill="url(#XMLID_4_)" d="M286.3608398,137.0742188c0,22.7636719-61.6777344,50.4326172-137.7338867,50.4326172
		c-76.0795898,0-137.7441406-27.6689453-137.7441406-50.4326172c0-22.7783203,61.6645508-50.4375,137.7441406-50.4375
		C224.6831055,86.6367188,286.3608398,114.2958984,286.3608398,137.0742188z"/>
	<path fill="#A877A6" d="M148.6269531,86.0561523c-76.0795898,0-137.7441406,27.8188477-137.7441406,50.7275391
		c0,22.8950195,61.6645508,50.7231445,137.7441406,50.7231445c76.0561523,0,137.7338867-27.828125,137.7338867-50.7231445
		C286.3608398,113.875,224.6831055,86.0561523,148.6269531,86.0561523z M146.8408203,179.4619141
		c-70.7744141,0-127.1953125-24.9853516-127.1953125-42.8647461c0-17.9047852,58.5566406-43.2421875,129.3354492-43.2421875
		c70.7626953,0,128.5791016,25.3374023,128.5791016,43.2421875
		C277.5600586,154.4765625,217.6137695,179.4619141,146.8408203,179.4619141z"/>
	<path opacity="0.4" fill="#A877A6" d="M146.8408203,179.4619141c70.7729492,0,130.7192383-24.9853516,130.7192383-42.8647461
		c0-17.9047852-57.8164062-43.2421875-128.5791016-43.2421875c-70.7788086,0-129.3354492,25.3374023-129.3354492,43.2421875
		C19.6455078,154.4765625,76.0664062,179.4619141,146.8408203,179.4619141z"/>
	<g>
		<path opacity="0.5" fill="#702B6C" d="M152.5893555,171.5859375v-7.7363281
			c-2.1875,0.0371094-4.3505859,0.0839844-6.5727539,0.0839844c-0.5195312,0-1-0.0205078-1.5180664-0.0205078v7.7255859
			c0.5180664,0,0.9985352,0.0302734,1.5180664,0.0302734C148.2387695,171.6689453,150.4018555,171.6123047,152.5893555,171.5859375z
			"/>
		<path opacity="0.5" fill="#702B6C" d="M238.8813477,138.6894531h28.7998047l0.1923828-1.2807617
			c0,0-0.2802734-2.6889648-0.3203125-3.050293l-28.9980469,2.0820312
			C238.5551758,136.4404297,238.9360352,138.328125,238.8813477,138.6894531z"/>
		<path opacity="0.5" fill="#702B6C" d="M236.199707,160.1074219l-0.484375-2.8652344l-26.0869141-3.9257812l0.3671875,2.8710938
			l20.5546875,5.4814453C232.5024414,161.1601562,234.3735352,160.6435547,236.199707,160.1074219z"/>
		<path opacity="0.5" fill="#702B6C" d="M196.175293,167.8427734l-0.2607422-2.9150391l-18.0537109-6.3642578l0.5009766,2.8876953
			l10.1015625,7.2353516C191.0112305,168.4511719,193.7114258,168.1337891,196.175293,167.8427734z"/>
		<path opacity="0.5" fill="#702B6C" d="M229.730957,148.4863281l26.6240234,3.0947266
			c1.1484375-0.6542969,2.2285156-1.3085938,3.2167969-1.9863281l-0.2568359-2.3828125l-29.78125-1.1279297L229.730957,148.4863281z
			"/>
		<path opacity="0.5" fill="#702B6C" d="M234.6704102,129.9711914l27.0429688-2.8261719l0.046875-2.0888672l-29.8271484,0.8344727
			l-0.1220703,2.0585938C232.8891602,128.6044922,233.8266602,129.2807617,234.6704102,129.9711914z"/>
		<path fill="#A877A6" d="M152.5825195,167.7392578v-7.7363281c-2.1923828,0.0371094-4.3691406,0.0820312-6.6015625,0.0820312
			c-0.5166016,0-1.003418-0.0166016-1.5258789-0.0166016v7.7285156c0.5224609,0,1.0092773,0.0253906,1.5258789,0.0253906
			C148.2133789,167.8222656,150.3901367,167.7695312,152.5825195,167.7392578z"/>
		<path fill="#A877A6" d="M238.4848633,136.4892578h29.0732422c0.0351562-0.3710938,0.0351562-1.7998047,0-2.1606445h-29.0732422
			C238.5395508,134.6894531,238.5395508,136.128418,238.4848633,136.4892578z"/>
		<path fill="#A877A6" d="M235.7612305,157.2490234l-20.5527344-5.4726562
			c-1.8056641,0.5458984-3.6767578,1.0625-5.6533203,1.5517578l20.5615234,5.4814453
			C232.0629883,158.3007812,233.934082,157.7861328,235.7612305,157.2490234z"/>
		<path fill="#A877A6" d="M195.9614258,164.9482422l-10.6240234-7.2246094
			c-2.4423828,0.3076172-4.9404297,0.5771484-7.4941406,0.8300781l10.5947266,7.2001953
			C190.9858398,165.5107422,193.4995117,165.2333984,195.9614258,164.9482422z"/>
		<path fill="#A877A6" d="M229.4946289,146.0771484l26.6269531,3.0947266
			c1.1494141-0.6542969,2.2285156-1.3154297,3.2197266-1.9853516l-26.6660156-3.1005859
			C231.7211914,144.7612305,230.6625977,145.4277344,229.4946289,146.0771484z"/>
		<path fill="#A877A6" d="M234.7456055,127.8916016l27.0419922-2.8271484
			c-0.8710938-0.6801758-1.7460938-1.3564453-2.7890625-2.0214844l-27.1123047,2.8276367
			C232.965332,126.5253906,233.9038086,127.2001953,234.7456055,127.8916016z"/>
		<g>
			<path opacity="0.5" fill="#702B6C" d="M57.7529297,136.4404297l-28.9975586-2.0820312
				c-0.0405273,0.3613281-0.3208008,3.050293-0.3208008,3.050293l0.1923828,1.2807617h28.7993164
				C57.3720703,138.328125,57.7529297,136.4404297,57.7529297,136.4404297z"/>
			<path opacity="0.5" fill="#702B6C" d="M65.7573242,161.6689453L86.3120117,156.1875l0.3681641-2.8710938l-26.0874023,3.9257812
				l-0.4838867,2.8652344C61.934082,160.6435547,63.8051758,161.1601562,65.7573242,161.6689453z"/>
			<path opacity="0.5" fill="#702B6C" d="M107.8452148,168.6865234l10.1015625-7.2353516l0.5-2.8876953l-18.0537109,6.3642578
				l-0.2597656,2.9150391C102.5961914,168.1337891,105.296875,168.4511719,107.8452148,168.6865234z"/>
			<path opacity="0.5" fill="#702B6C" d="M66.7744141,146.0839844l-29.7807617,1.1279297l-0.2573242,2.3828125
				c0.9882812,0.6777344,2.0683594,1.3320312,3.2167969,1.9863281l26.6245117-3.0947266L66.7744141,146.0839844z"/>
			<path fill="#A877A6" d="M57.8232422,134.3286133H28.7504883c-0.0356445,0.3608398-0.0356445,1.7895508,0,2.1606445h29.0727539
				C57.7680664,136.128418,57.7680664,134.6894531,57.8232422,134.3286133z"/>
			<path fill="#A877A6" d="M66.190918,158.8095703l20.5615234-5.4814453
				c-1.9760742-0.4892578-3.847168-1.0058594-5.6523438-1.5517578l-20.5527344,5.4726562
				C62.3735352,157.7861328,64.2446289,158.3007812,66.190918,158.8095703z"/>
			<path fill="#A877A6" d="M107.8701172,165.7539062l10.5952148-7.2001953
				c-2.5537109-0.2529297-5.0527344-0.5224609-7.4946289-0.8300781l-10.6240234,7.2246094
				C102.8085938,165.2333984,105.3222656,165.5107422,107.8701172,165.7539062z"/>
			<path fill="#A877A6" d="M63.6323242,144.0859375l-26.6660156,3.1005859
				c0.9921875,0.6699219,2.0708008,1.3310547,3.2202148,1.9853516l26.6264648-3.0947266
				C65.6455078,145.4277344,64.5869141,144.7612305,63.6323242,144.0859375z"/>
		</g>
	</g>
	<radialGradient id="XMLID_5_" cx="89.1484375" cy="109.0454102" r="74.9721603" gradientUnits="userSpaceOnUse">
		<stop  offset="0" style="stop-color:#EEDBA1"/>
		<stop  offset="1" style="stop-color:#E1BF7F"/>
	</radialGradient>
	<polygon fill="url(#XMLID_5_)" enable-background="new    " points="9.1308594,12.0405273 10.6889648,15.8974609 
		48.1430664,105.7265625 33.1865234,128.6508789 89.0800781,120.5932617 160.9077148,129.1264648 	"/>
	<path fill="#D6A959" d="M7.0200195,17.3793945c0.015625,0.0371094,31.2685547,74.9936523,36.6655273,87.9379883
		c-1.9501953,2.9897461-18.5922852,28.4970703-18.5922852,28.4970703s63.0258789-9.0854492,64.0366211-9.230957
		c1.0180664,0.1206055,85.5385742,10.1621094,85.5385742,10.1621094L0,0L7.0200195,17.3793945z M52.6000977,106.1352539
		c0,0-27.6420898-66.2949219-34.1533203-81.9106445c18.3603516,14.1630859,110.8979492,85.550293,128.6992188,99.2827148
		c-18.2988281-2.1738281-58.1152344-6.9042969-58.1152344-6.9042969s-35.3847656,5.1010742-47.7514648,6.8837891
		C45.7050781,116.7036133,52.6000977,106.1352539,52.6000977,106.1352539z"/>
	<path opacity="0.5" fill="#73286F" d="M138.8432617,86.2128906c-8.4970703,0.2666016-16.7714844,0.8842773-24.7739258,1.784668
		l57.4975586,44.3549805L138.8432617,86.2128906z"/>
	<path fill="#A877A6" d="M148.6269531,196.4755859c-64.2197266,0-118.7685547-19.9726562-138.5844727-42.0888672
		c0.0004883,0.0009766,0.0009766,0.0009766,0.0014648,0.0019531c0.0009766,15.5771484,0.003418,33.2695312,0.0092773,34.40625
		c1.0209961,22.4072266,55.4799805,54.9306641,138.5737305,54.9306641c36.815918,0,72.3286133-6.6777344,99.9975586-18.8037109
		c24.0576172-10.5419922,39.2705078-24.4267578,39.7158203-36.2412109c0-0.1582031,0.0019531-21.3857422,0.0029297-35.6171875
		C269.550293,175.7001953,214.105957,196.4755859,148.6269531,196.4755859z"/>
	
		<linearGradient id="XMLID_6_" gradientUnits="userSpaceOnUse" x1="43.2880859" y1="203.5898438" x2="278.7609863" y2="203.5898438">
		<stop  offset="0" style="stop-color:#73286F"/>
		<stop  offset="0.134831" style="stop-color:#80467D"/>
		<stop  offset="0.314607" style="stop-color:#945F92"/>
		<stop  offset="0.601124" style="stop-color:#80467D"/>
		<stop  offset="0.820225" style="stop-color:#996496"/>
		<stop  offset="0.848315" style="stop-color:#80467D"/>
		<stop  offset="1" style="stop-color:#73286F"/>
	</linearGradient>
	<path fill="url(#XMLID_6_)" enable-background="new    " d="M17.8481445,170.9492188
		c0.0009766,4.8203125,0.0019531,13.3564453,0.0014648,13.3574219
		c0.9589844,21.8457031,47.0239258,52.1083984,131.0200195,52.1083984c83.8125,0,131.296875-30.8476562,132.1064453-52.1865234
		c0-0.0966797,0.0009766-6.3007812,0.0029297-13.4638672c-19.3808594,17.8388672-72.2802734,33.5361328-133.2109375,33.5361328
		C87.0283203,204.3007812,36.4702148,188.7109375,17.8481445,170.9492188z"/>
</g>
</svg>
