<?xml version="1.0" encoding="iso-8859-1"?>
<!-- Generator: Adobe Illustrator 12.0.1, SVG Export Plug-In . SVG Version: 6.00 Build 51448)  -->
<!DOCTYPE svg PUBLIC "-//W3C//DTD SVG 1.0//EN" "http://www.w3.org/TR/2001/REC-SVG-20010904/DTD/svg10.dtd" [
	<!ENTITY ns_svg "http://www.w3.org/2000/svg">
	<!ENTITY ns_xlink "http://www.w3.org/1999/xlink">
]>
<svg  version="1.0" id="Home" xmlns="&ns_svg;" xmlns:xlink="&ns_xlink;" width="297.277832" height="283.7626953"
	 viewBox="0 0 297.277832 283.7626953" overflow="visible" enable-background="new 0 0 297.277832 283.7626953"
	 xml:space="preserve">
<g>
	<path fill="#FFFFFF" enable-background="new    " d="M40.8544922,123.9604492v155.8022461h213.1821289V123.7988281
		c-32.2167969-19.777832-102.2197266-62.7514648-105.3183594-64.6538086
		C133.4785156,68.4130859,69.2324219,106.9462891,40.8544922,123.9604492z"/>
	
		<linearGradient id="XMLID_21_" gradientUnits="userSpaceOnUse" x1="113.5126953" y1="228.9638672" x2="193.0622406" y2="311.499115">
		<stop  offset="0" style="stop-color:#FFFFFF"/>
		<stop  offset="1" style="stop-color:#D5D5D5"/>
	</linearGradient>
	<rect x="53.6669922" y="259.5732422" fill="url(#XMLID_21_)" width="186.6157227" height="8.21875"/>
	
		<linearGradient id="XMLID_22_" gradientUnits="userSpaceOnUse" x1="113.3730469" y1="203.2109375" x2="193.2524414" y2="286.0884094">
		<stop  offset="0" style="stop-color:#FFFFFF"/>
		<stop  offset="1" style="stop-color:#D5D5D5"/>
	</linearGradient>
	<rect x="53.6669922" y="233.5732422" fill="url(#XMLID_22_)" width="186.6157227" height="9"/>
	
		<linearGradient id="XMLID_23_" gradientUnits="userSpaceOnUse" x1="113.3735352" y1="216.2109375" x2="193.2529297" y2="299.0884094">
		<stop  offset="0" style="stop-color:#FFFFFF"/>
		<stop  offset="1" style="stop-color:#D5D5D5"/>
	</linearGradient>
	<rect x="53.6669922" y="246.5732422" fill="url(#XMLID_23_)" width="186.6157227" height="9"/>
	
		<linearGradient id="XMLID_24_" gradientUnits="userSpaceOnUse" x1="125.2270508" y1="75.8999023" x2="179.4689484" y2="132.1776428">
		<stop  offset="0" style="stop-color:#FFFFFF"/>
		<stop  offset="1" style="stop-color:#D5D5D5"/>
	</linearGradient>
	<path fill="url(#XMLID_24_)" d="M148.7182617,59.1450195c-4.5351562,2.7578125-13.4140625,8.1103516-24.3925781,14.7133789
		c0.1557617-0.09375,0.3188477-0.1918945,0.4741211-0.2851562h47.4213867c2.0859375,1.2802734,4.2597656,2.6147461,6.515625,4
		h-60.5893555c-5.2397461,3.1494141-10.8193359,6.5019531-16.5405273,9.9375
		c0.5180664-0.3110352,1.0454102-0.6274414,1.5615234-0.9375h90.2294922c2.1484375,1.3188477,4.3222656,2.6533203,6.515625,4
		H96.5068359c-4.9819336,2.9912109-10.0224609,6.0166016-14.9936523,9H214.574707
		C183.6157227,80.5678711,150.8178711,60.4335938,148.7182617,59.1450195z"/>
	
		<linearGradient id="XMLID_25_" gradientUnits="userSpaceOnUse" x1="113.3730469" y1="190.2099609" x2="193.2524414" y2="273.0874329">
		<stop  offset="0" style="stop-color:#FFFFFF"/>
		<stop  offset="1" style="stop-color:#D5D5D5"/>
	</linearGradient>
	<rect x="53.6669922" y="220.5732422" fill="url(#XMLID_25_)" width="186.6157227" height="9"/>
	
		<linearGradient id="XMLID_26_" gradientUnits="userSpaceOnUse" x1="118.0253906" y1="81.3046875" x2="190.9263611" y2="156.9418182">
		<stop  offset="0" style="stop-color:#FFFFFF"/>
		<stop  offset="1" style="stop-color:#D5D5D5"/>
	</linearGradient>
	<path fill="url(#XMLID_26_)" d="M237.5385742,113.6708984c-5.1972656-3.190918-10.7519531-6.6005859-16.4482422-10.0976562
		H74.847168c0.0405273-0.0244141,0.0820312-0.0493164,0.1225586-0.0737305
		c-5.2407227,3.1445312-10.3374023,6.2021484-15.1254883,9.0737305h175.90625
		C236.3549805,112.9443359,236.9428711,113.3051758,237.5385742,113.6708984z"/>
	
		<linearGradient id="XMLID_27_" gradientUnits="userSpaceOnUse" x1="113.3730469" y1="138.2104492" x2="193.2524414" y2="221.0879211">
		<stop  offset="0" style="stop-color:#FFFFFF"/>
		<stop  offset="1" style="stop-color:#D5D5D5"/>
	</linearGradient>
	<rect x="53.6669922" y="168.5732422" fill="url(#XMLID_27_)" width="186.6157227" height="9"/>
	
		<linearGradient id="XMLID_28_" gradientUnits="userSpaceOnUse" x1="113.3735352" y1="99.2104492" x2="193.2529297" y2="182.0879211">
		<stop  offset="0" style="stop-color:#FFFFFF"/>
		<stop  offset="1" style="stop-color:#D5D5D5"/>
	</linearGradient>
	<rect x="53.6669922" y="129.5732422" fill="url(#XMLID_28_)" width="186.6157227" height="9"/>
	
		<linearGradient id="XMLID_29_" gradientUnits="userSpaceOnUse" x1="113.3735352" y1="86.2104492" x2="193.2529297" y2="169.0879211">
		<stop  offset="0" style="stop-color:#FFFFFF"/>
		<stop  offset="1" style="stop-color:#D5D5D5"/>
	</linearGradient>
	<rect x="53.6669922" y="116.5732422" fill="url(#XMLID_29_)" width="186.6157227" height="9"/>
	
		<linearGradient id="XMLID_30_" gradientUnits="userSpaceOnUse" x1="113.3735352" y1="112.2104492" x2="193.2535095" y2="195.0885315">
		<stop  offset="0" style="stop-color:#FFFFFF"/>
		<stop  offset="1" style="stop-color:#D5D5D5"/>
	</linearGradient>
	<rect x="53.6669922" y="142.5732422" fill="url(#XMLID_30_)" width="186.6157227" height="9"/>
	
		<linearGradient id="XMLID_31_" gradientUnits="userSpaceOnUse" x1="113.3730469" y1="151.2109375" x2="193.2524414" y2="234.0884094">
		<stop  offset="0" style="stop-color:#FFFFFF"/>
		<stop  offset="1" style="stop-color:#D5D5D5"/>
	</linearGradient>
	<rect x="53.6669922" y="181.5732422" fill="url(#XMLID_31_)" width="186.6157227" height="9"/>
	
		<linearGradient id="XMLID_32_" gradientUnits="userSpaceOnUse" x1="113.3735352" y1="164.2109375" x2="193.2529297" y2="247.0884094">
		<stop  offset="0" style="stop-color:#FFFFFF"/>
		<stop  offset="1" style="stop-color:#D5D5D5"/>
	</linearGradient>
	<rect x="53.6669922" y="194.5732422" fill="url(#XMLID_32_)" width="186.6157227" height="9"/>
	
		<linearGradient id="XMLID_33_" gradientUnits="userSpaceOnUse" x1="113.3730469" y1="177.2099609" x2="193.2524414" y2="260.0874329">
		<stop  offset="0" style="stop-color:#FFFFFF"/>
		<stop  offset="1" style="stop-color:#D5D5D5"/>
	</linearGradient>
	<rect x="53.6669922" y="207.5732422" fill="url(#XMLID_33_)" width="186.6157227" height="9"/>
	
		<linearGradient id="XMLID_34_" gradientUnits="userSpaceOnUse" x1="113.3730469" y1="125.2104492" x2="193.2524414" y2="208.0879211">
		<stop  offset="0" style="stop-color:#FFFFFF"/>
		<stop  offset="1" style="stop-color:#D5D5D5"/>
	</linearGradient>
	<rect x="53.6669922" y="155.5732422" fill="url(#XMLID_34_)" width="186.6157227" height="9"/>
	<radialGradient id="XMLID_35_" cx="76.6645508" cy="175.0546875" r="105.8055573" gradientUnits="userSpaceOnUse">
		<stop  offset="0" style="stop-color:#B07F6B"/>
		<stop  offset="1" style="stop-color:#926958"/>
	</radialGradient>
	
		<rect x="73.0244141" y="166.4853516" fill="url(#XMLID_35_)" enable-background="new    " width="56.5883789" height="109.2773438"/>
	<g>
		<path fill="#755346" d="M127.3427734,223.21875c0,2.5703125-2.0864258,4.6367188-4.637207,4.6367188
			c-2.5703125,0-4.6367188-2.0664062-4.6367188-4.6367188c0-2.5507812,2.0664062-4.6357422,4.6367188-4.6357422
			C125.2563477,218.5830078,127.3427734,220.6679688,127.3427734,223.21875z"/>
		<path fill="#B07F6B" d="M126.5151367,221.2792969c0,2.5693359-2.0727539,4.6357422-4.6367188,4.6357422
			c-2.5498047,0-4.6362305-2.0664062-4.6362305-4.6357422c0-2.5517578,2.0864258-4.6308594,4.6362305-4.6308594
			C124.4423828,216.6484375,126.5151367,218.7275391,126.5151367,221.2792969z"/>
	</g>
	<radialGradient id="XMLID_36_" cx="180.8803711" cy="174.7978516" r="61.0775986" gradientUnits="userSpaceOnUse">
		<stop  offset="0" style="stop-color:#C5DFFF"/>
		<stop  offset="1" style="stop-color:#8EB1DE"/>
	</radialGradient>
	<rect x="160.3666992" y="162.5039062" fill="url(#XMLID_36_)" enable-background="new    " width="64.0625" height="55.5927734"/>
	<path fill="#5F83B3" d="M156.3666992,158.5039062v63.5927734h72.0625v-63.5927734H156.3666992z M220.4291992,166.5039062
		c0,6.3564453,0,41.2363281,0,47.5927734c-6.5634766,0-49.4990234,0-56.0625,0c0-6.3564453,0-41.2363281,0-47.5927734
		C170.9301758,166.5039062,213.8657227,166.5039062,220.4291992,166.5039062z"/>
	<radialGradient id="XMLID_37_" cx="141.5483398" cy="100.1064453" r="29.6221867" gradientUnits="userSpaceOnUse">
		<stop  offset="0" style="stop-color:#E3E3E3"/>
		<stop  offset="1" style="stop-color:#C3C3C3"/>
	</radialGradient>
	<path fill="url(#XMLID_37_)" enable-background="new    " d="M171.6206055,109.3598633
		c0,13.1655273-10.6630859,23.8276367-23.815918,23.8276367c-13.1586914,0-23.8222656-10.6621094-23.8222656-23.8276367
		c0-13.1601562,10.6635742-23.8217773,23.8222656-23.8217773C160.9575195,85.5380859,171.6206055,96.199707,171.6206055,109.3598633
		z"/>
	<path fill="#AFAFAF" d="M119.9824219,109.3598633c0,15.3442383,12.480957,27.8276367,27.8222656,27.8276367
		c15.3374023,0,27.815918-12.4833984,27.815918-27.8276367c0-15.3408203-12.4785156-27.8217773-27.815918-27.8217773
		C132.4633789,81.5380859,119.9824219,94.019043,119.9824219,109.3598633z M127.9824219,109.3598633
		c0-10.9296875,8.8920898-19.8217773,19.8222656-19.8217773c10.9262695,0,19.815918,8.8920898,19.815918,19.8217773
		c0,10.9331055-8.8896484,19.8276367-19.815918,19.8276367C136.8745117,129.1875,127.9824219,120.2929688,127.9824219,109.3598633z"
		/>
	<linearGradient id="XMLID_38_" gradientUnits="userSpaceOnUse" x1="191.402832" y1="17.9140625" x2="257.4536133" y2="17.9140625">
		<stop  offset="0" style="stop-color:#FFFFFF"/>
		<stop  offset="1" style="stop-color:#D0D0D0"/>
	</linearGradient>
	<path fill="url(#XMLID_38_)" enable-background="new    " d="M257.4536133,27.4658203
		c0,2.4086914-2.1953125,4.3623047-4.8935547,4.3623047h-56.2851562c-2.6972656,0-4.8720703-1.9536133-4.8720703-4.3623047
		V8.3618164C191.402832,5.9521484,193.5776367,4,196.2749023,4h56.2851562c2.6982422,0,4.8935547,1.9521484,4.8935547,4.3618164
		V27.4658203z"/>
	<path fill="#8B8B8B" d="M196.2749023,0c-4.8916016,0-8.8720703,3.7509766-8.8720703,8.3618164v19.1040039
		c0,4.6108398,3.9804688,8.3623047,8.8720703,8.3623047h56.2851562c4.9042969,0,8.8935547-3.7514648,8.8935547-8.3623047V8.3618164
		C261.4536133,3.7509766,257.4643555,0,252.5600586,0H196.2749023z M195.4008789,27.4526367l0.0019531-19.0908203
		C195.4272461,8.2949219,195.7143555,8,196.2749023,8h56.2851562c0.5751953,0,0.8662109,0.2993164,0.8974609,0.3842773
		c0,0-0.0039062,19.0234375-0.0039062,19.0620117c-0.0341797,0.0874023-0.3222656,0.3818359-0.8935547,0.3818359h-56.2851562
		C195.7143555,27.828125,195.4272461,27.5322266,195.4008789,27.4526367z"/>
	<g>
		<radialGradient id="XMLID_39_" cx="224.8110352" cy="56.1640625" r="21.7228432" gradientUnits="userSpaceOnUse">
			<stop  offset="0" style="stop-color:#B07F6B"/>
			<stop  offset="1" style="stop-color:#926958"/>
		</radialGradient>
		<path fill="url(#XMLID_39_)" enable-background="new    " d="M201.784668,35.828125v10.730957
			C216.7055664,56.2602539,233.2299805,67.0029297,247.8374023,76.5V35.828125H201.784668z"/>
	</g>
	<path opacity="0.5" fill="#755346" d="M243.8374023,42.7441406c0-2.4384766,0-4.7729492,0-6.9160156H205.784668
		c0,2.1430664,0,4.4775391,0,6.9160156H243.8374023z"/>
	<radialGradient id="XMLID_40_" cx="133.9038086" cy="43.828125" r="131.536972" gradientUnits="userSpaceOnUse">
		<stop  offset="0" style="stop-color:#CC464F"/>
		<stop  offset="1" style="stop-color:#AB262D"/>
	</radialGradient>
	<path fill="url(#XMLID_40_)" enable-background="new    " d="M148.671875,18.8974609
		c-2.1010742,0-6.0341797,1.9853516-6.0341797,1.9853516L10.6381836,104.9907227
		c-6.5493164,4.019043-8.5961914,12.5825195-4.5703125,19.1245117c4.0131836,6.5429688,12.5756836,8.5888672,19.1245117,4.5703125
		c0,0,110.4936523-66.2177734,123.5322266-74.2304688c13.0366211,7.9990234,123.3764648,75.7397461,123.3764648,75.7397461
		c6.5576172,4.0336914,15.1191406,1.9873047,19.125-4.5561523c4.0185547-6.5498047,1.9726562-15.1123047-4.5703125-19.1313477
		L154.9770508,20.8989258C154.9770508,20.8989258,150.7729492,18.8974609,148.671875,18.8974609z"/>
	<path fill="#8A010B" d="M140.6567383,17.4018555L8.4887695,101.6171875
		c-4.0229492,2.4682617-6.8818359,6.4101562-7.9926758,11.0639648c-1.1108398,4.6513672-0.3422852,9.4560547,2.1650391,13.5302734
		c2.4951172,4.0678711,6.4306641,6.9243164,11.0786133,8.0375977c4.6538086,1.1147461,9.4638672,0.3500977,13.5449219-2.1542969
		c1.0253906-0.6142578,101.8208008-61.0219727,121.4335938-72.949707
		c4.03125,2.4746094,121.2900391,74.4584961,121.2900391,74.4584961c4.0830078,2.5117188,8.8984375,3.2822266,13.5556641,2.1669922
		c4.6464844-1.112793,8.5791016-3.9692383,11.0732422-8.043457c1.7880859-2.9145508,2.640625-6.1450195,2.640625-9.3383789
		c0-6.0239258-3.0322266-11.9135742-8.5283203-15.2895508c-0.0009766-0.0019531-131.8144531-85.6982422-131.8144531-85.6982422
		s-5.4755859-2.503418-8.2631836-2.503418C145.8388672,14.8974609,140.6567383,17.4018555,140.6567383,17.4018555z
		 M148.6723633,22.9003906c0.6767578,0.0361328,2.7109375,0.7470703,4.3886719,1.5239258
		c0.5253906,0.3417969,131.4140625,85.4365234,131.4140625,85.4365234c3.1035156,1.9072266,4.8007812,5.1865234,4.8007812,8.53125
		c0,1.7641602-0.4726562,3.5463867-1.4589844,5.1547852c-1.3789062,2.2524414-3.5498047,3.8291016-6.1152344,4.4433594
		c-2.5761719,0.6166992-5.2412109,0.1904297-7.5048828-1.2026367
		c-0.0029297-0.0014648-125.4741211-77.0273438-125.4741211-77.0273438l-2.0922852,1.2871094
		c-12.8706055,7.9091797-122.3896484,73.5449219-123.4941406,74.2070312
		c-2.2949219,1.4082031-4.9570312,1.831543-7.5327148,1.2148438c-2.5698242-0.6157227-4.7451172-2.1943359-6.1259766-4.4453125
		c-0.9741211-1.5830078-1.4741211-3.362793-1.4741211-5.1713867c0-0.7705078,0.090332-1.5458984,0.2739258-2.3134766
		c0.6142578-2.5737305,2.1958008-4.7539062,4.453125-6.1391602c0.0561523-0.0351562,127.3935547-81.1723633,131.8452148-84.0087891
		C146.1098633,23.6347656,148.0185547,22.9365234,148.6723633,22.9003906z M288.7495117,103.0991211L288.7495117,103.0991211
		L288.7495117,103.0991211z"/>
	<path fill="#8B8B8B" d="M250.0366211,275.7626953H44.8544922V121.5620117c-2.9794922,1.7866211-5.6708984,3.3999023-8,4.7963867
		v157.4042969h221.1821289V126.2543945c-2.3935547-1.4697266-5.078125-3.1171875-8-4.9111328V275.7626953z"/>
	<path fill="#755346" d="M73.0244141,275.7626953c0-7.2001953,0-102.0771484,0-109.2773438c6.5751953,0,50.0131836,0,56.5883789,0
		c0,7.2001953,0,102.0771484,0,109.2773438h8V158.4853516H65.0244141v117.2773438H73.0244141z"/>
	<path fill="#755346" d="M243.8374023,35.828125v38.0712891c2.7294922,1.7739258,5.3994141,3.5107422,8,5.2011719V35.828125
		H243.8374023z M205.784668,35.828125h-8v8.1303711c2.6123047,1.6982422,5.2841797,3.4360352,8,5.2011719V35.828125z"/>
	<path opacity="0.5" fill="#8B8B8B" d="M40.8544922,123.9604492v6.6943359
		c27.3544922-16.4038086,93.9731445-56.940918,112.8637695-68.4404297c-2.796875-1.7167969-4.5634766-2.8012695-5-3.0693359
		C133.4785156,68.4130859,69.2324219,106.9462891,40.8544922,123.9604492z"/>
</g>
</svg>
