<?xml version="1.0" encoding="iso-8859-1"?>
<!-- Generator: Adobe Illustrator 12.0.1, SVG Export Plug-In . SVG Version: 6.00 Build 51448)  -->
<!DOCTYPE svg PUBLIC "-//W3C//DTD SVG 1.0//EN" "http://www.w3.org/TR/2001/REC-SVG-20010904/DTD/svg10.dtd" [
	<!ENTITY ns_svg "http://www.w3.org/2000/svg">
	<!ENTITY ns_xlink "http://www.w3.org/1999/xlink">
]>
<svg  version="1.0" id="Info" xmlns="&ns_svg;" xmlns:xlink="&ns_xlink;" width="252.1484375" height="252.1425781"
	 viewBox="0 0 252.1484375 252.1425781" overflow="visible" enable-background="new 0 0 252.1484375 252.1425781"
	 xml:space="preserve">
<g>
	<linearGradient id="XMLID_3_" gradientUnits="userSpaceOnUse" x1="210.9570312" y1="210.9541016" x2="40.0710449" y2="40.0681152">
		<stop  offset="0" style="stop-color:#7FA3D1"/>
		<stop  offset="1" style="stop-color:#567CB0"/>
	</linearGradient>
	<path fill="url(#XMLID_3_)" enable-background="new    " d="M248.1484375,126.0644531
		c0,67.4287109-54.6396484,122.078125-122.0703125,122.078125C58.640625,248.1425781,4,193.4931641,4,126.0644531
		C4,58.6542969,58.640625,4,126.078125,4C193.5087891,4,248.1484375,58.6542969,248.1484375,126.0644531z"/>
	<path fill="#204780" d="M0,126.0644531c0,69.5195312,56.5585938,126.078125,126.078125,126.078125
		c69.515625,0,126.0703125-56.5585938,126.0703125-126.078125C252.1484375,56.5522461,195.59375,0,126.078125,0
		C56.5585938,0,0,56.5522461,0,126.0644531z M8,126.0644531C8,60.9633789,60.9697266,8,126.078125,8
		c65.1044922,0,118.0703125,52.9633789,118.0703125,118.0644531c0,65.1083984-52.9658203,118.078125-118.0703125,118.078125
		C60.9697266,244.1425781,8,191.1728516,8,126.0644531z"/>
	<radialGradient id="XMLID_4_" cx="85.53125" cy="67.809082" r="160.050293" gradientUnits="userSpaceOnUse">
		<stop  offset="0" style="stop-color:#7FA3D1"/>
		<stop  offset="1" style="stop-color:#567CB0"/>
	</radialGradient>
	<path fill="url(#XMLID_4_)" enable-background="new    " d="M235.2382812,125.4726562
		c0,60.2910156-48.8701172,109.1699219-109.1494141,109.1699219c-60.3286133,0-109.2075195-48.8789062-109.2075195-109.1699219
		c0-60.2675781,48.8789062-109.1508789,109.2075195-109.1508789
		C186.3681641,16.3217773,235.2382812,65.2050781,235.2382812,125.4726562z"/>
	<g>
		<path fill="#7FA3D1" d="M16.5004883,125.4731445c0,60.4067383,49.1611328,109.5512695,109.5883789,109.5512695
			c60.3955078,0,109.53125-49.1445312,109.53125-109.5512695c0-60.3959961-49.1357422-109.5317383-109.53125-109.5317383
			C65.6616211,15.9414062,16.5004883,65.0771484,16.5004883,125.4731445z M24.5004883,125.4731445
			c0-55.9848633,45.5722656-101.5317383,101.5883789-101.5317383c55.984375,0,101.53125,45.546875,101.53125,101.5317383
			c0,55.9956055-45.546875,101.5512695-101.53125,101.5512695C70.0727539,227.0244141,24.5004883,181.46875,24.5004883,125.4731445z
			"/>
	</g>
	<path fill="#FFFFFF" d="M165.3476562,209.9970703H93.5463867v-13.0820312h4.1235352
		c5.4912109,0,7.2246094-0.7539062,9.7392578-2.2753906c2.5063477-1.5087891,4.0517578-3.6425781,4.6210938-6.3974609
		c0.5683594-2.7451172,0.8530273-6.7705078,0.8530273-12.0839844v-42.2275391c0-5.875-0.3554688-10.0463867-1.0668945-12.5117188
		c-0.7099609-2.4614258-2.5595703-4.2661133-5.5449219-5.4033203c-2.9853516-1.1367188-5.7133789-1.75-12.7250977-1.8481445
		v-13.0800781l52.8920898-12.2275391v87.2983398c0,7.9619141,0.9941406,13.4169922,2.9833984,16.3505859
		c1.9912109,2.9414062,7.2978516,4.40625,15.9257812,4.40625V209.9970703z"/>
	<path opacity="0.4" fill="#204780" d="M152.4648438,194.9267578c-1.4638672-3.1308594-2.2001953-8.1123047-2.2001953-14.9414062
		V92.6875l-3.8261719,0.8847656v82.5859375c0,7.9619141,0.9941406,13.4169922,2.9833984,16.3505859
		C150.0761719,193.4746094,151.0957031,194.2783203,152.4648438,194.9267578z M165.3476562,200.6298828v9.3671875h-67.972168
		v3.8261719h71.7993164v-13.0791016C167.8134766,200.7441406,166.5439453,200.703125,165.3476562,200.6298828z
		 M111.4638672,120.4628906c-0.8798828-1.9770508-2.6088867-3.4628906-5.1923828-4.4472656
		c-2.3686523-0.9018555-4.5834961-1.4731445-8.8959961-1.7197266v3.699707
		c7.0117188,0.0976562,9.7387695,0.7109375,12.7246094,1.8481445
		C110.5888672,120.0302734,111.0361328,120.2407227,111.4638672,120.4628906z"/>
	<path fill="#FFFFFF" d="M147.5742188,51.9824219c0,6.2021484-2.2041016,11.4985352-6.5830078,15.8833008
		c-4.3984375,4.3945312-9.6865234,6.5893555-15.871582,6.5893555c-6.0961914,0-11.3833008-2.2529297-15.8798828-6.7446289
		c-4.4873047-4.4873047-6.7363281-9.7299805-6.7363281-15.7280273c0-6.1894531,2.2216797-11.512207,6.6650391-15.9506836
		c4.4257812-4.4389648,9.7578125-6.6650391,15.9511719-6.6650391c6.2915039,0,11.6147461,2.1689453,15.9418945,6.5087891
		C145.3974609,40.2167969,147.5742188,45.5834961,147.5742188,51.9824219z"/>
	<path opacity="0.4" fill="#204780" d="M144.2607422,39.0751953c-0.5478516-0.5493164-1.1123047-1.0625-1.6914062-1.5419922
		c3.3320312,4.0268555,5.0048828,8.8413086,5.0048828,14.4492188c0,6.2021484-2.2041016,11.4985352-6.5830078,15.8833008
		c-4.3984375,4.3945312-9.6865234,6.5893555-15.871582,6.5893555c-5.3662109,0-10.1040039-1.75-14.2290039-5.2314453
		c0.4829102,0.5732422,0.9980469,1.1357422,1.5483398,1.6860352c4.4975586,4.4916992,9.7841797,6.7451172,15.878418,6.7451172
		c6.1865234,0,11.4736328-2.1953125,15.8710938-6.5898438c4.3808594-4.3847656,6.5859375-9.6811523,6.5859375-15.8837891
		C150.7744141,48.7832031,148.5966797,43.4155273,144.2607422,39.0751953z"/>
</g>
</svg>
