<?xml version="1.0" encoding="iso-8859-1"?>
<!-- Generator: Adobe Illustrator 12.0.1, SVG Export Plug-In . SVG Version: 6.00 Build 51448)  -->
<!DOCTYPE svg PUBLIC "-//W3C//DTD SVG 1.0//EN" "http://www.w3.org/TR/2001/REC-SVG-20010904/DTD/svg10.dtd" [
	<!ENTITY ns_svg "http://www.w3.org/2000/svg">
	<!ENTITY ns_xlink "http://www.w3.org/1999/xlink">
]>
<svg  version="1.0" id="iPod" xmlns="&ns_svg;" xmlns:xlink="&ns_xlink;" width="185.9023438" height="298.1650391"
	 viewBox="0 0 185.9023438 298.1650391" overflow="visible" enable-background="new 0 0 185.9023438 298.1650391"
	 xml:space="preserve">
<g>
	<path fill="#FFFFFF" d="M181.9023438,273.5371094c0,11.3876953-9.2294922,20.6279297-20.6191406,20.6279297l-136.6650391-0.1279297
		C13.2207031,294.0371094,4,284.7988281,4,273.4091797V24.6274414C4,13.2202148,13.2207031,4,24.6181641,4l136.6650391,0.109375
		c11.3896484,0,20.6191406,9.2387695,20.6191406,20.6459961V273.5371094z"/>
	<g>
		<path fill="#8B8B8B" d="M0,24.6274414v248.7817383c0,13.5800781,11.043457,24.6279297,24.6181641,24.6279297
			l136.6611328,0.1279297c13.5791016,0,24.6230469-11.0478516,24.6230469-24.6279297V24.7553711
			c0-13.5898438-11.0439453-24.6459961-24.6191406-24.6459961C161.2675781,0.109375,24.621582,0,24.621582,0
			C11.043457,0,0,11.0478516,0,24.6274414z M24.6220703,290.0371094C15.4550781,290.0371094,8,282.578125,8,273.4091797V24.6274414
			C8,15.4589844,15.4550781,8,24.6181641,8l136.6621094,0.109375c9.1669922,0,16.6220703,7.4672852,16.6220703,16.6459961
			v248.7817383c0,9.1689453-7.4550781,16.6279297-16.6191406,16.6279297
			C161.2705078,290.1650391,24.6220703,290.0371094,24.6220703,290.0371094z"/>
	</g>
	<linearGradient id="XMLID_5_" gradientUnits="userSpaceOnUse" x1="21.5830078" y1="25.0473633" x2="162.2626343" y2="271.2345886">
		<stop  offset="0" style="stop-color:#FFFFFF"/>
		<stop  offset="1" style="stop-color:#CCCCCC"/>
	</linearGradient>
	<path fill="url(#XMLID_5_)" d="M166.7890625,269.46875c0,4.9707031-4.0292969,9-9,9H27.1035156c-4.9707031,0-9-4.0292969-9-9
		V28.6455078c0-4.9707031,4.0292969-9,9-9h130.6855469c4.9707031,0,9,4.0292969,9,9V269.46875z"/>
	<path opacity="0.6" fill="#8B8B8B" d="M147.6279297,205.0322266c0,30.5947266-24.7998047,55.4130859-55.4306641,55.4130859
		c-30.5957031,0-55.4233398-24.8183594-55.4233398-55.4130859c0-30.6318359,24.8276367-55.4316406,55.4233398-55.4316406
		C122.828125,149.6005859,147.6279297,174.4003906,147.6279297,205.0322266z"/>
	<radialGradient id="XMLID_6_" cx="68.9116211" cy="168.3681641" r="93.4513855" gradientUnits="userSpaceOnUse">
		<stop  offset="0" style="stop-color:#CACACA"/>
		<stop  offset="1" style="stop-color:#B0B0B0"/>
	</radialGradient>
	<path fill="url(#XMLID_6_)" d="M148.3095703,205.7138672c0,30.5947266-24.7998047,55.4130859-55.4311523,55.4130859
		c-30.5952148,0-55.4228516-24.8183594-55.4228516-55.4130859c0-30.6318359,24.8276367-55.4316406,55.4228516-55.4316406
		C123.5097656,150.2822266,148.3095703,175.0820312,148.3095703,205.7138672z"/>
	<radialGradient id="XMLID_7_" cx="85.1777344" cy="197.3837891" r="27.7624912" gradientUnits="userSpaceOnUse">
		<stop  offset="0" style="stop-color:#FFFFFF"/>
		<stop  offset="1" style="stop-color:#E6E6E6"/>
	</radialGradient>
	<path fill="url(#XMLID_7_)" d="M110.8095703,205.4238281c0,10.0576172-8.1367188,18.2207031-18.2133789,18.2207031
		c-10.0585938,0-18.2133789-8.1630859-18.2133789-18.2207031c0-10.078125,8.1547852-18.2236328,18.2133789-18.2236328
		C102.6728516,187.2001953,110.8095703,195.3457031,110.8095703,205.4238281z"/>
	<path opacity="0.4" fill="#8B8B8B" d="M107.2519531,194.6240234c2.2265625,3.0224609,3.5576172,6.7490234,3.5576172,10.7998047
		c0,10.0576172-8.1367188,18.2207031-18.2133789,18.2207031c-4.0292969,0-7.7407227-1.3261719-10.7573242-3.5429688
		c3.3149414,4.4960938,8.6308594,7.4267578,14.6503906,7.4267578c10.0673828,0,18.2128906-8.1630859,18.2128906-18.2216797
		C114.7021484,203.2675781,111.7636719,197.9375,107.2519531,194.6240234z"/>
	<linearGradient id="XMLID_8_" gradientUnits="userSpaceOnUse" x1="54.1254883" y1="48.7880859" x2="149.5462189" y2="123.2451096">
		<stop  offset="0" style="stop-color:#AAD08B"/>
		<stop  offset="1" style="stop-color:#94B089"/>
	</linearGradient>
	<path fill="url(#XMLID_8_)" d="M157.3427734,122.875c0,3.8662109-3.1337891,7-7,7H35.4267578c-3.8662109,0-7-3.1337891-7-7
		V35.1889648c0-3.8662109,3.1337891-7,7-7h114.9160156c3.8662109,0,7,3.1337891,7,7V122.875z"/>
	<path fill="#92B078" d="M34.8876953,38.9086914c0-2.2089844,1.7910156-4,4-4h118.4414062
		c-0.1484375-3.7353516-3.2148438-6.7197266-6.9863281-6.7197266H35.4267578c-3.8662109,0-7,3.1337891-7,7V122.875
		c0,3.684082,2.8476562,6.6967773,6.4609375,6.9726562V38.9086914z"/>
</g>
</svg>
