<?xml version="1.0" encoding="iso-8859-1"?>
<!-- Generator: Adobe Illustrator 12.0.1, SVG Export Plug-In . SVG Version: 6.00 Build 51448)  -->
<!DOCTYPE svg PUBLIC "-//W3C//DTD SVG 1.0//EN" "http://www.w3.org/TR/2001/REC-SVG-20010904/DTD/svg10.dtd" [
	<!ENTITY ns_svg "http://www.w3.org/2000/svg">
	<!ENTITY ns_xlink "http://www.w3.org/1999/xlink">
]>
<svg  version="1.0" id="Link" xmlns="&ns_svg;" xmlns:xlink="&ns_xlink;" width="298.5366211" height="298.0756836"
	 viewBox="0 0 298.5366211 298.0756836" overflow="visible" enable-background="new 0 0 298.5366211 298.0756836"
	 xml:space="preserve">
<g>
	
		<radialGradient id="XMLID_15_" cx="50.4501953" cy="171.5200195" r="145.2667084" gradientTransform="matrix(0.7071 0.7071 -0.7071 0.7071 138.4504395 -134.5348816)" gradientUnits="userSpaceOnUse">
		<stop  offset="0" style="stop-color:#B6B6B6"/>
		<stop  offset="1" style="stop-color:#8B8B8B"/>
	</radialGradient>
	<path fill="url(#XMLID_15_)" d="M163.230957,77.215332c0,0-14.8828125-16.5332031-29.0371094-30.6875
		s-33.8300781-32.1918945-33.8300781-32.1918945C85.4091797,1.112793,61.9267578-0.0053711,44.4526367,14.3256836
		c0,0-6.4379883,4.2558594-15.9951172,13.8134766C18.8999023,37.6962891,14.793457,43.9956055,14.793457,43.9956055
		c-14.3232422,16.2744141-14.6884766,38.9086914,0,55.8916016c0,0,17.2202148,19.6074219,29.9702148,32.3579102
		c12.7504883,12.7504883,32.9277344,30.5249023,32.9277344,30.5249023c16.8920898,14.3818359,38.8798828,14.0761719,55.8813477,0
		c0,0,6.980957-5.265625,15.6298828-13.9145508c7.9619141-7.9614258,14.0400391-15.7397461,14.0400391-15.7397461
		C177.6489258,116.074707,177.6489258,92.8647461,163.230957,77.215332z M123.1162109,122.7026367
		c-3.3735352,3.3740234-9.4033203,8.1987305-9.4033203,8.1987305c-4.2490234,4.2495117-11.144043,4.2495117-15.3930664,0
		L46.3457031,78.9155273c-4.2602539-4.2607422-4.2504883-11.1337891,0-15.3862305c0,0,4.9521484-6.0268555,8.2612305-9.3359375
		c3.309082-3.3085938,9.4614258-8.394043,9.4614258-8.394043c4.2597656-4.2480469,11.1230469-4.2617188,15.3823242,0
		l51.9853516,51.9858398c4.2597656,4.2495117,4.2597656,11.1342773-0.0009766,15.3818359
		C131.4350586,113.1669922,126.4902344,119.3291016,123.1162109,122.7026367z"/>
	<path fill="#717171" d="M42.1831055,11.0322266c-0.5200195,0.3466797-7.0195312,4.7436523-16.5541992,14.2788086
		c-9.2426758,9.2421875-13.5117188,15.4887695-14.0795898,16.3417969C3.8598633,50.5258789,0,61.1582031,0,71.8330078
		c0,10.7817383,3.9223633,21.5996094,11.7680664,30.6708984c0.1928711,0.2197266,17.4726562,19.8745117,30.1669922,32.5698242
		c12.6933594,12.6928711,32.909668,30.5195312,33.1123047,30.6982422
		c18.3408203,15.6152344,42.2944336,15.6289062,61.0761719,0.0791016l-0.1420898,0.1123047
		c0.2939453-0.2216797,7.3041992-5.5341797,16.0493164-14.2792969c8.0429688-8.0419922,14.109375-15.7797852,14.3632812-16.1054688
		l-0.0966797,0.1196289c15.5976562-18.4501953,15.5449219-44.1855469-0.125-61.1933594l0.03125,0.0341797
		c-0.1494141-0.1660156-15.1152344-16.7739258-29.1811523-30.8398438
		c-14.0532227-14.0527344-33.7583008-32.1308594-33.9555664-32.3120117
		C86.0229492-3.684082,60.4960938-3.7875977,42.1831055,11.0322266z M80.284668,159.7241211
		c-0.1499023-0.1328125-20.1796875-17.7944336-32.6923828-30.3076172
		C35.0820312,116.90625,17.9702148,97.4428711,17.7988281,97.2475586
		C4.6015625,81.9882812,4.5922852,61.640625,17.7963867,46.6381836l0.1865234-0.2119141l0.1582031-0.2412109
		c0.0395508-0.0600586,4.0629883-6.1362305,13.1445312-15.2172852c9.0966797-9.097168,15.3154297-13.2670898,15.3774414-13.3081055
		l0.1665039-0.1108398l0.159668-0.1303711c15.277832-12.5297852,36.6108398-12.565918,50.7250977-0.0859375
		c0.1425781,0.1318359,19.722168,18.0947266,33.6508789,32.0239258
		c13.9140625,13.9140625,28.7446289,30.3706055,28.8930664,30.5351562l0.03125,0.0341797
		c13.1044922,14.2246094,13.0634766,35.0351562-0.1015625,50.6074219l-0.0966797,0.1191406
		c-0.0595703,0.0761719-6.0351562,7.6933594-13.7167969,15.3745117
		c-8.3242188,8.3242188-15.1435547,13.4990234-15.2119141,13.5507812l-0.0708008,0.0537109l-0.0698242,0.0576172
		C115.3828125,172.637207,95.4672852,172.6508789,80.284668,159.7241211z"/>
	<radialGradient id="XMLID_16_" cx="74.7055664" cy="12.3720703" r="80.217598" gradientUnits="userSpaceOnUse">
		<stop  offset="0" style="stop-color:#CFCFCF"/>
		<stop  offset="0.2580658" style="stop-color:#C9C9C9"/>
		<stop  offset="0.6016622" style="stop-color:#B8B8B8"/>
		<stop  offset="0.9920504" style="stop-color:#9C9C9C"/>
		<stop  offset="1" style="stop-color:#9C9C9C"/>
	</radialGradient>
	<path opacity="0.5" fill="url(#XMLID_16_)" d="M160.2583008,79.8916016
		c-0.1484375-0.1645508-14.9790039-16.6210938-28.8930664-30.5351562
		c-13.9287109-13.9291992-33.5083008-31.8920898-33.6508789-32.0239258
		C83.6000977,4.8525391,62.2670898,4.8886719,46.9892578,17.418457l-0.159668,0.1303711l-0.1665039,0.1108398
		c-0.0620117,0.0410156-6.2807617,4.2109375-15.3774414,13.3081055C22.2041016,40.0488281,18.1806641,46.125,18.1411133,46.1850586
		l-0.1582031,0.2412109l-0.1865234,0.2119141c-4.8203125,5.4770508-7.871582,11.6674805-9.1708984,18.0615234
		c9.7333984-13.4970703,38.9536133-56.6308594,68.7021484-51.0024414
		c23.0532227,4.3618164,77.2646484,57.3374023,92.1015625,84.1069336
		c-1.2529297-6.4609375-4.2949219-12.6201172-9.1396484-17.878418L160.2583008,79.8916016z"/>
	
		<radialGradient id="XMLID_17_" cx="220.9731445" cy="171.5200195" r="145.2656708" gradientTransform="matrix(0.7071 0.7071 -0.7071 0.7071 138.4504395 -134.5348816)" gradientUnits="userSpaceOnUse">
		<stop  offset="0" style="stop-color:#B6B6B6"/>
		<stop  offset="1" style="stop-color:#8B8B8B"/>
	</radialGradient>
	<path fill="url(#XMLID_17_)" d="M283.8081055,197.7915039c0,0-14.8828125-16.5322266-29.0380859-30.6875
		c-14.1542969-14.1542969-33.8300781-32.1914062-33.8300781-32.1914062
		c-14.9550781-13.2231445-38.4365234-14.3413086-55.9101562-0.0102539c0,0-6.4384766,4.2558594-15.9960938,13.8129883
		c-9.5571289,9.5576172-13.6640625,15.8564453-13.6640625,15.8564453c-14.3232422,16.2744141-14.6879883,38.9082031,0,55.8916016
		c0,0,17.2207031,19.6083984,29.9707031,32.3583984c12.75,12.7509766,32.9277344,30.5244141,32.9277344,30.5244141
		c16.8916016,14.3818359,38.8789062,14.0771484,55.8808594,0c0,0,6.9824219-5.2646484,15.6298828-13.9140625
		c7.9619141-7.9619141,14.0410156-15.7402344,14.0410156-15.7402344
		C298.2250977,236.6508789,298.2250977,213.4418945,283.8081055,197.7915039z M243.6918945,243.2797852
		c-3.3730469,3.3740234-9.4023438,8.1982422-9.4023438,8.1982422c-4.2490234,4.25-11.1445312,4.25-15.3925781,0
		l-51.9736328-51.9853516c-4.2617188-4.2617188-4.2519531-11.1337891,0-15.3876953c0,0,4.9511719-6.0263672,8.2607422-9.3349609
		c3.3085938-3.3085938,9.4599609-8.3935547,9.4599609-8.3935547c4.2607422-4.2480469,11.1240234-4.2617188,15.3837891,0
		l51.9853516,51.9853516c4.2597656,4.25,4.2597656,11.1337891-0.0009766,15.3818359
		C252.012207,233.7436523,247.065918,239.9057617,243.6918945,243.2797852z"/>
	<path fill="#717171" d="M162.7602539,131.6088867c-0.5214844,0.3476562-7.0205078,4.7441406-16.5546875,14.277832
		c-9.2431641,9.2436523-13.5126953,15.4897461-14.0800781,16.3422852
		c-7.6894531,8.8720703-11.5488281,19.5048828-11.5488281,30.1796875c0,10.78125,3.921875,21.5996094,11.7675781,30.6708984
		c0.1928711,0.2207031,17.4731445,19.8759766,30.1679688,32.5703125
		c12.6923828,12.6943359,32.9091797,30.5195312,33.1123047,30.6982422
		c18.3398438,15.6162109,42.2939453,15.6298828,61.0751953,0.0791016l-0.1425781,0.1132812
		c0.2939453-0.2226562,7.3056641-5.5341797,16.0507812-14.2802734c8.0419922-8.0419922,14.109375-15.7792969,14.3632812-16.1054688
		l-0.0966797,0.1191406c15.5957031-18.4492188,15.5439453-44.1845703-0.1240234-61.1923828l0.0302734,0.0341797
		c-0.1494141-0.1669922-15.1152344-16.7734375-29.1826172-30.8398438
		c-14.0527344-14.0537109-33.7578125-32.1308594-33.9550781-32.3120117
		C206.5991211,116.8930664,181.0717773,116.7895508,162.7602539,131.6088867z M200.8608398,280.300293
		c-0.1494141-0.1328125-20.1796875-17.7939453-32.6923828-30.3066406
		c-12.5097656-12.5107422-29.6220703-31.9746094-29.793457-32.1699219
		c-13.1967773-15.2597656-13.2060547-35.6074219-0.0024414-50.609375l0.1860352-0.2119141l0.1582031-0.2412109
		c0.0395508-0.0595703,4.0639648-6.1357422,13.1450195-15.2177734c9.0966797-9.0957031,15.3164062-13.2661133,15.3779297-13.3071289
		l0.1669922-0.1108398l0.1591797-0.1303711c15.2773438-12.5292969,36.6103516-12.565918,50.7246094-0.0859375
		c0.1425781,0.1318359,19.7226562,18.0942383,33.6513672,32.0229492
		c13.9150391,13.9150391,28.7451172,30.3710938,28.8935547,30.5351562l0.0302734,0.0341797
		c13.1044922,14.2255859,13.0625,35.0361328-0.1005859,50.6083984l-0.0966797,0.1181641
		c-0.0595703,0.0761719-6.0361328,7.6933594-13.7177734,15.3759766
		c-8.3232422,8.3242188-15.1435547,13.4980469-15.2109375,13.5488281l-0.0712891,0.0546875l-0.0703125,0.0576172
		C235.9594727,293.2133789,216.043457,293.2270508,200.8608398,280.300293z"/>
	<radialGradient id="XMLID_18_" cx="141.4072266" cy="187.8979492" r="42.2778893" gradientUnits="userSpaceOnUse">
		<stop  offset="0" style="stop-color:#737373"/>
		<stop  offset="1" style="stop-color:#949494"/>
	</radialGradient>
	<path opacity="0.5" fill="url(#XMLID_18_)" d="M159.7915039,214.2670898
		c3.5839844,3.5830078,9.1054688,4.4912109,14.5205078,3.5693359c-3.9775391-0.8867188-7.6357422-2.8652344-10.5878906-5.8173828
		l-32.7587891-32.7587891c-0.6020508,1.546875-1.0917969,3.1181641-1.4755859,4.703125L159.7915039,214.2670898z"/>
	<radialGradient id="XMLID_19_" cx="195.8178711" cy="207.3022461" r="157.9227448" gradientUnits="userSpaceOnUse">
		<stop  offset="0" style="stop-color:#737373"/>
		<stop  offset="1" style="stop-color:#949494"/>
	</radialGradient>
	<path opacity="0.5" fill="url(#XMLID_19_)" d="M280.7651367,251.1098633
		c5.0029297-5.9179688,8.1044922-12.5927734,9.3154297-19.375c-9.0966797,12.4775391-38.9169922,57.5566406-69.2871094,51.8105469
		c-22.6689453-4.2890625-75.4672852-55.5849609-91.328125-82.7470703c1.4272461,5.9921875,4.3959961,11.8066406,8.909668,17.0253906
		c0.1713867,0.1953125,17.2836914,19.6591797,29.793457,32.1699219
		c12.5126953,12.5126953,32.5429688,30.1738281,32.6923828,30.3066406
		c15.1826172,12.9267578,35.0986328,12.9130859,50.7373047-0.0351562l0.0703125-0.0576172l0.0712891-0.0546875
		c0.0673828-0.0507812,6.8876953-5.2246094,15.2109375-13.5488281c7.6816406-7.6826172,13.6582031-15.2998047,13.7177734-15.3759766
		L280.7651367,251.1098633z"/>
	<radialGradient id="XMLID_20_" cx="119.3725586" cy="98.6923828" r="111.8895111" gradientUnits="userSpaceOnUse">
		<stop  offset="0" style="stop-color:#B6B6B6"/>
		<stop  offset="1" style="stop-color:#8B8B8B"/>
	</radialGradient>
	<path fill="url(#XMLID_20_)" d="M209.7768555,165.9672852c6.9111328,6.9121094,6.9111328,18.1171875,0,25.0292969
		L191.581543,209.190918c-6.9121094,6.9121094-18.1171875,6.9121094-25.0292969,0l-81.1538086-81.1552734
		c-6.9111328-6.9116211-6.9111328-18.1181641,0-25.0297852l18.1933594-18.1928711
		c6.9116211-6.9116211,18.1181641-6.9116211,25.0297852,0L209.7768555,165.9672852z"/>
	<path fill="#717171" d="M100.7631836,81.984375l-18.1933594,18.1928711c-8.4594727,8.4604492-8.4594727,22.2265625,0,30.6865234
		l81.1542969,81.1552734c4.0986328,4.0986328,9.546875,6.3564453,15.3427734,6.3564453s11.2441406-2.2578125,15.3427734-6.3564453
		l18.1953125-18.1943359c8.4589844-8.4599609,8.4589844-22.2255859,0.0009766-30.6855469L131.4501953,81.984375
		c-4.0986328-4.0981445-9.5473633-6.3549805-15.3432617-6.3549805
		C110.3105469,75.6293945,104.8618164,77.8862305,100.7631836,81.984375z M169.3803711,206.362793l-81.1533203-81.1557617
		c-5.3408203-5.3408203-5.3408203-14.0317383,0-19.3730469l18.1933594-18.1923828
		c2.5869141-2.5874023,6.0273438-4.012207,9.6865234-4.012207c3.6586914,0,7.0991211,1.4248047,9.6860352,4.012207
		c0,0,81.1508789,81.1489258,81.1547852,81.1538086c5.3408203,5.3408203,5.3408203,14.0322266,0,19.3730469L188.753418,206.362793
		C183.4125977,211.7036133,174.722168,211.7036133,169.3803711,206.362793z"/>
	<radialGradient id="XMLID_21_" cx="98.9311523" cy="99.4555664" r="50.082592" gradientUnits="userSpaceOnUse">
		<stop  offset="0" style="stop-color:#737373"/>
		<stop  offset="1" style="stop-color:#949494"/>
	</radialGradient>
	<path opacity="0.5" fill="url(#XMLID_21_)" d="M106.2368164,61.6948242
		C95.4628906,50.503418,85.0327148,35.4936523,73.6147461,34.0976562
		c-8.640625-1.0556641-13.8886719,7.2949219-19.8676758,12.7651367
		C45.347168,54.5483398,39.5263672,63.4506836,39.472168,68.2436523c0.5410156-2.6679688,1.8188477-5.2119141,3.8300781-7.3105469
		c0.4814453-0.5849609,5.1757812-6.2675781,8.4765625-9.5683594c3.4038086-3.4033203,9.4838867-8.4360352,9.7412109-8.6484375
		l-0.2763672,0.2504883c5.8081055-5.7919922,15.2451172-5.7895508,21.0356445,0.0039062l32.7128906,32.7128906
		c0.371582-0.0185547,0.7397461-0.0541992,1.1147461-0.0541992c1.5932617,0,3.1557617,0.1865234,4.6757812,0.519043
		C116.0688477,71.484375,111.0058594,66.6489258,106.2368164,61.6948242z M43.5166016,60.7016602
		c-0.0751953,0.0751953-0.1416016,0.1552734-0.2143555,0.2314453c-0.0161133,0.019043-0.0405273,0.0488281-0.046875,0.0566406
		L43.5166016,60.7016602z"/>
	<path fill="#717171" d="M254.8383789,215.5297852l-35.9414062-35.9414062
		c-0.15625,3.0761719-0.9404297,6.1240234-2.3945312,8.9199219c14.7910156,14.7910156,32.6826172,32.6816406,32.6826172,32.6816406
		c1.3056641,1.3037109,2.0234375,3.0292969,2.0224609,4.8642578c0,1.8339844-0.7177734,3.5585938-2.0195312,4.8564453
		l-0.15625,0.15625l-0.1386719,0.1728516c-0.0478516,0.0595703-4.8515625,6.0332031-8.0292969,9.2119141h-0.0009766
		c-3.1748047,3.1757812-9.0136719,7.8564453-9.0722656,7.9033203l-0.1728516,0.1386719l-0.1572266,0.15625
		c-1.2988281,1.2998047-3.0283203,2.015625-4.8681641,2.015625c-1.8388672,0-3.5673828-0.7158203-4.8662109-2.015625
		l-32.6933594-32.7001953c-2.7451172,1.4238281-5.7802734,2.2285156-8.9365234,2.3759766l35.9716797,35.9804688
		c2.8095703,2.8105469,6.5478516,4.359375,10.5244141,4.359375c3.8466797,0,7.4619141-1.4599609,10.2392578-4.0986328
		c0.5068359-0.40625,6.2822266-5.0507812,9.6884766-8.4589844c3.4082031-3.4082031,8.1669922-9.3076172,8.5771484-9.8183594
		c2.6455078-2.7763672,4.1103516-6.3896484,4.1103516-10.234375
		C259.2084961,222.0805664,257.6567383,218.3422852,254.8383789,215.5297852z"/>
	<path fill="#717171" d="M49.1748047,66.3569336L49.3125,66.2192383l0.1235352-0.1503906
		c0.0483398-0.0585938,4.8686523-5.9165039,7.9995117-9.046875c3.1347656-3.1347656,9.1210938-8.0898438,9.1811523-8.1396484
		l0.144043-0.1186523l0.1323242-0.1318359c2.6875-2.6806641,7.0522461-2.6831055,9.7285156-0.0048828
		c0,0,15.4145508,15.4155273,29.456543,29.4570312c2.7368164-1.4301758,5.7641602-2.2412109,8.9140625-2.4003906
		L82.2792969,42.9707031c-5.7905273-5.793457-15.2275391-5.7958984-21.0356445-0.0039062l0.2763672-0.2504883
		c-0.2573242,0.2124023-6.3374023,5.2451172-9.7412109,8.6484375c-3.4082031,3.4082031-8.3164062,9.3730469-8.5234375,9.625
		l0.2612305-0.2880859c-5.7998047,5.8022461-5.7993164,15.2416992,0.0004883,21.0419922l32.7563477,32.7636719
		c0.1430664-3.0830078,0.9199219-6.1401367,2.3676758-8.9462891L49.1743164,76.0874023
		C46.4926758,73.4052734,46.4926758,69.0405273,49.1748047,66.3569336z"/>
	<radialGradient id="XMLID_22_" cx="209.9868164" cy="220.2348633" r="40.9850998" gradientUnits="userSpaceOnUse">
		<stop  offset="0" style="stop-color:#CFCFCF"/>
		<stop  offset="0.2580658" style="stop-color:#C9C9C9"/>
		<stop  offset="0.6016622" style="stop-color:#B8B8B8"/>
		<stop  offset="0.9920504" style="stop-color:#9C9C9C"/>
		<stop  offset="1" style="stop-color:#9C9C9C"/>
	</radialGradient>
	<path opacity="0.5" fill="url(#XMLID_22_)" d="M259.175293,226.7231445c-0.1591797,3.59375-1.5869141,6.9521484-4.078125,9.5664062
		c-0.4101562,0.5107422-5.1689453,6.4101562-8.5771484,9.8183594c-3.40625,3.4082031-9.1816406,8.0527344-9.6884766,8.4589844
		c-2.7773438,2.6386719-6.3925781,4.0986328-10.2392578,4.0986328c-3.9765625,0-7.7148438-1.5488281-10.5244141-4.359375
		l-35.9716797-35.9804688c-0.34375,0.015625-0.6835938,0.0498047-1.0292969,0.0498047
		c-1.2119141,0-2.4033203-0.1210938-3.5751953-0.3144531c5.3623047,5.3935547,11.3554688,11.0361328,16.9414062,16.8388672
		c10.8144531,11.2324219,21.28125,26.296875,32.7402344,27.6962891c8.6728516,1.0605469,13.9384766-7.3203125,19.9394531-12.8105469
		C254.6030273,241.1040039,260.8081055,230.8764648,259.175293,226.7231445z"/>
	<radialGradient id="XMLID_23_" cx="53.9365234" cy="68.4824219" r="35.0761414" gradientUnits="userSpaceOnUse">
		<stop  offset="0" style="stop-color:#CFCFCF"/>
		<stop  offset="0.2580658" style="stop-color:#C9C9C9"/>
		<stop  offset="0.6016622" style="stop-color:#B8B8B8"/>
		<stop  offset="0.9920504" style="stop-color:#9C9C9C"/>
		<stop  offset="1" style="stop-color:#9C9C9C"/>
	</radialGradient>
	<path opacity="0.5" fill="url(#XMLID_23_)" d="M76.2734375,114.5073242L43.5170898,81.7436523
		c-4.2832031-4.2832031-5.3930664-10.5488281-3.3505859-15.8710938
		c-8.9619141,12.3974609,13.5249023,29.5800781,31.690918,48.4506836c1.5839844,1.6450195,3.1601562,3.3735352,4.7333984,5.1279297
		C76.2924805,117.8188477,76.1967773,116.1606445,76.2734375,114.5073242z"/>
	<radialGradient id="XMLID_24_" cx="225.3774414" cy="132.9536133" r="67.3619537" gradientUnits="userSpaceOnUse">
		<stop  offset="0" style="stop-color:#CFCFCF"/>
		<stop  offset="0.2580658" style="stop-color:#C9C9C9"/>
		<stop  offset="0.6016622" style="stop-color:#B8B8B8"/>
		<stop  offset="0.9920504" style="stop-color:#9C9C9C"/>
		<stop  offset="1" style="stop-color:#9C9C9C"/>
	</radialGradient>
	<path opacity="0.5" fill="url(#XMLID_24_)" d="M280.8657227,200.5014648l-0.0302734-0.0341797
		c-0.1484375-0.1640625-14.9785156-16.6201172-28.8935547-30.5351562
		c-13.9287109-13.9287109-33.5087891-31.8911133-33.6513672-32.0229492
		c-10.4941406-9.2792969-24.9785156-11.6328125-37.9980469-7.0825195l4.0224609,4.0214844
		c4.4716797-1.1494141,9.0234375-1.4379883,13.5888672-0.5742188c23.0527344,4.3613281,77.2607422,57.3320312,92.1005859,84.1035156
		C288.7514648,211.9174805,285.7094727,205.7592773,280.8657227,200.5014648z"/>
	<radialGradient id="XMLID_25_" cx="249.0522461" cy="261.9780273" r="52.8922272" gradientUnits="userSpaceOnUse">
		<stop  offset="0" style="stop-color:#737373"/>
		<stop  offset="1" style="stop-color:#949494"/>
	</radialGradient>
	<path opacity="0.5" fill="url(#XMLID_25_)" d="M226.8129883,182.2719727
		c-2.8984375-3.0107422-5.7714844-6.2978516-8.6464844-9.5214844c0.6083984,2.2333984,0.8466797,4.5410156,0.7304688,6.8378906
		l35.9414062,35.9414062c2.8183594,2.8125,4.3701172,6.5507812,4.3691406,10.5253906
		c0,1.4248047-0.2070312,2.8164062-0.59375,4.1484375C266.894043,217.878418,244.7475586,200.9018555,226.8129883,182.2719727z"/>
	<radialGradient id="XMLID_26_" cx="121.0522461" cy="97.4794922" r="91.7551117" gradientUnits="userSpaceOnUse">
		<stop  offset="0" style="stop-color:#CFCFCF"/>
		<stop  offset="0.2580658" style="stop-color:#C9C9C9"/>
		<stop  offset="0.6016622" style="stop-color:#B8B8B8"/>
		<stop  offset="0.9920504" style="stop-color:#9C9C9C"/>
		<stop  offset="1" style="stop-color:#9C9C9C"/>
	</radialGradient>
	<path opacity="0.5" fill="url(#XMLID_26_)" d="M206.9477539,168.7954102
		c-0.0039062-0.0048828-81.1547852-81.1538086-81.1547852-81.1538086c-2.5869141-2.5874023-6.0273438-4.012207-9.6860352-4.012207
		c-3.6591797,0-7.0996094,1.4248047-9.6865234,4.012207l-18.1933594,18.1923828
		c-3.9248047,3.925293-4.9541016,9.6557617-3.1103516,14.5400391c4.8256836-10.109375,23.3500977-29.7402344,31.5024414-30.5952148
		s78.777832,75.2685547,93.9799805,91.7480469C211.6040039,177.0874023,210.3969727,172.2446289,206.9477539,168.7954102z"/>
	<radialGradient id="XMLID_27_" cx="54.7055664" cy="170.0786133" r="203.1170502" gradientUnits="userSpaceOnUse">
		<stop  offset="0" style="stop-color:#737373"/>
		<stop  offset="1" style="stop-color:#949494"/>
	</radialGradient>
	<path opacity="0.5" fill="url(#XMLID_27_)" d="M76.2402344,115.8334961
		c-2.4936523,6.2568359-1.2124023,13.6679688,3.8525391,18.7319336l28.7280273,28.7290039
		c-2.8520508,0.2978516-5.7255859,0.2197266-8.6044922-0.3251953c-22.6699219-4.2890625-75.46875-55.5869141-91.328125-82.7490234
		c1.4272461,5.9926758,4.3964844,11.8076172,8.9106445,17.0273438c0.1713867,0.1953125,17.2832031,19.6586914,29.793457,32.1689453
		c12.5126953,12.5131836,32.5424805,30.1748047,32.6923828,30.3076172
		c11.3974609,9.7041016,25.4614258,12.1142578,38.3818359,7.2363281l-36.0966797-36.0966797
		C78.4194336,126.7133789,76.3183594,121.2851562,76.2402344,115.8334961z"/>
	<radialGradient id="XMLID_28_" cx="167.3422852" cy="118.1499023" r="6.8708129" gradientUnits="userSpaceOnUse">
		<stop  offset="0" style="stop-color:#737373"/>
		<stop  offset="1" style="stop-color:#949494"/>
	</radialGradient>
	<path opacity="0.5" fill="url(#XMLID_28_)" d="M165.7915039,116.3256836l1.7724609,1.7719727
		c0.8662109-2.2841797,1.5244141-4.6049805,1.9414062-6.9414062
		C168.5092773,112.5229492,167.2592773,114.2866211,165.7915039,116.3256836z"/>
</g>
</svg>
