<?xml version="1.0" encoding="iso-8859-1"?>
<!-- Generator: Adobe Illustrator 12.0.1, SVG Export Plug-In . SVG Version: 6.00 Build 51448)  -->
<!DOCTYPE svg PUBLIC "-//W3C//DTD SVG 1.0//EN" "http://www.w3.org/TR/2001/REC-SVG-20010904/DTD/svg10.dtd" [
	<!ENTITY ns_svg "http://www.w3.org/2000/svg">
	<!ENTITY ns_xlink "http://www.w3.org/1999/xlink">
]>
<svg  version="1.0" id="Lock__x28_Open_x29_" xmlns="&ns_svg;" xmlns:xlink="&ns_xlink;" width="230.3251953" height="292.284668"
	 viewBox="0 0 230.3251953 292.284668" overflow="visible" enable-background="new 0 0 230.3251953 292.284668"
	 xml:space="preserve">
<g>
	<path fill="#A877A6" enable-background="new    " d="M226.3251953,278.284668c0,5.5224609-4.4775391,10-10,10H14
		c-5.5224609,0-10-4.4775391-10-10V123.0087891c0-5.5229492,4.4775391-10,10-10h202.3251953c5.5224609,0,10,4.4770508,10,10
		V278.284668z"/>
	<path fill="#692C65" d="M14,109.0087891c-7.7197266,0-14,6.2802734-14,14V278.284668c0,7.7197266,6.2802734,14,14,14h202.3251953
		c7.7197266,0,14-6.2802734,14-14V123.0087891c0-7.7197266-6.2802734-14-14-14H14z M8,278.284668V123.0087891
		c0-3.3085938,2.6914062-6,6-6h202.3251953c3.3085938,0,6,2.6914062,6,6V278.284668c0,3.3085938-2.6914062,6-6,6H14
		C10.6914062,284.284668,8,281.5932617,8,278.284668z"/>
	<radialGradient id="XMLID_3_" cx="119.0585938" cy="65.6835938" r="24.5498352" gradientUnits="userSpaceOnUse">
		<stop  offset="0" style="stop-color:#A877A6"/>
		<stop  offset="1" style="stop-color:#80467D"/>
	</radialGradient>
	<path fill="url(#XMLID_3_)" d="M213.5390625,273.8774414c0,1.1044922-0.8955078,2-2,2h-193c-1.1044922,0-2-0.8955078-2-2v-146
		c0-1.1044922,0.8955078-2,2-2h193c1.1044922,0,2,0.8955078,2,2V273.8774414z"/>
	<rect x="16.5390625" y="171.7788086" opacity="0.5" fill="#A877A6" width="197" height="2.1132812"/>
	<rect x="16.5390625" y="185.8706055" opacity="0.5" fill="#A877A6" width="197" height="2.1132812"/>
	<rect x="16.5390625" y="157.8012695" opacity="0.5" fill="#A877A6" width="197" height="2.1132812"/>
	<rect x="16.5390625" y="129.902832" opacity="0.5" fill="#A877A6" width="197" height="2.1132812"/>
	<rect x="16.5390625" y="143.8803711" opacity="0.5" fill="#A877A6" width="197" height="2.1132812"/>
	<rect x="16.5390625" y="227.8598633" opacity="0.5" fill="#A877A6" width="197" height="2.1132812"/>
	<rect x="16.5390625" y="255.7583008" opacity="0.5" fill="#A877A6" width="197" height="2.1132812"/>
	<rect x="16.5390625" y="269.8491211" opacity="0.5" fill="#A877A6" width="197" height="2.1132812"/>
	<rect x="16.5390625" y="199.8481445" opacity="0.5" fill="#A877A6" width="197" height="2.1132812"/>
	<rect x="16.5390625" y="213.8823242" opacity="0.5" fill="#A877A6" width="197" height="2.1132812"/>
	<rect x="16.5390625" y="241.7807617" opacity="0.5" fill="#A877A6" width="197" height="2.1132812"/>
	<path opacity="0.25" fill="#73286F" d="M138.2744141,169.3774414H88.2939453
		c-40.2138672,0-70.4570312-13.8701172-70.4570312-34.4995117c0,0,0.6933594-4.2646484,5.6088867-4.2646484h37.7250977
		c6.0673828,0,6.9785156,4.5249023,6.9785156,4.5249023c0,7.6455078,5.2402344,6.6411133,20.1445312,6.6411133h49.9804688
		c14.9042969,0,23.9570312-1.9755859,23.9570312-9.6210938v-15.3261719c0,0,3.4746094,3.7797852,6.1582031,3.7797852h39.6279297
		c2.5273438,0,7.1640625-3.8076172,7.1640625-3.8076172v15.1630859
		C215.1816406,152.5961914,178.4882812,169.3774414,138.2744141,169.3774414z"/>
	<linearGradient id="XMLID_4_" gradientUnits="userSpaceOnUse" x1="115.2055664" y1="47.3852539" x2="115.2055664" y2="14.7970695">
		<stop  offset="0" style="stop-color:#A6A6A6"/>
		<stop  offset="1" style="stop-color:#D1D1D1"/>
	</linearGradient>
	<path fill="url(#XMLID_4_)" d="M139.7050781,4h-49c-39.4248047,0-71.5,32.074707-71.5,71.5v4.3452148
		c1.1230469,2.2075195,3.4101562,3.7231445,6.0566406,3.7231445h33.1347656c2.4648438,0,4.6171875-1.3168945,5.8085938-3.28125V70.5
		c0-14.6123047,11.8876953-26.5,26.5-26.5h49c14.6123047,0,26.5,11.8876953,26.5,26.5v47.3857422
		c1.1298828,2.1855469,3.40625,3.6826172,6.0371094,3.6826172h33.1347656c2.4785156,0,4.640625-1.3310547,5.828125-3.3125V75.5
		C211.2050781,36.074707,179.1298828,4,139.7050781,4z"/>
	<path fill="#737373" d="M90.7050781,0c-41.6308594,0-75.5,33.8691406-75.5,75.5v5.3041992l0.4350586,0.8549805
		c1.8540039,3.6450195,5.5410156,5.9091797,9.621582,5.9091797h33.1347656c3.8012695,0,7.2509766-1.9462891,9.2285156-5.2070312
		l0.5800781-0.9560547V70.5c0-12.4067383,10.0932617-22.5,22.5-22.5h49c12.40625,0,22.5,10.0932617,22.5,22.5v48.3583984
		l0.4462891,0.8642578c1.8642578,3.605957,5.5390625,5.8457031,9.5908203,5.8457031h33.1347656
		c3.7685547,0,7.3164062-2.0141602,9.2587891-5.2563477l0.5693359-0.9492188V75.5c0-41.6308594-33.8691406-75.5-75.5-75.5
		H90.7050781z M23.2050781,75.5c0-37.2197266,30.2802734-67.5,67.5-67.5h49c37.2197266,0,67.5,30.2802734,67.5,67.5
		c0,0,0,38.4746094,0,41.2602539c-0.5078125,0.4697266-1.1162109,0.8081055-1.828125,0.8081055h-33.1347656
		c-0.8203125,0-1.5126953-0.4326172-2.0371094-1.0380859c0-2.5576172,0-46.0302734,0-46.0302734
		c0-16.8178711-13.6826172-30.5-30.5-30.5h-49c-16.8178711,0-30.5,13.6821289-30.5,30.5c0,0,0,6.121582,0,8.2792969
		c-0.5053711,0.4584961-1.1069336,0.7890625-1.8085938,0.7890625H25.2617188c-0.8320312,0-1.5317383-0.4423828-2.0566406-1.0629883
		C23.2050781,77.2236328,23.2050781,75.5,23.2050781,75.5z"/>
	<path opacity="0.2" fill="#BD95BB" d="M142.1630859,261.2104492l-13.7705078-58.8007812
		c7.3378906-4.6171875,12.2177734-12.7822266,12.2177734-22.0898438c0-14.3818359-11.6816406-26.0546875-26.0883789-26.0546875
		c-14.390625,0-26.0634766,11.6728516-26.0634766,26.0546875c0,9.7392578,5.3388672,18.2275391,13.2421875,22.7089844
		l-13.5380859,57.9316406L142.1630859,261.2104492z"/>
	<path fill="#662762" d="M134.7773438,178.0395508c0-12.6757812-10.2832031-22.9677734-22.9614258-22.9677734
		c-12.6943359,0-22.9677734,10.2919922-22.9677734,22.9677734c0,9.3867188,5.6259766,17.4462891,13.6918945,21.0078125
		l-13.4291992,57.1582031h45.5043945l-13.1230469-57.3427734
		C129.3359375,195.2124023,134.7773438,187.2670898,134.7773438,178.0395508z"/>
	<polygon opacity="0.5" fill="#360C2E" points="102.425293,199.5356445 89.1108398,256.2055664 98.722168,256.2055664 	"/>
	<path opacity="0.5" fill="#360C2E" d="M93.1132812,184.8569336c0-13.8388672,11.2192383-25.0585938,25.0595703-25.0585938
		c3.5224609,0,6.8730469,0.7304688,9.9140625,2.0419922c-4.1582031-4.1796875-9.9130859-6.7685547-16.2709961-6.7685547
		c-12.6943359,0-22.9677734,10.2919922-22.9677734,22.9677734c0,5.7861328,2.1430664,11.0634766,5.6723633,15.0986328
		C93.612793,190.5454102,93.1132812,187.7602539,93.1132812,184.8569336z"/>
</g>
</svg>
