<?xml version="1.0" encoding="iso-8859-1"?>
<!-- Generator: Adobe Illustrator 12.0.1, SVG Export Plug-In . SVG Version: 6.00 Build 51448)  -->
<!DOCTYPE svg PUBLIC "-//W3C//DTD SVG 1.0//EN" "http://www.w3.org/TR/2001/REC-SVG-20010904/DTD/svg10.dtd" [
	<!ENTITY ns_svg "http://www.w3.org/2000/svg">
	<!ENTITY ns_xlink "http://www.w3.org/1999/xlink">
]>
<svg  version="1.0" id="Movie" xmlns="&ns_svg;" xmlns:xlink="&ns_xlink;" width="296.8149414" height="289.4628906"
	 viewBox="0 0 296.8149414 289.4628906" overflow="visible" enable-background="new 0 0 296.8149414 289.4628906"
	 xml:space="preserve">
<g>
	
		<linearGradient id="XMLID_8_" gradientUnits="userSpaceOnUse" x1="135.4516602" y1="135.456543" x2="118.1191559" y2="118.1240387">
		<stop  offset="0.275281" style="stop-color:#858585"/>
		<stop  offset="0.595506" style="stop-color:#A3A3A3"/>
		<stop  offset="1" style="stop-color:#696969"/>
	</linearGradient>
	<path fill="url(#XMLID_8_)" d="M130.6689453,4C60.7133789,4,4,60.7133789,4,130.6757812
		C4,200.6289062,60.7133789,257.34375,130.6689453,257.34375c69.9604492,0,126.659668-56.7148438,126.659668-126.6679688
		C257.3286133,60.7133789,200.6293945,4,130.6689453,4z"/>
	<path fill="#5E5E5E" d="M0,130.6757812C0,202.7265625,58.6176758,261.34375,130.6689453,261.34375
		c72.0463867,0,130.659668-58.6171875,130.659668-130.6679688C261.3286133,58.6210938,202.715332,0,130.6689453,0
		C58.6176758,0,0,58.6210938,0,130.6757812z M8,130.6757812C8,63.0322266,63.0288086,8,130.6689453,8
		c67.6342773,0,122.659668,55.0322266,122.659668,122.6757812c0,67.6396484-55.0253906,122.6679688-122.659668,122.6679688
		C63.0288086,253.34375,8,198.3154297,8,130.6757812z"/>
	<linearGradient id="XMLID_9_" gradientUnits="userSpaceOnUse" x1="200.2563477" y1="32.6318359" x2="270.1674194" y2="64.3418198">
		<stop  offset="0" style="stop-color:#D48049"/>
		<stop  offset="0.674157" style="stop-color:#E1A655"/>
		<stop  offset="0.837079" style="stop-color:#D48049"/>
	</linearGradient>
	<path fill="url(#XMLID_9_)" enable-background="new    " d="M189.0063477,52.4121094
		c47.9345703,27.3115234,70.8955078,33.784668,89.4599609,8.3608398l16.4921875-40.2114258
		c-10.8203125,22.2231445-59.6894531,25.440918-90.6240234,8.9980469
		c-24.0390625-12.7773438-73.8051758,6.2099609-90.7822266,18.7695312
		C113.5522461,48.3291016,166.3198242,39.4858398,189.0063477,52.4121094z"/>
	<path fill="#BE5B33" d="M273.3823242,34.371582c-20.3544922,6.6230469-48.3623047,3.9179688-68.109375-6.578125
		c-25.8476562-13.7387695-76.8408203,7.0405273-92.9101562,18.9277344l1.5200195,3.5805664
		c0.5205078-0.0874023,52.3286133-8.5756836,74.1333008,3.8481445l0,0
		c47.7412109,27.2011719,72.3642578,34.7832031,92.0654297,7.8022461l0.1435547-0.1958008
		c0,0,16.5898438-40.0751953,16.5898438-44.4287109C294.1362305,23.0473633,283.1987305,31.1777344,273.3823242,34.371582z
		 M203.3959961,31.3256836c20.6298828,10.965332,49.9179688,13.7822266,71.2236328,6.8496094
		c5.4345703-1.7680664,10.0654297-4.0986328,13.7880859-6.9130859
		c-4.7626953,11.612793-11.5380859,28.1328125-11.6865234,28.4946289
		c-17.9902344,24.4594727-40.3369141,17.3476562-86.7246094-9.0825195l0,0
		c-17.4726562-9.9550781-51.3232422-7.5058594-67.6245117-5.5805664
		C143.734375,33.0439453,183.534668,20.769043,203.3959961,31.3256836z"/>
	<radialGradient id="XMLID_10_" cx="47.7617188" cy="96.9819336" r="188.8469849" gradientUnits="userSpaceOnUse">
		<stop  offset="0" style="stop-color:#737373"/>
		<stop  offset="1" style="stop-color:#525252"/>
	</radialGradient>
	<path fill="url(#XMLID_10_)" d="M241.7524414,159.84375c0,59.9082031-48.5429688,108.4667969-108.449707,108.4667969
		c-59.8999023,0-108.4506836-48.5585938-108.4506836-108.4667969c0-59.8837891,48.5507812-108.4501953,108.4506836-108.4501953
		C193.2094727,51.3935547,241.7524414,99.9599609,241.7524414,159.84375z"/>
	<g opacity="0.3">
		<path fill="#525252" d="M47.8012695,159.84375c0,45.2109375,36.7832031,81.9941406,81.9941406,81.9941406
			c45.203125,0,81.9785156-36.7832031,81.9785156-81.9941406c0-45.203125-36.7753906-81.9785156-81.9785156-81.9785156
			C84.5844727,77.8652344,47.8012695,114.640625,47.8012695,159.84375z M52.0639648,159.84375
			c0-42.8525391,34.8701172-77.7158203,77.7314453-77.7158203c42.8535156,0,77.7158203,34.8632812,77.7158203,77.7158203
			c0,42.8613281-34.8623047,77.7314453-77.7158203,77.7314453C86.934082,237.5751953,52.0639648,202.7050781,52.0639648,159.84375z"
			/>
	</g>
	<g opacity="0.3">
		<path fill="#525252" d="M64.3178711,159.8603516c0,36.0986328,29.3730469,65.4677734,65.4775391,65.4677734
			c36.1015625,0,65.4707031-29.3691406,65.4707031-65.4677734c0-36.1044922-29.3691406-65.4775391-65.4707031-65.4775391
			C93.690918,94.3828125,64.3178711,123.7558594,64.3178711,159.8603516z M68.5805664,159.8603516
			c0-33.7539062,27.4609375-61.2148438,61.2148438-61.2148438c33.7490234,0,61.2080078,27.4609375,61.2080078,61.2148438
			c0,33.7480469-27.4589844,61.2050781-61.2080078,61.2050781
			C96.0415039,221.0654297,68.5805664,193.6083984,68.5805664,159.8603516z"/>
	</g>
	
		<linearGradient id="XMLID_11_" gradientUnits="userSpaceOnUse" x1="51.1938477" y1="79.3208008" x2="213.6486053" y2="241.7710114">
		<stop  offset="0" style="stop-color:#CFCFCF"/>
		<stop  offset="0.078693" style="stop-color:#C9C9C9"/>
		<stop  offset="0.1832533" style="stop-color:#B8B8B8"/>
		<stop  offset="0.275281" style="stop-color:#A3A3A3"/>
		<stop  offset="0.595506" style="stop-color:#C2C2C2"/>
		<stop  offset="1" style="stop-color:#9C9C9C"/>
	</linearGradient>
	<path fill="url(#XMLID_11_)" d="M130.6689453,32.1191406C60.7133789,32.1191406,4,88.8334961,4,158.796875
		C4,228.75,60.7133789,285.4628906,130.6689453,285.4628906c69.9604492,0,126.659668-56.7128906,126.659668-126.6660156
		C257.3286133,88.8334961,200.6293945,32.1191406,130.6689453,32.1191406z M210.0043945,112.9853516l-41.9414062,13.6313477
		c-4.5195312-5.0541992-10.0546875-9.1660156-16.28125-12.0302734V69.6499023
		C176.6235352,75.5078125,197.543457,91.4824219,210.0043945,112.9853516z M110.2988281,69.4814453v45.1049805
		c-6.2338867,2.8642578-11.7470703,6.9760742-16.2807617,12.0141602l-42.5620117-13.8291016
		C64.0610352,91.1679688,85.234375,75.1713867,110.2988281,69.4814453z M39.0649414,158.796875
		c0-2.1445312,0.0927734-4.2685547,0.2382812-6.3662109l42.4624023,13.8017578
		c0.8496094,6.5917969,2.9711914,12.7714844,6.1572266,18.3007812l-25.6079102,35.2265625
		C47.8491211,203.5703125,39.0649414,182.2050781,39.0649414,158.796875z M96.1923828,243.6601562l25.4785156-35.0273438
		c3.0478516,0.5820312,6.1635742,0.9042969,9.3798828,0.9042969c3.1933594,0,6.3330078-0.3222656,9.3662109-0.9042969
		L165.7114258,243.4375c-10.796875,4.4804688-22.637207,6.96875-35.0424805,6.96875
		C118.4775391,250.40625,106.8447266,248.0019531,96.1923828,243.6601562z M199.4204102,219.2851562l-25.2617188-34.7519531
		c3.1992188-5.5292969,5.3359375-11.7089844,6.2011719-18.3007812l41.6875-13.5634766
		c0.140625,2.0273438,0.2324219,4.0654297,0.2324219,6.1279297
		C222.2797852,181.9902344,213.6333008,203.1484375,199.4204102,219.2851562z"/>
	<path fill="#5E5E5E" d="M0,158.796875c0,72.0498047,58.6176758,130.6660156,130.6689453,130.6660156
		c72.0463867,0,130.659668-58.6162109,130.659668-130.6660156c0-72.0561523-58.6132812-130.6777344-130.659668-130.6777344
		C58.6176758,28.1191406,0,86.7407227,0,158.796875z M8,158.796875C8,91.1523438,63.0288086,36.1191406,130.6689453,36.1191406
		c67.6342773,0,122.659668,55.0332031,122.659668,122.6777344c0,67.6386719-55.0253906,122.6660156-122.659668,122.6660156
		C63.0288086,281.4628906,8,226.4355469,8,158.796875z"/>
	<path fill="#5E5E5E" d="M147.7817383,117.1494141l2.328125,1.0708008
		c5.7255859,2.6337891,10.7626953,6.3554688,14.9716797,11.0629883l1.7382812,1.9438477l49.1259766-15.9667969l-2.4804688-4.2802734
		c-13.1787109-22.7412109-35.3271484-39.2246094-60.765625-45.2231445l-4.9179688-1.159668V117.1494141z M155.7817383,74.9770508
		c19.6220703,5.8842773,36.6953125,18.6152344,48.0302734,35.8149414
		c-7.2197266,2.3466797-30.9970703,10.0742188-34.6464844,11.2602539
		c-3.9355469-3.9902344-8.4169922-7.2988281-13.3837891-9.8818359
		C155.7817383,108.3862305,155.7817383,82.75,155.7817383,74.9770508z"/>
	<path fill="#5E5E5E" d="M109.4130859,65.5805664c-25.6782227,5.8295898-48.0620117,22.2949219-61.4121094,45.175293
		L45.5,115.0419922l49.753418,16.1660156l1.737793-1.9316406c4.2490234-4.7216797,9.2880859-8.440918,14.9775391-11.0551758
		l2.3300781-1.0708008V64.4716797L109.4130859,65.5805664z M106.2988281,74.7641602c0,7.7353516,0,33.6118164,0,37.4057617
		c-4.9414062,2.5693359-9.4208984,5.8740234-13.3779297,9.8681641c-3.6533203-1.1870117-27.9799805-9.0908203-35.2558594-11.4550781
		C69.1567383,93.2583008,86.4487305,80.5234375,106.2988281,74.7641602z"/>
	<path fill="#5E5E5E" d="M35.3129883,152.1542969c-0.1669922,2.4042969-0.2480469,4.5771484-0.2480469,6.6425781
		c0,23.5175781,8.6181641,46.1142578,24.2670898,63.6279297l3.3032227,3.6972656l30.0493164-41.3369141l-1.2958984-2.2490234
		c-2.9819336-5.1748047-4.8847656-10.8320312-5.6557617-16.8154297l-0.3237305-2.5097656l-49.7416992-16.1679688
		L35.3129883,152.1542969z M43.0649414,158.796875c0-0.2998047,0.0141602-0.625,0.0180664-0.9316406
		c7.328125,2.3818359,31.6049805,10.2724609,35.1713867,11.4316406c0.9257812,5.2099609,2.5966797,10.1884766,4.9907227,14.8681641
		c-2.2441406,3.0869141-16.6782227,22.9433594-21.1123047,29.0429688
		C49.8486328,197.765625,43.0649414,178.6640625,43.0649414,158.796875z"/>
	<path fill="#5E5E5E" d="M139.6630859,204.7041016c-2.8793945,0.5527344-5.7768555,0.8330078-8.6123047,0.8330078
		c-2.8706055,0-5.6933594-0.2724609-8.6293945-0.8330078l-2.4926758-0.4765625l-29.9750977,41.2089844l4.7290039,1.9277344
		c11.4643555,4.6728516,23.5717773,7.0419922,35.9863281,7.0419922c12.6381836,0,24.9438477-2.4472656,36.5756836-7.2744141
		l4.6835938-1.9433594l-29.7695312-40.9628906L139.6630859,204.7041016z M123.4907227,212.9306641
		c2.5356445,0.3632812,5.0693359,0.6064453,7.5600586,0.6064453c2.4926758,0,5.0205078-0.2431641,7.5458984-0.6054688
		c2.1918945,3.0166016,16.2426758,22.3496094,20.7456055,28.5458984
		c-9.2158203,3.2070312-18.8208008,4.9287109-28.6733398,4.9287109l0,0c-9.6357422,0-19.0444336-1.6513672-28.0869141-4.7304688
		C107.1186523,235.4394531,121.2973633,215.9462891,123.4907227,212.9306641z"/>
	<path fill="#5E5E5E" d="M176.722168,163.2099609l-0.328125,2.5019531
		c-0.7851562,5.9833984-2.7021484,11.6416016-5.6972656,16.8183594l-1.3027344,2.2509766l29.7275391,40.8955078l3.3007812-3.7480469
		c15.3847656-17.4667969,23.8574219-39.8876953,23.8574219-63.1318359c0-1.9619141-0.0791016-4.0566406-0.2421875-6.4042969
		l-0.3544922-5.1132812L176.722168,163.2099609z M218.2661133,158.1054688
		c0.0019531,0.2255859,0.0136719,0.4707031,0.0136719,0.6914062c0,19.6074219-6.6513672,38.5302734-18.6982422,53.9072266
		c-4.4335938-6.0996094-18.5048828-25.4570312-20.7421875-28.5351562c2.4052734-4.6806641,4.0878906-9.6601562,5.0253906-14.8710938
		C187.4047852,168.1464844,210.9799805,160.4765625,218.2661133,158.1054688z"/>
	<g>
		<path fill="#CFCFCF" d="M7.6982422,158.796875c0,67.8056641,55.1640625,122.9697266,122.9707031,122.9697266
			c67.8061523,0,122.9682617-55.1640625,122.9682617-122.9697266c0-67.8164062-55.1621094-122.9892578-122.9682617-122.9892578
			C62.8623047,35.8076172,7.6982422,90.9804688,7.6982422,158.796875z M14.9423828,158.7958984
			c0-63.8217773,51.9145508-115.7431641,115.7265625-115.7431641c63.8100586,0,115.7241211,51.9213867,115.7241211,115.7431641
			c0,63.8115234-51.9140625,115.7265625-115.7241211,115.7265625
			C66.8569336,274.5224609,14.9423828,222.6074219,14.9423828,158.7958984z"/>
	</g>
	<radialGradient id="XMLID_12_" cx="124.4726562" cy="154.6611328" r="23.8752155" gradientUnits="userSpaceOnUse">
		<stop  offset="0" style="stop-color:#AFAFAF"/>
		<stop  offset="1" style="stop-color:#737373"/>
	</radialGradient>
	<path fill="url(#XMLID_12_)" d="M145.2285156,161.4287109c0,7.1835938-5.8359375,13.0332031-13.0410156,13.0332031
		c-7.1992188,0-13.034668-5.8496094-13.034668-13.0332031c0-7.2128906,5.8354492-13.0419922,13.034668-13.0419922
		C139.3925781,148.3867188,145.2285156,154.2158203,145.2285156,161.4287109z"/>
	<radialGradient id="XMLID_13_" cx="121.9995117" cy="152.1884766" r="23.8743324" gradientUnits="userSpaceOnUse">
		<stop  offset="0" style="stop-color:#CFCFCF"/>
		<stop  offset="0.2580658" style="stop-color:#C9C9C9"/>
		<stop  offset="0.6016622" style="stop-color:#B8B8B8"/>
		<stop  offset="0.9920504" style="stop-color:#9C9C9C"/>
		<stop  offset="1" style="stop-color:#9C9C9C"/>
	</radialGradient>
	<path fill="url(#XMLID_13_)" d="M142.7539062,158.9482422c0,7.1992188-5.8261719,13.0410156-13.0395508,13.0410156
		c-7.190918,0-13.0341797-5.8417969-13.0341797-13.0410156c0-7.1972656,5.8432617-13.0332031,13.0341797-13.0332031
		C136.9277344,145.9150391,142.7539062,151.7509766,142.7539062,158.9482422z"/>
	<radialGradient id="XMLID_14_" cx="135.0214844" cy="165.0175781" r="16.4475689" gradientUnits="userSpaceOnUse">
		<stop  offset="0" style="stop-color:#CFCFCF"/>
		<stop  offset="0.2580658" style="stop-color:#C9C9C9"/>
		<stop  offset="0.6016622" style="stop-color:#B8B8B8"/>
		<stop  offset="0.9920504" style="stop-color:#9C9C9C"/>
		<stop  offset="1" style="stop-color:#9C9C9C"/>
	</radialGradient>
	<path opacity="0.5" fill="url(#XMLID_14_)" d="M138.7177734,158.9492188c0,4.9707031-4.0224609,9.0039062-9.0029297,9.0039062
		c-4.9648438,0-8.9990234-4.0332031-8.9990234-9.0039062c0-4.96875,4.0341797-8.9990234,8.9990234-8.9990234
		C134.6953125,149.9501953,138.7177734,153.9804688,138.7177734,158.9492188z"/>
</g>
</svg>
