<?xml version="1.0" encoding="iso-8859-1"?>
<!-- Generator: Adobe Illustrator 12.0.1, SVG Export Plug-In . SVG Version: 6.00 Build 51448)  -->
<!DOCTYPE svg PUBLIC "-//W3C//DTD SVG 1.0//EN" "http://www.w3.org/TR/2001/REC-SVG-20010904/DTD/svg10.dtd" [
	<!ENTITY ns_svg "http://www.w3.org/2000/svg">
	<!ENTITY ns_xlink "http://www.w3.org/1999/xlink">
]>
<svg  version="1.0" id="Music" xmlns="&ns_svg;" xmlns:xlink="&ns_xlink;" width="277.5517578" height="283.5195312"
	 viewBox="0 0 277.5517578 283.5195312" overflow="visible" enable-background="new 0 0 277.5517578 283.5195312"
	 xml:space="preserve">
<g>
	<radialGradient id="XMLID_2_" cx="136.7050781" cy="226.2919922" r="122.9998093" gradientUnits="userSpaceOnUse">
		<stop  offset="0" style="stop-color:#A877A6"/>
		<stop  offset="1" style="stop-color:#80467D"/>
	</radialGradient>
	<path fill="url(#XMLID_2_)" enable-background="new    " d="M273.5517578,216.8662109
		c0-0.1865234-0.0683594-212.4228516-0.0683594-212.4228516h-0.0253906L93.6918945,23.387207l-0.1191406,179.315918
		c-10.8696289-6.1005859-25.7373047-8.2246094-41.5063477-4.8447266
		c-29.3994141,6.2714844-50.8120117,29.2851562-47.7866211,51.3857422
		c3.0327148,22.1220703,29.3422852,34.9423828,58.7265625,28.6630859
		c29.4155273-6.2949219,47.7783203-29.2158203,47.7783203-51.4238281c0-0.1845703-0.0927734-157.0600586-0.0927734-157.0600586
		l145.6254883-17.4160156v141.065918c-10.8671875-6.0917969-25.7265625-8.2099609-41.484375-4.8320312
		c-29.3994141,6.2714844-50.8125,29.2851562-47.7871094,51.3857422
		c3.0332031,22.1220703,29.3427734,34.9423828,58.7265625,28.6630859
		C255.1884766,261.9951172,273.5517578,239.2226562,273.5517578,216.8662109z"/>
	<path opacity="0.65" fill="#A877A6" d="M61.4711914,222.5585938c13.0341797-3.6347656,25.7075195-3.6650391,35.956543-0.7783203
		c-6.8237305-11.6396484-26.0297852-16.5244141-46.2973633-10.8720703
		c-22.9501953,6.3876953-38.5859375,23.8808594-34.8369141,39.0703125c0.6411133,2.6152344,1.8237305,4.984375,3.440918,7.09375
		C23.8554688,242.5380859,40.012207,228.53125,61.4711914,222.5585938z"/>
	<path opacity="0.65" fill="#A877A6" d="M224.2373047,212.9414062c13.0351562-3.6347656,25.7080078-3.6650391,35.9570312-0.7783203
		c-6.8242188-11.6396484-26.0292969-16.5244141-46.296875-10.8720703
		c-22.9511719,6.3876953-38.5859375,23.8808594-34.8378906,39.0703125c0.6416016,2.6152344,1.8242188,4.984375,3.4414062,7.09375
		C186.6220703,232.9208984,202.7783203,218.9140625,224.2373047,212.9414062z"/>
	<path opacity="0.65" fill="#A877A6" d="M269.484375,8.8842773c-8.1894531,0.862793-165.0917969,17.3974609-171.7949219,18.1040039
		c-0.0004883,0.7314453-0.0024414,3.3598633-0.0048828,7.4643555l171.8017578-18.581543
		C269.4853516,12.1083984,269.484375,9.6738281,269.484375,8.8842773z"/>
	<path fill="#692C65" d="M273.0390625,0.465332L89.6943359,19.7861328c0,0-0.109375,164.9023438-0.1171875,176.6210938
		c-11.1914062-4.4375-24.7973633-5.3642578-38.3491211-2.4599609
		c-31.3696289,6.6914062-54.2099609,31.7412109-50.9111328,55.8398438
		c1.3422852,9.7929688,6.6660156,18.2080078,15.3955078,24.3349609c12.480957,8.7607422,30.0234375,11.5664062,48.1298828,7.6972656
		c29.5185547-6.3173828,50.9423828-29.5888672,50.9423828-55.3359375c0,0-0.0864258-146.7236328-0.0908203-153.5102539
		c6.5053711-0.777832,129.425293-15.4785156,137.6235352-16.4589844c0,8.0576172,0,119.1577148,0,130.2641602
		c-11.1855469-4.4277344-24.7822266-5.3505859-38.3232422-2.4482422
		c-31.3691406,6.6914062-54.2099609,31.7412109-50.9111328,55.8398438
		c1.3427734,9.7929688,6.6669922,18.2080078,15.3964844,24.3359375
		c12.4804688,8.7597656,30.0234375,11.5654297,48.1289062,7.6962891
		c29.5185547-6.3173828,50.9433594-29.5888672,50.9433594-55.3359375L277.4824219,0L273.0390625,0.465332z M269.484375,8.8842773
		c0.0029297,8.5117188,0.0673828,207.980957,0.0673828,207.9819336c0,18.8662109-15.3251953,41.2441406-44.6162109,47.5126953
		c-15.7021484,3.3554688-31.3515625,0.9550781-41.8603516-6.421875
		c-6.8613281-4.8154297-11.0341797-11.3417969-12.0664062-18.8730469
		c-2.7431641-20.0390625,17.2910156-41.0927734,44.6591797-46.9306641
		c14.1728516-3.0380859,28.2753906-1.4306641,38.6933594,4.4091797l5.9560547,3.3388672V47.5004883L106.6899414,65.8735352
		l0.0947266,160.6108398c0,18.8652344-15.3251953,41.2431641-44.6152344,47.5117188
		c-15.7026367,3.3554688-31.3515625,0.9550781-41.8608398-6.421875
		c-6.8613281-4.8154297-11.0332031-11.3417969-12.065918-18.8730469
		c-2.7431641-20.0390625,17.2905273-41.0927734,44.6582031-46.9306641
		c14.1831055-3.0400391,28.2929688-1.4277344,38.7143555,4.4208984l5.953125,3.3408203
		c0,0,0.1166992-175.6337891,0.1210938-182.5439453C104.3925781,26.2817383,261.2949219,9.7470703,269.484375,8.8842773z"/>
</g>
</svg>
