<?xml version="1.0" encoding="iso-8859-1"?>
<!-- Generator: Adobe Illustrator 12.0.1, SVG Export Plug-In . SVG Version: 6.00 Build 51448)  -->
<!DOCTYPE svg PUBLIC "-//W3C//DTD SVG 1.0//EN" "http://www.w3.org/TR/2001/REC-SVG-20010904/DTD/svg10.dtd" [
	<!ENTITY ns_svg "http://www.w3.org/2000/svg">
	<!ENTITY ns_xlink "http://www.w3.org/1999/xlink">
]>
<svg  version="1.0" id="Network__x28_Wireless_x29_" xmlns="&ns_svg;" xmlns:xlink="&ns_xlink;"
	 width="290.5263672" height="257.2172852" viewBox="0 0 290.5263672 257.2172852"
	 overflow="visible" enable-background="new 0 0 290.5263672 257.2172852" xml:space="preserve">
<g>
	
		<linearGradient id="XMLID_24_" gradientUnits="userSpaceOnUse" x1="108.8920898" y1="89.9946289" x2="264.1240234" y2="89.9946289">
		<stop  offset="0" style="stop-color:#FFFFFF"/>
		<stop  offset="1" style="stop-color:#C6C6C6"/>
	</linearGradient>
	<path fill="url(#XMLID_24_)" enable-background="new    " d="M264.1240234,139.7807617
		c0,3.4267578-2.7724609,6.2001953-6.2001953,6.2001953h-142.831543c-3.4208984,0-6.2001953-2.7734375-6.2001953-6.2001953
		V40.2089844c0-3.4277344,2.7792969-6.2011719,6.2001953-6.2011719h142.831543c3.4277344,0,6.2001953,2.7734375,6.2001953,6.2011719
		V139.7807617z"/>
	<path fill="#8B8B8B" d="M115.0922852,30.0078125c-5.6245117,0-10.2001953,4.5761719-10.2001953,10.2011719v99.5717773
		c0,5.6240234,4.5756836,10.2001953,10.2001953,10.2001953h142.831543c5.6240234,0,10.2001953-4.5761719,10.2001953-10.2001953
		V40.2089844c0-5.625-4.5761719-10.2011719-10.2001953-10.2011719H115.0922852z M112.8920898,139.7807617V40.2089844
		c0-1.2138672,0.9868164-2.2011719,2.2001953-2.2011719h142.831543c1.2128906,0,2.2001953,0.9873047,2.2001953,2.2011719v99.5717773
		c0,1.2128906-0.9873047,2.2001953-2.2001953,2.2001953h-142.831543
		C113.8789062,141.980957,112.8920898,140.9936523,112.8920898,139.7807617z"/>
	
		<linearGradient id="XMLID_25_" gradientUnits="userSpaceOnUse" x1="86.4902344" y1="166.5239258" x2="286.5263672" y2="166.5239258">
		<stop  offset="0" style="stop-color:#FFFFFF"/>
		<stop  offset="1" style="stop-color:#C6C6C6"/>
	</linearGradient>
	<path fill="url(#XMLID_25_)" enable-background="new    " d="M286.4101562,171.3442383
		c0,0-21.8916016-26.0185547-25.4462891-26.0185547H112.7963867c-3.5488281,0-26.1904297,26.3671875-26.1904297,26.3671875
		l-0.1157227,11.8486328c0,2.3085938,1.8720703,4.1816406,4.1821289,4.1816406h191.6723633
		c2.3085938,0,4.1816406-1.8730469,4.1816406-4.1816406L286.4101562,171.3442383z"/>
	<path fill="#8B8B8B" d="M112.7963867,141.3256836c-1.7485352,0-5.3862305,0-29.2250977,27.7617188
		c-0.6142578,0.7148438-0.9560547,1.6240234-0.965332,2.5664062l-0.1157227,11.8486328
		c0,4.5507812,3.6704102,8.2207031,8.1821289,8.2207031h191.6723633c4.5117188,0,8.1816406-3.6699219,8.1816406-8.1816406
		l-0.1162109-12.2353516c-0.0087891-0.9287109-0.3408203-1.8261719-0.9394531-2.5371094
		c-23.0898438-27.4433594-26.7490234-27.4433594-28.5068359-27.4433594H112.7963867z M260.2363281,149.3256836
		c3.0361328,1.8896484,13.4824219,13.2275391,22.1875,23.5009766c0.0214844,2.2460938,0.1025391,10.7529297,0.1025391,10.7529297
		c0,0.0625-0.0810547,0.1435547-0.1816406,0.1435547H90.6723633c-0.1005859,0-0.1821289-0.0810547-0.1821289-0.1816406
		c0,0,0.0791016-8.0927734,0.1010742-10.3427734c9.0375977-10.4541016,19.8505859-21.9833984,22.9282227-23.8730469
		C114.9453125,149.3256836,258.8037109,149.3256836,260.2363281,149.3256836z"/>
	<g>
		<rect x="87.0649414" y="170.4077148" fill="#8B8B8B" width="198.8862305" height="4"/>
	</g>
	<radialGradient id="XMLID_26_" cx="236.0898438" cy="124.309082" r="127.0952835" gradientUnits="userSpaceOnUse">
		<stop  offset="0" style="stop-color:#A9C7EB"/>
		<stop  offset="1" style="stop-color:#7FA3D1"/>
	</radialGradient>
	<path fill="url(#XMLID_26_)" enable-background="new    " d="M251.9667969,133.0249023
		c0,0.7695312-0.6230469,1.3935547-1.3935547,1.3935547H122.4433594c-0.7700195,0-1.394043-0.6240234-1.394043-1.3935547V46.9648438
		c0-0.7695312,0.6240234-1.394043,1.394043-1.394043h128.1298828c0.7705078,0,1.3935547,0.6245117,1.3935547,1.394043V133.0249023z"
		/>
	<radialGradient id="XMLID_27_" cx="199.5703125" cy="50.7597656" r="56.3141556" gradientUnits="userSpaceOnUse">
		<stop  offset="0" style="stop-color:#A9C7EB"/>
		<stop  offset="1" style="stop-color:#7FA3D1"/>
	</radialGradient>
	<path fill="url(#XMLID_27_)" d="M127.4389648,134.418457C152.5,104.378418,176.3164062,80.746582,188.09375,45.5708008h-65.6152344
		c-0.4902344,0.2539062-0.940918,0.5703125-1.3466797,0.9375c-0.0498047,0.1435547-0.0825195,0.2958984-0.0825195,0.456543
		v86.0600586c0,0.0966797,0.0102539,0.1923828,0.0292969,0.2832031c0.487793,0.453125,1.0454102,0.828125,1.6567383,1.1103516
		H127.4389648z"/>
	<radialGradient id="XMLID_28_" cx="175.7089844" cy="82.9296875" r="69.7097015" gradientUnits="userSpaceOnUse">
		<stop  offset="0" style="stop-color:#A9C7EB"/>
		<stop  offset="1" style="stop-color:#7FA3D1"/>
	</radialGradient>
	<path fill="url(#XMLID_28_)" d="M121.1318359,46.5083008c-0.0498047,0.1435547-0.0825195,0.2958984-0.0825195,0.456543v86.0600586
		c0,0.0966797,0.0102539,0.1923828,0.0292969,0.2832031c0.487793,0.453125,1.0454102,0.828125,1.6567383,1.1103516h62.9130859
		c-2.9941406-25.125-15.1044922-60.9902344-49.0693359-88.8476562h-14.1005859
		C121.9882812,45.824707,121.5375977,46.1411133,121.1318359,46.5083008z"/>
	<radialGradient id="XMLID_29_" cx="198.6992188" cy="98.7163086" r="45.3435669" gradientUnits="userSpaceOnUse">
		<stop  offset="0" style="stop-color:#A9C7EB"/>
		<stop  offset="1" style="stop-color:#7FA3D1"/>
	</radialGradient>
	<path fill="url(#XMLID_29_)" d="M145.4326172,134.418457h105.0859375c0.4736328-0.2177734,0.9160156-0.4902344,1.3183594-0.8125
		c0.0820312-0.1777344,0.1298828-0.3730469,0.1298828-0.5810547V63.0136719
		C175.9824219,82.5756836,167.0410156,113.9643555,145.4326172,134.418457z"/>
	<radialGradient id="XMLID_30_" cx="215.6445312" cy="107.7299805" r="53.695591" gradientUnits="userSpaceOnUse">
		<stop  offset="0" style="stop-color:#A9C7EB"/>
		<stop  offset="1" style="stop-color:#7FA3D1"/>
	</radialGradient>
	<path fill="url(#XMLID_30_)" d="M166.3027344,134.418457h77.2421875c2.1757812-1.0019531,3.6884766-3.1953125,3.6884766-5.7490234
		v-7.6689453C221.1171875,76.3774414,190.7314453,114.8989258,166.3027344,134.418457z"/>
	<radialGradient id="XMLID_31_" cx="206.6757812" cy="74.8173828" r="50.0437965" gradientUnits="userSpaceOnUse">
		<stop  offset="0" style="stop-color:#A9C7EB"/>
		<stop  offset="1" style="stop-color:#7FA3D1"/>
	</radialGradient>
	<path fill="url(#XMLID_31_)" d="M250.5732422,45.5708008h-26.2314453
		c-16.203125,19.0224609-35.9433594,58.1396484-24.0253906,88.8476562h50.2021484
		c0.4736328-0.2177734,0.9160156-0.4902344,1.3183594-0.8125c0.0820312-0.1777344,0.1298828-0.3730469,0.1298828-0.5810547
		V46.9648438c0-0.2954102-0.0927734-0.5688477-0.25-0.7949219c-0.2802734-0.2138672-0.5742188-0.4077148-0.8876953-0.5732422
		C250.7460938,45.5810547,250.6611328,45.5708008,250.5732422,45.5708008z"/>
	<path fill="#737373" d="M122.4433594,44.1767578c-1.5371094,0-2.7880859,1.2504883-2.7880859,2.7880859v86.0600586
		c0,1.5371094,1.2509766,2.7871094,2.7880859,2.7871094h128.1298828c1.5371094,0,2.7871094-1.25,2.7871094-2.7871094V46.9648438
		c0-1.5375977-1.25-2.7880859-2.7871094-2.7880859H122.4433594z M122.4433594,133.0249023V46.9648438h128.1298828v86.0620117
		L122.4433594,133.0249023z"/>
	<path opacity="0.5" fill="#C5DFFF" d="M130.3149414,126.2016602c0,0.7705078-0.6240234,1.3945312-1.3935547,1.3945312h-0.956543
		c-0.7695312,0-1.394043-0.6240234-1.394043-1.3945312V53.1083984c0-0.7700195,0.6245117-1.394043,1.394043-1.394043h0.956543
		c0.7695312,0,1.3935547,0.6240234,1.3935547,1.394043V126.2016602z"/>
	
		<radialGradient id="XMLID_32_" cx="120.5141602" cy="-4.2514648" r="140.049118" gradientTransform="matrix(1 0 0 0.4999 0 154.6047363)" gradientUnits="userSpaceOnUse">
		<stop  offset="0" style="stop-color:#CFCFCF"/>
		<stop  offset="1" style="stop-color:#A1A1A1"/>
	</radialGradient>
	<path fill="url(#XMLID_32_)" d="M256.6582031,160.144043c0,0.3847656-0.6230469,0.6982422-1.3935547,0.6982422H115.402832
		c-0.7700195,0-1.394043-0.3134766-1.394043-0.6982422c0,0,6.6987305-8.015625,6.9697266-8.3613281
		c0.2714844-0.3457031,0.6240234-0.6962891,1.394043-0.6962891h125.9213867c0.7705078,0,0.9980469,0.2236328,1.3935547,0.6962891
		C250.0839844,152.2543945,256.6582031,160.144043,256.6582031,160.144043z"/>
	<polygon opacity="0.2" fill="#737373" points="139.8857422,154.1088867 137.8647461,157.6977539 144.1362305,157.6977539 
		145.8974609,154.1088867 	"/>
	<polygon opacity="0.2" fill="#737373" points="164.1367188,154.1088867 163.1660156,157.6977539 169.4394531,157.6977539 
		170.1484375,154.1088867 	"/>
	<polygon opacity="0.2" fill="#737373" points="152,154.1088867 150.5039062,157.6977539 156.7753906,157.6977539 
		158.0117188,154.1088867 	"/>
	<polygon opacity="0.2" fill="#737373" points="127.7485352,154.1088867 125.2011719,157.6977539 131.4731445,157.6977539 
		133.7607422,154.1088867 	"/>
	<polygon opacity="0.2" fill="#737373" points="224.7880859,154.1088867 226.4472656,157.6977539 232.71875,157.6977539 
		230.7998047,154.1088867 	"/>
	<polygon opacity="0.2" fill="#737373" points="176.2636719,154.1088867 175.8183594,157.6977539 182.0908203,157.6977539 
		182.2753906,154.1088867 	"/>
	<polygon opacity="0.2" fill="#737373" points="236.9257812,154.1088867 239.1113281,157.6977539 245.3828125,157.6977539 
		242.9375,154.1088867 	"/>
	<polygon opacity="0.2" fill="#737373" points="188.4003906,154.1088867 188.4824219,157.6977539 194.7539062,157.6977539 
		194.4130859,154.1088867 	"/>
	<polygon opacity="0.2" fill="#737373" points="212.6738281,154.1088867 213.8076172,157.6977539 220.0800781,157.6977539 
		218.6865234,154.1088867 	"/>
	<polygon opacity="0.2" fill="#737373" points="200.5371094,154.1088867 201.1455078,157.6977539 207.4169922,157.6977539 
		206.5488281,154.1088867 	"/>
	<polygon opacity="0.2" fill="#737373" points="149.15625,160.8422852 150.4570312,157.7231445 144.1831055,157.7231445 
		142.6547852,160.8422852 	"/>
	<polygon opacity="0.2" fill="#737373" points="136.03125,160.8422852 137.7905273,157.7231445 131.515625,157.7231445 
		129.5307617,160.8422852 	"/>
	<polygon opacity="0.2" fill="#737373" points="116.4194336,160.8422852 122.9194336,160.8422852 125.1347656,157.7231445 
		118.8608398,157.7231445 	"/>
	<polygon opacity="0.2" fill="#737373" points="162.2548828,160.8422852 163.0996094,157.7231445 156.8261719,157.7231445 
		155.7539062,160.8422852 	"/>
	<polygon opacity="0.2" fill="#737373" points="124.059082,151.0864258 121.7124023,154.0834961 127.7216797,154.0834961 
		129.8515625,151.0864258 	"/>
	<polygon opacity="0.2" fill="#737373" points="207.4824219,157.7231445 208.2402344,160.8422852 214.7402344,160.8422852 
		213.7568359,157.7231445 	"/>
	<polygon opacity="0.2" fill="#737373" points="194.8164062,157.7231445 195.1152344,160.8422852 201.6152344,160.8422852 
		201.0898438,157.7231445 	"/>
	<polygon opacity="0.2" fill="#737373" points="220.1259766,157.7231445 221.3388672,160.8422852 227.8388672,160.8422852 
		226.4003906,157.7231445 	"/>
	<polygon opacity="0.2" fill="#737373" points="251.7216797,157.7231445 245.4492188,157.7231445 247.5742188,160.8422852 
		254.0742188,160.8422852 	"/>
	<polygon opacity="0.2" fill="#737373" points="232.7929688,157.7231445 234.4628906,160.8422852 240.9628906,160.8422852 
		239.0664062,157.7231445 	"/>
	<polygon opacity="0.2" fill="#737373" points="168.8789062,160.8422852 175.3789062,160.8422852 175.7675781,157.7231445 
		169.4941406,157.7231445 	"/>
	<polygon opacity="0.2" fill="#737373" points="182.1484375,157.7231445 181.9902344,160.8422852 188.4902344,160.8422852 
		188.421875,157.7231445 	"/>
	<polygon opacity="0.2" fill="#737373" points="205.8730469,151.0864258 206.5996094,154.0834961 212.609375,154.0834961 
		211.6640625,151.0864258 	"/>
	<polygon opacity="0.2" fill="#737373" points="133.8334961,154.0834961 139.8432617,154.0834961 141.5341797,151.0864258 
		135.7416992,151.0864258 	"/>
	<polygon opacity="0.2" fill="#737373" points="229.2382812,151.0864258 230.8427734,154.0834961 236.8525391,154.0834961 
		235.0302734,151.0864258 	"/>
	<polygon opacity="0.2" fill="#737373" points="194.1787109,151.0864258 194.4667969,154.0834961 200.4765625,154.0834961 
		199.9707031,151.0864258 	"/>
	<polygon opacity="0.2" fill="#737373" points="217.5449219,151.0864258 218.7099609,154.0834961 224.7207031,154.0834961 
		223.3378906,151.0864258 	"/>
	<polygon opacity="0.2" fill="#737373" points="182.4853516,151.0864258 182.3330078,154.0834961 188.3427734,154.0834961 
		188.2773438,151.0864258 	"/>
	<polygon opacity="0.2" fill="#737373" points="170.2109375,154.0834961 176.2207031,154.0834961 176.59375,151.0864258 
		170.8017578,151.0864258 	"/>
	<polygon opacity="0.2" fill="#737373" points="246.7128906,151.0864258 240.9199219,151.0864258 242.9648438,154.0834961 
		248.9746094,154.0834961 	"/>
	<polygon opacity="0.2" fill="#737373" points="145.9667969,154.0834961 151.9765625,154.0834961 153.2285156,151.0864258 
		147.4355469,151.0864258 	"/>
	<polygon opacity="0.2" fill="#737373" points="158.078125,154.0834961 164.0878906,154.0834961 164.9003906,151.0864258 
		159.1074219,151.0864258 	"/>
	
		<radialGradient id="XMLID_33_" cx="168.4501953" cy="16.5532227" r="38.1328583" gradientTransform="matrix(1 0 0 0.4999 0 154.6047363)" gradientUnits="userSpaceOnUse">
		<stop  offset="0" style="stop-color:#CFCFCF"/>
		<stop  offset="1" style="stop-color:#A1A1A1"/>
	</radialGradient>
	<path fill="url(#XMLID_33_)" d="M203.9101562,168.3041992c0,0.2402344-0.3925781,0.4375-0.8789062,0.4375h-35.3964844
		c-0.484375,0-0.8789062-0.1972656-0.8789062-0.4375c0,0,2.8242188-5.7451172,2.9941406-5.9638672
		c0.171875-0.2167969,0.3945312-0.4375,0.8789062-0.4375h29.4101562c0.484375,0,0.6269531,0.1416016,0.8769531,0.4375
		C201.1660156,162.6391602,203.9101562,168.3041992,203.9101562,168.3041992z"/>
	<radialGradient id="XMLID_34_" cx="47.9487305" cy="40.9023438" r="40.8257523" gradientUnits="userSpaceOnUse">
		<stop  offset="0" style="stop-color:#CC464F"/>
		<stop  offset="1" style="stop-color:#AB262D"/>
	</radialGradient>
	<path opacity="0.25" fill="url(#XMLID_34_)" d="M7.199707,81.6152344l7.9311523,0.1894531
		c0.5507812-18.8427734,7.8769531-38.1743164,22.2216797-52.5283203
		C51.7329102,14.8955078,69.8178711,8.2563477,88.6977539,7.7324219L88.5073242,0
		C68.0561523,0.5688477,47.315918,8.09375,31.7338867,23.6669922C16.1967773,39.2041016,7.7958984,61.2089844,7.199707,81.6152344z"
		/>
	<radialGradient id="XMLID_35_" cx="57.8579102" cy="49.7050781" r="31.4604836" gradientUnits="userSpaceOnUse">
		<stop  offset="0" style="stop-color:#CC464F"/>
		<stop  offset="1" style="stop-color:#AB262D"/>
	</radialGradient>
	<path opacity="0.35" fill="url(#XMLID_35_)" d="M26.3500977,80.9199219l6.4584961,0.1982422
		c0.4155273-14.3173828,6.0253906-28.5268555,16.9467773-39.4482422
		C60.7036133,30.730957,74.9848633,25.1210938,89.3657227,24.7329102l-0.1894531-6.440918
		C73.1870117,18.7080078,57.3432617,24.949707,45.184082,37.1083984
		C33.0527344,49.230957,26.8198242,65.0117188,26.3500977,80.9199219z"/>
	<radialGradient id="XMLID_36_" cx="66.5385742" cy="59.230957" r="22.5696335" gradientUnits="userSpaceOnUse">
		<stop  offset="0" style="stop-color:#CC464F"/>
		<stop  offset="1" style="stop-color:#AB262D"/>
	</radialGradient>
	<path opacity="0.5" fill="url(#XMLID_36_)" d="M43.9194336,81.5517578l6.5673828,0.1992188
		c0.2802734-9.7744141,4.1103516-19.4667969,11.5625-26.9101562c7.4882812-7.4980469,17.2626953-11.328125,27.1083984-11.5625
		l-0.2080078-6.5673828C77.496582,37,66.1235352,41.453125,57.3793945,50.1884766
		C48.7075195,58.878418,44.253418,70.1611328,43.9194336,81.5517578z"/>
	<path opacity="0.2" fill="#8B8B8B" d="M192.4960938,189.2172852v-88c0-6.6269531-5.3730469-12-12-12H104.934082v49.6181641
		c-1.2666016,2.5908203-8.2729492,12.4599609-15.9379883,22.7841797v27.5976562
		c0,0.7128906,0.0737305,1.4072266,0.1933594,2.0869141c0.4946289,0.09375,1.003418,0.1474609,1.5249023,0.1474609h101.565918
		C192.4169922,190.7270508,192.4960938,189.9819336,192.4960938,189.2172852z"/>
	
		<linearGradient id="XMLID_37_" gradientUnits="userSpaceOnUse" x1="26.4018555" y1="155.4887695" x2="181.6337891" y2="155.4887695">
		<stop  offset="0" style="stop-color:#FFFFFF"/>
		<stop  offset="1" style="stop-color:#C6C6C6"/>
	</linearGradient>
	<path fill="url(#XMLID_37_)" enable-background="new    " d="M181.6337891,205.2749023
		c0,3.4267578-2.7724609,6.2001953-6.2001953,6.2001953H32.6020508c-3.4208984,0-6.2001953-2.7734375-6.2001953-6.2001953
		v-99.5712891c0-3.4277344,2.7792969-6.2011719,6.2001953-6.2011719h142.831543
		c3.4277344,0,6.2001953,2.7734375,6.2001953,6.2011719V205.2749023z"/>
	<path fill="#8B8B8B" d="M32.6020508,95.5024414c-5.6245117,0-10.2001953,4.5761719-10.2001953,10.2011719v99.5712891
		c0,5.6240234,4.5756836,10.2001953,10.2001953,10.2001953h142.831543c5.6240234,0,10.2001953-4.5761719,10.2001953-10.2001953
		v-99.5712891c0-5.625-4.5761719-10.2011719-10.2001953-10.2011719H32.6020508z M30.4018555,205.2749023v-99.5712891
		c0-1.2138672,0.9868164-2.2011719,2.2001953-2.2011719h142.831543c1.2128906,0,2.2001953,0.9873047,2.2001953,2.2011719v99.5712891
		c0,1.2128906-0.9873047,2.2001953-2.2001953,2.2001953H32.6020508
		C31.3886719,207.4750977,30.4018555,206.487793,30.4018555,205.2749023z"/>
	<linearGradient id="XMLID_38_" gradientUnits="userSpaceOnUse" x1="4" y1="232.0180664" x2="204.0361328" y2="232.0180664">
		<stop  offset="0" style="stop-color:#FFFFFF"/>
		<stop  offset="1" style="stop-color:#C6C6C6"/>
	</linearGradient>
	<path fill="url(#XMLID_38_)" enable-background="new    " d="M203.9199219,236.8383789
		c0,0-21.8916016-26.0185547-25.4462891-26.0185547H30.3061523c-3.5488281,0-26.1904297,26.3671875-26.1904297,26.3671875
		L4,249.0356445c0,2.3085938,1.8720703,4.1816406,4.1821289,4.1816406h191.6723633
		c2.3085938,0,4.1816406-1.8730469,4.1816406-4.1816406L203.9199219,236.8383789z"/>
	<path fill="#8B8B8B" d="M30.3061523,206.8198242c-1.7485352,0-5.3862305,0-29.2250977,27.7617188
		c-0.6142578,0.7148438-0.9560547,1.6240234-0.965332,2.5664062L0,248.996582c0,4.5507812,3.6704102,8.2207031,8.1821289,8.2207031
		h191.6723633c4.5117188,0,8.1816406-3.6699219,8.1816406-8.1816406l-0.1162109-12.2353516
		c-0.0087891-0.9287109-0.3408203-1.8261719-0.9394531-2.5371094
		c-23.0898438-27.4433594-26.7490234-27.4433594-28.5068359-27.4433594H30.3061523z M177.7460938,214.8198242
		c3.0361328,1.8896484,13.4824219,13.2275391,22.1875,23.5009766c0.0214844,2.2460938,0.1025391,10.7529297,0.1025391,10.7529297
		c0,0.0625-0.0810547,0.1435547-0.1816406,0.1435547H8.1821289C8.081543,249.2172852,8,249.1362305,8,249.0356445
		c0,0,0.0791016-8.0927734,0.1010742-10.3427734c9.0375977-10.4541016,19.8505859-21.9833984,22.9282227-23.8730469
		C32.4550781,214.8198242,176.3134766,214.8198242,177.7460938,214.8198242z"/>
	<g>
		<rect x="4.574707" y="235.9018555" fill="#8B8B8B" width="198.8862305" height="4"/>
	</g>
	<radialGradient id="XMLID_39_" cx="153.5996094" cy="189.8032227" r="127.0952835" gradientUnits="userSpaceOnUse">
		<stop  offset="0" style="stop-color:#A9C7EB"/>
		<stop  offset="1" style="stop-color:#7FA3D1"/>
	</radialGradient>
	<path fill="url(#XMLID_39_)" enable-background="new    " d="M169.4765625,198.519043
		c0,0.7695312-0.6230469,1.3935547-1.3935547,1.3935547H39.953125c-0.7700195,0-1.394043-0.6240234-1.394043-1.3935547v-86.0595703
		c0-0.7695312,0.6240234-1.3945312,1.394043-1.3945312h128.1298828c0.7705078,0,1.3935547,0.625,1.3935547,1.3945312V198.519043z"/>
	<radialGradient id="XMLID_40_" cx="117.0800781" cy="116.2539062" r="56.3141975" gradientUnits="userSpaceOnUse">
		<stop  offset="0" style="stop-color:#A9C7EB"/>
		<stop  offset="1" style="stop-color:#7FA3D1"/>
	</radialGradient>
	<path fill="url(#XMLID_40_)" d="M44.9487305,199.9125977c25.0605469-30.0400391,48.8779297-53.671875,60.6542969-88.8476562
		H39.9882812c-0.4902344,0.2539062-0.940918,0.5703125-1.3466797,0.9375
		c-0.0498047,0.1435547-0.0825195,0.2958984-0.0825195,0.4570312v86.0595703c0,0.0966797,0.0102539,0.1923828,0.0292969,0.2832031
		c0.487793,0.453125,1.0454102,0.828125,1.6567383,1.1103516H44.9487305z"/>
	<radialGradient id="XMLID_41_" cx="93.21875" cy="148.4233398" r="69.7103424" gradientUnits="userSpaceOnUse">
		<stop  offset="0" style="stop-color:#A9C7EB"/>
		<stop  offset="1" style="stop-color:#7FA3D1"/>
	</radialGradient>
	<path fill="url(#XMLID_41_)" d="M38.6416016,112.0024414c-0.0498047,0.1435547-0.0825195,0.2958984-0.0825195,0.4570312v86.0595703
		c0,0.0966797,0.0102539,0.1923828,0.0292969,0.2832031c0.487793,0.453125,1.0454102,0.828125,1.6567383,1.1103516h62.9130859
		c-2.9941406-25.125-15.1044922-60.9902344-49.0693359-88.8476562H39.9882812
		C39.4980469,111.3188477,39.0473633,111.6352539,38.6416016,112.0024414z"/>
	<radialGradient id="XMLID_42_" cx="116.2094727" cy="164.2104492" r="45.3432808" gradientUnits="userSpaceOnUse">
		<stop  offset="0" style="stop-color:#A9C7EB"/>
		<stop  offset="1" style="stop-color:#7FA3D1"/>
	</radialGradient>
	<path fill="url(#XMLID_42_)" d="M62.9423828,199.9125977h105.0859375c0.4736328-0.2177734,0.9160156-0.4902344,1.3183594-0.8125
		c0.0820312-0.1777344,0.1298828-0.3730469,0.1298828-0.5810547v-70.0107422
		C93.4921875,148.0698242,84.5512695,179.4584961,62.9423828,199.9125977z"/>
	<radialGradient id="XMLID_43_" cx="133.1552734" cy="173.2241211" r="53.694622" gradientUnits="userSpaceOnUse">
		<stop  offset="0" style="stop-color:#A9C7EB"/>
		<stop  offset="1" style="stop-color:#7FA3D1"/>
	</radialGradient>
	<path fill="url(#XMLID_43_)" d="M83.8129883,199.9125977h77.2416992c2.1757812-1.0019531,3.6884766-3.1953125,3.6884766-5.7490234
		v-7.6689453C138.6274414,141.871582,108.2412109,180.3930664,83.8129883,199.9125977z"/>
	<radialGradient id="XMLID_44_" cx="124.1855469" cy="140.3120117" r="50.0435371" gradientUnits="userSpaceOnUse">
		<stop  offset="0" style="stop-color:#A9C7EB"/>
		<stop  offset="1" style="stop-color:#7FA3D1"/>
	</radialGradient>
	<path fill="url(#XMLID_44_)" d="M168.0830078,111.0649414h-26.2319336
		c-16.203125,19.0224609-35.9423828,58.1396484-24.0249023,88.8476562h50.2021484
		c0.4736328-0.2177734,0.9160156-0.4902344,1.3183594-0.8125c0.0820312-0.1777344,0.1298828-0.3730469,0.1298828-0.5810547
		v-86.0595703c0-0.2958984-0.0927734-0.5693359-0.25-0.7949219c-0.2802734-0.2148438-0.5742188-0.4082031-0.8876953-0.5742188
		C168.2558594,111.074707,168.1708984,111.0649414,168.0830078,111.0649414z"/>
	<path opacity="0.5" fill="#C5DFFF" d="M47.824707,191.6958008c0,0.7705078-0.6240234,1.3945312-1.3935547,1.3945312h-0.956543
		c-0.7695312,0-1.394043-0.6240234-1.394043-1.3945312v-73.09375c0-0.7695312,0.6245117-1.3935547,1.394043-1.3935547h0.956543
		c0.7695312,0,1.3935547,0.6240234,1.3935547,1.3935547V191.6958008z"/>
	
		<radialGradient id="XMLID_45_" cx="38.0234375" cy="126.7641602" r="140.0496063" gradientTransform="matrix(1 0 0 0.4999 0 154.6047363)" gradientUnits="userSpaceOnUse">
		<stop  offset="0" style="stop-color:#CFCFCF"/>
		<stop  offset="1" style="stop-color:#A1A1A1"/>
	</radialGradient>
	<path fill="url(#XMLID_45_)" d="M174.1679688,225.6381836c0,0.3847656-0.6230469,0.6982422-1.3935547,0.6982422H32.9125977
		c-0.7700195,0-1.394043-0.3134766-1.394043-0.6982422c0,0,6.6987305-8.015625,6.9697266-8.3613281
		c0.2714844-0.3457031,0.6240234-0.6962891,1.394043-0.6962891h125.9213867c0.7705078,0,0.9980469,0.2236328,1.3935547,0.6962891
		C167.59375,217.7485352,174.1679688,225.6381836,174.1679688,225.6381836z"/>
	<polygon opacity="0.2" fill="#737373" points="57.3955078,219.6030273 55.3745117,223.1918945 61.6459961,223.1918945 
		63.4072266,219.6030273 	"/>
	<polygon opacity="0.2" fill="#737373" points="81.6469727,219.6030273 80.6762695,223.1918945 86.9492188,223.1918945 
		87.6586914,219.6030273 	"/>
	<polygon opacity="0.2" fill="#737373" points="69.5097656,219.6030273 68.0131836,223.1918945 74.2856445,223.1918945 
		75.5209961,219.6030273 	"/>
	<polygon opacity="0.2" fill="#737373" points="45.2583008,219.6030273 42.7109375,223.1918945 48.9829102,223.1918945 
		51.2705078,219.6030273 	"/>
	<polygon opacity="0.2" fill="#737373" points="142.2978516,219.6030273 143.9575195,223.1918945 150.2285156,223.1918945 
		148.3095703,219.6030273 	"/>
	<polygon opacity="0.2" fill="#737373" points="93.7729492,219.6030273 93.3286133,223.1918945 99.6005859,223.1918945 
		99.7851562,219.6030273 	"/>
	<polygon opacity="0.2" fill="#737373" points="154.4355469,219.6030273 156.6210938,223.1918945 162.8925781,223.1918945 
		160.4472656,219.6030273 	"/>
	<polygon opacity="0.2" fill="#737373" points="105.9101562,219.6030273 105.9916992,223.1918945 112.2641602,223.1918945 
		111.9228516,219.6030273 	"/>
	<polygon opacity="0.2" fill="#737373" points="130.1835938,219.6030273 131.3173828,223.1918945 137.5893555,223.1918945 
		136.1962891,219.6030273 	"/>
	<polygon opacity="0.2" fill="#737373" points="118.0473633,219.6030273 118.6552734,223.1918945 124.9267578,223.1918945 
		124.059082,219.6030273 	"/>
	<polygon opacity="0.2" fill="#737373" points="66.6655273,226.3364258 67.9667969,223.2172852 61.6928711,223.2172852 
		60.1645508,226.3364258 	"/>
	<polygon opacity="0.2" fill="#737373" points="53.5410156,226.3364258 55.300293,223.2172852 49.0253906,223.2172852 
		47.0405273,226.3364258 	"/>
	<polygon opacity="0.2" fill="#737373" points="33.9291992,226.3364258 40.4291992,226.3364258 42.6445312,223.2172852 
		36.3706055,223.2172852 	"/>
	<polygon opacity="0.2" fill="#737373" points="79.7646484,226.3364258 80.6098633,223.2172852 74.3364258,223.2172852 
		73.2641602,226.3364258 	"/>
	<polygon opacity="0.2" fill="#737373" points="41.5688477,216.5805664 39.222168,219.5776367 45.2314453,219.5776367 
		47.3613281,216.5805664 	"/>
	<polygon opacity="0.2" fill="#737373" points="124.9921875,223.2172852 125.7495117,226.3364258 132.25,226.3364258 
		131.2666016,223.2172852 	"/>
	<polygon opacity="0.2" fill="#737373" points="112.3261719,223.2172852 112.625,226.3364258 119.1245117,226.3364258 
		118.5996094,223.2172852 	"/>
	<polygon opacity="0.2" fill="#737373" points="137.6357422,223.2172852 138.8486328,226.3364258 145.3486328,226.3364258 
		143.9106445,223.2172852 	"/>
	<polygon opacity="0.2" fill="#737373" points="169.2314453,223.2172852 162.9589844,223.2172852 165.0839844,226.3364258 
		171.5839844,226.3364258 	"/>
	<polygon opacity="0.2" fill="#737373" points="150.3027344,223.2172852 151.9726562,226.3364258 158.4726562,226.3364258 
		156.5761719,223.2172852 	"/>
	<polygon opacity="0.2" fill="#737373" points="86.3891602,226.3364258 92.8886719,226.3364258 93.2768555,223.2172852 
		87.003418,223.2172852 	"/>
	<polygon opacity="0.2" fill="#737373" points="99.6582031,223.2172852 99.5004883,226.3364258 105.9995117,226.3364258 
		105.9321289,223.2172852 	"/>
	<polygon opacity="0.2" fill="#737373" points="123.3823242,216.5805664 124.109375,219.5776367 130.1191406,219.5776367 
		129.1738281,216.5805664 	"/>
	<polygon opacity="0.2" fill="#737373" points="51.3432617,219.5776367 57.3530273,219.5776367 59.0439453,216.5805664 
		53.2514648,216.5805664 	"/>
	<polygon opacity="0.2" fill="#737373" points="146.7480469,216.5805664 148.3525391,219.5776367 154.3623047,219.5776367 
		152.5400391,216.5805664 	"/>
	<polygon opacity="0.2" fill="#737373" points="111.6884766,216.5805664 111.9760742,219.5776367 117.9858398,219.5776367 
		117.4804688,216.5805664 	"/>
	<polygon opacity="0.2" fill="#737373" points="135.0546875,216.5805664 136.2197266,219.5776367 142.2299805,219.5776367 
		140.847168,216.5805664 	"/>
	<polygon opacity="0.2" fill="#737373" points="99.9951172,216.5805664 99.8427734,219.5776367 105.8525391,219.5776367 
		105.7871094,216.5805664 	"/>
	<polygon opacity="0.2" fill="#737373" points="87.7211914,219.5776367 93.7304688,219.5776367 94.1040039,216.5805664 
		88.3115234,216.5805664 	"/>
	<polygon opacity="0.2" fill="#737373" points="164.2226562,216.5805664 158.4296875,216.5805664 160.4746094,219.5776367 
		166.484375,219.5776367 	"/>
	<polygon opacity="0.2" fill="#737373" points="63.4765625,219.5776367 69.4868164,219.5776367 70.7382812,216.5805664 
		64.9458008,216.5805664 	"/>
	<polygon opacity="0.2" fill="#737373" points="75.5874023,219.5776367 81.5976562,219.5776367 82.4101562,216.5805664 
		76.6171875,216.5805664 	"/>
	
		<radialGradient id="XMLID_46_" cx="85.9599609" cy="147.5668945" r="38.1334877" gradientTransform="matrix(1 0 0 0.4999 0 154.6047363)" gradientUnits="userSpaceOnUse">
		<stop  offset="0" style="stop-color:#CFCFCF"/>
		<stop  offset="1" style="stop-color:#A1A1A1"/>
	</radialGradient>
	<path fill="url(#XMLID_46_)" d="M121.4199219,233.7983398c0,0.2402344-0.3920898,0.4375-0.878418,0.4375H85.144043
		c-0.484375,0-0.8779297-0.1972656-0.8779297-0.4375c0,0,2.8242188-5.7451172,2.9941406-5.9638672
		c0.1713867-0.2167969,0.3935547-0.4375,0.8779297-0.4375h29.4101562c0.484375,0,0.6274414,0.1416016,0.8774414,0.4375
		C118.675293,228.1333008,121.4199219,233.7983398,121.4199219,233.7983398z"/>
	<path fill="#737373" d="M39.953125,109.6704102c-1.5371094,0-2.7880859,1.2509766-2.7880859,2.7890625v86.0595703
		c0,1.5371094,1.2509766,2.7871094,2.7880859,2.7871094h128.1298828c1.5371094,0,2.7871094-1.25,2.7871094-2.7871094v-86.0595703
		c0-1.5380859-1.25-2.7890625-2.7871094-2.7890625H39.953125z M39.953125,198.519043v-86.0595703h128.1298828v86.0615234
		L39.953125,198.519043z"/>
</g>
</svg>
