<?xml version="1.0" encoding="iso-8859-1"?>
<!-- Generator: Adobe Illustrator 12.0.1, SVG Export Plug-In . SVG Version: 6.00 Build 51448)  -->
<!DOCTYPE svg PUBLIC "-//W3C//DTD SVG 1.0//EN" "http://www.w3.org/TR/2001/REC-SVG-20010904/DTD/svg10.dtd" [
	<!ENTITY ns_svg "http://www.w3.org/2000/svg">
	<!ENTITY ns_xlink "http://www.w3.org/1999/xlink">
]>
<svg  version="1.0" id="Network__x28_Wired_x29_" xmlns="&ns_svg;" xmlns:xlink="&ns_xlink;"
	 width="255.1494141" height="281.3208008" viewBox="0 0 255.1494141 281.3208008"
	 overflow="visible" enable-background="new 0 0 255.1494141 281.3208008" xml:space="preserve">
<g>
	
		<linearGradient id="XMLID_9_" gradientUnits="userSpaceOnUse" x1="118.2949219" y1="239.9692383" x2="136.8544922" y2="239.9692383">
		<stop  offset="0" style="stop-color:#B5B5B5"/>
		<stop  offset="1" style="stop-color:#848484"/>
	</linearGradient>
	<path fill="url(#XMLID_9_)" d="M118.2949219,235.309082v9.3193359h18.5595703v-9.3193359H118.2949219z"/>
	
		<linearGradient id="XMLID_10_" gradientUnits="userSpaceOnUse" x1="127.574707" y1="256.0249023" x2="127.574707" y2="269.1146851">
		<stop  offset="0" style="stop-color:#B5B5B5"/>
		<stop  offset="1" style="stop-color:#848484"/>
	</linearGradient>
	<path fill="url(#XMLID_10_)" d="M255.1074219,265.371582c0,3.5302734-2.8623047,6.3925781-6.3925781,6.3925781H6.425293
		c-3.5263672,0-6.3833008-2.8623047-6.3833008-6.3925781v-4.7949219c0-3.5302734,2.8569336-6.3925781,6.3833008-6.3925781
		h242.2895508c3.5302734,0,6.3925781,2.8623047,6.3925781,6.3925781V265.371582z"/>
	<radialGradient id="XMLID_11_" cx="93.5595703" cy="254.7768555" r="64.2137833" gradientUnits="userSpaceOnUse">
		<stop  offset="0" style="stop-color:#A877A6"/>
		<stop  offset="1" style="stop-color:#80467D"/>
	</radialGradient>
	<path fill="url(#XMLID_11_)" enable-background="new    " d="M170.0947266,273.3208008c0,2.2089844-1.7910156,4-4,4H89.0551758
		c-2.2089844,0-4-1.7910156-4-4V252.628418c0-2.2089844,1.7910156-4,4-4h77.0395508c2.2089844,0,4,1.7910156,4,4V273.3208008z"/>
	<path fill="#692C65" d="M89.0551758,244.628418c-4.4111328,0-8,3.5888672-8,8v20.6923828c0,4.4111328,3.5888672,8,8,8h77.0395508
		c4.4111328,0,8-3.5888672,8-8V252.628418c0-4.4111328-3.5888672-8-8-8H89.0551758z M89.0551758,273.3208008V252.628418h77.0395508
		v20.6972656L89.0551758,273.3208008z"/>
	<path fill="#FFFFFF" enable-background="new    " d="M251.1494141,223.605957c0,4.2558594-3.4472656,7.703125-7.703125,7.703125
		H11.7167969C7.456543,231.309082,4,227.8618164,4,223.605957v-54.6425781c0-4.2460938,3.456543-7.703125,7.7167969-7.703125
		h231.7294922c4.2558594,0,7.703125,3.4570312,7.703125,7.703125V223.605957z"/>
	<path fill="#FFFFFF" enable-background="new    " d="M223.265625,161.2602539V11.7119141
		C223.265625,7.4472656,219.8085938,4,215.5537109,4H39.9814453c-4.2460938,0-7.7070312,3.4472656-7.7070312,7.7119141v149.5483398
		H223.265625z"/>
	<linearGradient id="XMLID_12_" gradientUnits="userSpaceOnUse" x1="44.4814453" y1="15.3222656" x2="215.6082458" y2="156.501709">
		<stop  offset="0" style="stop-color:#FFFFFF"/>
		<stop  offset="1" style="stop-color:#C6C6C6"/>
	</linearGradient>
	<path fill="url(#XMLID_12_)" d="M212.1367188,150.0541992l-168.0302734-0.1474609l0.1977539-130.1865234
		c0-1.6567383,1.3432617-3,3-3l161.3950195,0.0766602c1.6572266,0,3,1.3432617,3,3L212.1367188,150.0541992z"/>
	<radialGradient id="XMLID_13_" cx="90.1479492" cy="51.1313477" r="118.5664902" gradientUnits="userSpaceOnUse">
		<stop  offset="0" style="stop-color:#AFAFAF"/>
		<stop  offset="1" style="stop-color:#737373"/>
	</radialGradient>
	<path fill="url(#XMLID_13_)" enable-background="new    " d="M199.7929688,132.6157227
		c0,1.1240234-0.9121094,2.0361328-2.0361328,2.0361328H57.8417969c-1.1240234,0-2.0361328-0.9121094-2.0361328-2.0361328
		V30.5922852c0-1.1240234,0.9121094-2.0351562,2.0361328-2.0351562h139.9150391
		c1.1240234,0,2.0361328,0.9111328,2.0361328,2.0351562V132.6157227z"/>
	<path fill="#737373" d="M57.8417969,26.5571289c-2.2255859,0-4.0361328,1.8100586-4.0361328,4.0351562v102.0234375
		c0,2.2255859,1.8105469,4.0361328,4.0361328,4.0361328h139.9150391c2.2255859,0,4.0361328-1.8105469,4.0361328-4.0361328
		V30.5922852c0-2.2250977-1.8105469-4.0351562-4.0361328-4.0351562H57.8417969z M57.8056641,30.5922852l139.9511719-0.0351562
		l0.0361328,102.0585938c0,0.0195312-0.0166016,0.0361328-0.0361328,0.0361328H57.8417969L57.8056641,30.5922852z"/>
	<path opacity="0.2" fill="#FFFFFF" d="M72.8959961,122.4262695c0,1.6567383-1.3432617,3-3,3h-1.309082
		c-1.6567383,0-3-1.3432617-3-3V40.3476562c0-1.6567383,1.3432617-3,3-3h1.309082c1.6567383,0,3,1.3432617,3,3V122.4262695z"/>
	
		<linearGradient id="XMLID_14_" gradientUnits="userSpaceOnUse" x1="15.159668" y1="196.2514648" x2="239.8261719" y2="196.2514648">
		<stop  offset="0" style="stop-color:#FFFFFF"/>
		<stop  offset="1" style="stop-color:#C6C6C6"/>
	</linearGradient>
	<path fill="url(#XMLID_14_)" d="M239.8261719,218.5014648c0,1.1044922-0.8955078,2-2,2H17.159668c-1.1044922,0-2-0.8955078-2-2
		v-44.5c0-1.1044922,0.8955078-2,2-2h220.6665039c1.1044922,0,2,0.8955078,2,2V218.5014648z"/>
	<path fill="#8B8B8B" enable-background="new    " d="M231.1757812,195.6801758
		c0,4.0429688-3.4570312,7.3222656-7.7128906,7.3222656h-67.4375c-4.2548828,0-7.7119141-3.2792969-7.7119141-7.3222656v-1.7929688
		c0-4.0507812,3.4570312-7.3203125,7.7119141-7.3203125h67.4375c4.2558594,0,7.7128906,3.2695312,7.7128906,7.3203125V195.6801758z"
		/>
	<path fill="#737373" d="M156.0253906,184.5668945c-5.3554688,0-9.7119141,4.1806641-9.7119141,9.3203125v1.7929688
		c0,5.140625,4.3564453,9.3222656,9.7119141,9.3222656h67.4375c5.3554688,0,9.7128906-4.1816406,9.7128906-9.3222656v-1.7929688
		c0-5.1396484-4.3574219-9.3203125-9.7128906-9.3203125H156.0253906z M150.3134766,195.6801758v-1.7929688
		c0-2.9335938,2.5625-5.3203125,5.7119141-5.3203125h67.4375c3.1503906,0,5.7128906,2.3867188,5.7128906,5.3203125v1.7929688
		c0,2.9345703-2.5625,5.3222656-5.7128906,5.3222656h-67.4375
		C152.8759766,201.0024414,150.3134766,198.6147461,150.3134766,195.6801758z"/>
	<path opacity="0.3" fill="#737373" d="M28.4482422,179.5424805c0,3.0195312-2.4404297,5.4609375-5.4609375,5.4609375l0,0
		c-3.0126953,0-5.453125-2.4414062-5.453125-5.4609375l0,0c0-3.0126953,2.4404297-5.4541016,5.453125-5.4541016l0,0
		C26.0078125,174.0883789,28.4482422,176.5297852,28.4482422,179.5424805L28.4482422,179.5424805z"/>
	<path opacity="0.6" fill="#FFFFFF" d="M30.4462891,181.699707c0,3.0195312-2.4404297,5.4609375-5.4609375,5.4609375l0,0
		c-3.0126953,0-5.453125-2.4414062-5.453125-5.4609375l0,0c0-3.0126953,2.4404297-5.4541016,5.453125-5.4541016l0,0
		C28.0058594,176.2456055,30.4462891,178.6870117,30.4462891,181.699707L30.4462891,181.699707z"/>
	<radialGradient id="XMLID_15_" cx="22.265625" cy="178.7006836" r="3.8048437" gradientUnits="userSpaceOnUse">
		<stop  offset="0" style="stop-color:#EEDBA1"/>
		<stop  offset="1" style="stop-color:#E1BF7F"/>
	</radialGradient>
	<path fill="url(#XMLID_15_)" d="M29.4169922,180.6362305c0,2.9560547-2.3876953,5.3525391-5.3515625,5.3525391l0,0
		c-2.9560547,0-5.3535156-2.3964844-5.3535156-5.3525391l0,0c0-2.9638672,2.3974609-5.3623047,5.3535156-5.3623047l0,0
		C27.0292969,175.2739258,29.4169922,177.6723633,29.4169922,180.6362305L29.4169922,180.6362305z"/>
	<path opacity="0.3" fill="#737373" d="M48.4482422,179.5424805c0,3.0195312-2.4404297,5.4609375-5.4609375,5.4609375l0,0
		c-3.0126953,0-5.453125-2.4414062-5.453125-5.4609375l0,0c0-3.0126953,2.4404297-5.4541016,5.453125-5.4541016l0,0
		C46.0078125,174.0883789,48.4482422,176.5297852,48.4482422,179.5424805L48.4482422,179.5424805z"/>
	<path opacity="0.6" fill="#FFFFFF" d="M50.4462891,181.699707c0,3.0195312-2.4404297,5.4609375-5.4609375,5.4609375l0,0
		c-3.0126953,0-5.453125-2.4414062-5.453125-5.4609375l0,0c0-3.0126953,2.4404297-5.4541016,5.453125-5.4541016l0,0
		C48.0058594,176.2456055,50.4462891,178.6870117,50.4462891,181.699707L50.4462891,181.699707z"/>
	<radialGradient id="XMLID_16_" cx="42.265625" cy="178.7006836" r="3.8048437" gradientUnits="userSpaceOnUse">
		<stop  offset="0" style="stop-color:#95C393"/>
		<stop  offset="1" style="stop-color:#6AA467"/>
	</radialGradient>
	<path fill="url(#XMLID_16_)" d="M49.4169922,180.6362305c0,2.9560547-2.3876953,5.3525391-5.3515625,5.3525391l0,0
		c-2.9560547,0-5.3535156-2.3964844-5.3535156-5.3525391l0,0c0-2.9638672,2.3974609-5.3623047,5.3535156-5.3623047l0,0
		C47.0292969,175.2739258,49.4169922,177.6723633,49.4169922,180.6362305L49.4169922,180.6362305z"/>
	<path fill="#8B8B8B" d="M243.4462891,157.2602539H227.265625V11.7119141C227.265625,5.2539062,222.0117188,0,215.5537109,0
		H39.9814453c-6.4550781,0-11.7070312,5.2539062-11.7070312,11.7119141v145.5483398H11.7167969
		c-6.4604492,0-11.7167969,5.25-11.7167969,11.703125v54.6425781c0,6.453125,5.2563477,11.703125,11.7167969,11.703125h231.7294922
		c6.453125,0,11.703125-5.25,11.703125-11.703125v-54.6425781
		C255.1494141,162.5102539,249.8994141,157.2602539,243.4462891,157.2602539z M36.2744141,11.7119141
		C36.2744141,9.6650391,37.9375,8,39.9814453,8h175.5722656c2.046875,0,3.7119141,1.6650391,3.7119141,3.7119141
		c0,0,0,137.9702148,0,145.5483398H36.2744141C36.2744141,149.6821289,36.2744141,11.7119141,36.2744141,11.7119141z
		 M247.1494141,223.605957c0,2.0419922-1.6611328,3.703125-3.703125,3.703125H11.7167969
		C9.6674805,227.309082,8,225.6479492,8,223.605957v-54.6425781c0-2.0419922,1.6674805-3.703125,3.7167969-3.703125h231.7294922
		c2.0419922,0,3.703125,1.6611328,3.703125,3.703125V223.605957z"/>
</g>
</svg>
