<?xml version="1.0" encoding="iso-8859-1"?>
<!-- Generator: Adobe Illustrator 12.0.1, SVG Export Plug-In . SVG Version: 6.00 Build 51448)  -->
<!DOCTYPE svg PUBLIC "-//W3C//DTD SVG 1.0//EN" "http://www.w3.org/TR/2001/REC-SVG-20010904/DTD/svg10.dtd" [
	<!ENTITY ns_svg "http://www.w3.org/2000/svg">
	<!ENTITY ns_xlink "http://www.w3.org/1999/xlink">
]>
<svg  version="1.0" id="Notebook" xmlns="&ns_svg;" xmlns:xlink="&ns_xlink;" width="257.9501953" height="297.456543"
	 viewBox="0 0 257.9501953 297.456543" overflow="visible" enable-background="new 0 0 257.9501953 297.456543"
	 xml:space="preserve">
<g>
	<polygon fill="#EFDEA5" enable-background="new    " points="236.7783203,293.456543 4.0546875,293.456543 4.0546875,4.6469727 
		236.7158203,4.9116211 	"/>
	<linearGradient id="XMLID_9_" gradientUnits="userSpaceOnUse" x1="24.5371094" y1="31.0366211" x2="223.2111664" y2="277.0144043">
		<stop  offset="0" style="stop-color:#EFDEA5"/>
		<stop  offset="1" style="stop-color:#E0BC7B"/>
	</linearGradient>
	<polygon fill="url(#XMLID_9_)" points="224.4628906,281.387207 16.925293,281.387207 16.925293,18.6455078 224.3994141,18.7109375 
			"/>
	<rect x="4.0546875" y="59.6108398" opacity="0.5" fill="#A9C7EB" width="232.6728516" height="4.0087891"/>
	<rect x="4.0546875" y="232.809082" opacity="0.5" fill="#A9C7EB" width="232.7109375" height="4.0097656"/>
	<rect x="4.0546875" y="261.4770508" opacity="0.5" fill="#A9C7EB" width="232.7167969" height="4.0078125"/>
	<rect x="4.0546875" y="174.7768555" opacity="0.5" fill="#A9C7EB" width="232.6982422" height="4.0097656"/>
	<rect x="4.0546875" y="203.4448242" opacity="0.5" fill="#A9C7EB" width="232.7041016" height="4.0078125"/>
	<rect x="4.0546875" y="88.277832" opacity="0.5" fill="#A9C7EB" width="232.6787109" height="4.0087891"/>
	<rect x="4.0546875" y="145.777832" opacity="0.5" fill="#A9C7EB" width="232.6914062" height="4.0087891"/>
	<rect x="4.0546875" y="117.1108398" opacity="0.5" fill="#A9C7EB" width="232.6855469" height="4.0087891"/>
	<radialGradient id="XMLID_10_" cx="33.6303711" cy="58.796875" r="225.6365051" gradientUnits="userSpaceOnUse">
		<stop  offset="0" style="stop-color:#CC464F"/>
		<stop  offset="1" style="stop-color:#AB262D"/>
	</radialGradient>
	<rect x="33.6303711" y="35.6054688" opacity="0.25" fill="url(#XMLID_10_)" width="3.9785156" height="253.8510742"/>
	<path fill="#D6A959" d="M0.0546875,297.456543h240.7246094L240.7148438,0.9160156L0.0546875,0.6425781V297.456543z
		 M8.0546875,8.6513672c7.6005859,0.0087891,217.0800781,0.2470703,224.6621094,0.2558594
		c0.0019531,7.6601562,0.0585938,272.8774414,0.0605469,280.5493164c-7.59375,0-217.1303711,0-224.7226562,0
		C8.0546875,281.7856445,8.0546875,16.3305664,8.0546875,8.6513672z"/>
	<linearGradient id="XMLID_11_" gradientUnits="userSpaceOnUse" x1="120.5268555" y1="27.6313477" x2="120.5268555" y2="5.9851818">
		<stop  offset="0" style="stop-color:#E1A655"/>
		<stop  offset="1" style="stop-color:#D48049"/>
	</linearGradient>
	<rect x="4" y="4" fill="url(#XMLID_11_)" enable-background="new    " width="233.0527344" height="27.6054688"/>
	<path fill="#BE5B33" d="M0,0v35.6054688h241.0527344V0H0z M233.0527344,8c0,4.8583984,0,14.7470703,0,19.6054688
		c-7.5927734,0-217.4599609,0-225.0527344,0C8,22.7470703,8,12.8583984,8,8C15.5927734,8,225.4599609,8,233.0527344,8z"/>
	<circle fill="#EFDEA5" enable-background="new    " cx="52.1652832" cy="19.3173828" r="4.0358887"/>
	<circle fill="#BE5B33" cx="50.7189941" cy="17.8710938" r="4.0358887"/>
	<circle fill="#EFDEA5" enable-background="new    " cx="191.96875" cy="19.3173828" r="4.0361328"/>
	<circle fill="#BE5B33" cx="190.5229492" cy="17.8710938" r="4.0356445"/>
	<polygon fill="#EFDEA5" enable-background="new    " points="135.9472656,230.5161133 135.8994141,219.2045898 
		125.4111328,219.2045898 125.4111328,213.6166992 114.6503906,213.574707 208.2978516,118.7001953 228.03125,138.4443359 	"/>
	<polygon fill="#E1BF7F" points="222.7919922,133.2045898 222.7919922,133.2045898 216.0136719,126.4223633 
		125.4755859,219.2045898 135.8994141,219.2045898 135.9033203,219.9956055 135.9042969,219.9956055 135.9013672,219.253418 
		222.2744141,132.6845703 	"/>
	
		<linearGradient id="XMLID_12_" gradientUnits="userSpaceOnUse" x1="179.1796875" y1="181.6694336" x2="173.1494141" y2="175.6391602">
		<stop  offset="0" style="stop-color:#D6A959"/>
		<stop  offset="1" style="stop-color:#D48F44"/>
	</linearGradient>
	<polygon fill="url(#XMLID_12_)" points="135.9472656,230.5161133 228.03125,138.4443359 221,131.4101562 134.6269531,217.9790039 	
		"/>
	<path fill="#D48F44" d="M106.9140625,215.7416992c0,0,11.3369141,1.8466797,14.4970703,1.859375c0,0.65625,0,5.6035156,0,5.6035156
		s7.4404297,0,10.5048828,0c0.0146484,3.34375,1.8671875,15.1308594,1.8671875,15.1308594L233.6875,138.4453125
		l-25.4072266-25.4213867L106.9140625,215.7416992z M208.3154297,124.3764648
		c3.4716797,3.4731445,10.6083984,10.6137695,14.0595703,14.0668945
		c-4.9101562,4.9091797-71.2070312,71.1977539-82.46875,82.4575195c-0.0019531-0.4404297-0.0234375-5.6962891-0.0234375-5.6962891
		s-7.4101562,0-10.4716797,0c0-0.6464844,0-5.5722656,0-5.5722656s-4.9746094-0.0195312-5.2285156-0.0205078
		C135.3369141,198.3110352,203.3857422,129.3706055,208.3154297,124.3764648z"/>
	<path fill="#755346" d="M109.8447266,212.7592773l-0.0019531,0.0146484l0.2128906-0.2158203L109.8447266,212.7592773z
		 M114.5566406,234.2202148c0.9794922-6.2011719,2.2685547-14.3710938,2.6806641-16.9833984
		c-2.6591797-0.3222656-5.8076172-0.7900391-7.9228516-1.1162109l-4.7402344,30.0351562l28.8720703-10.0273438
		c-0.3105469-2.0800781-0.7734375-5.2841797-1.1083984-8.0849609
		C130.2128906,228.7827148,120.9296875,232.0063477,114.5566406,234.2202148z"/>
	<radialGradient id="XMLID_13_" cx="108.8007812" cy="226.4047852" r="14.1839933" gradientUnits="userSpaceOnUse">
		<stop  offset="0" style="stop-color:#A87464"/>
		<stop  offset="1" style="stop-color:#7F5F55"/>
	</radialGradient>
	<path fill="url(#XMLID_13_)" enable-background="new    " d="M121.4111328,223.2045898c0,0,0-4.9472656,0-5.6035156
		c-1.5322266-0.0058594-4.9873047-0.4433594-8.1396484-0.8925781l-3.7060547,23.4794922l23.2998047-8.0927734
		c-0.46875-3.3828125-0.9414062-7.2070312-0.9492188-8.890625
		C128.8515625,223.2045898,121.4111328,223.2045898,121.4111328,223.2045898z"/>
	<path opacity="0.5" fill="#755346" d="M131.9160156,223.2045898c-3.0644531,0-10.5048828,0-10.5048828,0s0-4.9472656,0-5.6035156
		c-1.7070312-0.0068359-5.8007812-0.5488281-9.2041016-1.0458984l-0.6074219,3.8457031l6.9990234,0.0263672v5.5888672h10.4902344
		l0.0351562,8.2216797l3.8535156-1.3378906C132.4755859,229.340332,131.9238281,225.0239258,131.9160156,223.2045898z"/>
	<path fill="#4D4D4D" d="M103.3603516,248.2524414c-0.8398438,0.1494141-1.5332031,0.0732422-1.9550781-0.3505859
		c-0.4208984-0.4228516-0.4941406-1.1123047-0.3398438-1.9462891c0.625-3.3632812,4.9492188-9.0751953,4.9492188-9.0751953
		l4.0800781-0.0195312l2.4423828,2.2958984l-0.0117188,4.2373047
		C112.5253906,243.394043,106.7490234,247.6557617,103.3603516,248.2524414z"/>
	
		<linearGradient id="XMLID_14_" gradientUnits="userSpaceOnUse" x1="162.7470703" y1="136.8261719" x2="171.031601" y2="128.5416412" gradientTransform="matrix(1 0 0 1 62.1171875 -14.5830078)">
		<stop  offset="0" style="stop-color:#DEDEDE"/>
		<stop  offset="1" style="stop-color:#A1A1A1"/>
	</linearGradient>
	<path fill="url(#XMLID_14_)" d="M243.1015625,133.8701172c-0.9785156,0.9775391-2.5615234,0.9775391-3.5390625-0.0009766
		l-26.328125-26.3271484c-0.9775391-0.9765625-0.9785156-2.5615234,0.0009766-3.5371094l1.7919922-1.7900391
		c0.9746094-0.9785156,2.5585938-0.9785156,3.5351562,0l26.3291016,26.3271484c0.9765625,0.9755859,0.9736328,2.5595703,0,3.5371094
		L243.1015625,133.8701172z"/>
	<radialGradient id="XMLID_15_" cx="241.6621094" cy="89.7553711" r="19.7832394" gradientUnits="userSpaceOnUse">
		<stop  offset="0" style="stop-color:#D9A3B5"/>
		<stop  offset="1" style="stop-color:#BD7B93"/>
	</radialGradient>
	<path fill="url(#XMLID_15_)" enable-background="new    " d="M252.8105469,107.9438477l-13.9335938-13.9306641
		c-1.5214844-1.5185547-3.9746094-1.5185547-5.4960938,0l-11.5097656,11.5097656l19.4277344,19.4262695l11.5117188-11.5141602
		C254.3271484,111.9179688,254.3330078,109.4570312,252.8105469,107.9438477z"/>
	<path fill="#D9A3B5" d="M249.8994141,110.6894531c-0.1630859-0.1630859-13.6181641-13.6147461-13.7705078-13.7675781
		c-0.0703125,0.0703125-5.4306641,5.4311523-11.4296875,11.4296875l-0.2441406-0.2436523l-0.0625,0.0629883l3.0136719,3.0131836
		l8.2197266-8.2192383c0.5185547-0.5180664,1.3574219-0.5180664,1.8759766,0L247.5625,113.0263672
		C248.9863281,111.6030273,249.8701172,110.7182617,249.8994141,110.6894531z"/>
	<path fill="#964460" d="M255.6298828,105.1069336l-13.9248047-13.9223633
		c-3.0761719-3.0698242-8.0761719-3.0698242-11.1503906-0.0024414c-0.0009766,0.0009766-5.4326172,5.4335938-11.5126953,11.5126953
		l5.6572266,5.6567383c5.9990234-5.9985352,11.359375-11.359375,11.4296875-11.4296875
		c0.1523438,0.152832,13.6074219,13.6044922,13.7705078,13.7675781c-0.0722656,0.0722656-5.4326172,5.4331055-11.4296875,11.4316406
		l5.6572266,5.6567383c6.0800781-6.0810547,11.5126953-11.5146484,11.5126953-11.5146484
		c1.4931641-1.4941406,2.3134766-3.4794922,2.3105469-5.5908203
		C257.9462891,108.5668945,257.1230469,106.590332,255.6298828,105.1069336z"/>
	
		<linearGradient id="XMLID_16_" gradientUnits="userSpaceOnUse" x1="157.4335938" y1="142.1396484" x2="165.7181244" y2="133.8551178" gradientTransform="matrix(1 0 0 1 62.1171875 -14.5830078)">
		<stop  offset="0" style="stop-color:#DEDEDE"/>
		<stop  offset="1" style="stop-color:#A1A1A1"/>
	</linearGradient>
	<path fill="url(#XMLID_16_)" d="M237.7880859,139.184082c-0.9785156,0.9765625-2.5615234,0.9765625-3.5390625-0.0019531
		l-26.328125-26.3266602c-0.9775391-0.9765625-0.9785156-2.5615234,0.0009766-3.5371094l1.7919922-1.7900391
		c0.9755859-0.9785156,2.5595703-0.9785156,3.5351562,0l26.3291016,26.3271484c0.9755859,0.9755859,0.9746094,2.559082,0,3.5375977
		L237.7880859,139.184082z"/>
	<path opacity="0.6" fill="#D6A959" d="M213.9775391,158.1518555l-80.1943359,80.1835938
		c0,0-0.1611328-1.0205078-0.3867188-2.5429688c0.0166016,0.109375,0.0341797,0.2324219,0.0498047,0.3359375l-20.921875,7.265625
		c-0.0024414,0.0019531-0.8725586,0.6425781-2.1293945,1.4589844c2.7885742-0.7529297,5.597168-1.9394531,6.1088867-2.1591797
		l20.1630859-3.2314453c0.0048828,0.7861328,0.0078125,1.2861328,0.0078125,1.2861328l100.078125-62.6083984l-0.0068359-34.3798828
		L213.9775391,158.1518555z"/>
</g>
</svg>
