<?xml version="1.0" encoding="iso-8859-1"?>
<!-- Generator: Adobe Illustrator 12.0.1, SVG Export Plug-In . SVG Version: 6.00 Build 51448)  -->
<!DOCTYPE svg PUBLIC "-//W3C//DTD SVG 1.0//EN" "http://www.w3.org/TR/2001/REC-SVG-20010904/DTD/svg10.dtd" [
	<!ENTITY ns_svg "http://www.w3.org/2000/svg">
	<!ENTITY ns_xlink "http://www.w3.org/1999/xlink">
]>
<svg  version="1.0" id="Open" xmlns="&ns_svg;" xmlns:xlink="&ns_xlink;" width="292.9140625" height="234.3496094"
	 viewBox="0 0 292.9140625 234.3496094" overflow="visible" enable-background="new 0 0 292.9140625 234.3496094"
	 xml:space="preserve">
<g>
	<linearGradient id="XMLID_6_" gradientUnits="userSpaceOnUse" x1="123.269043" y1="36.2807617" x2="123.269043" y2="56.8868332">
		<stop  offset="0" style="stop-color:#EEDBA1"/>
		<stop  offset="1" style="stop-color:#E1BF7F"/>
	</linearGradient>
	<path fill="url(#XMLID_6_)" enable-background="new    " d="M233.75,53.9487305H127.2685547
		c-9.3706055-9.984375-12.8842773-13.3071289-14.7055664-15.128418c-8.3959961-8.3959961-15.9296875-7.9443359-21.0092773-7.9443359
		H12.7895508c-5.0800781,0-9.1904297,4.1152344-9.1904297,9.190918v179.6938477
		c0,5.0800781,4.1103516,9.1904297,9.1904297,9.1904297H233.75c5.0703125,0,9.1894531-4.1103516,9.1894531-9.1904297V63.1391602
		C242.9394531,58.0639648,238.8203125,53.9487305,233.75,53.9487305z"/>
	<path fill="#D48F44" d="M92.2792969,27.2749023l-0.7255859,0.0019531H12.7895508C5.7373047,27.2768555,0,33.0146484,0,40.0668945
		v179.6938477c0,7.0527344,5.7373047,12.7890625,12.7895508,12.7890625H233.75
		c7.0517578,0,12.7890625-5.7363281,12.7890625-12.7890625V63.1391602c0-7.0522461-5.7373047-12.7895508-12.7890625-12.7895508
		c0,0-101.9116211,0-104.9287109,0c-7.1860352-7.6308594-10.7783203-11.1772461-12.7270508-13.0986328l-0.9858398-0.9755859
		C106.0507812,27.2182617,97.4296875,27.2539062,92.2792969,27.2749023z M7.1982422,219.7607422V40.0668945
		c0-3.0834961,2.5083008-5.5917969,5.5913086-5.5917969h78.7641602l0.7553711-0.0019531
		c4.7993164-0.0200195,10.7724609-0.0444336,17.7089844,6.8920898l1.0229492,1.0126953
		c2.0126953,1.9833984,5.7587891,5.6757812,13.6030273,14.0336914l1.0664062,1.1362305H233.75
		c3.0830078,0,5.5908203,2.5083008,5.5908203,5.5913086v156.621582c0,3.0830078-2.5078125,5.5908203-5.5908203,5.5908203H12.7895508
		C9.706543,225.3515625,7.1982422,222.84375,7.1982422,219.7607422z"/>
	<linearGradient id="XMLID_7_" gradientUnits="userSpaceOnUse" x1="58.253418" y1="41.8271484" x2="58.253418" y2="70.2695618">
		<stop  offset="0" style="stop-color:#FFFFFF"/>
		<stop  offset="1" style="stop-color:#EFDBB9"/>
	</linearGradient>
	<path fill="url(#XMLID_7_)" d="M102.6264648,74.1293945V45.449707c0-2.484375-2.0146484-4.4990234-4.4990234-4.4990234H18.3798828
		c-2.484375,0-4.4990234,2.0146484-4.4990234,4.4990234v28.6796875H102.6264648z"/>
	<path opacity="0.5" fill="#D48F44" d="M242.9394531,156.2548828V65.2431641H25.5649414
		c-5.0800781,0-9.2202148,3.7924805-10.25,9.1904297S3.5991211,156.2529297,3.5991211,156.2529297v63.5078125
		c0,0.7089844,0.0878906,1.3974609,0.2392578,2.0595703c0.2875977,0.0273438,0.578125,0.0439453,0.8720703,0.0439453h220.9594727
		c5.0722656,0,9.1914062-4.1103516,9.1914062-9.1914062L242.9394531,156.2548828z"/>
	<path fill="#EFDEA5" enable-background="new    " d="M242.9394531,221.5605469
		c0,5.0791016-4.1191406,9.1904297-9.1894531,9.1904297H12.7895508c-5.0800781,0-9.1904297-4.1113281-9.1904297-9.1904297
		L23.394043,83.3203125c0-5.0751953,4.1108398-9.190918,9.190918-9.190918h220.9599609
		c5.0703125,0,9.1904297,4.1157227,9.1904297,9.190918L242.9394531,221.5605469z"/>
	<path fill="#D48F44" d="M32.5849609,70.5302734c-7.0522461,0-12.7900391,5.737793-12.7900391,12.7900391l0.0366211-0.5102539
		L0,221.3037109v0.2568359c0,7.0517578,5.7373047,12.7890625,12.7895508,12.7890625H233.75
		c7.0517578,0,12.7890625-5.7373047,12.7890625-12.7890625l-0.0361328,0.5107422l19.8310547-138.4946289v-0.2563477
		c0-7.0522461-5.7373047-12.7900391-12.7890625-12.7900391H32.5849609z M26.9931641,83.5766602v-0.2563477
		c0-3.0834961,2.5083008-5.5917969,5.5917969-5.5917969h220.9599609c3.03125,0,5.4941406,2.4287109,5.5761719,5.4414062
		c-0.1035156,0.7158203-19.7802734,138.1337891-19.7802734,138.1337891v0.2568359
		c0,3.0830078-2.5078125,5.5908203-5.5908203,5.5908203H12.7895508c-3.0317383,0-5.4941406-2.4287109-5.5761719-5.4404297
		C7.315918,220.9941406,26.9931641,83.5766602,26.9931641,83.5766602z"/>
	<radialGradient id="XMLID_8_" cx="26.7836914" cy="85.3764648" r="265.0552063" gradientUnits="userSpaceOnUse">
		<stop  offset="0" style="stop-color:#EEDBA1"/>
		<stop  offset="1" style="stop-color:#E1BF7F"/>
	</radialGradient>
	<path fill="url(#XMLID_8_)" d="M232.0839844,216.2021484c0,1.9873047-1.6113281,3.5986328-3.5986328,3.5986328H18.0874023
		c-1.987793,0-3.5991211-1.6113281-3.5991211-3.5986328L33.3837891,88.6264648c0-1.9873047,1.6113281-3.5991211,3.5991211-3.5991211
		h210.3979492c1.9873047,0,3.5986328,1.6118164,3.5986328,3.5991211L232.0839844,216.2021484z"/>
	<polygon fill="#6AA467" points="188.9453125,111.2397461 289.8818359,141.5205078 289.7480469,137.8017578 
		198.7626953,103.8828125 	"/>
	<path opacity="0.5" fill="#D48F44" d="M257.1728516,147.5537109l5.6484375-39.4482422l-2.25-37.1967773
		c-14.84375-27.7949219-42.4189453-53.1201172-92.1933594-53.1201172c-35.7768555,0-67.5234375,21.3291016-81.9853516,52.7416992
		h39.6181641c7.6831055-2.3168945,15.5097656-3.5366211,22.8144531-3.5366211
		c37.0078125,0,51.7255859,26.6464844,60.3945312,40.6533203l-25.2431641,18.434082L257.1728516,147.5537109z"/>
	<linearGradient id="XMLID_9_" gradientUnits="userSpaceOnUse" x1="271.9482422" y1="79.3935547" x2="107.3449097" y2="43.5084457">
		<stop  offset="0" style="stop-color:#95C393"/>
		<stop  offset="1" style="stop-color:#6AA467"/>
	</linearGradient>
	<path fill="url(#XMLID_9_)" d="M289.7568359,141.0771484l-0.8486328-101.6992188l-23.6699219,16.8642578
		c-14.84375-27.7949219-42.4189453-53.1201172-92.1933594-53.1201172c-41.105957,0-76.902832,28.1499023-87.2612305,67.4082031
		h16.7792969c14.2382812-11.6777344,33.9907227-18.203125,50.9291992-18.203125
		c37.0078125,0,51.7255859,26.6464844,60.3945312,40.6533203l-25.2431641,18.4335938L289.7568359,141.0771484z"/>
	<path fill="#95C393" d="M265.2382812,56.2421875c-14.84375-27.7949219-42.4189453-53.1201172-92.1933594-53.1201172
		c-39.5571289,0-75.296875,29.2978516-84.8461914,67.4082031h1.7446289
		c12.1972656-34.7827148,45.0625-60.2133789,81.7109375-60.2133789c49.7734375,0,76.4521484,29.4179688,91.2958984,57.2124023
		l25.8955078-18.3320312l0.0625-9.8193359L265.2382812,56.2421875z"/>
	
		<linearGradient id="XMLID_10_" gradientUnits="userSpaceOnUse" x1="296.6132812" y1="132.3164062" x2="127.1448517" y2="42.4022369">
		<stop  offset="0" style="stop-color:#95C393"/>
		<stop  offset="1" style="stop-color:#6AA467"/>
	</linearGradient>
	<path fill="url(#XMLID_10_)" d="M286.3759766,136.8320312c-28.3984375-38.2368164-58.4394531-78.027832-68.6416016-89.2119141
		c-22.1367188-24.2705078-82.3964844-20.0205078-110.6831055,8.2675781
		c-4.5629883,4.5620117-8.6791992,9.4736328-12.3764648,14.6425781h3.1547852
		c2.2900391-2.0966797,4.7685547-4.1015625,7.4726562-5.9794922c13.8349609-9.6088867,31.8500977-15.3457031,48.1899414-15.3457031
		c37.1875,0,53.2773438,26.2148438,61.9199219,40.2983398l2.6445312,4.296875c0,0-15.9550781,11.6518555-22.4580078,16.4003906
		C205.78125,113.1884766,278.2470703,134.4482422,286.3759766,136.8320312z"/>
	<path fill="#487A47" d="M292.9140625,145.2568359l-0.9345703-111.8999023c0,0-21.3066406,15.1806641-25.7089844,18.3173828
		C252.3544922,27.3901367,225.1171875,0,173.0449219,0C148.0742188,0,123.6875,10.3657227,106.1357422,28.4384766
		C94.5498047,40.3686523,86.5307617,54.8105469,82.5458984,70.5302734h6.472168
		c3.8413086-14.0761719,11.1665039-27.0014648,21.5966797-37.7416992
		c16.3823242-16.8696289,39.137207-26.5449219,62.4301758-26.5449219c22.3134766,0,41.6542969,5.2573242,57.4853516,15.6269531
		c13.0761719,8.5644531,23.8271484,20.6230469,31.9550781,35.8413086l1.671875,3.1328125
		c0,0,15.5273438-11.0620117,21.6796875-15.4453125c0.0839844,10.1523438,0.703125,84.2441406,0.7636719,91.4990234
		c-6.9736328-2.0458984-80.7236328-23.6816406-91.0019531-26.6977539
		c6.5029297-4.7485352,22.4580078-16.4003906,22.4580078-16.4003906l-2.6445312-4.296875
		c-8.6425781-14.0834961-24.7324219-40.2983398-61.9199219-40.2983398c-16.3398438,0-34.3549805,5.7368164-48.1899414,15.3457031
		c-2.7041016,1.8779297-5.1826172,3.8828125-7.4726562,5.9794922h9.8691406
		c0.3867188-0.284668,0.769043-0.5722656,1.1650391-0.8510742c12.7709961-8.9946289,29.5126953-14.2304688,44.628418-14.2304688
		c33.2226562,0,47.6152344,22.6958008,56.2246094,36.7114258c-3.8398438,2.8037109-28.0273438,20.4677734-28.0273438,20.4677734
		L292.9140625,145.2568359z"/>
</g>
</svg>
