<?xml version="1.0" encoding="iso-8859-1"?>
<!-- Generator: Adobe Illustrator 12.0.1, SVG Export Plug-In . SVG Version: 6.00 Build 51448)  -->
<!DOCTYPE svg PUBLIC "-//W3C//DTD SVG 1.0//EN" "http://www.w3.org/TR/2001/REC-SVG-20010904/DTD/svg10.dtd" [
	<!ENTITY ns_svg "http://www.w3.org/2000/svg">
	<!ENTITY ns_xlink "http://www.w3.org/1999/xlink">
]>
<svg  version="1.0" id="Overlay__x28_Add_Reversed_x29_" xmlns="&ns_svg;" xmlns:xlink="&ns_xlink;"
	 width="148.9648438" height="148.9770508" viewBox="0 0 148.9648438 148.9770508"
	 overflow="visible" enable-background="new 0 0 148.9648438 148.9770508" xml:space="preserve">
<g>
	<radialGradient id="XMLID_2_" cx="36.0161133" cy="22.534668" r="123.9454422" gradientUnits="userSpaceOnUse">
		<stop  offset="0" style="stop-color:#FFFFFF"/>
		<stop  offset="1" style="stop-color:#CBCBCB"/>
	</radialGradient>
	<path fill="url(#XMLID_2_)" enable-background="new    " d="M144.9648438,74.4824219
		c0,38.9165039-31.5527344,70.4946289-70.4946289,70.4946289C35.5356445,144.9770508,4,113.3989258,4,74.4824219
		C4,35.5668945,35.5356445,4,74.4702148,4C113.4121094,4,144.9648438,35.5668945,144.9648438,74.4824219z"/>
	<path fill="#8B8B8B" d="M0,74.4824219c0,41.0766602,33.4072266,74.4946289,74.4702148,74.4946289
		c41.0766602,0,74.4946289-33.4179688,74.4946289-74.4946289C148.9648438,33.4125977,115.546875,0,74.4702148,0
		C33.4072266,0,0,33.4125977,0,74.4824219z M8,74.4824219C8,37.8237305,37.8183594,8,74.4702148,8
		c36.6645508,0,66.4946289,29.8237305,66.4946289,66.4824219c0,36.6645508-29.8300781,66.4946289-66.4946289,66.4946289
		C37.8183594,140.9770508,8,111.1469727,8,74.4824219z"/>
	<path fill="#FFFFFF" d="M13.3212891,74.4873047c0,33.7202148,27.4350586,61.1518555,61.1572266,61.1518555
		c33.7265625,0,61.1640625-27.4316406,61.1640625-61.1518555c0-33.71875-27.4375-61.1508789-61.1640625-61.1508789
		C40.7563477,13.3364258,13.3212891,40.7685547,13.3212891,74.4873047z M17.3212891,74.4873047
		c0-31.5131836,25.640625-57.1508789,57.1572266-57.1508789c31.5214844,0,57.1640625,25.6376953,57.1640625,57.1508789
		S106,131.6391602,74.4785156,131.6391602C42.9619141,131.6391602,17.3212891,106.0004883,17.3212891,74.4873047z"/>
	<path fill="#487A47" d="M119.6679688,61.6333008H87.0019531V28.9667969c0-2.2089844-1.7910156-4-4-4H66.668457
		c-2.2089844,0-4,1.7910156-4,4v32.6665039H30.0024414c-2.2089844,0-4,1.7910156-4,4v16.3339844c0,2.2089844,1.7910156,4,4,4
		H62.668457v32.6660156c0,2.2089844,1.7910156,4,4,4h16.3334961c2.2089844,0,4-1.7910156,4-4V85.9672852h32.6660156
		c2.2089844,0,4-1.7910156,4-4V65.6333008C123.6679688,63.4243164,121.8769531,61.6333008,119.6679688,61.6333008z"/>
	<path opacity="0.5" fill="#FFFFFF" d="M91.4511719,33.4145508c0-2.2089844-1.7910156-4-4-4h-0.4492188v32.21875h4.4492188
		V33.4145508z"/>
	<path opacity="0.5" fill="#FFFFFF" d="M124.1171875,66.0810547h-0.4492188v15.8862305c0,2.2089844-1.7910156,4-4,4H87.0019531
		v32.6660156c0,2.2089844-1.7910156,4-4,4H67.1162109v0.4472656c0,2.2089844,1.7910156,4,4,4h16.3349609
		c2.2089844,0,4-1.7910156,4-4V90.4145508h32.6660156c2.2089844,0,4-1.7910156,4-4V70.0810547
		C128.1171875,67.8720703,126.3261719,66.0810547,124.1171875,66.0810547z"/>
	<path opacity="0.5" fill="#FFFFFF" d="M30.4501953,86.4145508c0,2.2089844,1.7910156,4,4,4H62.668457v-4.4472656H30.4501953
		V86.4145508z"/>
</g>
</svg>
