<?xml version="1.0" encoding="iso-8859-1"?>
<!-- Generator: Adobe Illustrator 12.0.1, SVG Export Plug-In . SVG Version: 6.00 Build 51448)  -->
<!DOCTYPE svg PUBLIC "-//W3C//DTD SVG 1.0//EN" "http://www.w3.org/TR/2001/REC-SVG-20010904/DTD/svg10.dtd" [
	<!ENTITY ns_svg "http://www.w3.org/2000/svg">
	<!ENTITY ns_xlink "http://www.w3.org/1999/xlink">
]>
<svg  version="1.0" id="Overlay__x28_Add_x29_" xmlns="&ns_svg;" xmlns:xlink="&ns_xlink;"
	 width="148.9643555" height="148.9765625" viewBox="0 0 148.9643555 148.9765625"
	 overflow="visible" enable-background="new 0 0 148.9643555 148.9765625" xml:space="preserve">
<g>
	<radialGradient id="XMLID_2_" cx="36.015625" cy="22.5341797" r="123.9454422" gradientUnits="userSpaceOnUse">
		<stop  offset="0" style="stop-color:#95C393"/>
		<stop  offset="1" style="stop-color:#6AA467"/>
	</radialGradient>
	<path fill="url(#XMLID_2_)" enable-background="new    " d="M144.9643555,74.4824219
		c0,38.9169922-31.5517578,70.4941406-70.4941406,70.4941406C35.5356445,144.9765625,4,113.3994141,4,74.4824219
		C4,35.5668945,35.5356445,4,74.4702148,4C113.4125977,4,144.9643555,35.5668945,144.9643555,74.4824219z"/>
	<path fill="#487A47" d="M0,74.4824219c0,41.0761719,33.4072266,74.4941406,74.4702148,74.4941406
		c41.0761719,0,74.4941406-33.4179688,74.4941406-74.4941406C148.9643555,33.4125977,115.5463867,0,74.4702148,0
		C33.4072266,0,0,33.4125977,0,74.4824219z M8,74.4824219C8,37.8237305,37.8183594,8,74.4702148,8
		c36.6650391,0,66.4941406,29.8237305,66.4941406,66.4824219c0,36.6650391-29.8291016,66.4941406-66.4941406,66.4941406
		C37.8183594,140.9765625,8,111.1474609,8,74.4824219z"/>
	<path fill="#95C393" d="M13.3212891,74.4873047c0,33.7197266,27.4350586,61.1523438,61.1572266,61.1523438
		c33.7260742,0,61.1645508-27.4326172,61.1645508-61.1523438c0-33.71875-27.4384766-61.1508789-61.1645508-61.1508789
		C40.7563477,13.3364258,13.3212891,40.7685547,13.3212891,74.4873047z M17.3212891,74.4873047
		c0-31.5131836,25.640625-57.1508789,57.1572266-57.1508789c31.5209961,0,57.1645508,25.6376953,57.1645508,57.1508789
		c0,31.5136719-25.6435547,57.1523438-57.1645508,57.1523438C42.9619141,131.6396484,17.3212891,106.0009766,17.3212891,74.4873047z
		"/>
	<path fill="#FFFFFF" d="M119.668457,61.6333008H87.0024414V28.9667969c0-2.2089844-1.7910156-4-4-4H66.668457
		c-2.2089844,0-4,1.7910156-4,4v32.6665039H30.0024414c-2.2089844,0-4,1.7910156-4,4v16.3334961c0,2.2089844,1.7910156,4,4,4
		H62.668457v32.6669922c0,2.2089844,1.7910156,4,4,4h16.3339844c2.2089844,0,4-1.7910156,4-4V85.9667969h32.6660156
		c2.2089844,0,4-1.7910156,4-4V65.6333008C123.668457,63.4243164,121.8774414,61.6333008,119.668457,61.6333008z"/>
	<path opacity="0.5" fill="#487A47" d="M91.4506836,33.4145508c0-2.2089844-1.7910156-4-4-4h-0.4482422v32.21875h4.4482422
		V33.4145508z"/>
	<path opacity="0.5" fill="#487A47" d="M30.4501953,86.4150391c0,2.2089844,1.7910156,4,4,4H62.668457v-4.4482422H30.4501953
		V86.4150391z"/>
	<path opacity="0.5" fill="#487A47" d="M124.1166992,66.0810547h-0.4482422v15.8857422c0,2.2089844-1.7910156,4-4,4H87.0024414
		v32.6669922c0,2.2089844-1.7910156,4-4,4H67.1162109v0.4472656c0,2.2089844,1.7910156,4,4,4h16.3344727
		c2.2089844,0,4-1.7910156,4-4V90.4150391h32.6660156c2.2089844,0,4-1.7910156,4-4V70.0810547
		C128.1166992,67.8720703,126.3256836,66.0810547,124.1166992,66.0810547z"/>
</g>
</svg>
