<?xml version="1.0" encoding="iso-8859-1"?>
<!-- Generator: Adobe Illustrator 12.0.1, SVG Export Plug-In . SVG Version: 6.00 Build 51448)  -->
<!DOCTYPE svg PUBLIC "-//W3C//DTD SVG 1.0//EN" "http://www.w3.org/TR/2001/REC-SVG-20010904/DTD/svg10.dtd" [
	<!ENTITY ns_svg "http://www.w3.org/2000/svg">
	<!ENTITY ns_xlink "http://www.w3.org/1999/xlink">
]>
<svg  version="1.0" id="Overlay__x28_Remove_x29_" xmlns="&ns_svg;" xmlns:xlink="&ns_xlink;"
	 width="148.9643555" height="148.9765625" viewBox="0 0 148.9643555 148.9765625"
	 overflow="visible" enable-background="new 0 0 148.9643555 148.9765625" xml:space="preserve">
<g>
	<radialGradient id="XMLID_2_" cx="36.015625" cy="22.5341797" r="123.9454422" gradientUnits="userSpaceOnUse">
		<stop  offset="0" style="stop-color:#CC464F"/>
		<stop  offset="1" style="stop-color:#AB262D"/>
	</radialGradient>
	<path fill="url(#XMLID_2_)" d="M144.9643555,74.4824219c0,38.9169922-31.5517578,70.4941406-70.4941406,70.4941406
		C35.5356445,144.9765625,4,113.3994141,4,74.4824219C4,35.5668945,35.5356445,4,74.4702148,4
		C113.4125977,4,144.9643555,35.5668945,144.9643555,74.4824219z"/>
	<path fill="#8A010B" d="M0,74.4824219c0,41.0761719,33.4072266,74.4941406,74.4702148,74.4941406
		c41.0761719,0,74.4941406-33.4179688,74.4941406-74.4941406C148.9643555,33.4125977,115.5463867,0,74.4702148,0
		C33.4072266,0,0,33.4125977,0,74.4824219z M8,74.4824219C8,37.8237305,37.8183594,8,74.4702148,8
		c36.6650391,0,66.4941406,29.8237305,66.4941406,66.4824219c0,36.6650391-29.8291016,66.4941406-66.4941406,66.4941406
		C37.8183594,140.9765625,8,111.1474609,8,74.4824219z"/>
	<path fill="#CC464F" d="M13.3212891,74.4873047c0,33.7197266,27.4350586,61.1523438,61.1572266,61.1523438
		c33.7260742,0,61.1645508-27.4326172,61.1645508-61.1523438c0-33.71875-27.4384766-61.1508789-61.1645508-61.1508789
		C40.7563477,13.3364258,13.3212891,40.7685547,13.3212891,74.4873047z M17.3212891,74.4873047
		c0-31.5131836,25.640625-57.1508789,57.1572266-57.1508789c31.5209961,0,57.1645508,25.6376953,57.1645508,57.1508789
		c0,31.5136719-25.6435547,57.1523438-57.1645508,57.1523438C42.9619141,131.6396484,17.3212891,106.0009766,17.3212891,74.4873047z
		"/>
	<path fill="#FFFFFF" d="M114.7915039,97.6015625L91.6928711,74.5029297l23.0986328-23.0986328
		c1.5625-1.5615234,1.5625-4.0947266,0.0009766-5.65625l-11.5498047-11.5498047c-1.5625-1.5625-4.0957031-1.5625-5.6572266,0
		L74.4868164,57.296875L51.3881836,34.1982422c-1.5620117-1.5615234-4.0947266-1.5615234-5.6567383,0L34.1821289,45.7480469
		c-1.5620117,1.5615234-1.5625,4.0947266-0.0004883,5.6572266l23.0986328,23.0976562L34.1811523,97.6025391
		c-1.5620117,1.5615234-1.5620117,4.0947266,0,5.65625l11.5498047,11.5498047c1.5620117,1.5625,4.0947266,1.5625,5.6567383,0
		l23.0991211-23.0986328l23.0986328,23.0986328c1.5615234,1.5615234,4.0947266,1.5615234,5.6572266,0l11.5488281-11.5498047
		C116.3540039,101.6972656,116.3540039,99.1640625,114.7915039,97.6015625z"/>
	<path opacity="0.5" fill="#8A010B" d="M117.8999023,48.8554688l-3.1074219-3.1074219
		c1.5615234,1.5615234,1.5615234,4.0947266-0.0009766,5.65625L91.6928711,74.5029297l3.1074219,3.1074219l23.0986328-23.0986328
		C119.4614258,52.9501953,119.4614258,50.4169922,117.8999023,48.8554688z"/>
	<path opacity="0.5" fill="#8A010B" d="M114.7915039,97.6015625c1.5625,1.5625,1.5625,4.0957031,0,5.6572266l-11.5488281,11.5498047
		c-1.5625,1.5615234-4.0957031,1.5615234-5.6572266,0l3.1074219,3.1074219c1.5615234,1.5615234,4.0947266,1.5615234,5.6572266,0
		l11.5488281-11.5498047c1.5625-1.5615234,1.5625-4.0947266,0-5.6572266L114.7915039,97.6015625z"/>
	<path opacity="0.5" fill="#8A010B" d="M51.3876953,114.8085938c-1.5620117,1.5625-4.0947266,1.5625-5.6567383,0
		l3.1074219,3.1074219c1.5620117,1.5625,4.0947266,1.5625,5.6567383,0l23.0991211-23.0986328l-3.1074219-3.1074219
		L51.3876953,114.8085938z"/>
</g>
</svg>
