<?xml version="1.0" encoding="iso-8859-1"?>
<!-- Generator: Adobe Illustrator 12.0.1, SVG Export Plug-In . SVG Version: 6.00 Build 51448)  -->
<!DOCTYPE svg PUBLIC "-//W3C//DTD SVG 1.0//EN" "http://www.w3.org/TR/2001/REC-SVG-20010904/DTD/svg10.dtd" [
	<!ENTITY ns_svg "http://www.w3.org/2000/svg">
	<!ENTITY ns_xlink "http://www.w3.org/1999/xlink">
]>
<svg  version="1.0" id="Overlay__x28_Secure_Reversed_x29_" xmlns="&ns_svg;" xmlns:xlink="&ns_xlink;"
	 width="148.9643555" height="148.9765625" viewBox="0 0 148.9643555 148.9765625"
	 overflow="visible" enable-background="new 0 0 148.9643555 148.9765625" xml:space="preserve">
<g>
	<radialGradient id="XMLID_2_" cx="36.015625" cy="22.5341797" r="123.9454422" gradientUnits="userSpaceOnUse">
		<stop  offset="0" style="stop-color:#FFFFFF"/>
		<stop  offset="1" style="stop-color:#CBCBCB"/>
	</radialGradient>
	<path fill="url(#XMLID_2_)" enable-background="new    " d="M144.9643555,74.4824219
		c0,38.9169922-31.5517578,70.4941406-70.4941406,70.4941406C35.5356445,144.9765625,4,113.3994141,4,74.4824219
		C4,35.5668945,35.5356445,4,74.4702148,4C113.4125977,4,144.9643555,35.5668945,144.9643555,74.4824219z"/>
	<path fill="#8B8B8B" d="M0,74.4824219c0,41.0761719,33.4072266,74.4941406,74.4702148,74.4941406
		c41.0761719,0,74.4941406-33.4179688,74.4941406-74.4941406C148.9643555,33.4125977,115.5463867,0,74.4702148,0
		C33.4072266,0,0,33.4125977,0,74.4824219z M8,74.4824219C8,37.8237305,37.8183594,8,74.4702148,8
		c36.6650391,0,66.4941406,29.8237305,66.4941406,66.4824219c0,36.6650391-29.8291016,66.4941406-66.4941406,66.4941406
		C37.8183594,140.9765625,8,111.1474609,8,74.4824219z"/>
	<path fill="#FFFFFF" d="M13.3212891,74.4873047c0,33.7197266,27.4350586,61.1523438,61.1572266,61.1523438
		c33.7260742,0,61.1645508-27.4326172,61.1645508-61.1523438c0-33.71875-27.4384766-61.1508789-61.1645508-61.1508789
		C40.7563477,13.3364258,13.3212891,40.7685547,13.3212891,74.4873047z M17.3212891,74.4873047
		c0-31.5131836,25.640625-57.1508789,57.1572266-57.1508789c31.5209961,0,57.1645508,25.6376953,57.1645508,57.1508789
		c0,31.5136719-25.6435547,57.1523438-57.1645508,57.1523438C42.9619141,131.6396484,17.3212891,106.0009766,17.3212891,74.4873047z
		"/>
	<path opacity="0.5" fill="#FFFFFF" d="M52.831543,92.1328125h52.3515625V80.4248047H52.831543V92.1328125z M52.831543,103.7832031
		c0,1.7539062,1.4277344,3.1816406,3.1816406,3.1816406h45.9873047c1.7548828,0,3.1826172-1.4277344,3.1826172-3.1816406v-7.7890625
		H52.831543V103.7832031z M102.0004883,65.3076172h-0.2548828v-1.0253906c0-9.4619141-7.6972656-17.1601562-17.1601562-17.1601562
		H73.4477539c-9.4619141,0-17.1601562,7.6982422-17.1601562,17.1601562v1.0253906h-0.2744141
		c-1.7539062,0-3.1816406,1.4267578-3.1816406,3.1816406v8.0742188h52.3515625v-8.0742188
		C105.1831055,66.734375,103.7553711,65.3076172,102.0004883,65.3076172z M89.699707,65.3076172H68.3344727v-2.1611328
		c0-2.8203125,2.2939453-5.1142578,5.1132812-5.1142578h11.1376953c2.8203125,0,5.1142578,2.2939453,5.1142578,5.1142578V65.3076172
		z"/>
	<path fill="#692C65" d="M48.3081055,87.6103516h52.3515625V75.9023438H48.3081055V87.6103516z M48.3081055,99.2607422
		c0,1.7539062,1.4277344,3.1816406,3.1816406,3.1816406h45.9873047c1.7548828,0,3.1826172-1.4277344,3.1826172-3.1816406v-7.7890625
		H48.3081055V99.2607422z M97.4770508,60.7851562H97.222168v-1.0253906c0-9.4619141-7.6972656-17.1601562-17.1601562-17.1601562
		H68.9243164c-9.4619141,0-17.1601562,7.6982422-17.1601562,17.1601562v1.0253906h-0.2744141
		c-1.7539062,0-3.1816406,1.4267578-3.1816406,3.1816406v8.0742188h52.3515625v-8.0742188
		C100.659668,62.2119141,99.2319336,60.7851562,97.4770508,60.7851562z M85.1762695,60.7851562H63.8110352v-2.1611328
		c0-2.8203125,2.2939453-5.1142578,5.1132812-5.1142578h11.1376953c2.8203125,0,5.1142578,2.2939453,5.1142578,5.1142578V60.7851562
		z"/>
</g>
</svg>
