<?xml version="1.0" encoding="iso-8859-1"?>
<!-- Generator: Adobe Illustrator 12.0.1, SVG Export Plug-In . SVG Version: 6.00 Build 51448)  -->
<!DOCTYPE svg PUBLIC "-//W3C//DTD SVG 1.0//EN" "http://www.w3.org/TR/2001/REC-SVG-20010904/DTD/svg10.dtd" [
	<!ENTITY ns_svg "http://www.w3.org/2000/svg">
	<!ENTITY ns_xlink "http://www.w3.org/1999/xlink">
]>
<svg  version="1.0" id="Overlay__x28_Edit_x29_" xmlns="&ns_svg;" xmlns:xlink="&ns_xlink;"
	 width="148.9643555" height="148.9765625" viewBox="0 0 148.9643555 148.9765625"
	 overflow="visible" enable-background="new 0 0 148.9643555 148.9765625" xml:space="preserve">
<g>
	<radialGradient id="XMLID_2_" cx="36.015625" cy="22.5341797" r="123.9454422" gradientUnits="userSpaceOnUse">
		<stop  offset="0" style="stop-color:#E1A655"/>
		<stop  offset="1" style="stop-color:#D48049"/>
	</radialGradient>
	<path fill="url(#XMLID_2_)" stroke="#E1A655" d="M144.9643555,74.4824219
		c0,38.9169922-31.5517578,70.4941406-70.4941406,70.4941406C35.5356445,144.9765625,4,113.3994141,4,74.4824219
		C4,35.5668945,35.5356445,4,74.4702148,4C113.4125977,4,144.9643555,35.5668945,144.9643555,74.4824219z"/>
	<path fill="#B35129" d="M0,74.4824219c0,41.0761719,33.4072266,74.4941406,74.4702148,74.4941406
		c41.0761719,0,74.4941406-33.4179688,74.4941406-74.4941406C148.9643555,33.4125977,115.5463867,0,74.4702148,0
		C33.4072266,0,0,33.4125977,0,74.4824219z M8,74.4824219C8,37.8237305,37.8183594,8,74.4702148,8
		c36.6650391,0,66.4941406,29.8237305,66.4941406,66.4824219c0,36.6650391-29.8291016,66.4941406-66.4941406,66.4941406
		C37.8183594,140.9765625,8,111.1474609,8,74.4824219z"/>
	<path fill="#E1A655" d="M13.3212891,74.4873047c0,33.7197266,27.4350586,61.1523438,61.1572266,61.1523438
		c33.7260742,0,61.1645508-27.4326172,61.1645508-61.1523438c0-33.71875-27.4384766-61.1508789-61.1645508-61.1508789
		C40.7563477,13.3364258,13.3212891,40.7685547,13.3212891,74.4873047z M17.3212891,74.4873047
		c0-31.5131836,25.640625-57.1508789,57.1572266-57.1508789c31.5209961,0,57.1645508,25.6376953,57.1645508,57.1508789
		c0,31.5136719-25.6435547,57.1523438-57.1645508,57.1523438C42.9619141,131.6396484,17.3212891,106.0009766,17.3212891,74.4873047z
		"/>
	<path opacity="0.5" fill="#B35129" d="M39.2504883,115.9296875c-0.078125,0.4238281-0.0410156,0.7753906,0.1728516,0.9902344
		c0.2138672,0.2167969,0.5673828,0.2539062,0.9941406,0.1777344c1.2060547-0.2128906,10.6416016-4.03125,15.2783203-5.7431641
		l-11.0336914-11.0341797C43.3149414,104.2519531,39.5053711,114.5566406,39.2504883,115.9296875z"/>
	<path opacity="0.5" fill="#B35129" d="M103.128418,51.640625l-5.6259766-5.6269531
		C83.6206055,59.9956055,56.7729492,87.0371094,47.0874023,96.7939453l5.4423828,5.4423828L103.128418,51.640625z"/>
	<path opacity="0.5" fill="#B35129" d="M118.8120117,44.4711914l-7.0800781-7.078125
		c-1.5644531-1.5615234-4.1054688-1.5615234-5.6689453-0.0019531c0,0-2.1289062,2.144043-5.5957031,5.6362305l12.7373047,12.737793
		l5.6123047-5.6220703c0.7597656-0.7587891,1.1767578-1.7685547,1.1738281-2.8417969
		C119.9897461,46.2299805,119.5717773,45.2260742,118.8120117,44.4711914z"/>
	<polygon opacity="0.5" fill="#B35129" points="54.0317383,103.7382812 59.6782227,109.3847656 110.230957,58.7436523 
		104.6303711,53.1425781 	"/>
	<path fill="#FFFFFF" d="M36.1049805,112.7841797c-0.078125,0.4238281-0.0410156,0.7753906,0.1728516,0.9902344
		c0.2138672,0.2167969,0.5673828,0.2539062,0.9941406,0.1777344c1.2060547-0.2128906,10.6416016-4.03125,15.2783203-5.7431641
		L41.5166016,97.1748047C40.1694336,101.1064453,36.3598633,111.4111328,36.1049805,112.7841797z"/>
	<path fill="#FFFFFF" d="M99.9829102,48.4951172l-5.6259766-5.6269531
		C80.4750977,56.8500977,53.6274414,83.8916016,43.9418945,93.6484375l5.4423828,5.4423828L99.9829102,48.4951172z"/>
	<path fill="#FFFFFF" d="M115.6665039,41.3256836l-7.0800781-7.078125
		c-1.5644531-1.5615234-4.1054688-1.5615234-5.6689453-0.0019531c0,0-2.1289062,2.144043-5.5957031,5.6362305l12.7373047,12.737793
		l5.6123047-5.6220703c0.7597656-0.7587891,1.1767578-1.7685547,1.1738281-2.8417969
		C116.8442383,43.0844727,116.4262695,42.0805664,115.6665039,41.3256836z"/>
	<polygon fill="#FFFFFF" points="50.8862305,100.5927734 56.5327148,106.2392578 107.0854492,55.5981445 101.4848633,49.9970703 	
		"/>
</g>
</svg>
