<?xml version="1.0" encoding="iso-8859-1"?>
<!-- Generator: Adobe Illustrator 12.0.1, SVG Export Plug-In . SVG Version: 6.00 Build 51448)  -->
<!DOCTYPE svg PUBLIC "-//W3C//DTD SVG 1.0//EN" "http://www.w3.org/TR/2001/REC-SVG-20010904/DTD/svg10.dtd" [
	<!ENTITY ns_svg "http://www.w3.org/2000/svg">
	<!ENTITY ns_xlink "http://www.w3.org/1999/xlink">
]>
<svg  version="1.0" id="Overlay__x28_Share_Reversed_x29_" xmlns="&ns_svg;" xmlns:xlink="&ns_xlink;"
	 width="148.9643555" height="148.9765625" viewBox="0 0 148.9643555 148.9765625"
	 overflow="visible" enable-background="new 0 0 148.9643555 148.9765625" xml:space="preserve">
<g>
	<radialGradient id="XMLID_2_" cx="36.015625" cy="22.5341797" r="123.9454422" gradientUnits="userSpaceOnUse">
		<stop  offset="0" style="stop-color:#FFFFFF"/>
		<stop  offset="1" style="stop-color:#CBCBCB"/>
	</radialGradient>
	<path fill="url(#XMLID_2_)" enable-background="new    " d="M144.9643555,74.4824219
		c0,38.9169922-31.5517578,70.4941406-70.4941406,70.4941406C35.5356445,144.9765625,4,113.3994141,4,74.4824219
		C4,35.5668945,35.5356445,4,74.4702148,4C113.4125977,4,144.9643555,35.5668945,144.9643555,74.4824219z"/>
	<path fill="#8B8B8B" d="M0,74.4824219c0,41.0761719,33.4072266,74.4941406,74.4702148,74.4941406
		c41.0761719,0,74.4941406-33.4179688,74.4941406-74.4941406C148.9643555,33.4125977,115.5463867,0,74.4702148,0
		C33.4072266,0,0,33.4125977,0,74.4824219z M8,74.4824219C8,37.8237305,37.8183594,8,74.4702148,8
		c36.6650391,0,66.4941406,29.8237305,66.4941406,66.4824219c0,36.6650391-29.8291016,66.4941406-66.4941406,66.4941406
		C37.8183594,140.9765625,8,111.1474609,8,74.4824219z"/>
	<path fill="#FFFFFF" d="M13.3212891,74.4873047c0,33.7197266,27.4350586,61.1523438,61.1572266,61.1523438
		c33.7260742,0,61.1645508-27.4326172,61.1645508-61.1523438c0-33.71875-27.4384766-61.1508789-61.1645508-61.1508789
		C40.7563477,13.3364258,13.3212891,40.7685547,13.3212891,74.4873047z M17.3212891,74.4873047
		c0-31.5131836,25.640625-57.1508789,57.1572266-57.1508789c31.5209961,0,57.1645508,25.6376953,57.1645508,57.1508789
		c0,31.5136719-25.6435547,57.1523438-57.1645508,57.1523438C42.9619141,131.6396484,17.3212891,106.0009766,17.3212891,74.4873047z
		"/>
	<path opacity="0.5" fill="#FFFFFF" d="M57.0878906,44.5869141c-5.8305664,6.0039062-8.9052734,13.9492188-8.6586914,22.371582
		c0.0336914,1.2241211,0.1601562,2.0834961,0.2119141,2.6977539c0.6484375-1.5810547,2.4916992-4.3061523,3.1704102-5.1875
		c4.934082-6.4052734,13.3959961-10.7006836,20.8305664-10.7006836c10.5136719,0,15.1601562,7.1000977,17.9433594,11.6225586
		c-1.4677734,1.0727539-9.3173828,6.8037109-9.3173828,6.8037109l36.90625,10.828125l-0.3115234-37.1328125
		c0,0-6.8652344,4.8920898-8.5136719,6.0664062c-4.5917969-7.887207-13.4863281-16.6791992-30.3544922-16.6791992
		C70.8188477,35.2768555,62.8339844,38.6699219,57.0878906,44.5869141z"/>
	<g opacity="0.5">
		<path fill="#FFFFFF" d="M97.5288086,109.9365234c5.8300781-6.0029297,8.9042969-13.9492188,8.6582031-22.3710938
			c-0.0332031-1.2236328-0.1582031-2.0839844-0.2109375-2.6982422c-0.6494141,1.5810547-2.4921875,4.3066406-3.1708984,5.1884766
			c-4.9345703,6.40625-13.3955078,10.7001953-20.8310547,10.7001953c-10.5136719,0-15.159668-7.1005859-17.9428711-11.6230469
			c1.4682617-1.0712891,9.3178711-6.8027344,9.3178711-6.8027344l-36.9072266-10.828125l0.3105469,37.1318359
			c0,0,6.8662109-4.890625,8.5146484-6.0654297c4.5917969,7.8867188,13.4863281,16.6787109,30.3554688,16.6787109
			C83.7983398,119.2470703,91.7827148,115.8535156,97.5288086,109.9365234z"/>
	</g>
	<path fill="#5F83B3" d="M54.2539062,41.7529297c-5.8305664,6.0039062-8.9052734,13.9492188-8.6586914,22.371582
		c0.0336914,1.2241211,0.1601562,2.0834961,0.2119141,2.6977539c0.6484375-1.5810547,2.4916992-4.3061523,3.1704102-5.1875
		c4.934082-6.4052734,13.3959961-10.7006836,20.8310547-10.7006836c10.5131836,0,15.159668,7.1000977,17.9428711,11.6225586
		c-1.4677734,1.0727539-9.3173828,6.8037109-9.3173828,6.8037109l36.90625,10.828125l-0.3115234-37.1328125
		c0,0-6.8652344,4.8920898-8.5136719,6.0664062c-4.5917969-7.887207-13.4863281-16.6791992-30.3544922-16.6791992
		C67.9848633,32.4428711,60,35.8359375,54.2539062,41.7529297z"/>
	<g>
		<path fill="#5F83B3" d="M94.6948242,107.1025391c5.8300781-6.0029297,8.9042969-13.9492188,8.6582031-22.3710938
			c-0.0332031-1.2236328-0.1582031-2.0839844-0.2109375-2.6982422c-0.6494141,1.5810547-2.4921875,4.3066406-3.1708984,5.1884766
			c-4.9345703,6.40625-13.3955078,10.7001953-20.8310547,10.7001953c-10.5131836,0-15.159668-7.1005859-17.9428711-11.6230469
			c1.4682617-1.0712891,9.3178711-6.8027344,9.3178711-6.8027344l-36.9072266-10.828125l0.3105469,37.1318359
			c0,0,6.8662109-4.890625,8.5146484-6.0654297c4.5917969,7.8867188,13.4863281,16.6787109,30.3549805,16.6787109
			C80.9643555,116.4130859,88.9487305,113.0195312,94.6948242,107.1025391z"/>
	</g>
</g>
</svg>
