<?xml version="1.0" encoding="iso-8859-1"?>
<!-- Generator: Adobe Illustrator 12.0.1, SVG Export Plug-In . SVG Version: 6.00 Build 51448)  -->
<!DOCTYPE svg PUBLIC "-//W3C//DTD SVG 1.0//EN" "http://www.w3.org/TR/2001/REC-SVG-20010904/DTD/svg10.dtd" [
	<!ENTITY ns_svg "http://www.w3.org/2000/svg">
	<!ENTITY ns_xlink "http://www.w3.org/1999/xlink">
]>
<svg  version="1.0" id="Paste" xmlns="&ns_svg;" xmlns:xlink="&ns_xlink;" width="257.6767578" height="295.347168"
	 viewBox="0 0 257.6767578 295.347168" overflow="visible" enable-background="new 0 0 257.6767578 295.347168"
	 xml:space="preserve">
<g>
	<radialGradient id="XMLID_4_" cx="21.2216797" cy="60.1352539" r="333.7154541" gradientUnits="userSpaceOnUse">
		<stop  offset="0" style="stop-color:#B07F6B"/>
		<stop  offset="1" style="stop-color:#926958"/>
	</radialGradient>
	<path fill="url(#XMLID_4_)" enable-background="new    " d="M237.7949219,278.347168c0,7.1796875-5.8203125,13-13,13H17
		c-7.1796875,0-13-5.8203125-13-13V51.9414062c0-7.1796875,5.8203125-13,13-13h207.7949219c7.1796875,0,13,5.8203125,13,13
		V278.347168z"/>
	<path fill="#755346" d="M17,34.9414062c-9.3740234,0-17,7.6259766-17,17V278.347168c0,9.3740234,7.6259766,17,17,17h207.7949219
		c9.3740234,0,17-7.6259766,17-17V51.9414062c0-9.3740234-7.6259766-17-17-17H17z M8,278.347168V51.9414062
		c0-4.9624023,4.0375977-9,9-9h207.7949219c4.9628906,0,9,4.0375977,9,9V278.347168c0,4.9628906-4.0371094,9-9,9H17
		C12.0375977,287.347168,8,283.3100586,8,278.347168z"/>
	<rect x="17.4135742" y="51.4931641" fill="#926958" width="206.9672852" height="226.2241211"/>
	<rect x="53.9423828" y="45.2260742" opacity="0.5" fill="#755346" width="27.6420898" height="25.6704102"/>
	<polygon fill="#FFFFFF" enable-background="new    " points="253.6767578,273.6147461 75.5576172,273.6147461 
		75.5576172,49.2739258 253.6542969,49.2104492 	"/>
	<path fill="#8A8A8A" d="M71.5576172,45.2753906v232.3393555h186.1191406l-0.0224609-232.4057617L71.5576172,45.2753906z
		 M249.6542969,53.2119141c0.0009766,7.5791016,0.0214844,208.824707,0.0224609,216.402832
		c-7.4697266,0-162.6499023,0-170.1191406,0c0-7.5771484,0-208.7675781,0-216.3422852
		C87.0239258,53.2700195,242.1835938,53.2143555,249.6542969,53.2119141z"/>
	<linearGradient id="XMLID_5_" gradientUnits="userSpaceOnUse" x1="83.6166992" y1="80.5356445" x2="347.8591309" y2="344.7780762">
		<stop  offset="0" style="stop-color:#FFFFFF"/>
		<stop  offset="1" style="stop-color:#DBDBDB"/>
	</linearGradient>
	<polygon fill="url(#XMLID_5_)" points="241.8359375,261.9936523 87.5869141,261.9936523 87.5869141,61.3266602 
		241.8955078,61.3266602 	"/>
	<g>
		<rect x="95.5986328" y="242.9780273" fill="#B0B0B0" width="138.2148438" height="4"/>
	</g>
	<g>
		<rect x="95.5986328" y="218.9780273" fill="#B0B0B0" width="138.2148438" height="4"/>
	</g>
	<g>
		<rect x="95.5986328" y="195.0327148" fill="#B0B0B0" width="138.2148438" height="4"/>
	</g>
	<g>
		<rect x="95.5986328" y="171.0405273" fill="#B0B0B0" width="138.2148438" height="4"/>
	</g>
	<g>
		<rect x="95.5986328" y="147.0947266" fill="#B0B0B0" width="138.2148438" height="4.0004883"/>
	</g>
	<g>
		<rect x="95.5986328" y="123.0874023" fill="#B0B0B0" width="138.2148438" height="4"/>
	</g>
	<g>
		<rect x="95.5986328" y="99.1411133" fill="#B0B0B0" width="138.2148438" height="4"/>
	</g>
	<g>
		<rect x="95.5986328" y="75.1899414" fill="#B0B0B0" width="138.2148438" height="4"/>
	</g>
	<rect x="76.625" y="45.2260742" opacity="0.3" fill="#8A8A8A" width="124.9160156" height="25.6704102"/>
	<path fill="#FFFFFF" d="M178.5566406,21.7573242h-30.9375C145.4609375,14.6328125,135.9199219,4,119.5922852,4
		S94.0356445,14.5463867,91.8574219,21.7573242H61.1943359c-5.1542969,0-11.4038086,6.2124023-11.4038086,11.3764648v25.690918
		h140.1333008V33.7177734C189.9238281,28.5634766,183.71875,21.7573242,178.5566406,21.7573242z M119.9394531,36.2954102
		c-6.0224609,0-10.9047852-3.5649414-10.9047852-7.9628906c0-4.3969727,4.8823242-7.9619141,10.9047852-7.9619141
		s10.9042969,3.5649414,10.9042969,7.9619141C130.84375,32.7304688,125.9619141,36.2954102,119.9394531,36.2954102z"/>
	<path fill="#AFAFAF" d="M89.1513672,17.7573242c-4.4985352,0-27.9570312,0-27.9570312,0
		c-7.3417969,0-15.4038086,8.0473633-15.4038086,15.3764648v29.690918h148.1333008V33.7177734
		c0-7.4580078-8.1865234-15.9604492-15.3671875-15.9604492c0,0-23.7363281,0-28.2363281,0
		C146.5185547,9.7700195,136.3339844,0,119.5922852,0C103.0317383,0,92.9326172,9.769043,89.1513672,17.7573242z
		 M53.7905273,33.1337891c0-2.9643555,4.4282227-7.3764648,7.4038086-7.3764648h33.6333008l0.8588867-2.8432617
		C97.4975586,16.9189453,105.3583984,8,119.5922852,8c14.3374023,0,22.4516602,9.1499023,24.1987305,14.9169922l0.8603516,2.840332
		h33.9052734c2.8232422,0,7.3671875,4.9101562,7.3671875,7.9604492c0,0,0,15.453125,0,21.1069336
		c-7.328125,0-124.8051758,0-132.1333008,0C53.7905273,49.1220703,53.7905273,33.1337891,53.7905273,33.1337891z"/>
	<path fill="#AFAFAF" d="M106.9521484,28.3325195c0,5.4936523,5.7890625,9.9628906,12.9047852,9.9628906
		s12.9047852-4.4692383,12.9047852-9.9628906c0-5.4931641-5.7890625-9.9619141-12.9047852-9.9619141
		S106.9521484,22.8393555,106.9521484,28.3325195z M110.9521484,28.3325195c0-3.2314453,4.0776367-5.9619141,8.9047852-5.9619141
		c4.8266602,0,8.9047852,2.7304688,8.9047852,5.9619141c0,3.2324219-4.078125,5.9628906-8.9047852,5.9628906
		C115.0297852,34.2954102,110.9521484,31.5649414,110.9521484,28.3325195z"/>
	<linearGradient id="XMLID_6_" gradientUnits="userSpaceOnUse" x1="48.3125" y1="9.921875" x2="238.9050903" y2="93.803688">
		<stop  offset="0" style="stop-color:#EDEDED"/>
		<stop  offset="0.5027443" style="stop-color:#EBEBEB"/>
		<stop  offset="0.7879561" style="stop-color:#E2E2E2"/>
		<stop  offset="1" style="stop-color:#D6D6D6"/>
	</linearGradient>
	<path fill="url(#XMLID_6_)" d="M173.5683594,33.2446289h-30.1425781
		c-3.1162109,7.9042969-12.4892578,13.6450195-23.5688477,13.6450195c-11.0791016,0-20.4526367-5.7407227-23.5688477-13.6450195
		H66.1455078c-2.7612305,0-5,2.2387695-5,5v9.5927734h117.4228516v-9.5927734
		C178.5683594,35.4833984,176.3300781,33.2446289,173.5683594,33.2446289z"/>
</g>
</svg>
