<?xml version="1.0" encoding="iso-8859-1"?>
<!-- Generator: Adobe Illustrator 12.0.1, SVG Export Plug-In . SVG Version: 6.00 Build 51448)  -->
<!DOCTYPE svg PUBLIC "-//W3C//DTD SVG 1.0//EN" "http://www.w3.org/TR/2001/REC-SVG-20010904/DTD/svg10.dtd" [
	<!ENTITY ns_svg "http://www.w3.org/2000/svg">
	<!ENTITY ns_xlink "http://www.w3.org/1999/xlink">
]>
<svg  version="1.0" id="Photo" xmlns="&ns_svg;" xmlns:xlink="&ns_xlink;" width="269.7250977" height="240.1333008"
	 viewBox="0 0 269.7250977 240.1333008" overflow="visible" enable-background="new 0 0 269.7250977 240.1333008"
	 xml:space="preserve">
<g>
	<path fill="#FFFFFF" enable-background="new    " d="M265.7250977,228.0102539c0,4.4824219-3.65625,8.1230469-8.1640625,8.1230469
		H12.1552734C7.6484375,236.1333008,4,232.4926758,4,228.0102539V12.1225586C4,7.6401367,7.6484375,4,12.1552734,4h245.4057617
		c4.5078125,0,8.1640625,3.6401367,8.1640625,8.1225586V228.0102539z"/>
	<path fill="#8C8C8C" d="M12.1552734,0C5.4526367,0,0,5.4379883,0,12.1225586v215.8876953
		c0,6.6845703,5.4526367,12.1230469,12.1552734,12.1230469h245.4057617c6.7070312,0,12.1640625-5.4384766,12.1640625-12.1230469
		V12.1225586C269.7250977,5.4379883,264.2680664,0,257.5610352,0H12.1552734z M8,228.0102539V12.1225586
		C8,9.8491211,9.8642578,8,12.1552734,8h245.4057617c2.2958984,0,4.1640625,1.8491211,4.1640625,4.1225586v215.8876953
		c0,2.2734375-1.8681641,4.1230469-4.1640625,4.1230469H12.1552734C9.8642578,232.1333008,8,230.2836914,8,228.0102539z"/>
	<radialGradient id="XMLID_5_" cx="61.8764648" cy="65.2832031" r="156.450592" gradientUnits="userSpaceOnUse">
		<stop  offset="0" style="stop-color:#C8DFF1"/>
		<stop  offset="1" style="stop-color:#9BC3D5"/>
	</radialGradient>
	
		<rect x="38.6000977" y="39.1977539" fill="url(#XMLID_5_)" enable-background="new    " width="192.4453125" height="161.9101562"/>
	
		<radialGradient id="XMLID_6_" cx="73.8666992" cy="110.0668945" r="86.2997742" gradientTransform="matrix(1 0 0 1.0350001 0 -3.5172424)" gradientUnits="userSpaceOnUse">
		<stop  offset="0" style="stop-color:#99C596"/>
		<stop  offset="1" style="stop-color:#6EA66B"/>
	</radialGradient>
	<path fill="url(#XMLID_6_)" d="M219.0668945,198.9213867v-5.9355469
		c-41.3886719-51.4902344-110.6303711-102.734375-134.6586914-102.734375
		c-14.2885742,0-30.4052734,14.0405273-42.3330078,27.5195312v81.1503906H219.0668945z"/>
	<path fill="#FFFFFF" d="M209.4418945,74.328125c0.0820312-0.503418,0.140625-0.9902344,0.140625-1.5102539
		c0-5.0932617-4.0039062-9.1958008-8.9238281-9.1958008h-6.1816406c0.0566406-0.4125977,0.0898438-0.8417969,0.0898438-1.2543945
		c0-5.0932617-4.0019531-11.0610352-8.9394531-11.0610352h-15.0136719c-3.9296875,0-7.2558594,6.0258789-8.453125,9.6743164
		h-15.8808594c-4.9863281,0-9.0566406,4.7709961-9.6582031,9.715332h-8.1889648
		c-5.612793,0-10.1523438,3.7143555-10.1523438,9.4677734c0,5.7866211,4.5395508,8.9726562,10.1523438,8.9726562h18.894043
		c1.7089844,2.0551758,4.2441406,5.8193359,7.0585938,5.8193359h30.0292969c2.7578125,0,5.25-3.7143555,6.9589844-5.6953125
		c0.9824219,0.4458008,2.0625,0.7177734,3.1933594,0.7177734h12.9765625c4.2675781,0,7.7011719-3.565918,7.7011719-7.9404297
		C215.2446289,78.3071289,212.777832,75.203125,209.4418945,74.328125z"/>
	
		<radialGradient id="XMLID_7_" cx="150.7670898" cy="148.0053711" r="83.2076874" gradientTransform="matrix(1.1028 0 0 0.9721 -7.3093395 -0.1530457)" gradientUnits="userSpaceOnUse">
		<stop  offset="0" style="stop-color:#99C596"/>
		<stop  offset="1" style="stop-color:#6EA66B"/>
	</radialGradient>
	<path fill="url(#XMLID_7_)" d="M228.0395508,200.0600586v-73.7949219h-3.9042969
		c-39.984375,0-82.5527344,45.4824219-110.5522461,73.7949219H228.0395508z"/>
	<linearGradient id="XMLID_8_" gradientUnits="userSpaceOnUse" x1="193.8286133" y1="88.621582" x2="160.8731842" y2="61.7357407">
		<stop  offset="0" style="stop-color:#FFFFFF"/>
		<stop  offset="1" style="stop-color:#CFCFCF"/>
	</linearGradient>
	<path fill="url(#XMLID_8_)" d="M212.8598633,82.0131836h-1.7910156c0.1152344-0.4541016,0.1484375-0.940918,0.1484375-1.4360352
		V79.140625c0-3.565918-2.8730469-6.4633789-6.4472656-6.4633789h-19.0507812c-3.5742188,0-6.4726562,2.8974609-6.4726562,6.4633789
		v1.4365234c0,1.3369141,0.4042969,2.5834961,1.1074219,3.5986328h-6.1328125c-3.5664062,0-6.4550781,2.8891602-6.4550781,6.4633789
		v0.7182617c0,3.565918,2.8886719,5.8935547,6.4550781,5.8935547h21.9316406c2.6582031,0,4.96875-1.0566406,5.9511719-3.3676758
		h10.7558594c3.2597656,0,5.9179688-2.6831055,5.9179688-5.9267578
		C218.777832,84.6791992,216.1196289,82.0131836,212.8598633,82.0131836z"/>
	<path fill="#8CB0D0" d="M34.6000977,35.1977539v169.9101562h200.4453125V35.1977539H34.6000977z M227.0454102,43.1977539
		c0,7.4169922,0,146.4931641,0,153.9101562c-7.5078125,0-176.9370117,0-184.4453125,0c0-7.4169922,0-146.4931641,0-153.9101562
		C50.1083984,43.1977539,219.5375977,43.1977539,227.0454102,43.1977539z"/>
</g>
</svg>
