<?xml version="1.0" encoding="iso-8859-1"?>
<!-- Generator: Adobe Illustrator 12.0.1, SVG Export Plug-In . SVG Version: 6.00 Build 51448)  -->
<!DOCTYPE svg PUBLIC "-//W3C//DTD SVG 1.0//EN" "http://www.w3.org/TR/2001/REC-SVG-20010904/DTD/svg10.dtd" [
	<!ENTITY ns_svg "http://www.w3.org/2000/svg">
	<!ENTITY ns_xlink "http://www.w3.org/1999/xlink">
]>
<svg  version="1.0" id="Photos__x28_x2_x29_" xmlns="&ns_svg;" xmlns:xlink="&ns_xlink;" width="284.9970703" height="260.0429688"
	 viewBox="0 0 284.9970703 260.0429688" overflow="visible" enable-background="new 0 0 284.9970703 260.0429688"
	 xml:space="preserve">
<g>
	<path fill="#FFFFFF" enable-background="new    " d="M217.8271484,4H10.8769531C7.0766602,4,4,7.0698242,4,10.8496094V192.90625
		c0,3.78125,3.0766602,6.8515625,6.8769531,6.8515625H56.284668V67.1347656c0-5.9824219,4.8793945-10.8496094,10.8769531-10.8496094
		h157.550293V10.8496094C224.7119141,7.0698242,221.6279297,4,217.8271484,4z"/>
	<radialGradient id="XMLID_7_" cx="52.8066406" cy="55.6796875" r="131.9347839" gradientUnits="userSpaceOnUse">
		<stop  offset="0" style="stop-color:#C8DFF1"/>
		<stop  offset="1" style="stop-color:#9BC3D5"/>
	</radialGradient>
	<path fill="url(#XMLID_7_)" enable-background="new    " d="M33.1782227,33.6816406v136.5390625H56.284668V67.1347656
		c0-5.9824219,4.8793945-10.8496094,10.8769531-10.8496094h128.3051758V33.6816406H33.1782227z"/>
	<radialGradient id="XMLID_8_" cx="39.7324219" cy="98.0419922" r="37.0025482" gradientUnits="userSpaceOnUse">
		<stop  offset="0" style="stop-color:#99C596"/>
		<stop  offset="1" style="stop-color:#6EA66B"/>
	</radialGradient>
	<path fill="url(#XMLID_8_)" d="M36.1083984,99.9423828V168.375H56.284668V82.0322266
		C49.0292969,86.5405273,41.9692383,93.3198242,36.1083984,99.9423828z"/>
	<path fill="#FFFFFF" d="M169.8417969,54.2788086h-5.2128906c0.0478516-0.3476562,0.0751953-0.7094727,0.0751953-1.0576172
		c0-4.2949219-3.3740234-9.328125-7.5380859-9.328125h-12.6611328c-3.3139648,0-6.1191406,5.0820312-7.128418,8.1586914h-13.3925781
		c-2.8085938,0-5.2675781,1.7988281-6.7451172,4.2333984h57.6430664
		C173.5458984,55.0415039,171.78125,54.2788086,169.8417969,54.2788086z"/>
	<path fill="#8CB0D0" d="M29.1782227,29.6816406v144.5390625H56.284668v-8H37.1782227V37.6816406h154.2885742v18.6035156h8
		V29.6816406H29.1782227z"/>
	<path opacity="0.3" fill="#204171" d="M58.2768555,48.2246094c-5.5229492,0-10,4.4770508-10,10v141.5332031h8.0078125V67.1347656
		c0-5.9824219,4.8793945-10.8496094,10.8769531-10.8496094h157.550293v-8.0605469H58.2768555z"/>
	<path fill="#8C8C8C" d="M217.8271484,0H10.8769531C4.8793945,0,0,4.8671875,0,10.8496094V192.90625
		c0,5.9833984,4.8793945,10.8515625,10.8769531,10.8515625H56.284668v-8H10.8769531
		C9.2905273,195.7578125,8,194.4785156,8,192.90625V10.8496094C8,9.2783203,9.2905273,8,10.8769531,8h206.9501953
		c1.5908203,0,2.8847656,1.2783203,2.8847656,2.8496094v45.4355469h8V10.8496094C228.7119141,4.8671875,223.8291016,0,217.8271484,0
		z"/>
	<path fill="#FFFFFF" enable-background="new    " d="M280.9970703,249.1914062c0,3.78125-3.0839844,6.8515625-6.8847656,6.8515625
		H67.1616211c-3.800293,0-6.8769531-3.0703125-6.8769531-6.8515625V67.1347656c0-3.7797852,3.0766602-6.8496094,6.8769531-6.8496094
		h206.9506836c3.8007812,0,6.8847656,3.0698242,6.8847656,6.8496094V249.1914062z"/>
	<path fill="#8C8C8C" d="M67.1616211,56.2851562c-5.9975586,0-10.8769531,4.8671875-10.8769531,10.8496094v182.0566406
		c0,5.9833984,4.8793945,10.8515625,10.8769531,10.8515625h206.9506836c6.0019531,0,10.8847656-4.8681641,10.8847656-10.8515625
		V67.1347656c0-5.9824219-4.8828125-10.8496094-10.8847656-10.8496094H67.1616211z M64.284668,249.1914062V67.1347656
		c0-1.5712891,1.2905273-2.8496094,2.8769531-2.8496094h206.9506836c1.5898438,0,2.8847656,1.2783203,2.8847656,2.8496094
		v182.0566406c0,1.5722656-1.2949219,2.8515625-2.8847656,2.8515625H67.1616211
		C65.5751953,252.0429688,64.284668,250.7636719,64.284668,249.1914062z"/>
	<radialGradient id="XMLID_9_" cx="109.0908203" cy="111.9648438" r="131.9347839" gradientUnits="userSpaceOnUse">
		<stop  offset="0" style="stop-color:#C8DFF1"/>
		<stop  offset="1" style="stop-color:#9BC3D5"/>
	</radialGradient>
	
		<rect x="89.4628906" y="89.9667969" fill="url(#XMLID_9_)" enable-background="new    " width="162.2880859" height="136.5390625"/>
	
		<radialGradient id="XMLID_10_" cx="119.203125" cy="148.6601562" r="72.775795" gradientTransform="matrix(1 0 0 1.0350001 0 -3.850647)" gradientUnits="userSpaceOnUse">
		<stop  offset="0" style="stop-color:#99C596"/>
		<stop  offset="1" style="stop-color:#6EA66B"/>
	</radialGradient>
	<path fill="url(#XMLID_10_)" d="M241.6494141,224.6601562V219.65625
		c-34.9023438-43.4228516-93.2929688-86.6357422-113.5571289-86.6357422c-12.0493164,0-25.6401367,11.8398438-35.6992188,23.2070312
		v68.4326172H241.6494141z"/>
	
		<radialGradient id="XMLID_11_" cx="180.5810547" cy="183.1083984" r="70.1678085" gradientTransform="matrix(1.1028 0 0 0.9721 -8.1858006 0.1127014)" gradientUnits="userSpaceOnUse">
		<stop  offset="0" style="stop-color:#99C596"/>
		<stop  offset="1" style="stop-color:#6EA66B"/>
	</radialGradient>
	<path fill="url(#XMLID_11_)" d="M249.2158203,225.6210938V163.390625h-3.2910156
		c-33.71875,0-69.6171875,38.3544922-93.2285156,62.2304688H249.2158203z"/>
	<path fill="#FFFFFF" d="M198.3876953,133.953125v-0.6054688c0-3.0146484,2.4375-5.4501953,5.4433594-5.4501953h5.171875
		c-0.5917969-0.8564453-0.9335938-1.9082031-0.9335938-3.0351562v-1.2114258c0-3.0068359,2.4453125-5.4506836,5.4589844-5.4506836
		h16.0644531c3.015625,0,5.4375,2.4438477,5.4375,5.4506836v1.2114258c0,0.4179688-0.0273438,0.828125-0.125,1.2109375h1.5097656
		c0.7089844,0,1.3808594,0.1538086,1.9921875,0.4228516c0.0078125-0.1333008,0.0195312-0.265625,0.0195312-0.4013672
		c0-3.1464844-2.0800781-5.7646484-4.8925781-6.5024414c0.0683594-0.4243164,0.1171875-0.8349609,0.1171875-1.2734375
		c0-4.2949219-3.3769531-7.7548828-7.5253906-7.7548828h-5.2128906c0.0488281-0.3476562,0.0761719-0.7094727,0.0761719-1.0576172
		c0-4.2949219-3.375-9.328125-7.5390625-9.328125h-12.6601562c-3.3144531,0-6.1191406,5.0820312-7.1289062,8.1586914h-13.3925781
		c-4.2050781,0-7.6367188,4.0234375-8.1445312,8.1928711h-6.90625c-4.7324219,0-8.5605469,3.1323242-8.5605469,7.9848633
		c0,4.8789062,3.828125,7.5664062,8.5605469,7.5664062h15.9335938c1.4414062,1.7324219,3.5800781,4.90625,5.953125,4.90625
		h12.3300781C198.7792969,136.1787109,198.3876953,135.1503906,198.3876953,133.953125z"/>
	<path fill="#8CB0D0" d="M85.4628906,85.9667969v144.5390625h170.2880859V85.9667969H85.4628906z M247.7509766,93.9667969
		c0,7.3105469,0,121.2285156,0,128.5390625c-7.4179688,0-146.8701172,0-154.2880859,0c0-7.3105469,0-121.2285156,0-128.5390625
		C100.8808594,93.9667969,240.3330078,93.9667969,247.7509766,93.9667969z"/>
	
		<linearGradient id="XMLID_12_" gradientUnits="userSpaceOnUse" x1="220.3662109" y1="131.6464844" x2="192.5754547" y2="108.9740982">
		<stop  offset="0" style="stop-color:#FFFFFF"/>
		<stop  offset="1" style="stop-color:#CFCFCF"/>
	</linearGradient>
	<path fill="url(#XMLID_12_)" d="M236.4150391,126.0732422h-1.5097656c0.0976562-0.3828125,0.125-0.7929688,0.125-1.2109375
		v-1.2114258c0-3.0068359-2.421875-5.4506836-5.4375-5.4506836h-16.0644531c-3.0136719,0-5.4589844,2.4438477-5.4589844,5.4506836
		v1.2114258c0,1.1269531,0.3417969,2.1787109,0.9335938,3.0351562h-5.171875c-3.0058594,0-5.4433594,2.4355469-5.4433594,5.4501953
		v0.6054688c0,3.0068359,2.4375,4.9697266,5.4433594,4.9697266h18.4960938c2.2402344,0,4.1894531-0.890625,5.0175781-2.8398438
		h9.0703125c2.75,0,4.9902344-2.2617188,4.9902344-4.9980469
		C241.4052734,128.3212891,239.1650391,126.0732422,236.4150391,126.0732422z"/>
</g>
</svg>
