<?xml version="1.0" encoding="iso-8859-1"?>
<!-- Generator: Adobe Illustrator 12.0.1, SVG Export Plug-In . SVG Version: 6.00 Build 51448)  -->
<!DOCTYPE svg PUBLIC "-//W3C//DTD SVG 1.0//EN" "http://www.w3.org/TR/2001/REC-SVG-20010904/DTD/svg10.dtd" [
	<!ENTITY ns_svg "http://www.w3.org/2000/svg">
	<!ENTITY ns_xlink "http://www.w3.org/1999/xlink">
]>
<svg  version="1.0" id="Podcast" xmlns="&ns_svg;" xmlns:xlink="&ns_xlink;" width="250.7597656" height="294.4375"
	 viewBox="0 0 250.7597656 294.4375" overflow="visible" enable-background="new 0 0 250.7597656 294.4375" xml:space="preserve">
<g>
	<radialGradient id="XMLID_4_" cx="96.6088867" cy="147.1230469" r="121.7317123" gradientUnits="userSpaceOnUse">
		<stop  offset="0" style="stop-color:#CC464F"/>
		<stop  offset="1" style="stop-color:#AB262D"/>
	</radialGradient>
	<path fill="url(#XMLID_4_)" enable-background="new    " d="M149.6904297,290.4375h-47.5419922
		c0,0-21.2138672-117.8007812-21.2138672-129.7050781S97.1982422,136.28125,108.2182617,136.28125h33.0756836
		c11.6533203,0,28.5126953,12.546875,28.5126953,24.4511719C169.8066406,172.8964844,149.6904297,290.4375,149.6904297,290.4375z"/>
	<radialGradient id="XMLID_5_" cx="113.7578125" cy="73.4624023" r="46.7074013" gradientUnits="userSpaceOnUse">
		<stop  offset="0" style="stop-color:#CC464F"/>
		<stop  offset="1" style="stop-color:#AB262D"/>
	</radialGradient>
	<path fill="url(#XMLID_5_)" enable-background="new    " d="M160.0859375,85.6538086
		c0,19.121582-15.5185547,34.612793-34.621582,34.612793c-19.1313477,0-34.612793-15.4912109-34.612793-34.612793
		c0-19.1123047,15.4814453-34.6123047,34.612793-34.6123047C144.5673828,51.0415039,160.0859375,66.5415039,160.0859375,85.6538086z
		"/>
	<path fill="#8A010B" d="M86.8515625,85.6538086c0,21.2910156,17.3217773,38.612793,38.612793,38.612793
		c21.2963867,0,38.621582-17.3217773,38.621582-38.612793s-17.3251953-38.6123047-38.621582-38.6123047
		C104.1733398,47.0415039,86.8515625,64.362793,86.8515625,85.6538086z M94.8515625,85.6538086
		c0-16.8798828,13.7329102-30.6123047,30.612793-30.6123047c16.8852539,0,30.621582,13.7324219,30.621582,30.6123047
		s-13.7363281,30.612793-30.621582,30.612793C108.5844727,116.2666016,94.8515625,102.5336914,94.8515625,85.6538086z"/>
	<path opacity="0.2" fill="#8C8C8C" d="M216.4941406,0l-6.9902344,6.5771484
		c19.5634766,20.7353516,31.6484375,48.6020508,31.6484375,79.2924805c0,30.7563477-12.1601562,58.6977539-31.8076172,79.4526367
		l7,6.5673828c21.2607422-22.4716797,34.4150391-52.7119141,34.4150391-86.0200195
		C250.7597656,52.6269531,237.6708984,22.4619141,216.4941406,0z M40.9550781,6.8867188l-6.9711914-6.5678711
		C12.9760742,22.7431641,0,52.7773438,0,85.8696289c0,33.1582031,13.0229492,63.2670898,34.1245117,85.7104492l6.9897461-6.5771484
		C21.6269531,144.2763672,9.6074219,116.4663086,9.6074219,85.8696289
		C9.6074219,55.3291016,21.5800781,27.5942383,40.9550781,6.8867188z"/>
	<path opacity="0.35" fill="#6E6E6E" d="M195.2333984,20.0410156l-6.9902344,6.5869141
		c14.609375,15.4907227,23.6445312,36.3105469,23.6445312,59.2416992c0,23.0249023-9.1103516,43.9204102-23.8222656,59.4389648
		l6.9804688,6.5683594c16.3447266-17.2363281,26.4492188-40.4492188,26.4492188-66.0073242
		C221.4951172,60.3867188,211.4560547,37.2583008,195.2333984,20.0410156z M62.2441406,26.890625l-6.9995117-6.5678711
		c-16.081543,17.1889648-26.0083008,40.2045898-26.0083008,65.546875c0,25.4082031,9.9921875,48.4707031,26.1396484,65.6782227
		l6.9902344-6.5771484C47.8325195,129.4799805,38.84375,108.7255859,38.84375,85.8696289
		C38.84375,63.0698242,47.7763672,42.3720703,62.2441406,26.890625z"/>
	<path opacity="0.5" fill="#4D4D4D" d="M174.5449219,39.5380859L167.5546875,46.125
		c9.8046875,10.3959961,15.8662109,24.3574219,15.8662109,39.7446289c0,15.4814453-6.1455078,29.5458984-16.0722656,39.9702148
		l6.9990234,6.5581055c11.53125-12.1313477,18.6806641-28.4946289,18.6806641-46.5283203
		C193.0283203,67.9301758,185.9628906,51.6606445,174.5449219,39.5380859z M82.9516602,46.3691406l-6.9995117-6.5683594
		c-11.277832,12.0849609-18.2397461,28.2607422-18.2397461,46.0688477c0,17.8647461,6.9995117,34.0776367,18.3525391,46.171875
		l6.9804688-6.5678711c-9.7202148-10.3959961-15.7250977-24.3007812-15.7250977-39.6040039
		C67.3203125,70.6040039,73.2783203,56.7368164,82.9516602,46.3691406z"/>
	<path fill="#8A010B" d="M108.2182617,132.28125c-13.0825195,0-31.2836914,14.3369141-31.2836914,28.4511719
		c0,12.1220703,20.4082031,125.5898438,21.2773438,130.4140625l0.5922852,3.2910156h54.2602539l0.5683594-3.3251953
		c0.8242188-4.8134766,20.1738281-118.0185547,20.1738281-130.3798828c0-14.3847656-18.6171875-28.4511719-32.5126953-28.4511719
		H108.2182617z M84.9345703,160.7324219c0-9.4814453,14.090332-20.4511719,23.2836914-20.4511719h33.0756836
		c9.6787109,0,24.5126953,10.9697266,24.5126953,20.4511719c0,9.3867188-13.5595703,90.9082031-19.4912109,125.7050781
		c-5.3837891,0-35.4814453,0-40.8217773,0C99.2431641,251.59375,84.9345703,169.9023438,84.9345703,160.7324219z"/>
	
		<linearGradient id="XMLID_6_" gradientUnits="userSpaceOnUse" x1="125.3208008" y1="165.2314453" x2="125.3208008" y2="141.5667877">
		<stop  offset="0" style="stop-color:#D9555E"/>
		<stop  offset="1" style="stop-color:#CC464F"/>
	</linearGradient>
	<path fill="url(#XMLID_6_)" d="M108.2182617,140.28125c-8.394043,0-20.8642578,9.1445312-22.9702148,17.9521484
		c6.8237305,5.4619141,22.1044922,9.2626953,39.8828125,9.2626953c18.1181641,0,33.6494141-3.9492188,40.2626953-9.5839844
		c-2.4511719-8.7070312-15.3701172-17.6308594-24.0996094-17.6308594H108.2182617z"/>
</g>
</svg>
