<?xml version="1.0" encoding="iso-8859-1"?>
<!-- Generator: Adobe Illustrator 12.0.1, SVG Export Plug-In . SVG Version: 6.00 Build 51448)  -->
<!DOCTYPE svg PUBLIC "-//W3C//DTD SVG 1.0//EN" "http://www.w3.org/TR/2001/REC-SVG-20010904/DTD/svg10.dtd" [
	<!ENTITY ns_svg "http://www.w3.org/2000/svg">
	<!ENTITY ns_xlink "http://www.w3.org/1999/xlink">
]>
<svg  version="1.0" id="Printer" xmlns="&ns_svg;" xmlns:xlink="&ns_xlink;" width="293" height="290.0283203"
	 viewBox="0 0 293 290.0283203" overflow="visible" enable-background="new 0 0 293 290.0283203" xml:space="preserve">
<g>
	<radialGradient id="XMLID_10_" cx="61.5424805" cy="120.9526367" r="209.4772644" gradientUnits="userSpaceOnUse">
		<stop  offset="0" style="stop-color:#B6B6B6"/>
		<stop  offset="1" style="stop-color:#8B8B8B"/>
	</radialGradient>
	<path fill="url(#XMLID_10_)" enable-background="new    " d="M289,250.5615234c0,5.2509766-4.2578125,9.5-9.5,9.5h-266
		c-5.2509766,0-9.5-4.2490234-9.5-9.5V106.8745117c0-5.2509766,4.2490234-9.5004883,9.5-9.5004883h266
		c5.2421875,0,9.5,4.2495117,9.5,9.5004883V250.5615234z"/>
	
		<linearGradient id="XMLID_11_" gradientUnits="userSpaceOnUse" x1="339.2685547" y1="294.6669922" x2="64.5718231" y2="187.7168274">
		<stop  offset="0" style="stop-color:#757575"/>
		<stop  offset="1" style="stop-color:#535353"/>
	</linearGradient>
	<path fill="url(#XMLID_11_)" d="M235.9707031,256.2675781V189.3125c0-5.2509766-4.2675781-9.5-9.5-9.5H66.1489258
		c-5.2509766,0-9.5,4.2490234-9.5,9.5v66.9550781H235.9707031z"/>
	<radialGradient id="XMLID_12_" cx="63.9272461" cy="107.4013672" r="175.9224091" gradientUnits="userSpaceOnUse">
		<stop  offset="0" style="stop-color:#B6B6B6"/>
		<stop  offset="1" style="stop-color:#8B8B8B"/>
	</radialGradient>
	<path fill="url(#XMLID_12_)" enable-background="new    " d="M13.5,142.9643555h266c3.0332031,0,5.5-2.4672852,5.5-5.5004883
		v-30.5893555c0-3.0332031-2.4667969-5.5004883-5.5-5.5004883h-266c-3.0327148,0-5.5,2.4672852-5.5,5.5004883v30.5893555
		C8,140.4970703,10.4672852,142.9643555,13.5,142.9643555z"/>
	
		<linearGradient id="XMLID_13_" gradientUnits="userSpaceOnUse" x1="73.0878906" y1="55.3256836" x2="296.9815674" y2="104.0126495">
		<stop  offset="0" style="stop-color:#9B9B9B"/>
		<stop  offset="1" style="stop-color:#696969"/>
	</linearGradient>
	<path fill="url(#XMLID_13_)" enable-background="new    " d="M245.3232422,93.3740234V56.609375
		c0-5.2597656-4.6855469-9.5-10.4931641-9.5H57.7714844c-5.8168945,0-10.5014648,4.2402344-10.5014648,9.5v36.7646484H245.3232422z"
		/>
	<path fill="#717171" d="M234.8300781,43.109375H57.7714844c-7.9960938,0-14.5014648,6.0561523-14.5014648,13.5v36.7646484h8
		c0-9.5371094,0-36.7646484,0-36.7646484c0-3.0327148,2.9165039-5.5,6.5014648-5.5h177.0585938
		c3.5800781,0,6.4931641,2.4672852,6.4931641,5.5c0,0,0,27.2275391,0,36.7646484h8V56.609375
		C249.3232422,49.1655273,242.8212891,43.109375,234.8300781,43.109375z"/>
	<path fill="#FFFFFF" enable-background="new    " d="M198.1552734,4.0004883L60.9956055,4.0605469v89.3134766h171.4702148
		V38.3334961L198.1552734,4.0004883z"/>
	<linearGradient id="XMLID_14_" gradientUnits="userSpaceOnUse" x1="89.6313477" y1="9.206543" x2="257.3288879" y2="176.9040985">
		<stop  offset="0" style="stop-color:#FFFFFF"/>
		<stop  offset="1" style="stop-color:#DBDBDB"/>
	</linearGradient>
	<path fill="url(#XMLID_14_)" d="M197.5576172,16.3378906H72.8286133v77.0361328h148.2055664V39.6391602L197.5576172,16.3378906z"/>
	<path fill="#CCCCCC" d="M279.5,150.9648438h-266c-2.199707,0-4.2719727-0.5400391-6.1088867-1.4775391v101.578125
		c0,2.7568359,2.2431641,5,5,5h267.6176758c2.7568359,0,5-2.2431641,5-5V149.7773438
		C283.3242188,150.5341797,281.4628906,150.9648438,279.5,150.9648438z M281.0087891,251.0654297c0,0.5517578-0.4482422,1-1,1
		H12.3911133c-0.5512695,0-1-0.4482422-1-1v-95.0927734c0-0.5517578,0.4487305-1,1-1h267.6176758c0.5517578,0,1,0.4482422,1,1
		V251.0654297z"/>
	
		<linearGradient id="XMLID_15_" gradientUnits="userSpaceOnUse" x1="12.4770508" y1="85.8291016" x2="229.4120331" y2="134.9204559">
		<stop  offset="0" style="stop-color:#969696"/>
		<stop  offset="1" style="stop-color:#6A6A6A"/>
	</linearGradient>
	<path fill="url(#XMLID_15_)" d="M56.6303711,103.2148438v18.2021484c0,5.2509766,4.2675781,9.4995117,9.5,9.4995117h160.3305664
		c5.2421875,0,9.5009766-4.2485352,9.5009766-9.4995117v-18.2021484H56.6303711z"/>
	<path fill="#CCCCCC" d="M12.3911133,101.0224609c-2.7568359,0-5,2.2431641-5,5v32.059082c0,2.7568359,2.2431641,5,5,5h267.6176758
		c2.7568359,0,5-2.2431641,5-5v-32.059082c0-2.7568359-2.2431641-5-5-5H12.3911133z M11.3911133,138.081543v-32.059082
		c0-0.5512695,0.4487305-1,1-1h267.6176758c0.5517578,0,1,0.4487305,1,1v32.059082c0,0.5512695-0.4482422,1-1,1H12.3911133
		C11.8398438,139.081543,11.3911133,138.6328125,11.3911133,138.081543z"/>
	<g>
		<path opacity="0.3" fill="#737373" d="M255.2490234,125.9624023c0,3.0195312-2.4404297,5.4609375-5.4609375,5.4609375l0,0
			c-3.0126953,0-5.453125-2.4414062-5.453125-5.4609375l0,0c0-3.0126953,2.4404297-5.4541016,5.453125-5.4541016l0,0
			C252.8085938,120.5083008,255.2490234,122.949707,255.2490234,125.9624023L255.2490234,125.9624023z"/>
		<path opacity="0.1" fill="#FFFFFF" d="M257.2470703,128.1196289c0,3.0195312-2.4404297,5.4609375-5.4609375,5.4609375l0,0
			c-3.0126953,0-5.453125-2.4414062-5.453125-5.4609375l0,0c0-3.0126953,2.4404297-5.4541016,5.453125-5.4541016l0,0
			C254.8066406,122.6655273,257.2470703,125.1069336,257.2470703,128.1196289L257.2470703,128.1196289z"/>
		<radialGradient id="XMLID_16_" cx="249.0664062" cy="125.1206055" r="3.8048437" gradientUnits="userSpaceOnUse">
			<stop  offset="0" style="stop-color:#EEDBA1"/>
			<stop  offset="1" style="stop-color:#E1BF7F"/>
		</radialGradient>
		<path fill="url(#XMLID_16_)" d="M256.2177734,127.0561523c0,2.9560547-2.3876953,5.3525391-5.3515625,5.3525391l0,0
			c-2.9560547,0-5.3535156-2.3964844-5.3535156-5.3525391l0,0c0-2.9638672,2.3974609-5.3623047,5.3535156-5.3623047l0,0
			C253.8300781,121.6938477,256.2177734,124.0922852,256.2177734,127.0561523L256.2177734,127.0561523z"/>
		<path opacity="0.3" fill="#737373" d="M275.2490234,125.9624023c0,3.0195312-2.4404297,5.4609375-5.4609375,5.4609375l0,0
			c-3.0126953,0-5.453125-2.4414062-5.453125-5.4609375l0,0c0-3.0126953,2.4404297-5.4541016,5.453125-5.4541016l0,0
			C272.8085938,120.5083008,275.2490234,122.949707,275.2490234,125.9624023L275.2490234,125.9624023z"/>
		<path opacity="0.1" fill="#FFFFFF" d="M277.2470703,128.1196289c0,3.0195312-2.4404297,5.4609375-5.4609375,5.4609375l0,0
			c-3.0126953,0-5.453125-2.4414062-5.453125-5.4609375l0,0c0-3.0126953,2.4404297-5.4541016,5.453125-5.4541016l0,0
			C274.8066406,122.6655273,277.2470703,125.1069336,277.2470703,128.1196289L277.2470703,128.1196289z"/>
		<radialGradient id="XMLID_17_" cx="269.0664062" cy="125.1206055" r="3.8048437" gradientUnits="userSpaceOnUse">
			<stop  offset="0" style="stop-color:#95C393"/>
			<stop  offset="1" style="stop-color:#6AA467"/>
		</radialGradient>
		<path fill="url(#XMLID_17_)" d="M276.2177734,127.0561523c0,2.9560547-2.3876953,5.3525391-5.3515625,5.3525391l0,0
			c-2.9560547,0-5.3535156-2.3964844-5.3535156-5.3525391l0,0c0-2.9638672,2.3974609-5.3623047,5.3535156-5.3623047l0,0
			C273.8300781,121.6938477,276.2177734,124.0922852,276.2177734,127.0561523L276.2177734,127.0561523z"/>
	</g>
	<path fill="#8A8A8A" d="M199.8125,0L56.9956055,0.0625v93.3115234h8V8.0585938
		c7.4433594-0.0029297,128.3608398-0.0561523,131.5024414-0.0576172
		c2.1103516,2.1118164,29.8603516,29.8803711,31.9677734,31.9887695v53.3842773h8V36.6772461L199.8125,0z"/>
	<polygon fill="#D6D6D6" points="228.4746094,38.4775391 198.0273438,8.0112305 197.0244141,8.0117188 197.0244141,39.5053711 
		228.4746094,39.6083984 	"/>
	<g>
		<path fill="#8A8A8A" d="M193.5429688,3.2045898V43.625h38.765625v-8c0,0-24.5009766,0-30.765625,0
			c0-6.3393555,0-32.4204102,0-32.4204102H193.5429688z"/>
	</g>
	<g opacity="0.3">
		<rect x="201.5449219" y="43.6152344" fill="#8A8A8A" width="26.9082031" height="8.0078125"/>
	</g>
	<path fill="#717171" d="M279.5,93.3740234h-266c-7.4438477,0-13.5,6.0561523-13.5,13.5004883v143.6870117
		c0,7.4443359,6.0561523,13.5,13.5,13.5h266c7.4443359,0,13.5-6.0556641,13.5-13.5V106.8745117
		C293,99.4301758,286.9443359,93.3740234,279.5,93.3740234z M279.5,101.3740234c3.0332031,0,5.5,2.4672852,5.5,5.5004883v31.2939453
		c-0.0478516,2.7158203-2.2636719,4.9130859-4.9912109,4.9130859H12.3911133c-1.9067383,0-3.5483398-1.0854492-4.3911133-2.659668
		v-33.5473633c0-3.0332031,2.4672852-5.5004883,5.5-5.5004883H279.5z M279.5,256.0615234h-266c-3.0327148,0-5.5-2.4677734-5.5-5.5
		V149.78125c1.6821289,0.7548828,3.5405273,1.1835938,5.5,1.1835938h266c1.9599609,0,3.8183594-0.4287109,5.5-1.1835938v100.7802734
		C285,253.59375,282.5332031,256.0615234,279.5,256.0615234z"/>
	<polygon fill="#FFFFFF" enable-background="new    " points="241.3300781,286.0283203 51.5,286.0283203 61.8691406,219.5761719 
		231.4443359,219.5400391 	"/>
	
		<linearGradient id="XMLID_18_" gradientUnits="userSpaceOnUse" x1="98.8081055" y1="206.4414062" x2="254.6357422" y2="362.269043">
		<stop  offset="0" style="stop-color:#FFFFFF"/>
		<stop  offset="1" style="stop-color:#DBDBDB"/>
	</linearGradient>
	<polygon fill="url(#XMLID_18_)" points="227.6679688,277.8935547 65.4223633,277.8935547 72.7226562,223.5390625 
		220.7431641,223.5390625 	"/>
	<g>
		<polygon fill="#B0B0B0" points="75.4501953,264.7519531 75.1259766,267.4101562 218.0322266,267.4101562 217.7275391,264.7519531 
					"/>
	</g>
	<g>
		<polygon fill="#B0B0B0" points="77.3305664,249.3134766 77.0229492,251.8369141 216.2490234,251.8369141 215.9619141,249.3134766 
					"/>
	</g>
	<g>
		<polygon fill="#B0B0B0" points="79.1171875,234.6445312 78.824707,237.0429688 214.5576172,237.0429688 214.2822266,234.6445312 
					"/>
	</g>
	<path fill="#8A8A8A" d="M58.4448242,215.5771484l-11.6171875,74.4511719H245.96875l-11.0751953-74.4892578L58.4448242,215.5771484z
		 M227.9951172,223.5410156c0.8466797,5.6953125,7.5791016,50.9716797,8.6962891,58.4873047
		c-8.6064453,0-171.8510742,0-180.519043,0c1.1796875-7.5576172,8.2397461-52.8046875,9.1210938-58.453125
		C71.7304688,223.5742188,221.5097656,223.5419922,227.9951172,223.5410156z"/>
</g>
</svg>
