<?xml version="1.0" encoding="iso-8859-1"?>
<!-- Generator: Adobe Illustrator 12.0.1, SVG Export Plug-In . SVG Version: 6.00 Build 51448)  -->
<!DOCTYPE svg PUBLIC "-//W3C//DTD SVG 1.0//EN" "http://www.w3.org/TR/2001/REC-SVG-20010904/DTD/svg10.dtd" [
	<!ENTITY ns_svg "http://www.w3.org/2000/svg">
	<!ENTITY ns_xlink "http://www.w3.org/1999/xlink">
]>
<svg  version="1.0" id="Report" xmlns="&ns_svg;" xmlns:xlink="&ns_xlink;" width="241.7949219" height="295.347168"
	 viewBox="0 0 241.7949219 295.347168" overflow="visible" enable-background="new 0 0 241.7949219 295.347168"
	 xml:space="preserve">
<g>
	<radialGradient id="XMLID_8_" cx="21.2216797" cy="60.1352539" r="333.7154541" gradientUnits="userSpaceOnUse">
		<stop  offset="0" style="stop-color:#B07F6B"/>
		<stop  offset="1" style="stop-color:#926958"/>
	</radialGradient>
	<path fill="url(#XMLID_8_)" enable-background="new    " d="M237.7949219,278.347168c0,7.1796875-5.8203125,13-13,13H17
		c-7.1796875,0-13-5.8203125-13-13V51.9414062c0-7.1796875,5.8203125-13,13-13h207.7949219c7.1796875,0,13,5.8203125,13,13
		V278.347168z"/>
	<path fill="#755346" d="M17,34.9414062c-9.3740234,0-17,7.6259766-17,17V278.347168c0,9.3740234,7.6259766,17,17,17h207.7949219
		c9.3740234,0,17-7.6259766,17-17V51.9414062c0-9.3740234-7.6259766-17-17-17H17z M8,278.347168V51.9414062
		c0-4.9624023,4.0375977-9,9-9h207.7949219c4.9628906,0,9,4.0375977,9,9V278.347168c0,4.9628906-4.0371094,9-9,9H17
		C12.0375977,287.347168,8,283.3100586,8,278.347168z"/>
	<rect x="17.4140625" y="51.4931641" fill="#926958" width="206.9667969" height="226.2241211"/>
	<polygon opacity="0.5" fill="#755346" points="217.8789062,285.1401367 43.8027344,285.1401367 43.8027344,57.277832 
		217.8574219,57.2133789 	"/>
	<polygon fill="#FFFFFF" enable-background="new    " points="209.9570312,277.6147461 31.8378906,277.6147461 
		31.8378906,53.2739258 209.9345703,53.2104492 	"/>
	<path fill="#8A8A8A" d="M27.8378906,49.2753906v232.3393555h186.1191406l-0.0224609-232.4057617L27.8378906,49.2753906z
		 M205.9345703,57.2119141c0.0009766,7.5791016,0.0214844,208.824707,0.0224609,216.402832
		c-7.4707031,0-162.6499023,0-170.1191406,0c0-7.5771484,0-208.7675781,0-216.3422852
		C43.3041992,57.2700195,198.4638672,57.2143555,205.9345703,57.2119141z"/>
	<linearGradient id="XMLID_9_" gradientUnits="userSpaceOnUse" x1="39.8974609" y1="84.5366211" x2="304.138855" y2="348.7780151">
		<stop  offset="0" style="stop-color:#FFFFFF"/>
		<stop  offset="1" style="stop-color:#DBDBDB"/>
	</linearGradient>
	<polygon fill="url(#XMLID_9_)" points="198.1162109,265.9936523 43.8671875,265.9936523 43.8671875,65.3266602 
		198.1757812,65.3266602 	"/>
	<rect x="54.875" y="49.3334961" opacity="0.3" fill="#8A8A8A" width="147.4072266" height="21.5629883"/>
	<path fill="#FFFFFF" d="M179.5966797,21.7573242h-30.9375C146.5009766,14.6328125,136.9599609,4,120.6328125,4
		c-16.3276367,0-25.5566406,10.5463867-27.7348633,17.7573242H62.2348633c-5.1542969,0-11.4038086,6.2124023-11.4038086,11.3764648
		v25.690918h140.1328125V33.7177734C190.9638672,28.5634766,184.7587891,21.7573242,179.5966797,21.7573242z
		 M120.9799805,36.2954102c-6.0224609,0-10.9047852-3.5649414-10.9047852-7.9628906
		c0-4.3969727,4.8823242-7.9619141,10.9047852-7.9619141c6.0219727,0,10.9047852,3.5649414,10.9047852,7.9619141
		C131.8847656,32.7304688,127.0019531,36.2954102,120.9799805,36.2954102z"/>
	<path fill="#AFAFAF" d="M90.1918945,17.7573242c-4.4985352,0-27.9570312,0-27.9570312,0
		c-7.3417969,0-15.4038086,8.0473633-15.4038086,15.3764648v29.690918h148.1328125V33.7177734
		c0-7.4580078-8.1865234-15.9604492-15.3671875-15.9604492c0,0-23.7363281,0-28.2363281,0
		C147.5585938,9.7700195,137.3740234,0,120.6328125,0C104.0722656,0,93.9731445,9.769043,90.1918945,17.7573242z
		 M54.8310547,33.1337891c0-2.9643555,4.4282227-7.3764648,7.4038086-7.3764648h33.6333008l0.8588867-2.8432617
		C98.5380859,16.9189453,106.3989258,8,120.6328125,8c14.3369141,0,22.4511719,9.1499023,24.1982422,14.9169922l0.8603516,2.840332
		h33.9052734c2.8232422,0,7.3671875,4.9101562,7.3671875,7.9604492c0,0,0,15.453125,0,21.1069336
		c-7.328125,0-124.8046875,0-132.1328125,0C54.8310547,49.1220703,54.8310547,33.1337891,54.8310547,33.1337891z"/>
	<path fill="#AFAFAF" d="M107.9926758,28.3325195c0,5.4936523,5.7890625,9.9628906,12.9047852,9.9628906
		c7.1162109,0,12.9042969-4.4692383,12.9042969-9.9628906c0-5.4931641-5.7880859-9.9619141-12.9042969-9.9619141
		C113.7817383,18.3706055,107.9926758,22.8393555,107.9926758,28.3325195z M111.9926758,28.3325195
		c0-3.2314453,4.0776367-5.9619141,8.9047852-5.9619141s8.9052734,2.7304688,8.9052734,5.9619141
		c0,3.2324219-4.078125,5.9628906-8.9052734,5.9628906S111.9926758,31.5649414,111.9926758,28.3325195z"/>
	<linearGradient id="XMLID_10_" gradientUnits="userSpaceOnUse" x1="49.3535156" y1="9.9223633" x2="239.9444427" y2="93.8034439">
		<stop  offset="0" style="stop-color:#EDEDED"/>
		<stop  offset="0.5027443" style="stop-color:#EBEBEB"/>
		<stop  offset="0.7879561" style="stop-color:#E2E2E2"/>
		<stop  offset="1" style="stop-color:#D6D6D6"/>
	</linearGradient>
	<path fill="url(#XMLID_10_)" d="M174.6083984,33.2446289h-30.1425781
		c-3.1162109,7.9042969-12.4892578,13.6450195-23.5683594,13.6450195s-20.4521484-5.7407227-23.5688477-13.6450195H67.1860352
		c-2.7612305,0-5,2.2387695-5,5v9.5927734h117.4223633v-9.5927734
		C179.6083984,35.4833984,177.3701172,33.2446289,174.6083984,33.2446289z"/>
	<path opacity="0.3" fill="#8A8A8A" d="M175.9375,135.7514648c4.7333984,8.8266602,7.4238281,18.9121094,7.4238281,29.6289062
		c0,34.6796875-28.1132812,62.7929688-62.793457,62.7929688c-10.7163086,0-20.8012695-2.6904297-29.6279297-7.4228516
		c9.8457031,6.78125,21.7709961,10.7607422,34.6303711,10.7607422c33.7607422,0,61.1289062-27.3681641,61.1289062-61.1289062
		C186.6992188,157.5229492,182.7197266,145.597168,175.9375,135.7514648z"/>
	<radialGradient id="XMLID_11_" cx="91.5629883" cy="142.9067383" r="69.8869247" gradientUnits="userSpaceOnUse">
		<stop  offset="0" style="stop-color:#EEDBA1"/>
		<stop  offset="1" style="stop-color:#E1BF7F"/>
	</radialGradient>
	<path fill="url(#XMLID_11_)" d="M123.9794922,226.2172852c12.4462891-0.6845703,23.9033203-5.1289062,33.2607422-12.2148438
		l-35.2871094-45.7070312L123.9794922,226.2172852z"/>
	<radialGradient id="XMLID_12_" cx="91.5634766" cy="142.9067383" r="69.886528" gradientUnits="userSpaceOnUse">
		<stop  offset="0" style="stop-color:#E1A655"/>
		<stop  offset="1" style="stop-color:#D48049"/>
	</radialGradient>
	<path fill="url(#XMLID_12_)" d="M163.3242188,122.2680664l-41.0839844,43.1269531L158.8125,212.7661133
		c13.7763672-11.1582031,22.6054688-28.1972656,22.6054688-47.2666016
		C181.4179688,148.6030273,174.4863281,133.2998047,163.3242188,122.2680664z"/>
	<radialGradient id="XMLID_13_" cx="91.5634766" cy="142.9067383" r="69.8862991" gradientUnits="userSpaceOnUse">
		<stop  offset="0" style="stop-color:#A877A6"/>
		<stop  offset="1" style="stop-color:#80467D"/>
	</radialGradient>
	<path fill="url(#XMLID_13_)" d="M76.9433594,123.2250977c-10.6083984,10.9521484-17.1572266,25.8583984-17.1572266,42.2744141
		c0,33.5341797,27.2822266,60.8164062,60.8154297,60.8164062c0.4628906,0,0.9189453-0.0244141,1.3789062-0.0351562
		c-0.6621094-18.9179688-2.0957031-59.8974609-2.1162109-60.5C119.53125,165.4506836,95.8964844,142.0180664,76.9433594,123.2250977
		z"/>
	<radialGradient id="XMLID_14_" cx="91.5629883" cy="142.9067383" r="69.8864517" gradientUnits="userSpaceOnUse">
		<stop  offset="0" style="stop-color:#CC464F"/>
		<stop  offset="1" style="stop-color:#AB262D"/>
	</radialGradient>
	<path fill="url(#XMLID_14_)" d="M161.8769531,120.8876953c-10.8515625-10.0473633-25.3554688-16.2041016-41.2753906-16.2041016
		c-16.4003906,0-31.2949219,6.5371094-42.2441406,17.1279297l42.4980469,42.137207L161.8769531,120.8876953z"/>
	<path fill="#8A010B" d="M120.6015625,106.4995117c15.4355469,0,29.4980469,5.965332,40.0234375,15.7021484l2.7578125-2.894043
		c-11.2441406-10.4213867-26.2773438-16.8081055-42.78125-16.8081055c-17.0058594,0-32.4482422,6.784668-43.7949219,17.7749023
		l2.8398438,2.8154297C90.2675781,112.8305664,104.7050781,106.4995117,120.6015625,106.4995117z"/>
	<path fill="#D49D3B" d="M123.9160156,224.4008789l0.1396484,4c12.9189453-0.7021484,24.8105469-5.3144531,34.5175781-12.6708984
		l-2.4423828-3.1640625C147.0664062,219.425293,135.96875,223.7299805,123.9160156,224.4008789z"/>
	<path fill="#692C65" d="M120.6015625,224.4995117c-32.5322266,0-58.9995117-26.4667969-58.9995117-59
		c0-15.9179688,6.347168-30.3725586,16.6303711-40.996582c-0.9589844-0.949707-1.90625-1.8886719-2.8398438-2.8149414
		c-10.9995117,11.3476562-17.7905273,26.7978516-17.7905273,43.8115234c0,34.7382812,28.2612305,63,62.9995117,63
		c0.4882812,0,0.9697266-0.0253906,1.4550781-0.0371094c-0.0429688-1.2138672-0.0898438-2.5546875-0.1396484-3.9960938
		C121.4785156,224.4760742,121.0429688,224.4995117,120.6015625,224.4995117z"/>
	<path fill="#B35129" d="M164.8300781,120.6879883l-2.7568359,2.894043
		c10.8154297,10.7006836,17.5283203,25.5375977,17.5283203,41.9174805c0,18.4853516-8.5507812,35.0048828-21.8984375,45.8300781
		l2.4423828,3.1640625c14.2939453-11.5585938,23.4560547-29.2226562,23.4560547-48.9941406
		C183.6015625,147.9824219,176.4101562,132.1181641,164.8300781,120.6879883z"/>
</g>
</svg>
