<?xml version="1.0" encoding="iso-8859-1"?>
<!-- Generator: Adobe Illustrator 12.0.1, SVG Export Plug-In . SVG Version: 6.00 Build 51448)  -->
<!DOCTYPE svg PUBLIC "-//W3C//DTD SVG 1.0//EN" "http://www.w3.org/TR/2001/REC-SVG-20010904/DTD/svg10.dtd" [
	<!ENTITY ns_svg "http://www.w3.org/2000/svg">
	<!ENTITY ns_xlink "http://www.w3.org/1999/xlink">
]>
<svg  version="1.0" id="RSS" xmlns="&ns_svg;" xmlns:xlink="&ns_xlink;" width="249.0678711" height="248.9418945"
	 viewBox="0 0 249.0678711 248.9418945" overflow="visible" enable-background="new 0 0 249.0678711 248.9418945"
	 xml:space="preserve">
<g>
	<linearGradient id="XMLID_3_" gradientUnits="userSpaceOnUse" x1="4" y1="124.4711914" x2="245.0678711" y2="124.4711914">
		<stop  offset="0" style="stop-color:#E1A655"/>
		<stop  offset="1" style="stop-color:#D48049"/>
	</linearGradient>
	<path fill="url(#XMLID_3_)" enable-background="new    " d="M245.0678711,227.684082
		c0,9.5214844-7.7265625,17.2578125-17.2480469,17.2578125H21.2490234C11.71875,244.9418945,4,237.2055664,4,227.684082V21.2480469
		C4,11.7275391,11.71875,4,21.2490234,4h206.5708008c9.5214844,0,17.2480469,7.7275391,17.2480469,17.2480469V227.684082z"/>
	<path fill="#B35129" d="M21.2490234,0C9.5322266,0,0,9.5317383,0,21.2480469V227.684082
		c0,11.7216797,9.5322266,21.2578125,21.2490234,21.2578125h206.5708008c11.7158203,0,21.2480469-9.5361328,21.2480469-21.2578125
		V21.2480469C249.0678711,9.5317383,239.5356445,0,227.8198242,0H21.2490234z M8,227.684082V21.2480469
		C8,13.9428711,13.9433594,8,21.2490234,8h206.5708008c7.3046875,0,13.2480469,5.9428711,13.2480469,13.2480469V227.684082
		c0,7.3105469-5.9433594,13.2578125-13.2480469,13.2578125H21.2490234C13.9433594,240.9418945,8,234.9946289,8,227.684082z"/>
	<linearGradient id="XMLID_4_" gradientUnits="userSpaceOnUse" x1="27.2045898" y1="26.9682617" x2="217.8589935" y2="217.6273193">
		<stop  offset="0" style="stop-color:#D48049"/>
		<stop  offset="0.5" style="stop-color:#E1A655"/>
		<stop  offset="1" style="stop-color:#D48049"/>
	</linearGradient>
	<path fill="url(#XMLID_4_)" d="M231.9291992,223.8852539c0,4.4179688-3.5820312,8-8,8H25.3320312c-4.418457,0-8-3.5820312-8-8
		V24.9082031c0-4.418457,3.581543-8,8-8h198.597168c4.4179688,0,8,3.581543,8,8V223.8852539z"/>
	<g>
		<path fill="#FFFFFF" d="M98.1469727,177.4194336c0,15.2802734-12.390625,27.6894531-27.6708984,27.6894531
			c-15.2983398,0-27.6801758-12.4091797-27.6801758-27.6894531s12.3818359-27.6621094,27.6801758-27.6621094
			C85.7563477,149.7573242,98.1469727,162.1391602,98.1469727,177.4194336z"/>
		<path fill="#FFFFFF" d="M42.5185547,65.9389648c9.3310547-2.4599609,17.8837891-3.8828125,27.9575195-3.8828125
			c63.6171875,0,115.3544922,51.7460938,115.3544922,115.3544922c0,10.0830078-1.4316406,19.8164062-3.8828125,29.15625h29.6660156
			c1.9326172-9.4208984,2.9521484-19.171875,2.9521484-29.15625c0-79.4526367-64.6289062-144.0991211-144.0898438-144.0991211
			c-9.984375,0-18.5371094,1.0288086-27.9575195,2.9790039V65.9389648z"/>
		<path fill="#FFFFFF" d="M42.5185547,127.3198242c8.5795898-5.0185547,17.3291016-7.9350586,27.9575195-7.9350586
			c32.0097656,0,58.0439453,26.0249023,58.0439453,58.0258789c0,10.6191406-2.9169922,20.5761719-7.9267578,29.15625h31.5273438
			c3.2744141-9.1435547,5.1435547-18.921875,5.1435547-29.15625c0-47.8447266-38.925293-86.7705078-86.7880859-86.7705078
			c-10.2348633,0-18.8232422,1.8696289-27.9575195,5.144043V127.3198242z"/>
	</g>
	<path opacity="0.5" fill="#B35129" d="M97.8291016,173.2143555c0.2094727,1.3710938,0.3178711,2.7753906,0.3178711,4.2050781
		c0,15.2802734-12.390625,27.6894531-27.6708984,27.6894531c-11.0546875,0-20.5834961-6.4814453-25.0209961-15.8417969
		c2.0458984,13.2646484,13.5029297,23.4345703,27.3364258,23.4345703c15.2802734,0,27.6801758-12.4082031,27.6801758-27.6884766
		C100.4716797,180.7915039,99.5214844,176.793457,97.8291016,173.2143555z"/>
	<path opacity="0.5" fill="#B35129" d="M70.4760742,62.0561523c-10.0600586,0-18.6040039,1.4194336-27.9204102,3.8735352
		l2.2875977,7.6025391c9.3398438-2.4511719,17.875-3.8823242,27.9663086-3.8823242
		c50.5083008,0,93.5200195,32.6220703,109.097168,77.9091797C168.7211914,98.3759766,123.7709961,62.0561523,70.4760742,62.0561523z
		"/>
	<path opacity="0.5" fill="#B35129" d="M209.3149414,138.8325195c3.4169922,12.2841797,5.2509766,25.2207031,5.2509766,38.578125
		c0,9.984375-1.0195312,19.7353516-2.9521484,29.15625h-29.6123047c0.1552734,0.3789062,2.0029297,4.9140625,2.2802734,7.59375
		h29.6474609c1.9326172-9.4208984,2.9707031-19.1728516,2.9707031-29.15625
		C216.8999023,168.8637695,214.2319336,153.3334961,209.3149414,138.8325195z"/>
	<path opacity="0.5" fill="#B35129" d="M154.5698242,155.9243164c1.7578125,6.8740234,2.6943359,14.0722656,2.6943359,21.4863281
		c0,10.234375-1.8691406,20.0126953-5.1435547,29.15625H120.652832c0.1142578,0.2255859,2.2856445,4.5449219,2.2744141,7.59375
		h31.5175781c3.2744141-9.1435547,5.1445312-18.921875,5.1445312-29.15625
		C159.5893555,174.8081055,157.815918,165.0200195,154.5698242,155.9243164z"/>
	<path opacity="0.5" fill="#B35129" d="M70.4760742,119.3847656c-10.6210938,0-19.3652344,2.9125977-27.9389648,7.9243164
		l2.3061523,7.6044922c8.5703125-5.0195312,17.3291016-7.9355469,27.9663086-7.9355469
		c24.6977539,0,45.828125,15.5078125,54.1918945,37.2949219C121.0307617,138.5844727,97.965332,119.3847656,70.4760742,119.3847656z
		"/>
</g>
</svg>
