<?xml version="1.0" encoding="iso-8859-1"?>
<!-- Generator: Adobe Illustrator 12.0.1, SVG Export Plug-In . SVG Version: 6.00 Build 51448)  -->
<!DOCTYPE svg PUBLIC "-//W3C//DTD SVG 1.0//EN" "http://www.w3.org/TR/2001/REC-SVG-20010904/DTD/svg10.dtd" [
	<!ENTITY ns_svg "http://www.w3.org/2000/svg">
	<!ENTITY ns_xlink "http://www.w3.org/1999/xlink">
]>
<svg  version="1.0" id="Save" xmlns="&ns_svg;" xmlns:xlink="&ns_xlink;" width="263.4301758" height="263.3535156"
	 viewBox="0 0 263.4301758 263.3535156" overflow="visible" enable-background="new 0 0 263.4301758 263.3535156"
	 xml:space="preserve">
<g>
	<radialGradient id="XMLID_5_" cx="24.0600586" cy="17.3691406" r="326.2601318" gradientUnits="userSpaceOnUse">
		<stop  offset="0" style="stop-color:#A9C7EB"/>
		<stop  offset="1" style="stop-color:#7FA3D1"/>
	</radialGradient>
	<path fill="url(#XMLID_5_)" enable-background="new    " d="M259.4301758,247.9775391
		c0,6.2851562-5.1015625,11.3759766-11.3867188,11.3759766H30.5302734L4,232.9619141V15.3857422
		C4,9.1103516,9.0898438,4,15.3769531,4H248.043457c6.2851562,0,11.3867188,5.1103516,11.3867188,11.3857422V247.9775391z"/>
	<path opacity="0.25" fill="#5F83B3" d="M32.4467773,171.9853516h198.5527344c4.4179688,0,8-3.5820312,8-8V8H24.4467773v155.9853516
		C24.4467773,168.4033203,28.0283203,171.9853516,32.4467773,171.9853516z"/>
	<polygon opacity="0.25" fill="#5F83B3" points="70.5756836,250.0136719 70.5756836,208.0234375 89.3100586,208.0234375 
		89.3100586,205.1484375 67.7006836,205.1484375 67.7006836,250.0136719 	"/>
	<linearGradient id="XMLID_6_" gradientUnits="userSpaceOnUse" x1="63.6503906" y1="25.1708984" x2="204.4133606" y2="136.0578308">
		<stop  offset="0" style="stop-color:#FFFFFF"/>
		<stop  offset="1" style="stop-color:#C6C6C6"/>
	</linearGradient>
	<path fill="url(#XMLID_6_)" d="M40.550293,4v147.3779297c0,2.2089844,1.7910156,4,4,4h174c2.2089844,0,4-1.7910156,4-4V4H40.550293
		z"/>
	
		<linearGradient id="XMLID_7_" gradientUnits="userSpaceOnUse" x1="40.6103516" y1="222.2158203" x2="222.3022461" y2="222.2158203">
		<stop  offset="0" style="stop-color:#DEDEDE"/>
		<stop  offset="0.494382" style="stop-color:#C9C9C9"/>
		<stop  offset="0.730337" style="stop-color:#ABABAB"/>
		<stop  offset="0.820225" style="stop-color:#C9C9C9"/>
		<stop  offset="1" style="stop-color:#B0B0B0"/>
	</linearGradient>
	<path fill="url(#XMLID_7_)" enable-background="new    " d="M214.4848633,189.0791016H48.4277344
		c-4.3105469,0-7.8173828,3.5068359-7.8173828,7.8173828v58.4570312c30.1508789,0,133.1274414,0,181.6918945,0v-58.4570312
		C222.3022461,192.5859375,218.7954102,189.0791016,214.4848633,189.0791016z M86.4902344,247.3505859H67.7265625v-42.1777344
		h18.7636719V247.3505859z"/>
	<path fill="#5F83B3" d="M15.3769531,0C6.8979492,0,0,6.9018555,0,15.3857422V234.625l28.8793945,28.7285156H248.043457
		c8.484375,0,15.3867188-6.8974609,15.3867188-15.3759766V15.3857422C263.4301758,6.9018555,256.527832,0,248.043457,0H15.3769531z
		 M8,15.3857422C8,11.3134766,11.309082,8,15.3769531,8H248.043457c4.0732422,0,7.3867188,3.3134766,7.3867188,7.3857422
		v232.5917969c0,4.0673828-3.3134766,7.3759766-7.3867188,7.3759766c0,0-212.6108398,0-215.8623047,0
		C30.1416016,253.3251953,10.0537109,233.3417969,8,231.2988281C8,228.0234375,8,15.3857422,8,15.3857422z"/>
	<path opacity="0.5" fill="#FFFFFF" d="M222.3022461,197.0771484v-0.1806641c0-4.3105469-3.5068359-7.8173828-7.8173828-7.8173828
		H48.4277344c-4.3105469,0-7.8173828,3.5068359-7.8173828,7.8173828v58.4570312h8v-58.2744141L222.3022461,197.0771484z"/>
	<linearGradient id="XMLID_8_" gradientUnits="userSpaceOnUse" x1="86.0546875" y1="-23.8642578" x2="180.5587616" y2="50.5819359">
		<stop  offset="0" style="stop-color:#E1A655"/>
		<stop  offset="1" style="stop-color:#D48049"/>
	</linearGradient>
	<rect x="40.550293" fill="url(#XMLID_8_)" width="182" height="23.9501953"/>
	<g>
		<g>
			<rect x="56.5678711" y="124.0385742" fill="#B0B0B0" width="149.8544922" height="4"/>
		</g>
		<g>
			<rect x="56.5678711" y="100.0385742" fill="#B0B0B0" width="149.8544922" height="4"/>
		</g>
		<g>
			<rect x="56.5678711" y="76.0932617" fill="#B0B0B0" width="149.8544922" height="4"/>
		</g>
		<g>
			<rect x="56.5678711" y="52.1010742" fill="#B0B0B0" width="149.8544922" height="4"/>
		</g>
	</g>
	<rect x="13.1899414" y="20.6269531" opacity="0.25" fill="#5F83B3" width="11.3051758" height="11.3051758"/>
	<rect x="16.4794922" y="23.9165039" fill="#FFFFFF" width="8.015625" height="8.015625"/>
	<polygon fill="#FFFFFF" points="86.4511719,205.1796875 86.4511719,247.1699219 67.7167969,247.1699219 67.7167969,250.0449219 
		89.3261719,250.0449219 89.3261719,205.1796875 	"/>
</g>
</svg>
