<?xml version="1.0" encoding="iso-8859-1"?>
<!-- Generator: Adobe Illustrator 12.0.1, SVG Export Plug-In . SVG Version: 6.00 Build 51448)  -->
<!DOCTYPE svg PUBLIC "-//W3C//DTD SVG 1.0//EN" "http://www.w3.org/TR/2001/REC-SVG-20010904/DTD/svg10.dtd" [
	<!ENTITY ns_svg "http://www.w3.org/2000/svg">
	<!ENTITY ns_xlink "http://www.w3.org/1999/xlink">
]>
<svg  version="1.0" id="Settings" xmlns="&ns_svg;" xmlns:xlink="&ns_xlink;" width="289.8457031" height="284.9199219"
	 viewBox="0 0 289.8457031 284.9199219" overflow="visible" enable-background="new 0 0 289.8457031 284.9199219"
	 xml:space="preserve">
<g>
	<radialGradient id="XMLID_6_" cx="53.8740234" cy="46.3481445" r="173.949173" gradientUnits="userSpaceOnUse">
		<stop  offset="0" style="stop-color:#B5B5B5"/>
		<stop  offset="1" style="stop-color:#848484"/>
	</radialGradient>
	<path fill="url(#XMLID_6_)" d="M215.6503906,131.6499023c1.6357422-7.4702148,2.5625-15.2226562,2.5625-23.1743164
		c0-7.9521484-0.9267578-15.7041016-2.5625-23.1474609l-18.4394531-3.6806641
		c-1.5820312-5.0166016-3.6347656-9.8242188-6.0253906-14.4311523l11.6865234-16.8676758
		c-8.4248047-13.1777344-19.6201172-24.3466797-32.7705078-32.762207l-16.8681641,11.6962891
		c-4.6074219-2.3994141-9.4233398-4.4619141-14.4311523-6.0351562l-3.6630859-16.7119141
		C127.6787109,4.9086914,119.9262695,4,111.9741211,4c-7.9697266,0-15.6948242,0.9086914-23.15625,2.5356445L85.15625,23.2475586
		c-5.0175781,1.5913086-9.8242188,3.6357422-14.4414062,6.0351562L53.8481445,17.5864258
		c-13.1689453,8.4155273-24.347168,19.5844727-32.7714844,32.762207l11.6962891,16.8676758
		c-2.3901367,4.6069336-4.4438477,9.4145508-6.0253906,14.4311523L6.5449219,85.328125
		C4.918457,92.7714844,4,100.5234375,4,108.4755859c0,7.9516602,0.918457,15.7041016,2.5537109,23.1743164l20.1938477,3.652832
		c1.590332,5.0263672,3.6352539,9.8251953,6.0253906,14.4326172l-11.6875,16.8671875
		c8.4155273,13.1689453,19.6210938,24.3466797,32.7626953,32.7626953l16.8759766-11.6865234
		c4.6079102,2.3974609,9.4145508,4.4335938,14.4321289,6.0253906l3.6616211,14.3847656
		c7.4614258,1.6259766,15.1865234,2.5449219,23.15625,2.5449219c7.9521484,0,15.7045898-0.9189453,23.1650391-2.5449219
		l3.6630859-14.3847656c5.0078125-1.5917969,9.8237305-3.6279297,14.4311523-6.0253906l16.8681641,11.6865234
		c13.1503906-8.4160156,24.328125-19.59375,32.7705078-32.7626953l-11.6962891-16.8671875
		c2.390625-4.6074219,4.4345703-9.40625,6.0253906-14.4326172L215.6503906,131.6499023z M111.9741211,139.6928711
		c-17.2490234,0-31.2348633-13.9780273-31.2348633-31.2172852c0-17.2495117,13.9858398-31.2172852,31.2348633-31.2172852
		c17.25,0,31.2177734,13.9677734,31.2177734,31.2172852C143.1918945,125.7148438,129.2241211,139.6928711,111.9741211,139.6928711z"
		/>
	<path fill="#5E5E5E" d="M87.9658203,2.6274414l-2.5063477,0.5463867c0,0-3.0297852,13.8295898-3.7421875,17.0805664
		c-3.5488281,1.230957-7.09375,2.7119141-10.6113281,4.4321289c-2.9780273-2.0654297-17.1674805-11.9047852-17.1674805-11.9047852
		l-2.2441406,1.434082c-13.7607422,8.7939453-25.1962891,20.2255859-33.987793,33.9785156l-1.4350586,2.2446289
		c0,0,9.8408203,14.1918945,11.9057617,17.1689453c-1.7143555,3.5083008-3.1801758,7.0200195-4.3925781,10.5136719
		c-3.5493164,0.6464844-20.5786133,3.7490234-20.5786133,3.7490234L2.637207,84.4741211
		C0.887207,92.4824219,0,100.5576172,0,108.4755859l0,0c0,7.9238281,0.8901367,16.0083008,2.6459961,24.0297852l0.5708008,2.605957
		c0,0,17.0175781,3.078125,20.5698242,3.7207031c1.21875,3.5068359,2.6845703,7.0175781,4.3911133,10.5117188
		c-2.0625,2.9765625-11.8964844,17.1689453-11.8964844,17.1689453l1.4335938,2.2441406
		c8.6469727,13.5302734,20.3955078,25.2802734,33.9760742,33.9765625l2.2436523,1.4375
		c0,0,14.2016602-9.8349609,17.1791992-11.8964844c3.5239258,1.7226562,7.09375,3.2128906,10.6845703,4.453125
		c0.7641602,3.0019531,3.7529297,14.7431641,3.7529297,14.7431641l2.4150391,0.5263672
		c8.0283203,1.75,16.105957,2.6367188,24.0078125,2.6367188l0,0c7.9091797,0,15.9892578-0.8867188,24.0166016-2.6367188
		l2.4150391-0.5263672c0,0,2.9897461-11.7421875,3.7543945-14.7431641c3.5976562-1.2451172,7.1669922-2.734375,10.6826172-4.453125
		c2.9775391,2.0625,17.1708984,11.8964844,17.1708984,11.8964844l2.2441406-1.4365234
		c13.5361328-8.6630859,25.2871094-20.4111328,33.9814453-33.9726562l1.4404297-2.2460938
		c0,0-9.84375-14.1953125-11.9082031-17.1728516c1.7119141-3.5048828,3.1826172-7.0292969,4.4052734-10.5517578
		c3.4130859-0.675293,18.8203125-3.7260742,18.8203125-3.7260742l0.5605469-2.5595703
		c1.7617188-8.0458984,2.6552734-16.1303711,2.6552734-24.0297852c0-7.9101562-0.8935547-15.9873047-2.6552734-24.0058594
		l-0.5615234-2.5527344c0,0-15.3994141-3.0737305-18.8066406-3.7539062
		c-1.2167969-3.5097656-2.6884766-7.0361328-4.4082031-10.5561523c2.0625-2.9770508,11.8955078-17.1694336,11.8955078-17.1694336
		l-1.4345703-2.2436523c-8.65625-13.5390625-20.4072266-25.2880859-33.984375-33.9765625l-2.2451172-1.4365234
		c0,0-14.1884766,9.8378906-17.1689453,11.9042969c-3.5429688-1.7368164-7.0859375-3.2177734-10.6030273-4.4331055
		c-0.7128906-3.2529297-3.7436523-17.078125-3.7436523-17.078125l-2.5058594-0.5463867
		C127.996582,0.8842773,119.9160156,0,111.9741211,0C104.0390625,0,95.9614258,0.8842773,87.9658203,2.6274414z M111.9741211,8
		c6.5488281,0,13.2036133,0.6865234,19.8227539,1.96875c0.8081055,3.6865234,3.5947266,16.3999023,3.5947266,16.3999023
		l2.2119141,0.6948242c4.53125,1.4238281,9.1679688,3.3637695,13.7822266,5.7670898l2.1425781,1.1152344
		c0,0,13.2128906-9.1621094,16.5976562-11.5087891c10.9482422,7.4116211,20.5097656,16.9692383,27.8964844,27.887207
		c-2.34375,3.3837891-11.4970703,16.5952148-11.4970703,16.5952148l1.109375,2.1391602
		c2.3886719,4.6015625,4.3261719,9.2421875,5.7617188,13.7919922l0.7109375,2.2563477c0,0,14.2529297,2.8447266,18.125,3.6176758
		c1.2900391,6.6171875,1.9804688,13.2485352,1.9804688,19.7509766c0,6.4946289-0.6914062,13.1347656-1.9814453,19.7734375
		c-3.8789062,0.7680664-18.1298828,3.5898438-18.1298828,3.5898438l-0.7138672,2.2568359
		c-1.4492188,4.5791016-3.3886719,9.2216797-5.7626953,13.7978516l-1.1103516,2.1396484
		c0,0,9.1572266,13.2060547,11.5058594,16.5917969c-7.4169922,10.9384766-16.9775391,20.4970703-27.8955078,27.890625
		c-3.3847656-2.3457031-16.5976562-11.4990234-16.5976562-11.4990234l-2.140625,1.1132812
		c-4.5097656,2.3466797-9.1508789,4.2851562-13.7963867,5.7617188l-2.1162109,0.6728516
		c0,0-2.722168,10.6894531-3.5839844,14.0742188c-6.675293,1.2998047-13.3632812,1.9951172-19.9160156,1.9951172
		c-6.5463867,0-13.2314453-0.6953125-19.9072266-1.9951172c-0.8613281-3.3847656-3.5825195-14.0751953-3.5825195-14.0751953
		l-2.1186523-0.671875c-4.6293945-1.46875-9.2705078-3.4072266-13.7954102-5.7617188l-2.1401367-1.1132812
		c0,0-13.2192383,9.1542969-16.6044922,11.4990234c-10.9511719-7.4179688-20.5102539-16.9765625-27.8911133-27.8886719
		c2.3442383-3.3828125,11.4990234-16.5947266,11.4990234-16.5947266l-1.1098633-2.1386719
		c-2.3764648-4.5810547-4.3149414-9.2231445-5.7626953-13.7973633l-0.7275391-2.300293c0,0-15.8183594-2.8613281-19.8691406-3.59375
		C8.6850586,121.597168,8,114.9746094,8,108.4755859c0-6.4941406,0.6826172-13.109375,1.9570312-19.703125
		c4.0483398-0.737793,19.8803711-3.6220703,19.8803711-3.6220703l0.7250977-2.300293
		c1.4331055-4.5449219,3.3710938-9.1850586,5.7612305-13.7915039l1.1103516-2.1401367
		c0,0-9.1640625-13.2158203-11.5087891-16.597168c7.4638672-11.0600586,16.828125-20.4213867,27.8950195-27.8867188
		c3.3808594,2.3447266,16.5981445,11.5102539,16.5981445,11.5102539l2.140625-1.112793
		c4.5644531-2.3720703,9.2094727-4.3139648,13.8066406-5.7714844l2.203125-0.6987305c0,0,2.7836914-12.7060547,3.5917969-16.3930664
		C98.7797852,8.6865234,105.4316406,8,111.9741211,8z"/>
	<radialGradient id="XMLID_7_" cx="200.4384766" cy="193.0615234" r="85.025444" gradientUnits="userSpaceOnUse">
		<stop  offset="0" style="stop-color:#B5B5B5"/>
		<stop  offset="1" style="stop-color:#848484"/>
	</radialGradient>
	<path fill="url(#XMLID_7_)" d="M284.5097656,239.75c0.8535156-3.8945312,1.3359375-7.9345703,1.3359375-12.0791016
		c0-4.1455078-0.4824219-8.1855469-1.3359375-12.0664062l-9.6103516-1.9179688
		c-0.8251953-2.6152344-1.8955078-5.1220703-3.140625-7.5224609l6.0908203-8.7929688
		c-4.3916016-6.8691406-10.2275391-12.6894531-17.0820312-17.0761719l-8.7929688,6.0966797
		c-2.4013672-1.2509766-4.9101562-2.3251953-7.5205078-3.1455078l-1.9101562-8.7119141
		c-3.8886719-0.8466797-7.9287109-1.3203125-12.0742188-1.3203125c-4.1542969,0-8.1816406,0.4736328-12.0703125,1.3203125
		l-1.9082031,8.7119141c-2.6152344,0.8291016-5.1210938,1.8945312-7.5283203,3.1455078l-8.7910156-6.0966797
		c-6.8652344,4.3867188-12.6923828,10.2070312-17.0820312,17.0761719l6.0966797,8.7929688
		c-1.2460938,2.4003906-2.3164062,4.9072266-3.140625,7.5224609l-10.53125,1.9179688
		c-0.8476562,3.8808594-1.3261719,7.9208984-1.3261719,12.0664062c0,4.1445312,0.4785156,8.1845703,1.3310547,12.0791016
		l10.5263672,1.9042969c0.8291016,2.6191406,1.8945312,5.1210938,3.140625,7.5224609l-6.0917969,8.7919922
		c4.3847656,6.8642578,10.2265625,12.6894531,17.0771484,17.0771484l8.7958984-6.0917969
		c2.4023438,1.25,4.9082031,2.3105469,7.5234375,3.140625l1.9082031,7.4990234
		c3.8886719,0.8476562,7.9160156,1.3261719,12.0703125,1.3261719c4.1455078,0,8.1855469-0.4785156,12.0742188-1.3261719
		l1.9101562-7.4990234c2.6103516-0.8300781,5.1191406-1.890625,7.5205078-3.140625l8.7929688,6.0917969
		c6.8544922-4.3876953,12.6816406-10.2128906,17.0820312-17.0771484l-6.0957031-8.7919922
		c1.2451172-2.4013672,2.3105469-4.9033203,3.140625-7.5224609L284.5097656,239.75z M230.4697266,243.9433594
		c-8.9912109,0-16.28125-7.2871094-16.28125-16.2724609c0-8.9921875,7.2900391-16.2724609,16.28125-16.2724609
		s16.2714844,7.2802734,16.2714844,16.2724609C246.7412109,236.65625,239.4609375,243.9433594,230.4697266,243.9433594z"/>
	<radialGradient id="XMLID_8_" cx="252.9541016" cy="246.5693359" r="58.6701469" gradientUnits="userSpaceOnUse">
		<stop  offset="0" style="stop-color:#B5B5B5"/>
		<stop  offset="0.2661473" style="stop-color:#ABABAB"/>
		<stop  offset="0.7177709" style="stop-color:#909090"/>
		<stop  offset="1" style="stop-color:#7C7C7C"/>
	</radialGradient>
	<path fill="url(#XMLID_8_)" d="M230.0195312,195.2675781c-17.5576172,0-31.796875,14.2412109-31.796875,31.7900391
		c0,17.5478516,14.2392578,31.8085938,31.796875,31.8085938c17.5673828,0,31.7910156-14.2607422,31.7910156-31.8085938
		C261.8105469,209.5087891,247.5869141,195.2675781,230.0195312,195.2675781z M230.0195312,245.7128906
		c-10.2958984,0-18.6464844-8.3574219-18.6464844-18.6542969s8.3505859-18.6464844,18.6464844-18.6464844
		c10.2910156,0,18.6484375,8.3496094,18.6484375,18.6464844S240.3105469,245.7128906,230.0195312,245.7128906z"/>
	<path fill="#5E5E5E" d="M217.5488281,170.6259766l-2.5078125,0.5458984c0,0-1.4560547,6.6455078-1.9892578,9.0800781
		c-1.2373047,0.4609375-2.4677734,0.9736328-3.6972656,1.5429688c-2.328125-1.6142578-9.0917969-6.3046875-9.0917969-6.3046875
		l-2.2441406,1.4335938c-7.4121094,4.7363281-13.5693359,10.890625-18.2988281,18.2929688l-1.4345703,2.2451172
		c0,0,4.6914062,6.765625,6.3056641,9.09375c-0.5576172,1.203125-1.0595703,2.4023438-1.5087891,3.6044922
		c-2.7802734,0.5068359-10.90625,1.9863281-10.90625,1.9863281l-0.5693359,2.6044922
		c-0.9404297,4.3085938-1.4179688,8.6552734-1.4179688,12.9199219l0,0c0,4.2675781,0.4785156,8.6191406,1.4238281,12.9345703
		l0.5703125,2.6054688c0,0,8.1201172,1.4697266,10.9023438,1.9726562c0.4501953,1.2041016,0.9511719,2.4023438,1.5068359,3.6015625
		c-1.6132812,2.328125-6.3007812,9.09375-6.3007812,9.09375l1.4326172,2.2431641
		c4.6523438,7.2822266,10.9765625,13.6074219,18.2910156,18.2919922l2.2441406,1.4375c0,0,6.7705078-4.6894531,9.0996094-6.3017578
		c1.25,0.578125,2.5068359,1.1005859,3.7744141,1.5683594c0.5507812,2.1621094,2,7.8574219,2,7.8574219l2.4150391,0.5263672
		c4.3164062,0.9414062,8.6640625,1.4179688,12.921875,1.4179688c4.2607422,0,8.609375-0.4765625,12.9257812-1.4179688
		l2.4150391-0.5263672c0,0,1.4501953-5.6962891,2.0009766-7.8574219c1.2685547-0.46875,2.5244141-0.9902344,3.7724609-1.5683594
		c2.3291016,1.6132812,9.0957031,6.3017578,9.0957031,6.3017578l2.2441406-1.4365234
		c7.3935547-4.7324219,13.5478516-10.8857422,18.2929688-18.2871094l1.4394531-2.2460938
		c0,0-4.6933594-6.7695312-6.3066406-9.0976562c0.5605469-1.2119141,1.0664062-2.4238281,1.5205078-3.6416016
		c2.6162109-0.5185547,9.9863281-1.9775391,9.9863281-1.9775391l0.5605469-2.5585938
		c0.9482422-4.3261719,1.4287109-8.6777344,1.4287109-12.9355469c0-4.2646484-0.4804688-8.6132812-1.4296875-12.9257812
		l-0.5605469-2.5517578c0,0-7.3632812-1.4697266-9.9775391-1.9912109c-0.453125-1.2167969-0.9609375-2.4296875-1.5244141-3.6474609
		c1.6132812-2.3271484,6.3007812-9.0947266,6.3007812-9.0947266l-1.4345703-2.2431641
		c-4.6591797-7.2880859-10.9853516-13.6123047-18.2958984-18.2910156l-2.2451172-1.4365234
		c0,0-6.7636719,4.6894531-9.09375,6.3046875c-1.2333984-0.5722656-2.4619141-1.0859375-3.6923828-1.5439453
		c-0.5341797-2.4345703-1.9912109-9.078125-1.9912109-9.078125l-2.5068359-0.5458984
		c-4.3027344-0.9375-8.6513672-1.4121094-12.9248047-1.4121094
		C226.1982422,169.2138672,221.8515625,169.6884766,217.5488281,170.6259766z M230.4697266,177.2138672
		c2.8876953,0,5.8193359,0.3261719,8.7470703,0.8242188c0.5625,2.5654297,1.8261719,8.3291016,1.8261719,8.3291016
		l2.2119141,0.6953125c2.2558594,0.7089844,4.5683594,1.6767578,6.8720703,2.8769531l2.1416016,1.1152344
		c0,0,5.9472656-4.1230469,8.4609375-5.8662109c4.7177734,3.3681641,8.8701172,7.5175781,12.2275391,12.2216797
		c-1.7412109,2.5136719-5.8583984,8.4570312-5.8583984,8.4570312l1.109375,2.1386719
		c1.1933594,2.3007812,2.1611328,4.6171875,2.8769531,6.8847656l0.7119141,2.2558594c0,0,6.4296875,1.2832031,9.2236328,1.8408203
		c0.4980469,2.9111328,0.8251953,5.8232422,0.8251953,8.6835938c0,2.8574219-0.328125,5.7724609-0.8261719,8.6923828
		c-2.7958984,0.5537109-9.2236328,1.8271484-9.2236328,1.8271484l-0.7148438,2.2558594
		c-0.7236328,2.2832031-1.6923828,4.6015625-2.8779297,6.8896484l-1.109375,2.1396484c0,0,4.1210938,5.9433594,5.8632812,8.4560547
		c-3.3857422,4.7519531-7.4794922,8.8447266-12.2255859,12.2226562c-2.5126953-1.7402344-8.4628906-5.8623047-8.4628906-5.8623047
		l-2.140625,1.1142578c-2.2519531,1.171875-4.5683594,2.1396484-6.8857422,2.8769531l-2.1162109,0.6728516
		c0,0-1.2480469,4.8984375-1.8134766,7.1201172c-2.9667969,0.5107422-5.9326172,0.84375-8.8427734,0.84375
		c-2.9082031,0-5.8720703-0.3330078-8.8378906-0.84375c-0.5654297-2.2216797-1.8125-7.1220703-1.8125-7.1220703l-2.1181641-0.671875
		c-2.3125-0.734375-4.6289062-1.7021484-6.8867188-2.8769531l-2.140625-1.1132812c0,0-5.9472656,4.1191406-8.4619141,5.8603516
		c-4.7207031-3.3710938-8.8710938-7.5205078-12.2246094-12.2216797c1.7412109-2.5126953,5.859375-8.4570312,5.859375-8.4570312
		l-1.109375-2.1396484c-1.1865234-2.2861328-2.1552734-4.6035156-2.8779297-6.8867188l-0.7275391-2.2998047
		c0,0-7.1210938-1.2880859-10.1298828-1.8320312c-0.4902344-2.8984375-0.8134766-5.796875-0.8134766-8.6445312
		c0-2.8457031,0.3222656-5.7402344,0.8105469-8.6347656c3.0087891-0.5488281,10.1367188-1.8466797,10.1367188-1.8466797
		l0.7255859-2.3007812c0.7138672-2.2666016,1.6816406-4.5820312,2.875-6.8818359l1.1113281-2.140625
		c0,0-4.125-5.9482422-5.8671875-8.4609375c3.3759766-4.7490234,7.4697266-8.8408203,12.2246094-12.2197266
		c2.5117188,1.7421875,8.4609375,5.8681641,8.4609375,5.8681641l2.1416016-1.1123047
		c2.28125-1.1855469,4.6005859-2.1552734,6.8925781-2.8828125l2.2041016-0.6982422c0,0,1.2607422-5.7568359,1.8222656-8.3222656
		C224.6542969,177.5400391,227.5839844,177.2138672,230.4697266,177.2138672z"/>
	<path fill="#5E5E5E" d="M210.1884766,227.6708984c0,11.1787109,9.0976562,20.2724609,20.28125,20.2724609
		c11.1777344,0,20.2714844-9.09375,20.2714844-20.2724609s-9.09375-20.2724609-20.2714844-20.2724609
		C219.2861328,207.3984375,210.1884766,216.4921875,210.1884766,227.6708984z M218.1884766,227.6708984
		c0-6.7666016,5.5097656-12.2724609,12.28125-12.2724609c6.7666016,0,12.2714844,5.5058594,12.2714844,12.2724609
		s-5.5048828,12.2724609-12.2714844,12.2724609C223.6982422,239.9433594,218.1884766,234.4375,218.1884766,227.6708984z"/>
	
		<linearGradient id="XMLID_9_" gradientUnits="userSpaceOnUse" x1="17.3725586" y1="107.3168945" x2="204.8408203" y2="107.3168945">
		<stop  offset="0" style="stop-color:#949495"/>
		<stop  offset="1" style="stop-color:#6A6A6A"/>
	</linearGradient>
	<path fill="url(#XMLID_9_)" d="M204.1123047,95.5966797l-17.9638672-4.0791016
		c-2.0224609-9.9238281-5.9589844-19.1499023-11.4013672-27.2841797l9.6601562-15.3349609
		c-4.7148438-5.9072266-10.1279297-11.230957-16.1152344-15.8481445l-15.2714844,9.6196289
		c-8.1015625-5.3378906-17.2661133-9.1914062-27.1152344-11.1591797l-3.9272461-17.2963867
		c-3.5673828-0.4121094-7.1933594-0.6313477-10.871582-0.6313477c-4.0571289,0-8.0541992,0.2583008-11.9755859,0.7583008
		L95.2172852,31.578125c-9.7802734,2.0039062-18.8764648,5.8740234-26.9199219,11.2050781L53.4360352,33.421875
		c-6.0493164,4.7280273-11.5024414,10.1816406-16.2294922,16.2314453l9.3603516,14.8603516
		c-5.3305664,8.043457-9.2006836,17.1396484-11.2045898,26.9194336l-17.2319336,3.9125977
		c-0.5,3.9199219-0.7578125,7.9155273-0.7578125,11.9711914c0,3.6806641,0.2192383,7.309082,0.6318359,10.8789062
		l17.2905273,3.9262695c1.9677734,9.8486328,5.8212891,19.0117188,11.1591797,27.1132812l-9.6157227,15.265625
		c4.6181641,5.9882812,9.9423828,11.4023438,15.8510742,16.1171875l15.328125-9.6552734
		c8.1342773,5.4414062,17.3598633,9.3779297,27.2836914,11.4003906l4.0776367,17.9580078
		c3.8417969,0.4804688,7.7553711,0.7294922,11.7275391,0.7294922c3.5927734,0,7.1362305-0.2089844,10.6235352-0.6025391
		l4.0913086-18.0195312c9.9931641-1.984375,19.2861328-5.9052734,27.4785156-11.3525391l15.7519531,9.921875
		c5.8447266-4.6025391,11.1279297-9.8857422,15.7314453-15.7294922l-9.9228516-15.7529297
		c5.4482422-8.1923828,9.3691406-17.4848633,11.3535156-27.4780273l18.0234375-4.0922852
		c0.3945312-3.4892578,0.6035156-7.0341797,0.6035156-10.628418
		C204.8408203,103.3476562,204.5917969,99.4365234,204.1123047,95.5966797z M110.6977539,137.5927734
		c-17.2587891,0-31.25-13.9912109-31.25-31.25s13.9912109-31.25,31.25-31.25s31.25,13.9912109,31.25,31.25
		S127.956543,137.5927734,110.6977539,137.5927734z"/>
	<radialGradient id="XMLID_10_" cx="145.6064453" cy="145.8164062" r="105.7124557" gradientUnits="userSpaceOnUse">
		<stop  offset="0" style="stop-color:#B5B5B5"/>
		<stop  offset="0.2661473" style="stop-color:#ABABAB"/>
		<stop  offset="0.7177709" style="stop-color:#909090"/>
		<stop  offset="1" style="stop-color:#7C7C7C"/>
	</radialGradient>
	<path fill="url(#XMLID_10_)" d="M111.1064453,48.3168945c-32.5849609,0-59,26.4150391-59,59s26.4150391,58.9995117,59,58.9995117
		s59-26.4145508,59-58.9995117S143.6914062,48.3168945,111.1064453,48.3168945z M111.5136719,137.9589844
		c-16.9829102,0-30.75-13.7670898-30.75-30.75s13.7670898-30.75,30.75-30.75s30.75,13.7670898,30.75,30.75
		S128.496582,137.9589844,111.5136719,137.9589844z"/>
	<path fill="#5E5E5E" d="M75.8803711,107.3168945c0,19.4189453,15.8061523,35.2172852,35.2348633,35.2172852
		c19.4189453,0,35.2177734-15.7983398,35.2177734-35.2172852s-15.7988281-35.2172852-35.2177734-35.2172852
		C91.6865234,72.0996094,75.8803711,87.8979492,75.8803711,107.3168945z M83.8803711,107.3168945
		c0-15.0078125,12.2172852-27.2172852,27.2348633-27.2172852c15.0078125,0,27.2177734,12.2094727,27.2177734,27.2172852
		s-12.2099609,27.2172852-27.2177734,27.2172852C96.0976562,134.5341797,83.8803711,122.324707,83.8803711,107.3168945z"/>
</g>
</svg>
