<?xml version="1.0" encoding="iso-8859-1"?>
<!-- Generator: Adobe Illustrator 12.0.1, SVG Export Plug-In . SVG Version: 6.00 Build 51448)  -->
<!DOCTYPE svg PUBLIC "-//W3C//DTD SVG 1.0//EN" "http://www.w3.org/TR/2001/REC-SVG-20010904/DTD/svg10.dtd" [
	<!ENTITY ns_svg "http://www.w3.org/2000/svg">
	<!ENTITY ns_xlink "http://www.w3.org/1999/xlink">
]>
<svg  version="1.0" id="Stop" xmlns="&ns_svg;" xmlns:xlink="&ns_xlink;" width="253.6845703" height="253.684082"
	 viewBox="0 0 253.6845703 253.684082" overflow="visible" enable-background="new 0 0 253.6845703 253.684082"
	 xml:space="preserve">
<g>
	<radialGradient id="XMLID_3_" cx="49.3417969" cy="49.3432617" r="214.1773987" gradientUnits="userSpaceOnUse">
		<stop  offset="0" style="stop-color:#CC464F"/>
		<stop  offset="1" style="stop-color:#AB262D"/>
	</radialGradient>
	<polygon fill="url(#XMLID_3_)" enable-background="new    " points="75.9594727,249.684082 4,177.7250977 4,75.9594727 
		75.9594727,4 177.7255859,4 249.6845703,75.9594727 249.6845703,177.7250977 177.7255859,249.684082 	"/>
	<path fill="#8A010B" d="M74.3027344,0L0,74.3027344v105.0795898l74.3027344,74.3017578h105.0800781l74.3017578-74.3017578
		V74.3027344L179.3828125,0H74.3027344z M176.0683594,8c2.2304688,2.2299805,67.3867188,67.3862305,69.6162109,69.6162109
		c0,3.1538086,0,95.2983398,0,98.4516602c-2.2294922,2.2304688-67.3857422,67.3867188-69.6162109,69.6162109
		c-3.1533203,0-95.2983398,0-98.4521484,0C75.3862305,243.4545898,10.2299805,178.2983398,8,176.0678711
		c0-3.1533203,0-95.2978516,0-98.4516602C10.2299805,75.3862305,75.3862305,10.2299805,77.6162109,8
		C80.7700195,8,172.9150391,8,176.0683594,8z"/>
	<radialGradient id="XMLID_4_" cx="69.8808594" cy="62.7626953" r="176.2146454" gradientUnits="userSpaceOnUse">
		<stop  offset="0" style="stop-color:#CC464F"/>
		<stop  offset="1" style="stop-color:#AB262D"/>
	</radialGradient>
	<polygon fill="url(#XMLID_4_)" enable-background="new    " points="82.6108398,233.6274414 20.0581055,171.0727539 
		20.0581055,82.6103516 82.6108398,20.0571289 171.0742188,20.0571289 233.6279297,82.6103516 233.6279297,171.0727539 
		171.0742188,233.6274414 	"/>
	<path fill="#D9555E" d="M80.9541016,16.0571289L16.0581055,80.9536133v91.7763672l64.8959961,64.8974609h91.7773438
		l64.8964844-64.8974609V80.9536133l-64.8964844-64.8964844H80.9541016z M169.4169922,24.0571289
		c2.2138672,2.2128906,57.9980469,57.9970703,60.2109375,60.2099609c0,3.1298828,0,82.0185547,0,85.1484375
		c-2.2128906,2.2138672-57.9970703,57.9990234-60.2109375,60.2119141c-3.1298828,0-82.0195312,0-85.1494141,0
		c-2.2128906-2.2128906-57.996582-57.9980469-60.2094727-60.2119141c0-3.1289062,0-82.0185547,0-85.1484375
		c2.2133789-2.2128906,57.996582-57.9970703,60.2094727-60.2099609
		C87.3974609,24.0571289,166.2871094,24.0571289,169.4169922,24.0571289z"/>
</g>
</svg>
