<?xml version="1.0" encoding="iso-8859-1"?>
<!-- Generator: Adobe Illustrator 12.0.1, SVG Export Plug-In . SVG Version: 6.00 Build 51448)  -->
<!DOCTYPE svg PUBLIC "-//W3C//DTD SVG 1.0//EN" "http://www.w3.org/TR/2001/REC-SVG-20010904/DTD/svg10.dtd" [
	<!ENTITY ns_svg "http://www.w3.org/2000/svg">
	<!ENTITY ns_xlink "http://www.w3.org/1999/xlink">
]>
<svg  version="1.0" id="Tag" xmlns="&ns_svg;" xmlns:xlink="&ns_xlink;" width="294.5786133" height="183.6450195"
	 viewBox="0 0 294.5786133 183.6450195" overflow="visible" enable-background="new 0 0 294.5786133 183.6450195"
	 xml:space="preserve">
<g>
	<path fill="#EFDEA5" d="M281.3344727,4c0,0-206.0976562,0-217.2451172,0S13.2446289,31.7333984,13.2446289,31.7333984
		C6.3637695,36.3754883,4,40.9780273,4,50.2226562v83.199707c0,9.2451172,3.2290039,14.1757812,9.2446289,18.4902344
		c0,0,36.3681641,27.7324219,50.8447266,27.7324219s217.2451172,0,217.2451172,0
		c5.1015625,0,9.2441406-4.1337891,9.2441406-9.2441406V13.2451172C290.5786133,8.144043,286.4360352,4,281.3344727,4z
		 M54.9350586,109.8422852c-10.0029297,0-18.1098633-8.1162109-18.1098633-18.1191406
		c0-10.0024414,8.1069336-18.1010742,18.1098633-18.1010742c9.9936523,0,18.1098633,8.0986328,18.1098633,18.1010742
		C73.0449219,101.7260742,64.9287109,109.8422852,54.9350586,109.8422852z"/>
	<path fill="#D48F44" d="M64.0893555,0C52.28125,0,17.7548828,23.7026367,10.9536133,28.4545898
		C2.9833984,33.8310547,0,39.7407227,0,50.2226562v83.199707c0,9.7529297,3.2636719,16.2539062,10.9135742,21.7402344
		l-0.0942383-0.0693359c3.8320312,2.9228516,37.8867188,28.5517578,53.2700195,28.5517578h217.2451172
		c7.3027344,0,13.2441406-5.9414062,13.2441406-13.2441406V13.2451172C294.5786133,5.9418945,288.637207,0,281.3344727,0H64.0893555
		z M15.6699219,148.7319336l-0.0942383-0.0693359C10.777832,145.2211914,8,141.6245117,8,133.4223633v-83.199707
		c0-7.8544922,1.6782227-11.2578125,7.4819336-15.1733398C31.5922852,23.7958984,57.2719727,8,64.0893555,8h217.2451172
		c2.8916016,0,5.2441406,2.3530273,5.2441406,5.2451172v157.1557617c0,2.8916016-2.3525391,5.2441406-5.2441406,5.2441406
		H64.0893555C54.534668,175.6450195,29.3193359,159.137207,15.6699219,148.7319336z"/>
	<path fill="#D48F44" d="M32.8251953,91.7231445c0,12.1962891,9.918457,22.1191406,22.1098633,22.1191406
		s22.1098633-9.9228516,22.1098633-22.1191406c0-12.1865234-9.918457-22.1010742-22.1098633-22.1010742
		S32.8251953,79.5366211,32.8251953,91.7231445z M40.8251953,91.7231445c0-7.7753906,6.3295898-14.1010742,14.1098633-14.1010742
		s14.1098633,6.3256836,14.1098633,14.1010742c0,7.7851562-6.3295898,14.1191406-14.1098633,14.1191406
		S40.8251953,99.5083008,40.8251953,91.7231445z"/>
	<radialGradient id="XMLID_2_" cx="71.6796875" cy="55.9130859" r="217.940506" gradientUnits="userSpaceOnUse">
		<stop  offset="0" style="stop-color:#EEDBA1"/>
		<stop  offset="1" style="stop-color:#E1BF7F"/>
	</radialGradient>
	<path fill="url(#XMLID_2_)" d="M273.855957,17.8227539c0,0-204.5654297,0-210.2324219,0s-43.5805664,25-43.5805664,25
		c-1.7587891,1.0908203-3,3.34375-3,5v89c0,1.6572266,1.3032227,2.8662109,3,4c0,0,34.9145508,25,43.5805664,25
		s210.2324219,0,210.2324219,0c1.6572266,0,3-1.3427734,3-3v-142
		C276.855957,19.1665039,275.5131836,17.8227539,273.855957,17.8227539z M54.7895508,122.3208008
		c-16.84375,0-30.4980469-13.6552734-30.4980469-30.4980469c0-16.84375,13.6542969-30.4980469,30.4980469-30.4980469
		s30.4980469,13.6542969,30.4980469,30.4980469C85.2875977,108.6655273,71.6333008,122.3208008,54.7895508,122.3208008z"/>
	<rect x="110.7900391" y="48.4208984" fill="#D48F44" width="146.847168" height="4"/>
	<rect x="110.7900391" y="85.3999023" fill="#D48F44" width="146.847168" height="4"/>
	<rect x="110.7900391" y="122.3764648" fill="#D48F44" width="146.847168" height="4"/>
</g>
</svg>
