<?xml version="1.0" encoding="iso-8859-1"?>
<!-- Generator: Adobe Illustrator 12.0.1, SVG Export Plug-In . SVG Version: 6.00 Build 51448)  -->
<!DOCTYPE svg PUBLIC "-//W3C//DTD SVG 1.0//EN" "http://www.w3.org/TR/2001/REC-SVG-20010904/DTD/svg10.dtd" [
	<!ENTITY ns_svg "http://www.w3.org/2000/svg">
	<!ENTITY ns_xlink "http://www.w3.org/1999/xlink">
]>
<svg  version="1.0" id="User" xmlns="&ns_svg;" xmlns:xlink="&ns_xlink;" width="258.7138672" height="269.7099609"
	 viewBox="0 0 258.7138672 269.7099609" overflow="visible" enable-background="new 0 0 258.7138672 269.7099609"
	 xml:space="preserve">
<g>
	<radialGradient id="XMLID_4_" cx="129.3569336" cy="134.8549805" r="128.1354523" gradientUnits="userSpaceOnUse">
		<stop  offset="0" style="stop-color:#EEDBA1"/>
		<stop  offset="1" style="stop-color:#E1BF7F"/>
	</radialGradient>
	<path fill="url(#XMLID_4_)" enable-background="new    " d="M179.9423828,159.7050781
		c0,0-10.7910156-11.0849609-10.7910156-19.2421875s23.7626953-18.5258789,23.7626953-58.3291016V71.2729492
		C192.9140625,36.171875,164.4570312,4,129.3564453,4S65.7993164,36.171875,65.7993164,71.2729492v10.8608398
		c0,39.8032227,23.7612305,50.171875,23.7612305,58.3291016s-10.7895508,19.2421875-10.7895508,19.2421875
		C43.9882812,161.5322266,4,192.0185547,4,226.5087891v7.6035156
		c24.1347656,18.0820312,71.2216797,31.5976562,125.3564453,31.5976562c54.1357422,0,101.2226562-13.515625,125.3574219-31.5976562
		v-7.6035156C254.7138672,192.0185547,214.7236328,161.5322266,179.9423828,159.7050781z"/>
	<path fill="#D49D3B" d="M81.4790039,21.7568359C68.972168,35.2739258,61.7993164,53.3217773,61.7993164,71.2729492v10.8608398
		c0,28.8525391,12.0249023,43.21875,19.2094727,51.8022461c2.027832,2.4228516,4.5517578,5.4379883,4.5517578,6.5268555
		c0,4.359375-4.9985352,11.3320312-8.7084961,15.421875c-17.3969727,1.3535156-36.3623047,9.4306641-51.0966797,21.9228516
		C9.1469727,191.8876953,0,209.1835938,0,226.5087891v9.6044922l1.6015625,1.2001953
		c26.671875,19.9824219,75.6245117,32.3964844,127.7548828,32.3964844c52.1308594,0,101.0839844-12.4140625,127.7558594-32.3964844
		l1.6015625-1.2001953v-9.6044922c0-17.3251953-9.1474609-34.6210938-25.7558594-48.7011719
		c-14.7353516-12.4921875-33.7001953-20.5693359-51.0966797-21.9228516c-3.7109375-4.0898438-8.7099609-11.0625-8.7099609-15.421875
		c0-1.0888672,2.5234375-4.1040039,4.5517578-6.5268555c7.1855469-8.5834961,19.2109375-22.949707,19.2109375-51.8022461V71.2729492
		c0-17.9511719-7.1728516-35.9990234-19.6796875-49.5161133C164.2519531,7.7265625,147.2490234,0,129.3564453,0
		S94.4609375,7.7265625,81.4790039,21.7568359z M8,226.5087891c0-32.7265625,38.8305664-61.1201172,70.980957-62.8095703
		l1.5639648-0.0820312l1.0922852-1.1220703c1.2207031-1.2539062,11.9233398-12.5244141,11.9233398-22.0322266
		c0-3.9951172-2.8320312-7.378418-6.4169922-11.6616211c-6.9067383-8.2514648-17.3442383-20.7211914-17.3442383-46.6674805
		V71.2729492C69.7993164,37.5668945,97.6298828,8,129.3564453,8s59.5576172,29.5668945,59.5576172,63.2729492v10.8608398
		c0,25.9462891-10.4384766,38.4160156-17.3457031,46.6674805c-3.5849609,4.2832031-6.4169922,7.6665039-6.4169922,11.6616211l0,0
		c0,9.5078125,10.7041016,20.7783203,11.9248047,22.0322266l1.0927734,1.1220703l1.5634766,0.0820312
		c32.1503906,1.6894531,70.9814453,30.0830078,70.9814453,62.8095703c0,0,0,3.3134766,0,5.5117188
		c-25.3818359,18.0664062-72.640625,29.6894531-121.3574219,29.6894531c-48.7163086,0-95.9746094-11.6230469-121.3564453-29.6894531
		C8,229.8222656,8,226.5087891,8,226.5087891z"/>
	
		<radialGradient id="XMLID_5_" cx="114.7587891" cy="37.1606445" r="84.2539597" gradientTransform="matrix(1 0 0 1.0293 0 -1.7267761)" gradientUnits="userSpaceOnUse">
		<stop  offset="0" style="stop-color:#F7EDD1"/>
		<stop  offset="1" style="stop-color:#EEDBA1"/>
	</radialGradient>
	<path opacity="0.7" fill="url(#XMLID_5_)" d="M178.4111328,85.5898438c0,26.5883789-22.1806641,48.1420898-48.0126953,48.1420898
		l0,0c-25.8334961,0-48.0141602-21.5537109-48.0141602-48.1420898V66.6171875
		c0-26.5883789,22.1806641-48.1416016,48.0141602-48.1416016l0,0c25.8320312,0,48.0126953,21.5532227,48.0126953,48.1416016
		V85.5898438z"/>
	
		<linearGradient id="XMLID_6_" gradientUnits="userSpaceOnUse" x1="130.0424805" y1="169.0820312" x2="130.0424805" y2="198.8113251">
		<stop  offset="0" style="stop-color:#EEDBA1"/>
		<stop  offset="1" style="stop-color:#F7EDD1"/>
	</linearGradient>
	<path opacity="0.3" fill="url(#XMLID_6_)" d="M207.4589844,184.0117188c0,7.3779297-32.6132812,16.2207031-77.4189453,16.2207031
		c-44.8007812,0-77.4140625-8.8427734-77.4140625-16.2207031c0-7.3466797,32.6132812-15.8076172,77.4140625-15.8076172
		C174.8457031,168.2041016,207.4589844,176.6650391,207.4589844,184.0117188z"/>
</g>
</svg>
