<?xml version="1.0" encoding="iso-8859-1"?>
<!-- Generator: Adobe Illustrator 12.0.1, SVG Export Plug-In . SVG Version: 6.00 Build 51448)  -->
<!DOCTYPE svg PUBLIC "-//W3C//DTD SVG 1.0//EN" "http://www.w3.org/TR/2001/REC-SVG-20010904/DTD/svg10.dtd" [
	<!ENTITY ns_svg "http://www.w3.org/2000/svg">
	<!ENTITY ns_xlink "http://www.w3.org/1999/xlink">
]>
<svg  version="1.0" id="Warning" xmlns="&ns_svg;" xmlns:xlink="&ns_xlink;" width="290.8286133" height="235.059082"
	 viewBox="0 0 290.8286133 235.059082" overflow="visible" enable-background="new 0 0 290.8286133 235.059082"
	 xml:space="preserve">
<g>
	<path fill="#EFDEA5" enable-background="new    " d="M5.8046875,215.8608398
		C8.4790039,210.425293,128.5795898,19.2099609,132.328125,13.0766602C136.0771484,6.9433594,138.3056641,4,144.5039062,4
		c6.1977539,0,8.2758789,2.3354492,12.1762695,8.8549805c3.9511719,6.6040039,126.1748047,199.0498047,128.3095703,202.65625
		s2.6035156,6.8789062,0.3359375,10.9111328s-4.2587891,4.6367188-9.0488281,4.6367188s-257.2895508,0-262.1918945,0
		s-6.3911133-1.4257812-8.3916016-4.6367188S3.1855469,221.184082,5.8046875,215.8608398z"/>
	<path fill="#D48F44" d="M128.9150391,10.9907227c-0.9819336,1.6064453-10.2724609,16.4306641-23.1308594,36.9482422
		C54.4194336,129.8979492,4.112793,210.2387695,2.215332,214.0952148h0.0004883
		c-2.9780273,6.0527344-2.9580078,9.5615234,0.0825195,14.4423828c2.6352539,4.2294922,5.2939453,6.5214844,11.7866211,6.5214844
		h262.1918945c5.8242188,0,9.3613281-1.0322266,12.5351562-6.6757812c2.8066406-4.9912109,2.6865234-9.7294922-0.3798828-14.9091797
		c-0.9814453-1.6582031-25.2089844-39.8652344-53.2626953-84.1044922
		C201.003418,75.4902344,162.2788086,14.4213867,160.112793,10.8012695C156.0922852,4.0805664,153.034668,0,144.5039062,0
		C135.6333008,0,132.3701172,5.3383789,128.9150391,10.9907227z M112.5629883,52.1875
		c13.3520508-21.3051758,22.1728516-35.3798828,23.1782227-37.0249023C139.5053711,9.0043945,140.7338867,8,144.5039062,8
		c3.8549805,0,4.9418945,0.5537109,8.7436523,6.9086914c2.2197266,3.7094727,40.9736328,64.824707,75.1660156,118.7451172
		c26.8378906,42.3232422,52.1875,82.2988281,53.1337891,83.8955078c1.6025391,2.7060547,1.6757812,4.4511719,0.2919922,6.9121094
		c-1.2949219,2.3037109-1.6123047,2.5976562-5.5625,2.5976562H14.0849609c-3.2822266,0-3.5776367-0.4736328-4.996582-2.7519531
		c-0.6479492-1.0400391-1.0664062-1.7119141-1.0664062-2.6416016c0-0.90625,0.3979492-2.0576172,1.3676758-4.0292969
		C11.7504883,213.0473633,79.8378906,104.4047852,112.5629883,52.1875z"/>
	
		<radialGradient id="XMLID_4_" cx="99.6738281" cy="86.5668945" r="194.7310181" gradientTransform="matrix(1 0 0 1.1315 0 -6.62677)" gradientUnits="userSpaceOnUse">
		<stop  offset="0" style="stop-color:#EEDBA1"/>
		<stop  offset="1" style="stop-color:#E1BF7F"/>
	</radialGradient>
	<path fill="url(#XMLID_4_)" d="M23.8891602,208.0756836C26.375,203.4907227,133.7358398,33.5498047,136.6582031,28.1401367
		c2.9228516-5.4111328,5.4135742-9.9321289,8.0473633-9.9321289s5.4189453,4.4677734,8.4599609,10.2202148
		c3.0810547,5.824707,112.4189453,177.8369141,114.0839844,181.0205078
		c1.6650391,3.1806641,3.2978516,6.2607422,2.2148438,8.0791016c-1.0830078,1.8173828-4.9912109,1.8720703-8.7265625,1.8720703
		c-3.734375,0-227.9472656,0-231.7695312,0s-8.125-0.0019531-9.0454102-1.5322266
		C19.0024414,216.3383789,22.1865234,211.215332,23.8891602,208.0756836z"/>
	<radialGradient id="XMLID_5_" cx="139.4941406" cy="184.9291992" r="11.8126278" gradientUnits="userSpaceOnUse">
		<stop  offset="0" style="stop-color:#E1A655"/>
		<stop  offset="1" style="stop-color:#D48049"/>
	</radialGradient>
	<path fill="url(#XMLID_5_)" d="M157.1811523,191.1030273c0,3.5117188-1.2226562,6.4628906-3.6679688,8.8564453
		s-5.3984375,3.5908203-8.8515625,3.5908203c-3.4042969,0-6.328125-1.1972656-8.7734375-3.5908203
		s-3.6689453-5.3447266-3.6689453-8.8564453s1.1962891-6.4892578,3.5888672-8.9375
		c2.3916016-2.4453125,5.34375-3.6699219,8.8535156-3.6699219c3.5078125,0,6.4707031,1.2099609,8.8916016,3.6308594
		C155.972168,184.5463867,157.1811523,187.5395508,157.1811523,191.1030273z"/>
	<path opacity="0.3" fill="#D48F44" d="M132.2192383,191.1030273c0-3.5117188,1.1962891-6.4892578,3.5888672-8.9375
		c2.3916016-2.4453125,5.34375-3.6699219,8.8535156-3.6699219c2.1132812,0,4.0263672,0.4472656,5.7441406,1.3261719
		c-0.3291016-0.4238281-0.6787109-0.8378906-1.0722656-1.2314453c-2.4199219-2.4208984-5.3833008-3.6308594-8.8911133-3.6308594
		c-3.5097656,0-6.4619141,1.2246094-8.8535156,3.6699219C129.1962891,181.0776367,128,184.0551758,128,187.5668945
		s1.2236328,6.4628906,3.6689453,8.8564453c0.9536133,0.9335938,1.9824219,1.6787109,3.081543,2.2480469
		C133.0722656,196.5307617,132.2192383,194.012207,132.2192383,191.1030273z"/>
	<path opacity="0.6" fill="#F7EBC4" d="M157.5532227,186.1264648c-0.6982422-0.6982422-1.4462891-1.2832031-2.234375-1.7792969
		c1.234375,1.9619141,1.8623047,4.2109375,1.8623047,6.7558594c0,3.5117188-1.2226562,6.4628906-3.6679688,8.8564453
		s-5.3984375,3.5908203-8.8515625,3.5908203c-2.4570312,0-4.6601562-0.6337891-6.6176758-1.8808594
		c0.5112305,0.8105469,1.1166992,1.578125,1.8442383,2.2900391c2.4453125,2.3935547,5.3691406,3.5908203,8.7734375,3.5908203
		c3.453125,0,6.40625-1.1972656,8.8515625-3.5908203s3.6679688-5.3447266,3.6679688-8.8564453
		C161.1811523,191.5395508,159.972168,188.5463867,157.5532227,186.1264648z"/>
	<path opacity="0.3" fill="#D48F44" d="M132.0405273,90.2978516c-0.6835938-6.0161133-1.0244141-10.6328125-1.0244141-13.8466797
		c0-5.1967773,1.3662109-9.0258789,4.1005859-11.4882812c2.7324219-2.4609375,5.8417969-3.6933594,9.3271484-3.6933594
		c2.5712891,0,4.8583984,0.5351562,6.8701172,1.5864258c-0.3671875-0.4916992-0.7568359-0.9599609-1.1972656-1.3779297
		c-2.6308594-2.4956055-5.9291992-3.7446289-9.8920898-3.7446289c-3.4853516,0-6.5947266,1.2324219-9.3271484,3.6933594
		c-2.734375,2.4624023-4.1005859,6.2915039-4.1005859,11.4882812c0,3.2138672,0.3408203,7.8305664,1.0244141,13.8466797
		l12.2011719,70.6020508L132.0405273,90.2978516z"/>
	<path opacity="0.6" fill="#F7EBC4" d="M158.3364258,69.0141602c-0.6757812-0.640625-1.3964844-1.1962891-2.1601562-1.6723633
		c1.3984375,2.3393555,2.1064453,5.3706055,2.1064453,9.109375c0,2.1191406-0.0703125,4.034668-0.2050781,5.7441406
		c-0.1367188,1.7099609-0.4101562,4.4111328-0.8193359,8.1025391l-7.9960938,67.1860352h-9.1992188l0.4501953,4h12.7490234
		l7.9960938-67.1860352c0.4091797-3.6914062,0.6826172-6.3925781,0.8193359-8.1025391
		c0.1347656-1.7094727,0.2050781-3.625,0.2050781-5.7441406C162.2827148,75.3222656,160.9663086,71.5097656,158.3364258,69.0141602z
		"/>
	<radialGradient id="XMLID_6_" cx="116.8706055" cy="171.3852539" r="51.0418587" gradientUnits="userSpaceOnUse">
		<stop  offset="0" style="stop-color:#E1A655"/>
		<stop  offset="1" style="stop-color:#D48049"/>
	</radialGradient>
	<path fill="url(#XMLID_6_)" d="M158.2827148,76.4511719c0,2.1191406-0.0703125,4.034668-0.2050781,5.7441406
		c-0.1367188,1.7099609-0.4101562,4.4111328-0.8193359,8.1025391l-7.9960938,67.1860352h-9.2255859l-7.9960938-67.1860352
		c-0.6835938-6.0161133-1.0244141-10.6328125-1.0244141-13.8466797c0-5.1967773,1.3662109-9.0258789,4.1005859-11.4882812
		c2.7324219-2.4609375,5.8417969-3.6933594,9.3271484-3.6933594c3.9628906,0,7.2607422,1.2490234,9.8925781,3.7446289
		C156.9663086,67.5097656,158.2827148,71.3222656,158.2827148,76.4511719z"/>
</g>
</svg>
