<?xml version="1.0" encoding="iso-8859-1"?>
<!-- Generator: Adobe Illustrator 12.0.1, SVG Export Plug-In . SVG Version: 6.00 Build 51448)  -->
<!DOCTYPE svg PUBLIC "-//W3C//DTD SVG 1.0//EN" "http://www.w3.org/TR/2001/REC-SVG-20010904/DTD/svg10.dtd" [
	<!ENTITY ns_svg "http://www.w3.org/2000/svg">
	<!ENTITY ns_xlink "http://www.w3.org/1999/xlink">
]>
<svg  version="1.0" id="Web_Browser" xmlns="&ns_svg;" xmlns:xlink="&ns_xlink;" width="260" height="260" viewBox="0 0 260 260"
	 overflow="visible" enable-background="new 0 0 260 260" xml:space="preserve">
<g>
	<path fill="#FFFFFF" enable-background="new    " d="M256,243c0,7.1796875-5.8203125,13-13,13H17c-7.1796875,0-13-5.8203125-13-13
		V17C4,9.8203125,9.8203125,4,17,4h226c7.1796875,0,13,5.8203125,13,13V243z"/>
	<path fill="#8FB0DE" d="M243,8H17c-4.9624023,0-9,4.0375977-9,9v26.7143555h244V17C252,12.0375977,247.9628906,8,243,8z"/>
	<path fill="#7FA3D1" d="M97.3833008,252H243c4.9628906,0,9-4.0371094,9-9V107.4194336
		c-1.9785156-0.0791016-3.9648438-0.1313477-5.9628906-0.1313477C165.2431641,107.2880859,99.5039062,171.71875,97.3833008,252z"/>
	<radialGradient id="XMLID_11_" cx="101.9306641" cy="111.1689453" r="211.8735352" gradientUnits="userSpaceOnUse">
		<stop  offset="0" style="stop-color:#C5DFFF"/>
		<stop  offset="1" style="stop-color:#8EB1DE"/>
	</radialGradient>
	<path fill="url(#XMLID_11_)" d="M106.1494141,252H243c4.9628906,0,9-4.0371094,9-9V116.1870117
		c-1.9775391-0.0834961-3.9648438-0.1362305-5.9628906-0.1362305C170.0839844,116.0507812,108.2666016,176.5566406,106.1494141,252z
		"/>
	<radialGradient id="XMLID_12_" cx="36.1542969" cy="23.1489258" r="187.588913" gradientUnits="userSpaceOnUse">
		<stop  offset="0" style="stop-color:#8FB0DE"/>
		<stop  offset="1" style="stop-color:#769AC9"/>
	</radialGradient>
	<path fill="url(#XMLID_12_)" d="M15.8295898,43.7143555h227.3344727V20.3256836c0-2.2089844-1.7910156-4-4-4H19.8295898
		c-2.2089844,0-4,1.7910156-4,4V43.7143555z"/>
	<path fill="#5F83B3" d="M238.2285156,30.4892578c0,4.1772461-3.3896484,7.559082-7.5673828,7.559082
		c-4.1953125,0-7.5761719-3.3818359-7.5761719-7.559082c0-4.1860352,3.3808594-7.5766602,7.5761719-7.5766602
		C234.8388672,22.9125977,238.2285156,26.3032227,238.2285156,30.4892578z"/>
	<path fill="#5F83B3" d="M210.453125,30.4892578c0,4.1772461-3.390625,7.559082-7.5673828,7.559082
		c-4.1953125,0-7.5771484-3.3818359-7.5771484-7.559082c0-4.1860352,3.3818359-7.5766602,7.5771484-7.5766602
		C207.0625,22.9125977,210.453125,26.3032227,210.453125,30.4892578z"/>
	<radialGradient id="XMLID_13_" cx="225.5722656" cy="25.1420898" r="11.5358486" gradientUnits="userSpaceOnUse">
		<stop  offset="0" style="stop-color:#FFFFFF"/>
		<stop  offset="1" style="stop-color:#E6E6E6"/>
	</radialGradient>
	<path fill="url(#XMLID_13_)" d="M236.2285156,28.4892578c0,4.1772461-3.3896484,7.559082-7.5673828,7.559082
		c-4.1953125,0-7.5761719-3.3818359-7.5761719-7.559082c0-4.1860352,3.3808594-7.5766602,7.5761719-7.5766602
		C232.8388672,20.9125977,236.2285156,24.3032227,236.2285156,28.4892578z"/>
	<radialGradient id="XMLID_14_" cx="116.6669922" cy="109.6665039" r="183.2513733" gradientUnits="userSpaceOnUse">
		<stop  offset="0" style="stop-color:#95C393"/>
		<stop  offset="1" style="stop-color:#6AA467"/>
	</radialGradient>
	<polygon fill="url(#XMLID_14_)" points="227.3251953,186.5 225.0068359,183.6005859 223.5556641,180.7138672 
		221.5205078,180.1298828 220.0849609,179.5458984 221.8291016,177.8115234 221.8291016,175.5009766 218.6337891,173.1748047 
		217.7675781,171.4316406 216.5917969,169.9960938 216.3076172,167.0957031 218.3417969,165.9345703 220.3603516,167.3867188 
		222.0966797,167.0957031 225.0068359,169.1201172 228.4833984,172.5986328 227.0244141,173.4667969 229.3505859,175.5009766 
		231.3779297,178.9697266 230.5107422,180.7138672 226.7314453,177.8115234 225.5810547,180.7138672 228.4833984,183.3164062 
		228.4833984,186.5 	"/>
	<radialGradient id="XMLID_15_" cx="116.6669922" cy="109.6665039" r="183.2512512" gradientUnits="userSpaceOnUse">
		<stop  offset="0" style="stop-color:#95C393"/>
		<stop  offset="1" style="stop-color:#6AA467"/>
	</radialGradient>
	<polygon fill="url(#XMLID_15_)" points="222.4765625,157.3193359 225.0712891,158.8330078 226.8076172,157.5449219 
		228.3291016,154.9345703 229.6435547,153.4121094 231.8076172,152.1132812 231.1582031,150.1601562 228.7753906,150.5976562 
		226.5927734,152.1132812 225.7265625,152.3242188 223.7744141,151.4658203 223.5556641,152.9804688 223.1240234,154.4970703 
		219.8583984,155.8027344 218.1240234,157.0976562 217.4736328,157.9755859 215.9599609,157.3193359 213.9970703,157.5449219 
		215.3095703,159.0615234 216.8261719,159.9287109 218.7744141,159.9287109 219.6474609,161.6708984 220.7255859,163.1953125 
		222.9072266,163.4150391 222.4765625,161.6708984 221.3740234,160.5771484 220.2871094,158.8330078 221.1650391,157.7558594 	"/>
	<radialGradient id="XMLID_16_" cx="116.6669922" cy="109.6665039" r="183.251297" gradientUnits="userSpaceOnUse">
		<stop  offset="0" style="stop-color:#95C393"/>
		<stop  offset="1" style="stop-color:#6AA467"/>
	</radialGradient>
	<polygon fill="url(#XMLID_16_)" points="238.7529297,215.7412109 238.7529297,213.5761719 239.8496094,212.0605469 
		240.0683594,210.0996094 240.7080078,211.1855469 241.1533203,213.3574219 243.5380859,214.0058594 244.8427734,215.0927734 
		246.7880859,217.2724609 244.6240234,217.2724609 242.4580078,217.4921875 242.2412109,219.2265625 241.1533203,218.7890625 
		240.9287109,217.0546875 240.0683594,215.9609375 	"/>
	<path fill="url(#XMLID_16_)" d="M181.1982422,141.8925781l2.3925781,0.4443359l3.2578125,1.0947266l2.6103516-0.2285156
		l2.1640625-2.1542969l1.9560547-3.0566406v-1.515625l1.7587891-1.59375c-4.8779297,2.0439453-9.6054688,4.375-14.1640625,6.9707031
		L181.1982422,141.8925781z"/>
	<radialGradient id="XMLID_18_" cx="197.796875" cy="25.1420898" r="11.5358486" gradientUnits="userSpaceOnUse">
		<stop  offset="0" style="stop-color:#FFFFFF"/>
		<stop  offset="1" style="stop-color:#E6E6E6"/>
	</radialGradient>
	<path fill="url(#XMLID_18_)" d="M208.453125,28.4892578c0,4.1772461-3.390625,7.559082-7.5673828,7.559082
		c-4.1953125,0-7.5771484-3.3818359-7.5771484-7.559082c0-4.1860352,3.3818359-7.5766602,7.5771484-7.5766602
		C205.0625,20.9125977,208.453125,24.3032227,208.453125,28.4892578z"/>
	<g>
		<rect x="28.1943359" y="141.8105469" fill="#B0B0B0" width="80.6894531" height="4"/>
	</g>
	<g>
		<rect x="28.1943359" y="170.6445312" fill="#B0B0B0" width="60.6894531" height="4"/>
	</g>
	<g>
		<rect x="28.1943359" y="199.4765625" fill="#B0B0B0" width="50.6894531" height="4"/>
	</g>
	<g>
		<rect x="28.1943359" y="84.4345703" fill="#B0B0B0" width="110.6894531" height="4"/>
	</g>
	<g>
		<rect x="28.1943359" y="113.2685547" fill="#B0B0B0" width="110.6894531" height="4"/>
	</g>
	<path fill="#5F83B3" d="M17,0C7.6259766,0,0,7.6259766,0,17v226c0,9.3740234,7.6259766,17,17,17h226
		c9.3740234,0,17-7.6259766,17-17V17c0-9.3740234-7.6259766-17-17-17H17z M8,243V17c0-4.9624023,4.0375977-9,9-9h226
		c4.9628906,0,9,4.0375977,9,9v226c0,4.9628906-4.0371094,9-9,9H17C12.0375977,252,8,247.9628906,8,243z"/>
	<radialGradient id="XMLID_19_" cx="116.6669922" cy="109.6665039" r="183.2519836" gradientUnits="userSpaceOnUse">
		<stop  offset="0" style="stop-color:#95C393"/>
		<stop  offset="1" style="stop-color:#6AA467"/>
	</radialGradient>
	<path fill="url(#XMLID_19_)" d="M194.6005859,247.5996094l2.0253906-3.1943359l4.6269531-3.4619141l3.4785156-3.4863281
		l1.4511719-1.734375v-2.6015625l1.7441406-0.859375l0.2910156,2.8847656l1.7089844-1.734375c0,0,0-0.8652344,1.46875-2.0195312
		c1.4501953-1.1748047,2.3261719-3.1923828,2.3261719-3.1923828l2.5859375-0.5839844l2.9003906-1.4414062l1.1523438-1.7441406
		l1.1601562-2.3183594l1.4589844-0.5742188l2.3095703-1.4443359l1.4423828,0.8681641l-1.1503906,1.4423828l0.5761719,1.4511719
		l2.3261719-1.1601562l1.1601562-2.0253906h2.0185547l1.7353516,1.1503906l1.1640625-2.0185547l0.8769531-2.0263672
		l-1.4667969-0.875l-1.4423828,1.1669922l-1.1513672,0.8681641l-1.734375-0.3007812l-1.7421875-1.1425781l-0.8769531-1.1757812
		l0.3007812-2.3105469l0.5761719-2.0253906l-2.8945312-0.8691406l0.5742188-2.0166016l2.3203125,1.1591797h5.2011719
		l1.7363281,1.1503906l1.7509766-2.0263672l2.6025391-2.8935547l0.2832031-2.9023438l-2.3105469-2.3183594l-2.6035156-3.46875
		l-1.4589844-3.4726562l-1.1503906-3.4765625l-2.0244141-0.2910156v3.1855469l-0.8603516,1.7265625l-1.7421875-1.1445312
		l-2.3183594-2.0244141l-1.1601562-2.6201172l-1.4423828-2.8847656l-1.7431641-2.0253906l-2.609375-0.2929688v2.6005859
		l0.8662109,2.6025391v1.4599609l-2.3261719,0.2841797l-0.8603516,3.4785156l-1.1416016,2.8945312l-1.1679688,2.6015625
		l-0.3007812,2.9091797l-1.1494141,3.1787109l-1.4433594,3.1835938l-1.734375,1.4433594l-2.0449219-0.5664062v-2.3271484
		l-0.5664062-2.3173828v-4.3447266l-1.7412109-2.3115234l-1.1503906-2.0351562l-1.4521484-2.0253906l-2.0351562-1.7363281
		l-0.5751953-2.3095703l-2.0263672-0.8759766v-2.8925781l-0.5761719-2.0273438l1.4423828-3.484375l2.6103516-1.1435547
		l1.4511719-0.2998047l2.6015625,0.8671875l2.3261719,0.5761719l-0.3085938-1.7275391l0.8691406-0.8681641l0.875,0.8681641
		l1.7421875-0.5839844l1.4433594,0.2919922l1.1669922,1.1601562l0.5761719-1.4521484v-2.0185547l-0.5761719-2.3261719
		l-1.7431641,0.2998047l-1.4404297-0.5917969l0.2646484-1.4423828l-1.4335938-1.1601562l0.8759766-2.3105469l-2.9013672,0.8681641
		l-3.7617188-2.3173828l-2.3261719-0.8769531l-3.7539062-5.2041016l-2.9023438-2.0341797l-2.8945312-3.4628906l-2.6191406-1.7421875
		l-0.5742188-2.9023438l0.5742188-3.1933594l0.6015625-2.0185547l-3.1943359,0.5839844l-1.1591797,1.1591797l-1.1503906-0.3007812
		l-1.1611328,1.1591797l-1.1748047,0.8837891l-1.1513672-0.5917969h-6.078125l-1.4345703,2.0341797l-0.8759766,1.7353516
		l-2.6103516-0.2910156v1.7421875l-0.859375,1.4511719l-2.9121094,0.2910156l-4.9199219,1.1523438h4.3457031l3.1933594,1.1582031
		l2.0273438,0.8681641l1.1513672,1.7421875l-0.8662109,2.0283203l-0.2851562,3.7519531l-0.875,3.1943359l1.1601562,2.0263672
		l-0.8613281,1.734375l-0.8671875,2.0273438l-1.4511719,2.0195312l-2.3261719,4.6445312l-1.1503906,2.0253906l-2.0273438,2.8867188
		l-1.4599609,2.6171875l-0.8583984,1.734375l-1.453125,1.7421875l-0.2822266,1.7285156l-1.4501953-1.1503906l-1.4599609,1.4345703
		l-2.5917969,2.9091797l-3.1884766,2.3115234l-2.3261719,3.484375l-1.4414062,2.3115234l-1.1601562,4.0527344l-0.8671875,3.7617188
		l-0.5761719,5.7958984l-0.5742188,4.0605469l-1.1601562,4.6279297l0.5820312,5.2050781v7.8144531l-0.3066406,2.0253906
		l0.5908203,2.3261719l1.1611328,1.1601562V246.15625l0.2832031-4.9287109l0.2919922-4.6376953l-0.5751953-3.1777344
		l0.8671875-1.734375l2.0185547-0.2851562l0.8662109,1.1542969v2.8837891l0.3095703,3.7783203l0.2666016,4.0429688v7.5400391
		L147.3496094,252h16.9648438l0.4541016-1.2080078l1.1503906-3.1923828l2.0429688-2.59375l2.8857422-0.8759766l5.2207031,0.5654297
		l4.6376953,2.0371094h2.0166016l1.4521484,1.7333984l3.1923828-1.7333984l2.3115234,0.8671875v3.1923828L189.8388672,252h5.0595703
		l-0.0078125-0.0566406L194.6005859,247.5996094z"/>
	<radialGradient id="XMLID_20_" cx="116.6669922" cy="109.6665039" r="183.2512665" gradientUnits="userSpaceOnUse">
		<stop  offset="0" style="stop-color:#95C393"/>
		<stop  offset="1" style="stop-color:#6AA467"/>
	</radialGradient>
	<polygon fill="url(#XMLID_20_)" points="245.2724609,151.4658203 244.6962891,152.9082031 241.8017578,153.7753906 
		239.1923828,154.6347656 236.5898438,155.5097656 234.2626953,154.9345703 232.5292969,156.3769531 232.5292969,158.4121094 
		230.7939453,160.4316406 233.3974609,161.0234375 234.8388672,160.4316406 236.5898438,160.7236328 237.75,164.2080078 
		239.7666016,165.6523438 241.8017578,166.8027344 243.5380859,175.7851562 244.9873047,180.9980469 246.4306641,181.8574219 
		249.0488281,183.6005859 252,185.5078125 252,157.6875 248.7412109,154.6347656 	"/>
	<path opacity="0.5" fill="#C5DFFF" d="M106.1494141,252h7.1323242
		c2.9487305-71.4375,61.9760742-128.6479492,134.1245117-128.6479492c1.5380859,0,3.0683594,0.0356445,4.59375,0.0874023v-7.2524414
		c-1.9775391-0.0834961-3.9648438-0.1362305-5.9628906-0.1362305C170.0839844,116.0507812,108.2666016,176.5566406,106.1494141,252z
		"/>
	<path opacity="0.25" fill="#7FA3D1" d="M242.9941406,107.3266602v133.0063477c0,1.1044922-0.8955078,2-2,2H97.956543
		C97.6655273,245.5283203,97.472168,248.75,97.3857422,252H243c4.9628906,0,9-4.0371094,9-9V107.4194336
		c-1.9785156-0.0791016-3.9648438-0.1313477-5.9628906-0.1313477
		C245.0195312,107.2880859,244.0068359,107.3061523,242.9941406,107.3266602z"/>
</g>
</svg>
