<?xml version="1.0" encoding="iso-8859-1"?>
<!-- Generator: Adobe Illustrator 12.0.1, SVG Export Plug-In . SVG Version: 6.00 Build 51448)  -->
<!DOCTYPE svg PUBLIC "-//W3C//DTD SVG 1.0//EN" "http://www.w3.org/TR/2001/REC-SVG-20010904/DTD/svg10.dtd" [
	<!ENTITY ns_svg "http://www.w3.org/2000/svg">
	<!ENTITY ns_xlink "http://www.w3.org/1999/xlink">
]>
<svg  version="1.0" id="Zoom_In" xmlns="&ns_svg;" xmlns:xlink="&ns_xlink;" width="286.2075195" height="288.5874023"
	 viewBox="0 0 286.2075195 288.5874023" overflow="visible" enable-background="new 0 0 286.2075195 288.5874023"
	 xml:space="preserve">
<g>
	
		<linearGradient id="XMLID_5_" gradientUnits="userSpaceOnUse" x1="153.2944336" y1="143.3608398" x2="139.0108032" y2="157.6444702">
		<stop  offset="0" style="stop-color:#A3A3A3"/>
		<stop  offset="1" style="stop-color:#737373"/>
	</linearGradient>
	<path fill="url(#XMLID_5_)" d="M145.0766602,127.5727539c-5.7099609,7.8950195-12.859375,14.6723633-21.0683594,19.9560547
		l24.7490234,24.7490234c0.1240234,0.125,0.2597656,0.2314453,0.3867188,0.3505859
		c1.3964844-5.1376953,4.2548828-10.1923828,8.5185547-14.4599609c3.3203125-3.3261719,7.0136719-5.7197266,10.8076172-7.2099609
		L145.0766602,127.5727539z"/>
	
		<linearGradient id="XMLID_6_" gradientUnits="userSpaceOnUse" x1="231.722168" y1="200.3588867" x2="201.8773346" y2="230.2037201">
		<stop  offset="0" style="stop-color:#80467D"/>
		<stop  offset="0.314607" style="stop-color:#A877A6"/>
		<stop  offset="0.988764" style="stop-color:#80467D"/>
	</linearGradient>
	<path fill="url(#XMLID_6_)" enable-background="new    " d="M275.6625977,237.6225586
		c9.3173828,9.3076172,8.8300781,26.2216797-2.3818359,37.4257812l-1.6552734,1.3496094
		c-11.2226562,11.2099609-26.0039062,10.3027344-35.3134766,0.9746094l-82.0742188-82.0654297
		c-9.3085938-9.3085938-7.7675781-25.9365234,3.4248047-37.1386719l0,0
		c11.1943359-11.2128906,26.6142578-11.9208984,35.9140625-2.6123047L275.6625977,237.6225586z"/>
	<path fill="#692C65" d="M177.878418,145.1166992c-8.2792969,0.0009766-16.4648438,3.6328125-23.046875,10.2255859
		c-12.7353516,12.7470703-14.2709961,31.9443359-3.421875,42.7929688l82.0742188,82.0654297
		c5.3896484,5.4013672,12.3925781,8.3808594,19.7158203,8.3867188c7.5488281,0.0058594,14.9853516-3.2382812,20.9892578-9.1191406
		c0.0693359-0.0556641,1.7763672-1.4472656,1.7763672-1.4472656l0.1425781-0.1435547
		c6.4189453-6.4140625,10.0996094-15.0429688,10.0996094-23.6757812c0,0,0-0.0009766,0-0.0019531
		c0-7.5439453-2.7412109-14.4355469-7.7177734-19.4072266c-0.0029297-0.0019531-82.0849609-82.0654297-82.0849609-82.0654297
		C191.5004883,147.8188477,184.9204102,145.1147461,177.878418,145.1166992z M239.1430664,274.5473633l-82.0771484-82.0683594
		c-7.7304688-7.7314453-6.1943359-21.8544922,3.4267578-31.4833984c5.0712891-5.0800781,11.2460938-7.8779297,17.3876953-7.8789062
		c4.9736328-0.0009766,9.4228516,1.8203125,12.8662109,5.2666016l82.0888672,82.0693359
		c3.4638672,3.4599609,5.3720703,8.3427734,5.3720703,13.7470703c0,0.0009766,0,0.0019531,0,0.0019531
		c0,6.4824219-2.7939453,13.0019531-7.6611328,17.9150391c-0.3173828,0.2587891-1.6054688,1.3085938-1.6054688,1.3085938
		l-0.1425781,0.1425781c-4.5966797,4.5917969-9.9833984,7.0195312-15.5771484,7.0195312c-0.0048828,0-0.0107422,0-0.015625,0
		C248.0209961,280.5834961,243.0268555,278.4379883,239.1430664,274.5473633z M278.4897461,234.7924805l0.0009766,0.0009766
		L278.4897461,234.7924805z"/>
	<circle fill="#FFFFFF" enable-background="new    " cx="81.9538574" cy="81.9536133" r="77.9538574"/>
	<path fill="#696969" d="M0,81.9536133c0,45.1894531,36.7646484,81.9541016,81.9541016,81.9541016
		s81.9536133-36.7646484,81.9536133-81.9541016S127.1435547,0,81.9541016,0S0,36.7641602,0,81.9536133z M8,81.9536133
		C8,41.175293,41.1757812,8,81.9541016,8s73.9536133,33.175293,73.9536133,73.9536133s-33.175293,73.9541016-73.9536133,73.9541016
		S8,122.7319336,8,81.9536133z"/>
	<radialGradient id="XMLID_7_" cx="56.3325195" cy="46.730957" r="97.6746979" gradientUnits="userSpaceOnUse">
		<stop  offset="0" style="stop-color:#E6E6E6"/>
		<stop  offset="0.4400261" style="stop-color:#E4E4E4"/>
		<stop  offset="0.6808658" style="stop-color:#DCDCDC"/>
		<stop  offset="0.8729741" style="stop-color:#CECECE"/>
		<stop  offset="1" style="stop-color:#C0C0C0"/>
	</radialGradient>
	<path fill="url(#XMLID_7_)" d="M142.1630859,81.9536133c0,33.2456055-26.9677734,60.2055664-60.2041016,60.2055664
		c-33.2548828,0-60.2138672-26.9599609-60.2138672-60.2055664c0-33.2446289,26.9589844-60.2045898,60.2138672-60.2045898
		C112.3535156,21.7490234,142.1630859,48.7089844,142.1630859,81.9536133z"/>
	<radialGradient id="XMLID_8_" cx="73.8994141" cy="73.234375" r="33.6521111" gradientUnits="userSpaceOnUse">
		<stop  offset="0" style="stop-color:#CC464F"/>
		<stop  offset="1" style="stop-color:#AB262D"/>
	</radialGradient>
	<path fill="url(#XMLID_8_)" enable-background="new    " d="M125.8305664,70.2636719H93.5161133V37.9482422
		c0-2.8837891-2.3388672-5.2216797-5.2207031-5.2216797H75.6137695c-2.8837891,0-5.2226562,2.3378906-5.2226562,5.2216797
		v32.3154297H38.0776367c-2.8847656,0-5.2226562,2.3383789-5.2226562,5.2216797v12.6811523
		c0,2.8842773,2.3378906,5.2226562,5.2226562,5.2226562h32.3134766v32.3134766c0,2.8837891,2.3388672,5.2216797,5.2226562,5.2216797
		h12.6816406c2.8818359,0,5.2207031-2.3378906,5.2207031-5.2216797V93.3891602h32.3144531
		c2.8847656,0,5.2226562-2.3383789,5.2226562-5.2226562V75.4853516
		C131.0532227,72.6020508,128.715332,70.2636719,125.8305664,70.2636719z"/>
	<path fill="#8A010B" d="M75.6137695,30.7265625c-3.9824219,0-7.2226562,3.2397461-7.2226562,7.2216797
		c0,0,0,26.7954102,0,30.3154297c-3.5200195,0-30.3134766,0-30.3134766,0c-3.9824219,0-7.2226562,3.2397461-7.2226562,7.2216797
		v12.6811523c0,3.9824219,3.2402344,7.2226562,7.2226562,7.2226562c0,0,26.793457,0,30.3134766,0
		c0,3.5200195,0,30.3134766,0,30.3134766c0,3.9819336,3.2402344,7.2216797,7.2226562,7.2216797h12.6816406
		c3.9814453,0,7.2207031-3.2397461,7.2207031-7.2216797c0,0,0-26.793457,0-30.3134766c3.5200195,0,30.3144531,0,30.3144531,0
		c3.9824219,0,7.2226562-3.2402344,7.2226562-7.2226562V75.4853516c0-3.9819336-3.2402344-7.2216797-7.2226562-7.2216797
		c0,0-26.7944336,0-30.3144531,0c0-3.5200195,0-30.3154297,0-30.3154297c0-3.9819336-3.2392578-7.2216797-7.2207031-7.2216797
		H75.6137695z M34.8549805,88.1665039V75.4853516c0-1.7763672,1.4458008-3.2216797,3.2226562-3.2216797h34.3134766V37.9482422
		c0-1.7763672,1.4458008-3.2216797,3.2226562-3.2216797h12.6816406c1.7758789,0,3.2207031,1.4453125,3.2207031,3.2216797v34.3154297
		h34.3144531c1.7768555,0,3.2226562,1.4453125,3.2226562,3.2216797v12.6811523c0,1.7768555-1.4458008,3.2226562-3.2226562,3.2226562
		H91.5161133v34.3134766c0,1.7763672-1.4448242,3.2216797-3.2207031,3.2216797H75.6137695
		c-1.7768555,0-3.2226562-1.4453125-3.2226562-3.2216797V91.3891602H38.0776367
		C36.3007812,91.3891602,34.8549805,89.9433594,34.8549805,88.1665039z"/>
	<path opacity="0.5" fill="#A4A4A4" d="M99.4355469,43.7250977c0-2.4316406-1.6704102-4.4570312-3.9194336-5.0380859v29.5766602
		h3.9194336V43.7250977z"/>
	<path opacity="0.5" fill="#A4A4A4" d="M133.0532227,76.2241211v11.9423828c0,3.9824219-3.2402344,7.2226562-7.2226562,7.2226562
		c0,0-26.7944336,0-30.3144531,0c0,3.5200195,0,30.3134766,0,30.3134766c0,3.9819336-3.2392578,7.2216797-7.2207031,7.2216797
		H76.5385742c0.6303711,2.1757812,2.6157227,3.7768555,4.9946289,3.7768555h12.6816406
		c2.8818359,0,5.2207031-2.3378906,5.2207031-5.2216797V99.1660156H131.75c2.8847656,0,5.2226562-2.3383789,5.2226562-5.2226562
		V81.262207C136.9726562,78.831543,135.3032227,76.8061523,133.0532227,76.2241211z"/>
	<path opacity="0.5" fill="#A4A4A4" d="M43.9970703,99.1660156h24.394043v-3.7768555H39.0024414
		C39.6328125,97.5649414,41.6176758,99.1660156,43.9970703,99.1660156z"/>
</g>
</svg>
